<svg viewBox="0 0 48 48" class="createSvgIcon__Svg-sc-1l8xi8d-0 loXvaP"><path d="M6 21.75h12.938v4.5H6v-4.5Zm23.063 0H42v4.5H29.062v-4.5ZM26.25 6v12.938h-4.5V6h4.5Zm0 23.063V42h-4.5V29.062h4.5Z"/><path fill-rule="evenodd" clip-rule="evenodd" d="M28.291 34.098a11.013 11.013 0 0 0 5.905-6.045l3.659 1.456a14.95 14.95 0 0 1-8.021 8.212l-1.543-3.623Zm6.006-14.177a11.013 11.013 0 0 0-6.045-5.904l1.456-3.659a14.95 14.95 0 0 1 8.212 8.021l-3.623 1.542ZM19.442 34.098a11.013 11.013 0 0 1-5.905-6.045L9.878 29.51a14.95 14.95 0 0 0 8.021 8.212l1.543-3.623Zm-6.005-14.177a11.013 11.013 0 0 1 6.044-5.904l-1.456-3.659a14.95 14.95 0 0 0-8.211 8.021l3.623 1.542Z"/></svg>