<svg width="72" height="72" fill="none" xmlns="http://www.w3.org/2000/svg"><g opacity=".15" fill="#BC7DFF"><path d="M1.316 25.754C4.687 14.254 13.62 5.133 25.006 1.5l2.803 2.803L9.701 34.14l-8.385-8.386ZM.38 29.801c.166-.971.371-1.93.613-2.872l8.143 8.142-7.443 12.264a35.871 35.871 0 0 1-1.005-3.672l2.502-4.171v-6.88l-2.81-2.81ZM42.563 5.94 69.31 50.01c-4.05 9.575-12.11 17.042-22.073 20.296L36.005 59.075l-11.23 11.23C14.81 67.053 6.75 59.586 2.7 50.01L29.447 5.94l6.558 6.559 6.558-6.559Zm28.76 37.722a35.86 35.86 0 0 1-1.006 3.673L62.874 35.07l8.143-8.142c.242.943.447 1.901.613 2.872l-2.81 2.81v6.88l2.503 4.171Zm-9.014-9.522 8.385-8.386C67.323 14.255 58.39 5.134 47.004 1.5L44.2 4.303 62.309 34.14Z"/><path d="m36.005 62.069 8.91 8.91c-1.206.305-2.435.55-3.685.73l-5.225-5.224-5.225 5.225a35.97 35.97 0 0 1-3.684-.732l8.909-8.909Zm0-53.275-6.88-6.88h3.892l2.988 2.988 2.988-2.989h3.893l-6.881 6.88Z"/></g><path d="M28.119 57.884C20.994 54.825 16.004 47.745 16.004 39.5c0-3.784 1.05-7.323 2.877-10.34C15.157 25.477 10.42 18.613 13.87 8l-.284.433c-2.507 3.814-7.033 10.699-2.318 20.678-2.413-1.81-4.29-6.802-3.62-12.063-1.65 4.643-3.627 11.948 2.406 19.377-2.405-.679-5.663-6.244-5.723-9.726l-.025.199c-.348 2.746-1.593 12.57 9.375 17.896-1.41-.21-5.934-1.206-9.048-6.032 1.11 4.143 3.772 9.65 11.696 11.469h-.124c-1.88.001-5.112.003-8.458-2.522 2.307 2.522 6.302 6.425 11.943 6.004.168.193.35.42.42.51-1.23.431-4.5.763-7.742-1.35 1.26 1.35 5.072 5.013 10.593 4.083.48.384 1.18.96 1.47 1.2.345-.238 1.477-.495 3.688-.272Z" fill="url(#a)"/><path d="M43.886 57.884c2.208-.223 3.338.034 3.682.273.29-.24.99-.817 1.47-1.201 5.523.93 9.334-2.732 10.594-4.083-3.24 2.113-6.512 1.781-7.742 1.35.07-.09.252-.317.42-.51 5.642.42 9.636-3.482 11.943-6.004-3.346 2.525-6.577 2.523-8.458 2.522h-.124c7.925-1.818 10.586-7.326 11.696-11.469-3.114 4.825-7.637 5.822-9.048 6.032 10.968-5.325 9.723-15.149 9.375-17.895l-.016-.125-.01-.076c-.06 3.483-3.317 9.048-5.722 9.727 6.033-7.429 4.055-14.734 2.405-19.377.67 5.262-1.206 10.254-3.619 12.063 4.715-9.98.19-16.864-2.318-20.678A161.82 161.82 0 0 1 58.13 8c3.45 10.611-1.285 17.474-5.009 21.157A19.905 19.905 0 0 1 56 39.5c0 8.245-4.99 15.325-12.114 18.384Z" fill="url(#b)"/><path d="M36 55c9.389 0 17-7.555 17-16.875 0-5.198-2.368-9.848-6.092-12.943C51.218 28.47 54 33.66 54 39.5c0 9.94-8.058 17.998-17.998 17.998-9.94 0-17.998-8.058-17.998-17.998 0-5.82 2.762-10.994 7.047-14.284C21.35 28.31 19 32.946 19 38.125 19 47.445 26.611 55 36 55Z" fill="url(#c)"/><path d="M49 44.452 36.002 22.5 23.004 44.452l4.121 2.863 7.026-4.316h-4.083l5.934-11.273 5.934 11.273h-4.128l7.07 4.316L49 44.452Z" fill="url(#d)"/><defs><linearGradient id="a" x1="36" y1="8" x2="36" y2="58.157" gradientUnits="userSpaceOnUse"><stop stop-color="#BC7DFF"/><stop offset="1" stop-color="#A34CFF"/></linearGradient><linearGradient id="b" x1="36" y1="8" x2="36" y2="58.157" gradientUnits="userSpaceOnUse"><stop stop-color="#BC7DFF"/><stop offset="1" stop-color="#A34CFF"/></linearGradient><linearGradient id="c" x1="36" y1="8" x2="36" y2="58.157" gradientUnits="userSpaceOnUse"><stop stop-color="#BC7DFF"/><stop offset="1" stop-color="#A34CFF"/></linearGradient><linearGradient id="d" x1="36" y1="8" x2="36" y2="58.157" gradientUnits="userSpaceOnUse"><stop stop-color="#BC7DFF"/><stop offset="1" stop-color="#A34CFF"/></linearGradient></defs></svg>