<svg width="72" height="72" fill="none" xmlns="http://www.w3.org/2000/svg"><path opacity=".15" fill-rule="evenodd" clip-rule="evenodd" d="M1.307 25.786C4.67 14.272 13.61 5.136 25.007 1.5l2.802 2.803L9.686 34.166l-8.38-8.38ZM.38 29.801c.168-.982.376-1.951.622-2.905l8.15 8.15-7.459 12.289a35.873 35.873 0 0 1-1.005-3.672l2.502-4.171v-6.88l-2.81-2.81Zm70.943 13.861a35.85 35.85 0 0 1-1.006 3.672l-7.458-12.288 8.15-8.15c.245.954.453 1.923.621 2.905l-2.81 2.81v6.88l2.503 4.171ZM47.003 1.5C58.4 5.136 67.34 14.272 70.704 25.787l-8.379 8.379L44.201 4.303 47.004 1.5Zm20.769 51.697a35.97 35.97 0 0 0 1.596-3.33L42.654 5.85 40.403 8.1l27.369 45.096Zm-65.13-3.33a35.988 35.988 0 0 0 1.597 3.33L31.607 8.101l-2.25-2.251L2.641 49.868ZM39.675 8.83l27.532 45.366a36.296 36.296 0 0 1-16.166 14.623L36.712 54.49l-.707-.707-.707.707-14.329 14.33A36.296 36.296 0 0 1 4.803 54.194L32.335 8.83l3.67 3.67 3.67-3.67Zm-3.67 46.367L50.06 69.251a36.4 36.4 0 0 1-2.823 1.055l-9.817-9.817-1.414-1.414-1.414 1.414-9.817 9.817a35.853 35.853 0 0 1-2.823-1.055l14.054-14.055Zm0 6.707 9.041 9.042c-1.247.32-2.52.577-3.816.765l-5.225-5.225-5.225 5.225a35.969 35.969 0 0 1-3.816-.765l9.041-9.042Zm0-53.11-6.88-6.88h3.892l2.988 2.989 2.988-2.989h3.893l-6.881 6.88Z" fill="#FC5045"/><path d="M11.86 14.91c-1.448.15-1.224-.104-.448-.328a3.562 3.562 0 0 0 .324-.053c.102-.02.204-.045.311-.07l.007-.002h.003a7.501 7.501 0 0 1 1.744-.233c1.284-.03.403.687-.075.687h-.055a6.91 6.91 0 0 1-.121-.003l-.057-.002-.049-.002-.1-.004-.15-.007h-.002c-.459-.02-1-.045-1.332.018Z" fill="url(#a)"/><path d="M15.055 15.926c-.329-.09-.463-.463.18-.568.163 0 .219.062.289.14l.03.035c.02.021.042.043.068.064.299.24-.239.418-.567.329Z" fill="url(#b)"/><path d="M17.702 15.554c-.583-.224-1.1-.186-.74.161.36.348 1.191.725 1.183.468-.009-.257-.137-.46-.443-.63Z" fill="url(#c)"/><path d="M20.848 23.903c-.174-.452.165-.782.643-1.086.253.168.198.255.099.41l-.001.002-.026.041-.029.049a.934.934 0 0 0-.121.34c-.079.513-.391.695-.565.244Z" fill="url(#d)"/><path d="M20.639 25.156c-.087.812.099 1.025.301 1.258l.031.036.029.033c.038.046.063.066.079.065.012 0 .018-.013.02-.037a.677.677 0 0 0-.01-.123 6.51 6.51 0 0 0-.023-.14 3.679 3.679 0 0 1-.066-.593c0-.5-.16-.998-.361-.5Z" fill="url(#e)"/><path d="M60.14 14.91c1.448.15 1.224-.104.448-.328a3.867 3.867 0 0 1-.477-.086 20.992 20.992 0 0 1-.158-.037l-.007-.002h-.003a7.501 7.501 0 0 0-1.744-.233c-1.284-.03-.403.687.075.687.07 0 .148-.002.233-.005l.141-.006.158-.007h.002c.459-.02 1-.045 1.332.018Z" fill="url(#f)"/><path d="M56.945 15.926c.328-.09.463-.463-.18-.568-.163 0-.218.062-.288.14a.908.908 0 0 1-.1.1c-.298.238.24.417.568.328Z" fill="url(#g)"/><path d="M54.298 15.554c.583-.224 1.1-.186.74.161-.36.348-1.191.725-1.183.468.009-.257.137-.46.443-.63Z" fill="url(#h)"/><path d="M51.152 23.903c.174-.452-.165-.782-.643-1.086-.253.168-.198.255-.099.41l.001.002.026.041.029.049a.934.934 0 0 1 .121.34c.079.513.391.695.565.244Z" fill="url(#i)"/><path d="M51.361 25.156c.087.812-.099 1.025-.301 1.258l-.031.036-.029.033c-.132.157-.108.013-.066-.235.03-.17.066-.39.066-.593 0-.5.16-.998.361-.5Z" fill="url(#j)"/><path fill-rule="evenodd" clip-rule="evenodd" d="M35.837 55.908a3.636 3.636 0 0 1 .326 0c.139.006.27.019.392.03.361.035.627.06.7-.122l.02-.052c.124-.311.23-.576.608-.576.4 0 .967.89 1.255 1.883.63 2.169.628 6.276.628 6.276s1.068-3.612 1.013-6.962l-.003-.147-.007-.334v-.002c-.044-2.044.252-5.107 1.308-5.876-.428.769-.943 2.466-.428 3.907 1.098-.366 1.926-.977 1.926-.977s.811-.439.7-1.332a40.081 40.081 0 0 0-.025-.195l-.024-.184c-.105-.797-.079-1.091 0-1.705 1.14 1.134 1.188 6.276 1.188 6.276s1.099-2.277 1.003-3.779l-.012-.18c-.066-1.065-.033-1.93.4-2.43.432-.5 1.098-1.498 1.165-2.73.066-1.232.14-2.468 1.837-3.434 1.415-.804 1.239-1.087.824-1.267a2.721 2.721 0 0 1-.264-.126c-.533-.3-1.02-1.278-1.187-1.744-.166-.467-.561-1.033-.628 0-.017.269-.008.489.001.688.025.564.042.96-.583 1.822-.292.402-1.3 1.963-1.3 1.963s.322-1.218.627-1.963l.051-.124c.357-.87.475-1.157.346-1.723-.157-.684-.189-1.825.626-3.406.572-1.108 2.098-2.472 3.457-3.685l.003-.003.006-.005.003-.003c.573-.512 1.116-.997 1.544-1.425a18 18 0 0 1 .516-.493l.068-.063.147-.134.002-.002c1.17-1.069 2.144-1.96 1.691-3.994-.13-.59-.33-1.203-.531-1.822-.635-1.952-1.29-3.969.096-5.561.79-.845 2.097-1.444 4.113-1.362 2.016.082 6.866 1.825 6.757 8.01 0 2.151-1.362 5.802-2.806 8.69s-2.752 6.729-2.125 10.734C61.855 50.064 63 50 63 50h-.008S62 48.426 62 46c-.054-1.662.16-3.359 2.72-6.11 2.561-2.752 7.465-8.446 7.275-14.848-.191-6.402-1.58-8.146-5.095-11.47-3.514-3.323-7.165-3.895-11.578-3.432-4.414.463-12.805 5.285-11.334 13.567 1.335 5.449.845 8.119.327 9.372a12.688 12.688 0 0 1-.359.486c-.428.556-.427.858-.424 1.922l.001.316c0 1.812.03 2.11.782 1.417 0 0 2.982-2.743 4.005-3.705-.395 1.59-1.199 2.985-2.278 4.728-.934 1.508-2.018 3.063-2.735 3.627 0 .117.11.093.226.068.136-.029.28-.06.265.131a3.109 3.109 0 0 1-.027.24c-.061.497-.196 1.588-.196 4.2 0 1.09-.044 1.148-.044 1.148s-.486-1.722-.605-3.057c-.121-1.365-.425-2.05-.65-1.964l-.627 1.012s-.21.24-.515.243c-.206.002-.456-.104-.714-.466a7.658 7.658 0 0 0-.45-.572l-.097-.113c-.203-.236-.366-.426-.489-.67-.245-.382-.327-.818.436-1.281.59-.359 1.214-.93 1.655-1.333l.089-.082c.092-.084.175-.159.245-.22l.026-.022.022-.018.04-.033.046-.038.023-.018.04-.032.024-.019.032-.024c.191-.144.214-.161.214-.707v-2.51c0-.26.006-.542.013-.83.023-1.04.047-2.162-.212-2.601a5.038 5.038 0 0 1-.172-.317l-.034-.068c-.298-.592-.43-.854-1.478.05a6.659 6.659 0 0 0-.078.068l-.065.058c-.307.276-.653.585-1.74 1.129-.964.482-1.105 1.294-1.267 2.225-.153.885-.325 1.878-1.243 2.796-.918-.918-1.09-1.91-1.243-2.796-.162-.93-.303-1.743-1.267-2.225-1.087-.544-1.433-.853-1.74-1.129l-.045-.04-.051-.045-.047-.042c-1.047-.903-1.18-.64-1.478-.05l-.075.148a4.9 4.9 0 0 1-.131.238c-.26.439-.235 1.56-.212 2.6.007.289.013.57.013.83v2.51c0 .547.023.564.214.708l.02.015.037.028.029.023.01.009.023.018.046.038.062.05.026.023a10.437 10.437 0 0 1 .334.302c.441.404 1.064.974 1.655 1.333.763.463.68.899.436 1.28-.123.245-.286.435-.49.671-.158.185-.34.397-.546.685-.258.362-.508.468-.714.466-.305-.003-.515-.243-.515-.243l-.627-1.012c-.225-.086-.529.6-.65 1.963-.119 1.336-.605 3.058-.605 3.058s-.044-.057-.044-1.147c0-2.613-.135-3.704-.196-4.202a5.703 5.703 0 0 1-.027-.239c-.015-.19.13-.16.265-.13.116.024.226.048.226-.07-.717-.563-1.8-2.118-2.735-3.626-1.08-1.743-1.883-3.138-2.278-4.728a832.63 832.63 0 0 0 4.005 3.705c.753.692.782.395.782-1.417v-.316c.004-1.064.005-1.366-.423-1.922l-.143-.188a10.072 10.072 0 0 1-.216-.298c-.518-1.253-1.008-3.923.327-9.372 1.47-8.282-6.92-13.104-11.334-13.567-4.413-.463-8.064.11-11.578 3.433C1.585 16.896.196 18.64.005 25.043c-.19 6.401 4.713 12.095 7.274 14.847C9.84 42.64 10.055 44.338 10 46c0 2.426-1 4-1 4s1.145.064 1.74-3.735c.626-4.005-.682-7.846-2.126-10.734s-2.806-6.538-2.806-8.69c-.109-6.185 4.74-7.928 6.757-8.01 2.016-.082 3.323.517 4.113 1.362 1.386 1.592.73 3.61.096 5.56-.201.62-.4 1.232-.532 1.823-.452 2.035.522 2.925 1.692 3.994l.002.002.147.134.068.063c.17.158.344.32.516.493.429.428.973.914 1.547 1.428l.006.005.003.003c1.359 1.213 2.885 2.577 3.457 3.685.815 1.58.783 2.722.627 3.406-.13.566-.012.853.345 1.723l.05.124c.306.745.628 1.963.628 1.963s-1.008-1.56-1.3-1.963c-.625-.863-.608-1.258-.583-1.822l.007-.183a6.497 6.497 0 0 0 .002-.308 4.741 4.741 0 0 0-.008-.197c-.067-1.033-.462-.467-.628 0-.166.466-.654 1.444-1.187 1.744a1.905 1.905 0 0 1-.157.079l-.054.024-.053.023c-.415.18-.591.463.823 1.267 1.698.966 1.772 2.202 1.838 3.434.067 1.232.733 2.23 1.165 2.73.433.5.466 1.365.4 2.43l-.012.18c-.096 1.502 1.003 3.779 1.003 3.779s.049-5.142 1.188-6.276c.079.614.105.908 0 1.705l-.024.184-.012.095-.012.1c-.112.893.699 1.332.699 1.332s.828.61 1.926.977c.515-1.441 0-3.138-.428-3.907 1.056.769 1.352 3.832 1.308 5.876v.002l-.003.122-.004.212-.003.147c-.055 3.35 1.013 6.962 1.013 6.962s-.003-4.107.628-6.276c.288-.992.856-1.883 1.255-1.883.379 0 .484.265.607.576l.02.052c.074.182.34.157.701.122.121-.011.253-.024.392-.03ZM9.895 40.162c.134-.648-.392-1.68-1.006-2.886l-.277-.549-.134-.27c-.267-.53-.504-.828-.914-1.342-.32-.402-.747-.936-1.375-1.818-.809-1.135-.805-1.54-.8-1.982.003-.34.007-.701-.361-1.432-.846-1.68-.869-2.278-.654-2.176.214.101.236-.226.056-.914-.18-.687-.27-1.161-.27-2.525.043-2.591 1.032-3.704 1.871-4.648l.064-.072a13.23 13.23 0 0 0 .418-.491 4.66 4.66 0 0 0 .206-.28c.544-.806.682-.49.829-.154.08.186.164.378.321.39.188.015.304-.252.46-.612.209-.48.489-1.124 1.107-1.485 1.083-.631 1.376-.045 1.297.17-.08.214-.135.53.688 0s.953-.435.326.137c-.626.573.027.6.79 0l.04-.03.053-.043c.7-.552 1.076-.85 2.904-.771 1.907.082 2.18.899 2.043 1.825-.09.61.152.428.421.225.139-.105.285-.215.397-.225.326-.027.435.354.572.9.127.508.04.708-.327 1.555l-.032.073-.05.115c-1.187 2.01-.45 1.504.178 1.073.266-.182.512-.35.585-.31.245.136-.082.953-.926 2.152-.727 1.031-.849 1.8-1.025 2.916l-.02.13-.021.13-.051.311c-.246 1.444.272 1.28.653 1.035.195-.125.212.07.233.313.02.231.044.506.23.586.185.08.191-.2.198-.508.006-.328.014-.69.238-.69.277 0 .323.22.432.735.062.297.145.692.304 1.199.436 1.39.545 1.47.463.218-.082-1.253-.082-1.608.518-.954.26.283.284.5.319.807.046.402.11.96.743 2.027 1.117 1.88.627-.055.3-.627s-.9-3.133 0-2.86c.799.241.716.01.573-.388l-.025-.07-.02-.058-.01-.03c-.05-.151-.174-.342-.318-.564-.322-.497-.747-1.153-.69-1.887.081-1.063.381-2.67 1.008-2.97.49-.234.396-.635.19-1.528-.058-.25-.125-.537-.19-.87-.3-1.525-1.39-3.132-4.032-4.794-2.413-1.517-4.803-1.286-6.838-1.09-.194.02-.385.038-.573.055-2.101.186-4.02 1.749-5.607 3.04l-.114.092c-1.607 1.308-2.97 4.087-2.942 8.065.027 3.977 1.063 6.211 2.288 7.764 1.226 1.553 2.425 3.978 2.67 4.74.071.22.126.438.173.622.115.453.182.715.318.386.19-.463.408-.327.436 0 .027.327.517.763.517.463s.027-.899.436 0l.04.09.063.14.046.103c.303.686.445 1.008.587.321Zm24.222 6.24c-.194-.072-.583.494-.627.627a31.07 31.07 0 0 1-.711 1.884l-.065.16c-.317.786-.537 1.36-.48 1.722.085.535.35.835.774 1.318l.12.137a20.815 20.815 0 0 1 .361.428c.213.261.354.486.469.67.21.338.336.539.661.578a.108.108 0 0 0 .085-.027.123.123 0 0 0 .04-.092v-.502c0-.627-.243-1.209-.627-1.883a3.828 3.828 0 0 0-.16-.256 8.823 8.823 0 0 0-.129-.184c-.192-.27-.339-.477-.339-.815 0-.556.085-1.062.628-2.51.184-.49.187-1.186 0-1.255Zm27.988-6.24c-.134-.648.392-1.68 1.006-2.886l.105-.207.113-.224.059-.118.134-.27c.267-.53.504-.828.914-1.342.32-.402.747-.936 1.375-1.818.809-1.135.805-1.54.8-1.982-.003-.34-.007-.701.361-1.432.846-1.68.869-2.278.654-2.176-.214.101-.236-.226-.056-.914.18-.687.27-1.161.27-2.525-.043-2.591-1.032-3.704-1.871-4.648l-.064-.072a23.443 23.443 0 0 1-.348-.403 6.211 6.211 0 0 1-.276-.368c-.544-.806-.682-.49-.829-.154-.08.186-.164.378-.321.39-.188.015-.304-.252-.46-.612-.209-.48-.489-1.124-1.107-1.485-1.083-.631-1.376-.045-1.297.17.08.214.135.53-.688 0s-.953-.435-.326.137c.626.573-.027.6-.79 0l-.04-.03-.053-.043c-.7-.552-1.076-.85-2.904-.771-1.907.082-2.18.899-2.043 1.825.09.61-.152.428-.421.225-.139-.105-.285-.215-.397-.225-.326-.027-.435.354-.572.9-.127.508-.04.708.327 1.555l.032.073.05.115c1.187 2.01.45 1.504-.178 1.073-.266-.182-.512-.35-.585-.31-.245.136.082.953.926 2.152.727 1.031.849 1.8 1.025 2.916l.02.13.021.13.025.154.026.157c.246 1.444-.272 1.28-.653 1.035-.196-.125-.212.07-.233.313-.02.231-.044.506-.23.586-.185.08-.191-.2-.198-.508-.006-.328-.014-.69-.239-.69-.276 0-.322.22-.43.735-.035.162-.075.352-.13.574-.046.186-.102.394-.175.625-.436 1.39-.545 1.47-.463.218.082-1.253.082-1.608-.518-.954-.26.283-.284.5-.319.807-.046.402-.11.96-.743 2.027-1.117 1.88-.627-.055-.3-.627s.9-3.133 0-2.86c-.799.241-.716.01-.573-.388l.025-.07.03-.087c.05-.152.174-.343.318-.565.322-.497.747-1.153.69-1.887-.081-1.063-.381-2.67-1.008-2.97-.49-.234-.397-.635-.19-1.528l.036-.151.04-.174.022-.102c.03-.137.061-.285.092-.442.3-1.526 1.39-3.133 4.032-4.795 2.413-1.517 4.803-1.286 6.838-1.09.194.02.385.038.573.055 2.101.186 4.02 1.749 5.607 3.04l.114.092c1.607 1.308 2.97 4.087 2.942 8.065-.027 3.977-1.063 6.211-2.288 7.764-1.226 1.553-2.425 3.978-2.67 4.74-.071.22-.126.438-.173.622-.115.453-.182.715-.318.386-.19-.463-.408-.327-.436 0-.027.327-.517.763-.517.463s-.028-.899-.436 0l-.04.09-.063.14-.045.103c-.303.686-.446 1.008-.588.321Zm-24.222 6.24c.194-.072.583.494.627.627.24.72.494 1.348.711 1.884l.065.16c.317.786.537 1.36.48 1.722-.085.535-.35.835-.774 1.318l-.227.26c-.08.094-.165.195-.255.305a5.994 5.994 0 0 0-.468.671c-.21.337-.336.538-.661.577a.108.108 0 0 1-.085-.027.123.123 0 0 1-.04-.092v-.502c0-.627.243-1.209.627-1.883a3.956 3.956 0 0 1 .235-.364l.054-.076c.192-.27.339-.477.339-.815 0-.556-.085-1.062-.628-2.51-.184-.49-.187-1.186 0-1.255Z" fill="url(#k)"/><defs><linearGradient id="a" x1="36" y1="10" x2="36" y2="63.347" gradientUnits="userSpaceOnUse"><stop stop-color="#FC5045"/><stop offset="1" stop-color="#E3362B"/></linearGradient><linearGradient id="b" x1="36" y1="10" x2="36" y2="63.347" gradientUnits="userSpaceOnUse"><stop stop-color="#FC5045"/><stop offset="1" stop-color="#E3362B"/></linearGradient><linearGradient id="c" x1="36" y1="10" x2="36" y2="63.347" gradientUnits="userSpaceOnUse"><stop stop-color="#FC5045"/><stop offset="1" stop-color="#E3362B"/></linearGradient><linearGradient id="d" x1="36" y1="10" x2="36" y2="63.347" gradientUnits="userSpaceOnUse"><stop stop-color="#FC5045"/><stop offset="1" stop-color="#E3362B"/></linearGradient><linearGradient id="e" x1="36" y1="10" x2="36" y2="63.347" gradientUnits="userSpaceOnUse"><stop stop-color="#FC5045"/><stop offset="1" stop-color="#E3362B"/></linearGradient><linearGradient id="f" x1="36" y1="10" x2="36" y2="63.347" gradientUnits="userSpaceOnUse"><stop stop-color="#FC5045"/><stop offset="1" stop-color="#E3362B"/></linearGradient><linearGradient id="g" x1="36" y1="10" x2="36" y2="63.347" gradientUnits="userSpaceOnUse"><stop stop-color="#FC5045"/><stop offset="1" stop-color="#E3362B"/></linearGradient><linearGradient id="h" x1="36" y1="10" x2="36" y2="63.347" gradientUnits="userSpaceOnUse"><stop stop-color="#FC5045"/><stop offset="1" stop-color="#E3362B"/></linearGradient><linearGradient id="i" x1="36" y1="10" x2="36" y2="63.347" gradientUnits="userSpaceOnUse"><stop stop-color="#FC5045"/><stop offset="1" stop-color="#E3362B"/></linearGradient><linearGradient id="j" x1="36" y1="10" x2="36" y2="63.347" gradientUnits="userSpaceOnUse"><stop stop-color="#FC5045"/><stop offset="1" stop-color="#E3362B"/></linearGradient><linearGradient id="k" x1="36" y1="10" x2="36" y2="63.347" gradientUnits="userSpaceOnUse"><stop stop-color="#FC5045"/><stop offset="1" stop-color="#E3362B"/></linearGradient></defs></svg>