<svg width="72" height="72" fill="none" xmlns="http://www.w3.org/2000/svg"><path opacity=".15" fill-rule="evenodd" clip-rule="evenodd" d="M2.83 50.013C8.293 62.933 21.087 72 36 72c14.912 0 27.706-9.066 33.17-21.987L38.888.114a36.491 36.491 0 0 0-5.774 0L2.83 50.014ZM30.287.451 1.825 47.349a35.767 35.767 0 0 1-1.449-6.124l5.378-5.378L.416 30.51C2.775 15.097 14.906 2.903 30.288.451Zm11.424 0 28.463 46.898a35.767 35.767 0 0 0 1.449-6.124l-5.378-5.378 5.338-5.338C69.225 15.097 57.094 2.903 41.712.451Z" fill="#A97B5B"/><path d="M36 34.3 27.44 49H19.9L36 21l16.1 28h-7.854L36 34.3Z" fill="url(#a)"/><defs><linearGradient id="a" x1="36" y1="21" x2="36" y2="49" gradientUnits="userSpaceOnUse"><stop stop-color="#A97B5B"/><stop offset="1" stop-color="#8E6243"/></linearGradient></defs></svg>