<svg width="24" height="24" fill="none" xmlns="http://www.w3.org/2000/svg"><g clip-path="url(#a)" fill="#BC7DFF"><path d="M19.837 6.788a9.99 9.99 0 0 1 1.428 2.442c1.432-3.838-.329-6.517-1.333-8.045L19.811 1c.762 2.346.59 4.264.026 5.788Z"/><path d="M21.396 9.568c.328.9.532 1.86.588 2.86 1.912-2.919 1.14-5.722.49-7.555.24 1.894-.29 3.706-1.078 4.695Z"/><path d="M21.999 12.846 22 13c0 .908-.121 1.788-.348 2.625 2.784-2.335 2.379-5.535 2.252-6.536l-.01-.086c-.022 1.234-.981 3.08-1.895 3.843Zm-.537 3.399a9.964 9.964 0 0 1-1.136 2.295c2.198-1.042 3.045-2.907 3.438-4.373a5.767 5.767 0 0 1-2.302 2.078Zm-1.47 2.766a10.06 10.06 0 0 1-1.357 1.47c1.73-.356 2.999-1.613 3.796-2.485a5.155 5.155 0 0 1-2.439 1.015Zm-1.888 1.91c-.543.42-1.13.784-1.753 1.085 2.13.155 3.596-1.257 4.102-1.8a4.316 4.316 0 0 1-2.349.715ZM7.649 22.006a10.008 10.008 0 0 1-1.753-1.085 4.316 4.316 0 0 1-2.35-.715c.507.543 1.973 1.955 4.103 1.8Zm-2.284-1.524c-.5-.444-.955-.936-1.357-1.47a5.156 5.156 0 0 1-2.44-1.016c.798.872 2.067 2.129 3.797 2.486ZM3.674 18.54a9.962 9.962 0 0 1-1.136-2.295 5.768 5.768 0 0 1-2.302-2.078c.393 1.466 1.24 3.331 3.438 4.373Zm-1.326-2.915C-.436 13.29-.031 10.09.096 9.089l.01-.086c.022 1.234.981 3.08 1.895 3.843L2 13c0 .908.121 1.788.348 2.625Z"/><path d="M2.016 12.429c-1.912-2.92-1.14-5.723-.49-7.556-.24 1.894.29 3.706 1.078 4.695a9.97 9.97 0 0 0-.588 2.86Z"/><path d="M4.19 1c-.763 2.346-.591 4.264-.027 5.788A9.992 9.992 0 0 0 2.735 9.23c-1.432-3.838.329-6.517 1.333-8.045L4.19 1ZM12 20c4.418 0 8-3.638 8-8.125 0-2.62-1.221-4.95-3.117-6.437a9 9 0 1 1-9.765 0A8.156 8.156 0 0 0 4 11.875C4 16.362 7.582 20 12 20Z"/><path d="M18.112 15.654 12 5.334 5.89 15.653 7.827 17l3.304-2.029H9.21l2.79-5.3 2.79 5.3h-1.94L16.174 17l1.938-1.346Z"/></g><defs><clipPath id="a"><path fill="#fff" d="M0 0h24v24H0z"/></clipPath></defs></svg>