<svg width="72" height="72" fill="none" xmlns="http://www.w3.org/2000/svg"><g opacity=".15" fill="#56DCDC"><path d="M2.833 50.015C6.9 59.632 15.028 67.114 25.068 70.311l10.937-10.937 10.937 10.937c10.04-3.197 18.167-10.679 22.235-20.296L38.892.115a36.493 36.493 0 0 0-5.775 0l-30.284 49.9ZM41.718.45l28.463 46.9a35.772 35.772 0 0 0 1.449-6.124l-5.378-5.377 5.338-5.339C69.232 15.098 57.1 2.903 41.718.45Zm-11.426 0L1.83 47.35a35.769 35.769 0 0 1-1.45-6.123l5.378-5.377L.42 30.51C2.778 15.098 14.91 2.903 30.292.45Z"/><path d="m44.465 71.003-8.46-8.46-8.46 8.46c1.196.288 2.416.517 3.656.682l4.753-4.753 4.765 4.765a35.855 35.855 0 0 0 3.746-.694Z"/></g><path fill-rule="evenodd" clip-rule="evenodd" d="m35 12-5.5 11 5.5-4.125V12Zm2 6.875L42.5 23 37 12v6.875ZM13.23 40 20 28.308l-4.923 1.846L12 35.692 13.23 40Zm45.54 0L52 28.308l4.923 1.846L60 35.692 58.77 40ZM36 34.3 27.44 49H19.9L36 21l16.1 28h-7.854L36 34.3ZM17.917 47 29 27.75l-8.167 4.667L15 42.333 17.917 47Zm36.166 0L43 27.75l8.167 4.667L57 42.333 54.083 47Z" fill="url(#a)"/><defs><linearGradient id="a" x1="36" y1="12" x2="36" y2="49" gradientUnits="userSpaceOnUse"><stop stop-color="#56DCDC"/><stop offset="1" stop-color="#27BEBE"/></linearGradient></defs></svg>