<svg width="72" height="72" fill="none" xmlns="http://www.w3.org/2000/svg"><g opacity=".15" fill="#33B0FF"><path d="M2.701 50.056a36.213 36.213 0 0 0 22.073 20.243l11.231-11.202L47.235 70.3A36.212 36.212 0 0 0 69.31 50.056L40.165 2.16l-4.16 4.149-4.16-4.15L2.701 50.057Zm-1.008-2.668 7.443-12.23-8.143-8.122a35.61 35.61 0 0 0-.613 2.865l2.81 2.802v6.863l-2.502 4.16a35.701 35.701 0 0 0 1.005 3.662Zm-.377-21.523L9.7 34.228 30.208.528l-.08-.08C16.343 2.698 5.179 12.726 1.317 25.866ZM41.881.449l-.079.079 20.507 33.7 8.385-8.363C66.832 12.725 55.668 2.697 41.881.449Zm29.136 26.587-8.143 8.121 7.443 12.231a35.686 35.686 0 0 0 1.006-3.662l-2.503-4.16v-6.863l2.81-2.802a35.745 35.745 0 0 0-.613-2.865Z"/><path d="m44.914 70.97-8.909-8.886-8.91 8.885c1.206.305 2.435.55 3.685.73l5.225-5.211 5.225 5.21a35.76 35.76 0 0 0 3.684-.729Z"/></g><path d="m28 18 6.77 5h2.46L44 18H28Z" fill="url(#a)"/><path d="M54.222 23.333 36 54 17.778 23.333l5.777-4L33.334 26H27.61L36 41.111 44.453 26h-5.786l9.777-6.667 5.778 4Z" fill="url(#b)"/><path fill-rule="evenodd" clip-rule="evenodd" d="m52.533 33.333 2.134 8.616L44 47.333l8.533-14Zm-3.177 9.056 2.389-3.92.597 2.413-2.986 1.507Z" fill="url(#c)"/><path fill-rule="evenodd" clip-rule="evenodd" d="m19.467 33.333 8.533 14-10.667-5.384 2.134-8.616Zm.788 5.137 2.39 3.92-2.987-1.508.597-2.412Z" fill="url(#d)"/><defs><linearGradient id="a" x1="36" y1="18" x2="36" y2="54" gradientUnits="userSpaceOnUse"><stop stop-color="#33B0FF"/><stop offset="1" stop-color="#0C90E4"/></linearGradient><linearGradient id="b" x1="36" y1="18" x2="36" y2="54" gradientUnits="userSpaceOnUse"><stop stop-color="#33B0FF"/><stop offset="1" stop-color="#0C90E4"/></linearGradient><linearGradient id="c" x1="36" y1="18" x2="36" y2="54" gradientUnits="userSpaceOnUse"><stop stop-color="#33B0FF"/><stop offset="1" stop-color="#0C90E4"/></linearGradient><linearGradient id="d" x1="36" y1="18" x2="36" y2="54" gradientUnits="userSpaceOnUse"><stop stop-color="#33B0FF"/><stop offset="1" stop-color="#0C90E4"/></linearGradient></defs></svg>