<svg width="72" height="72" fill="none" xmlns="http://www.w3.org/2000/svg"><path d="M2.833 50.015C7.7 61.525 18.385 69.976 31.2 71.685l4.753-4.753 4.765 4.765c12.856-1.681 23.578-10.145 28.458-21.682L38.892.115a36.493 36.493 0 0 0-5.775 0l-30.284 49.9ZM30.292.45 1.83 47.35a35.769 35.769 0 0 1-1.45-6.123l5.378-5.377L.42 30.51C2.778 15.098 14.91 2.903 30.292.45Zm11.426 0 28.463 46.9a35.772 35.772 0 0 0 1.449-6.124l-5.378-5.377 5.338-5.339C69.232 15.098 57.1 2.903 41.718.45Z" opacity=".15" fill="#D2D3DE"/><path d="M27.44 49 36 34.3 44.246 49H52.1L36 21 19.9 49h7.54Z" fill="url(#a)"/><path d="m15 49 10.435-18.514L30.42 26 17.087 49H15Z" fill="url(#b)"/><path d="M57 49 46.565 30.486 41.58 26l13.333 23H57Z" fill="url(#c)"/><defs><linearGradient id="a" x1="36" y1="21" x2="36" y2="49" gradientUnits="userSpaceOnUse"><stop stop-color="#D2D3DE"/><stop offset="1" stop-color="#BCBDC2"/></linearGradient><linearGradient id="b" x1="36" y1="21" x2="36" y2="49" gradientUnits="userSpaceOnUse"><stop stop-color="#D2D3DE"/><stop offset="1" stop-color="#BCBDC2"/></linearGradient><linearGradient id="c" x1="36" y1="21" x2="36" y2="49" gradientUnits="userSpaceOnUse"><stop stop-color="#D2D3DE"/><stop offset="1" stop-color="#BCBDC2"/></linearGradient></defs></svg>