<svg width="24" height="24" fill="none" xmlns="http://www.w3.org/2000/svg"><path fill-rule="evenodd" clip-rule="evenodd" d="M11.523 1.334 8.896 6.586l2.627-1.97V1.334Zm.954 3.282 2.627 1.97-2.627-5.252v3.282ZM1.128 14.703 4.36 9.12 2.01 10 .54 12.646l.588 2.057Zm21.744 0L19.64 9.12l2.35.881 1.47 2.645-.588 2.057ZM12 11.98 7.913 19h-3.6L12 5.63 19.687 19h-3.75L12 11.98Zm-8.634 6.064 5.292-9.191-3.9 2.228-2.785 4.735 1.393 2.228Zm17.268 0-5.292-9.191 3.9 2.228 2.785 4.735-1.393 2.228Z" fill="#56DCDC"/></svg>