<svg width="24" height="24" fill="none" xmlns="http://www.w3.org/2000/svg"><path d="M3.953 5.637c-.482.05-.408-.035-.149-.11a1.164 1.164 0 0 0 .108-.017l.104-.024h.002a2.5 2.5 0 0 1 .582-.078c.428-.01.135.229-.025.229h-.018l-.04-.001h-.02l-.016-.001-.033-.002-.05-.002a2.33 2.33 0 0 0-.445.006Zm1.065.338c-.11-.03-.154-.154.06-.189.055 0 .073.02.096.047a.62.62 0 0 0 .033.033c.1.08-.08.14-.189.11Zm.882-.124c-.194-.074-.366-.062-.246.054.12.116.397.242.394.156-.003-.086-.045-.153-.147-.21Zm1.05 2.783c-.059-.15.054-.26.214-.362.084.056.066.085.033.137l-.01.014a.636.636 0 0 0-.032.064.311.311 0 0 0-.017.066c-.026.171-.13.232-.189.081Zm-.07.418c-.03.27.033.342.1.42l.01.011.01.011c.013.016.021.022.026.022.004 0 .006-.004.007-.012a.241.241 0 0 0-.004-.041l-.007-.047A1.187 1.187 0 0 1 7 9.218c0-.166-.053-.332-.12-.166Zm13.167-3.415c.482.05.408-.035.149-.11a1.274 1.274 0 0 1-.16-.028 6.506 6.506 0 0 1-.052-.013h-.002a2.5 2.5 0 0 0-.582-.078c-.428-.01-.135.229.025.229a2.25 2.25 0 0 0 .124-.004l.053-.002c.154-.007.334-.015.445.006Zm-1.065.338c.11-.03.154-.154-.06-.189-.055 0-.073.02-.096.047a.3.3 0 0 1-.033.033c-.1.08.08.14.189.11Zm-.882-.124c.194-.074.366-.062.246.054-.12.116-.397.242-.394.156.002-.086.045-.153.147-.21Zm-1.05 2.783c.059-.15-.054-.26-.214-.362-.084.056-.066.085-.033.137l.01.014a.481.481 0 0 1 .032.064c.007.02.014.041.017.066.027.171.13.232.189.081Zm.07.418c.03.27-.033.342-.1.42l-.01.011-.01.011c-.044.053-.036.005-.022-.078.01-.057.022-.13.022-.198 0-.166.053-.332.12-.166Z" fill="#FC5045"/><path fill-rule="evenodd" clip-rule="evenodd" d="M11.946 19.303a1.209 1.209 0 0 1 .108 0c.047.002.09.006.13.01.121.011.21.02.234-.041l.007-.017c.041-.104.076-.192.203-.192.133 0 .322.297.418.627.21.723.21 2.092.21 2.092s.355-1.204.337-2.32l-.001-.05-.002-.11V19.3c-.015-.682.084-1.703.436-1.959-.143.256-.315.822-.143 1.302.366-.122.642-.325.642-.325s.27-.146.233-.444a14.155 14.155 0 0 0-.008-.065l-.008-.062a1.768 1.768 0 0 1 0-.568c.38.378.396 2.092.396 2.092s.366-.76.334-1.26l-.004-.06c-.022-.355-.01-.643.133-.81.145-.166.367-.499.389-.91.022-.41.047-.822.612-1.144.472-.268.413-.363.275-.423a.868.868 0 0 1-.088-.042c-.178-.1-.34-.426-.396-.581-.055-.155-.187-.344-.209 0a1.95 1.95 0 0 0 0 .23c.009.187.014.319-.194.607-.097.134-.434.654-.434.654s.108-.406.21-.654l.017-.042c.119-.29.158-.386.115-.574-.052-.228-.063-.608.209-1.135.19-.37.7-.824 1.152-1.229h.001l.002-.002.001-.001c.191-.171.372-.333.515-.475.057-.058.115-.112.172-.165l.023-.02.048-.045h.001c.39-.357.715-.654.564-1.332a6.931 6.931 0 0 0-.177-.608c-.212-.65-.43-1.322.032-1.853.263-.282.699-.482 1.37-.454.673.027 2.29.608 2.253 2.67 0 .717-.454 1.934-.935 2.896-.482.963-.918 2.243-.709 3.578.198 1.267.58 1.245.58 1.245h-.003s-.33-.524-.33-1.333c-.019-.554.053-1.12.906-2.037.854-.917 2.489-2.815 2.425-4.949-.063-2.134-.527-2.715-1.698-3.823-1.171-1.108-2.388-1.299-3.86-1.144-1.47.154-4.268 1.761-3.777 4.522.445 1.816.281 2.706.109 3.124a3.055 3.055 0 0 1-.12.162c-.143.185-.142.286-.141.64v.106c0 .604.01.703.26.472 0 0 .995-.914 1.336-1.235-.132.53-.4.996-.76 1.576-.311.503-.672 1.021-.911 1.21 0 .038.036.03.075.022.045-.01.093-.02.088.044 0 .01-.002.024-.004.039l-.005.04c-.02.166-.065.53-.065 1.401 0 .363-.014.382-.014.382s-.163-.574-.202-1.019c-.04-.455-.142-.683-.217-.654l-.21.337s-.069.08-.17.081c-.07 0-.153-.035-.239-.155a2.53 2.53 0 0 0-.15-.191l-.032-.038a1.095 1.095 0 0 1-.163-.223c-.082-.127-.109-.273.145-.427.197-.12.405-.31.552-.444l.03-.028.081-.073.01-.007.006-.007.014-.01.015-.013.008-.006.013-.01.008-.007.01-.008c.064-.048.072-.054.072-.236v-.837c0-.086.002-.18.004-.276.008-.347.016-.72-.07-.867l-.012-.02a2.034 2.034 0 0 1-.015-.028l-.017-.031a1.684 1.684 0 0 1-.013-.027l-.012-.022c-.1-.198-.144-.285-.493.016a1.94 1.94 0 0 0-.026.023l-.021.02c-.103.091-.218.194-.58.376-.322.16-.369.431-.422.741-.052.295-.109.626-.415.932-.306-.306-.363-.637-.415-.932-.053-.31-.1-.58-.422-.741-.362-.181-.477-.285-.58-.377l-.015-.013-.017-.015-.015-.014c-.35-.301-.394-.214-.493-.016a3.934 3.934 0 0 1-.069.128c-.086.146-.078.52-.07.867.002.096.004.19.004.276v.837c0 .182.008.188.071.236l.007.005.012.01.01.007.004.003.007.006.015.013c.007.005.014.01.02.017l.01.007a3.694 3.694 0 0 1 .111.1c.147.135.355.325.552.445.254.154.227.3.145.427-.04.081-.095.145-.163.223-.053.062-.114.133-.182.229-.086.12-.17.156-.238.155-.102-.001-.172-.08-.172-.08l-.21-.338c-.074-.029-.175.2-.216.654-.04.445-.201 1.02-.201 1.02s-.015-.02-.015-.383c0-.871-.045-1.235-.065-1.4a1.984 1.984 0 0 1-.01-.08c-.004-.064.044-.054.089-.044.039.008.075.016.075-.023-.239-.188-.6-.706-.911-1.209-.36-.58-.628-1.046-.76-1.576.341.321 1.335 1.235 1.335 1.235.251.231.261.132.261-.472v-.106c.001-.354.002-.455-.141-.64l-.048-.063a3.824 3.824 0 0 1-.072-.099c-.172-.418-.336-1.308.11-3.124.49-2.76-2.307-4.368-3.779-4.522-1.47-.155-2.688.036-3.859 1.144C.528 6.299.065 6.88.002 9.014c-.064 2.134 1.57 4.032 2.424 4.95.854.916.925 1.482.907 2.036 0 .809-.333 1.333-.333 1.333s.382.022.58-1.245c.209-1.335-.227-2.615-.709-3.578-.48-.962-.935-2.18-.935-2.897-.036-2.061 1.58-2.642 2.252-2.67.672-.027 1.108.173 1.371.455.462.53.244 1.203.032 1.853-.067.207-.133.41-.177.608-.15.678.174.975.564 1.331l.05.046.022.02c.057.053.115.107.172.165.143.142.325.305.516.476l.002.001.001.001c.453.405.962.86 1.152 1.229.272.527.261.907.21 1.135-.044.188-.005.284.114.574l.017.042c.102.248.21.654.21.654s-.337-.52-.434-.654c-.208-.288-.203-.42-.194-.608l.002-.06a2.155 2.155 0 0 0-.002-.17c-.022-.343-.154-.155-.21 0-.055.156-.217.482-.395.582a.612.612 0 0 1-.052.027l-.018.008-.018.007c-.138.06-.197.155.274.423.566.322.59.734.613 1.144.022.411.244.744.388.91.145.167.156.455.134.81l-.004.06c-.032.5.334 1.26.334 1.26s.016-1.714.396-2.092c.026.205.035.303 0 .568l-.008.062-.004.031-.004.034c-.037.297.233.444.233.444s.276.203.642.325c.172-.48 0-1.046-.143-1.302.352.256.451 1.277.436 1.959v.041l-.002.07v.05c-.02 1.116.337 2.32.337 2.32s-.001-1.369.209-2.092c.096-.33.285-.627.418-.627.127 0 .162.088.203.192l.007.017c.024.06.113.052.233.04l.13-.01Zm-8.648-5.249c.045-.216-.13-.56-.335-.962l-.092-.183-.045-.09a2.31 2.31 0 0 0-.305-.447 12.736 12.736 0 0 1-.458-.606c-.27-.379-.268-.514-.267-.661.001-.113.003-.234-.12-.477-.282-.56-.29-.76-.218-.726.071.034.079-.075.019-.304-.06-.23-.09-.387-.09-.842.014-.864.344-1.235.623-1.55l.022-.023a7.512 7.512 0 0 0 .139-.164 1.56 1.56 0 0 0 .069-.093c.181-.27.227-.164.276-.052.027.062.055.127.107.13.063.005.101-.084.154-.204.069-.16.162-.374.368-.495.361-.21.459-.015.433.057-.027.071-.045.176.229 0 .274-.177.318-.145.109.046-.21.19.009.2.263 0l.013-.01.018-.015c.233-.184.359-.283.968-.257.636.028.726.3.681.609-.03.203.05.142.14.075.047-.035.095-.072.133-.075.108-.01.145.118.19.3.043.17.014.236-.109.518l-.01.024-.017.039c-.396.67-.15.501.06.357.088-.06.17-.117.194-.103.082.045-.027.318-.308.717-.243.344-.283.6-.342.972l-.007.044-.007.043c-.005.033-.01.068-.017.104-.082.48.091.427.218.345.065-.042.07.023.078.104.006.077.014.169.077.195.061.027.063-.066.065-.169.002-.11.005-.23.08-.23.092 0 .107.073.144.245.02.099.048.23.101.4.145.463.182.49.154.072-.027-.418-.027-.535.173-.318.086.095.095.167.106.27.016.133.037.32.248.675.372.626.209-.018.1-.209-.109-.19-.3-1.044 0-.954.266.081.239.004.19-.129l-.007-.023-.007-.02-.003-.01a.986.986 0 0 0-.106-.187c-.108-.166-.25-.385-.23-.63.027-.354.127-.89.336-.99.163-.077.132-.211.063-.509a8.366 8.366 0 0 1-.063-.29c-.1-.508-.464-1.044-1.344-1.598-.805-.505-1.601-.428-2.28-.363l-.19.018c-.701.062-1.34.583-1.87 1.014l-.038.03c-.535.436-.99 1.363-.98 2.689.009 1.325.354 2.07.762 2.588.41.517.809 1.325.89 1.58.024.073.042.146.058.207.038.151.06.238.106.129.063-.155.136-.11.145 0 .01.109.173.254.173.154s.009-.3.145 0l.014.03.02.046.016.035c.1.229.148.336.195.107Zm8.074 2.08c-.064-.024-.194.165-.209.21-.08.239-.164.448-.237.627l-.021.054c-.106.261-.18.453-.16.573.028.179.116.279.258.44l.04.045a6.332 6.332 0 0 1 .12.143c.071.087.118.162.156.224.07.112.112.179.22.192a.036.036 0 0 0 .029-.009.041.041 0 0 0 .014-.03v-.168c0-.21-.082-.403-.21-.627a1.185 1.185 0 0 0-.096-.147c-.064-.09-.113-.16-.113-.272 0-.185.028-.354.21-.837.06-.163.062-.395 0-.418Zm9.33-2.08c-.045-.216.13-.56.335-.962l.035-.069.038-.075.02-.039.044-.09c.089-.177.168-.276.305-.447.107-.134.248-.313.458-.606.27-.379.268-.514.267-.661-.001-.113-.003-.234.12-.477.282-.56.29-.76.218-.726-.071.034-.079-.075-.019-.304.06-.23.09-.387.09-.842-.014-.864-.344-1.235-.623-1.55l-.022-.023a9.023 9.023 0 0 1-.139-.164 1.554 1.554 0 0 1-.069-.093c-.181-.27-.227-.164-.276-.052-.027.062-.055.127-.107.13-.063.005-.101-.084-.153-.204-.07-.16-.163-.374-.37-.495-.36-.21-.458-.015-.432.057.027.071.046.176-.229 0-.274-.177-.318-.145-.109.046.21.19-.009.2-.263 0l-.013-.01-.018-.015c-.233-.184-.359-.283-.968-.257-.636.028-.726.3-.681.609.03.203-.05.142-.14.075-.047-.035-.095-.072-.133-.075-.108-.01-.145.118-.19.3-.043.17-.014.236.109.518l.01.024.017.039c.396.67.15.501-.06.357-.088-.06-.17-.117-.194-.103-.082.045.027.318.309.717.242.344.282.6.34.972l.008.044.007.043.008.051.009.053c.082.48-.091.427-.218.345-.065-.042-.07.023-.078.104-.006.077-.014.169-.076.195-.062.027-.064-.066-.066-.169-.002-.11-.005-.23-.08-.23-.092 0-.107.073-.144.245a3.565 3.565 0 0 1-.101.4c-.145.463-.182.49-.154.072.027-.418.027-.535-.173-.318-.086.095-.095.167-.106.27-.016.133-.037.32-.248.675-.372.626-.209-.018-.1-.209.109-.19.3-1.044 0-.954-.266.081-.239.004-.19-.129l.007-.023.01-.03c.017-.05.058-.113.106-.187.108-.166.25-.385.23-.63-.027-.354-.127-.89-.335-.99-.164-.077-.133-.211-.064-.509l.012-.05.013-.058.008-.034.03-.147c.1-.509.464-1.045 1.345-1.599.804-.505 1.6-.428 2.279-.363l.19.018c.701.062 1.34.583 1.87 1.014l.038.03c.535.436.99 1.363.98 2.689-.009 1.325-.354 2.07-.762 2.588-.41.517-.809 1.325-.89 1.58-.024.073-.042.146-.058.207-.038.151-.06.238-.106.129-.064-.155-.136-.11-.145 0-.01.109-.173.254-.173.154s-.009-.3-.145 0l-.014.03a6.502 6.502 0 0 0-.02.046l-.015.035c-.101.229-.149.336-.196.107Zm-8.074 2.08c.064-.024.194.165.209.21.08.239.164.448.237.627l.021.054c.106.261.18.453.16.573-.028.179-.116.279-.258.44a8.674 8.674 0 0 0-.16.188 1.774 1.774 0 0 0-.156.224c-.07.112-.112.179-.22.192a.036.036 0 0 1-.029-.009.041.041 0 0 1-.014-.03v-.168c0-.21.082-.403.21-.627a1.344 1.344 0 0 1 .078-.122l.018-.025c.064-.09.113-.16.113-.272 0-.185-.028-.354-.21-.837-.06-.163-.062-.395 0-.418Z" fill="#FC5045"/></svg>