<svg viewBox="0 0 32 32"><path d="M26.667 10.667H22.92a7.98 7.98 0 0 0-2.427-2.613l2.173-2.173-1.88-1.88-2.893 2.893c-.613-.147-1.24-.227-1.893-.227s-1.28.08-1.88.227l-2.907-2.893-1.88 1.88 2.16 2.173a8.077 8.077 0 0 0-2.413 2.613H5.333v2.667H8.12c-.067.44-.12.88-.12 1.333V16H5.333v2.667H8V20c0 .453.053.893.12 1.333H5.333V24H9.08c1.387 2.387 3.96 4 6.92 4s5.533-1.613 6.92-4h3.747v-2.667H23.88c.067-.44.12-.88.12-1.333v-1.333h2.667V16H24v-1.333c0-.453-.053-.893-.12-1.333h2.787v-2.667zm-8 10.666h-5.333v-2.667h5.333v2.667zm0-5.333h-5.333v-2.667h5.333V16z"/></svg>