<svg width="40" height="40" fill="none" xmlns="http://www.w3.org/2000/svg"><path d="M18.065 36c-1.29 0-2.293-1.105-2.156-2.371l.975-8.997A.574.574 0 0 0 16.31 24H8.923a1.16 1.16 0 0 1-.881-.403l-.767-.891a1.132 1.132 0 0 1-.034-1.44l13.42-17.155A.29.29 0 0 1 20.888 4h1.023c1.289 0 2.293 1.105 2.156 2.371l-.976 8.997a.574.574 0 0 0 .575.632h7.392c.336 0 .656.144.875.395l.784.897c.36.412.377 1.017.04 1.447L19.316 35.89a.29.29 0 0 1-.229.111h-1.022Z" fill="url(#a)"/><path fill-rule="evenodd" clip-rule="evenodd" d="m17.768 24.728-.975 8.997c-.08.73.5 1.386 1.272 1.386h.732l13.261-16.92a.244.244 0 0 0-.009-.313l-.784-.897a.273.273 0 0 0-.206-.092h-7.392a1.463 1.463 0 0 1-1.458-1.617l.975-8.997c.08-.729-.5-1.386-1.272-1.386h-.732L7.942 21.814a.244.244 0 0 0 .007.312l.767.892c.05.057.125.093.207.093h7.386c.861 0 1.554.742 1.459 1.617Zm-1.86 8.9c-.136 1.267.868 2.372 2.157 2.372h1.022a.29.29 0 0 0 .229-.11l13.442-17.15c.337-.43.32-1.036-.04-1.448l-.784-.897A1.163 1.163 0 0 0 31.06 16h-7.392a.574.574 0 0 1-.575-.632l.976-8.997C24.205 5.105 23.2 4 21.912 4h-1.023a.29.29 0 0 0-.229.111L7.241 21.267a1.132 1.132 0 0 0 .034 1.439l.767.891c.22.256.542.403.881.403h7.386c.344 0 .612.295.575.632l-.975 8.997Z" fill="url(#b)"/><defs><linearGradient id="a" x1="28.764" y1="24.396" x2="13.884" y2="11.734" gradientUnits="userSpaceOnUse"><stop stop-color="#CE0F50"/><stop offset="1" stop-color="#FE112D"/></linearGradient><linearGradient id="b" x1="20" y1="4" x2="20" y2="36" gradientUnits="userSpaceOnUse"><stop stop-color="#FF003D"/><stop offset="1" stop-color="#FF003D" stop-opacity="0"/></linearGradient></defs></svg>