<svg width="18" height="16" fill="none" xmlns="http://www.w3.org/2000/svg"><path fill-rule="evenodd" clip-rule="evenodd" d="M11.6 2H10v5H6l.896-.896a.5.5 0 0 0 0-.708l-.542-.542a.5.5 0 0 0-.708 0L2.5 8l3.146 3.146a.5.5 0 0 0 .708 0l.542-.542a.5.5 0 0 0 0-.708L6 9h4v5h1.6c1.153 0 1.898-.002 2.464-.048.544-.044.745-.12.844-.17a2 2 0 0 0 .874-.874c.05-.099.126-.3.17-.844.046-.566.048-1.31.048-2.464V6.4c0-1.153-.002-1.898-.048-2.464-.044-.544-.12-.745-.17-.844a2 2 0 0 0-.874-.874c-.099-.05-.3-.126-.844-.17C13.498 2.002 12.754 2 11.6 2Zm0-2H6.4C4.16 0 3.04 0 2.184.436A4 4 0 0 0 .436 2.184C0 3.04 0 4.16 0 6.4v3.2c0 2.24 0 3.36.436 4.216a4 4 0 0 0 1.748 1.748C3.04 16 4.16 16 6.4 16h5.2c2.24 0 3.36 0 4.216-.436a4 4 0 0 0 1.748-1.748C18 12.96 18 11.84 18 9.6V6.4c0-2.24 0-3.36-.436-4.216A4 4 0 0 0 15.816.436C14.96 0 13.84 0 11.6 0Z" fill="#999CA2"/></svg>