<svg width="24" height="24" fill="none" xmlns="http://www.w3.org/2000/svg"><path fill-rule="evenodd" clip-rule="evenodd" d="M9.4 6h5.2c1.153 0 1.898.002 2.464.048.544.044.745.12.844.17a2 2 0 0 1 .874.874c.05.099.126.3.17.844.046.566.048 1.31.048 2.464v3.2c0 1.153-.002 1.898-.048 2.464-.044.544-.12.745-.17.844a2 2 0 0 1-.874.874c-.099.05-.3.126-.844.17-.566.046-1.31.048-2.464.048H9.4c-1.153 0-1.898-.002-2.464-.048-.544-.044-.745-.12-.844-.17a2 2 0 0 1-.874-.874c-.05-.099-.126-.3-.17-.844C5.002 15.498 5 14.754 5 13.6v-3.2c0-1.153.002-1.898.048-2.464.044-.544.12-.745.17-.844a2 2 0 0 1 .874-.874c.099-.05.3-.126.844-.17C7.502 6.002 8.246 6 9.4 6ZM3 10.4c0-2.24 0-3.36.436-4.216a4 4 0 0 1 1.748-1.748C6.04 4 7.16 4 9.4 4h5.2c2.24 0 3.36 0 4.216.436a4 4 0 0 1 1.748 1.748C21 7.04 21 8.16 21 10.4v3.2c0 2.24 0 3.36-.436 4.216a4 4 0 0 1-1.748 1.748C17.96 20 16.84 20 14.6 20H9.4c-2.24 0-3.36 0-4.216-.436a4 4 0 0 1-1.748-1.748C3 16.96 3 15.84 3 13.6v-3.2Zm8.572 4.6L10 13.428 8.429 15H7v-1.429L8.571 12 7 10.428V9h1.429L10 10.572 11.572 9H13v1.428L11.429 12 13 13.57V15h-1.428Z" fill="#7F838B"/></svg>