<svg width="227" height="148" fill="none" xmlns="http://www.w3.org/2000/svg"><path fill-rule="evenodd" clip-rule="evenodd" d="M168.585 116.359c-32.262 0-58.416-26.048-58.416-58.18C110.169 26.048 136.323 0 168.585 0S227 26.048 227 58.18c0 32.13-26.153 58.179-58.415 58.179Zm6.149-29.09c5.66 0 10.248-4.57 10.248-10.207 0-5.637-4.588-10.207-10.248-10.207-5.66 0-10.249 4.57-10.249 10.207 0 5.637 4.589 10.207 10.249 10.207Zm-46.171-1.687c3.229-1.045 4.713-5.37 3.314-9.658-1.399-4.29-5.152-6.92-8.381-5.874-3.23 1.045-4.714 5.37-3.315 9.658 1.399 4.29 5.152 6.919 8.382 5.874Zm17.221 2.527c.282-.345.525-.599.716-.757.095.045.208.103.335.173.487.267 1.143.687 1.958 1.254 1.677 1.167 3.99 2.934 6.931 5.296.661.53 1.629.427 2.162-.231a1.527 1.527 0 0 0-.232-2.153c-6.506-5.224-9.753-7.484-11.23-7.484-1.767 0-3.415 2.014-5.929 6.384a1.527 1.527 0 0 0 .57 2.09 1.54 1.54 0 0 0 2.098-.568c1.038-1.805 1.917-3.145 2.621-4.004Zm12.552-24.316c10.199-7.196 22.802-7.876 37.81-2.041-10.885-13.368-23.009-16.285-36.373-8.753l-1.437 10.794Zm-24.083 0-1.537-10.271c-6.147-3.002-12.638-.88-19.472 6.365 8.007-2.351 15.01-1.05 21.009 3.906Z" fill="var(--shade5)"/><path opacity=".9" d="M67.639 105.131c4.528 0 8.199-3.656 8.199-8.165 0-4.51-3.671-8.166-8.2-8.166-4.527 0-8.198 3.656-8.198 8.166 0 4.509 3.67 8.165 8.199 8.165Z" fill="var(--shade5)"/><path fill-rule="evenodd" clip-rule="evenodd" d="M118.688 129.916c-10.157 8.187-24.737-1.23-37.567-17.001-12.83-15.77-19.053-31.924-8.895-40.112 10.157-8.187 24.737 1.23 37.567 17.001 12.83 15.771 19.053 31.924 8.895 40.112Zm-8.245-6.488c3.959-3.191-.344-15.011-9.61-26.402-9.266-11.39-19.987-18.037-23.946-14.846-3.959 3.191.344 15.012 9.61 26.402s19.987 18.037 23.946 14.846Z" fill="var(--shade5)"/><path clip-rule="evenodd" d="M78.912 79.221 0 145.056h98.302l15.457-24.093-2.537-13.985-6.075-16.066-7.54-9.257-18.695-2.434Z"/><path d="M49.192 148c27.168 0 49.192-1.371 49.192-3.062 0-1.691-22.024-3.062-49.192-3.062S0 143.247 0 144.938C0 146.629 22.024 148 49.192 148Z" fill="var(--shade5)"/></svg>