<svg width="20" height="20" fill="none" xmlns="http://www.w3.org/2000/svg"><g filter="url(#a)"><path d="m12 4 5.196 3v6L12 16l-5.196-3V7L12 4Z" fill="#0FB8AC"/><path d="m12 4 5.196 3v6L12 16l-5.196-3V7L12 4Z" fill="url(#b)" fill-opacity=".12"/></g><mask id="d" style="mask-type:alpha" maskUnits="userSpaceOnUse" x="6" y="4" width="12" height="12"><path d="m12 4 5.196 3v6L12 16l-5.196-3V7L12 4Z" fill="#183748"/><path d="m12 4 5.196 3v6L12 16l-5.196-3V7L12 4Z" fill="url(#c)" fill-opacity=".12"/></mask><g mask="url(#d)"><path d="M6.3 6.7 12 10V4L6.3 6.7Z" fill="url(#e)" fill-opacity=".6"/><path d="M17.7 6.7 12 10V4l5.7 2.7Z" fill="url(#f)" fill-opacity=".6"/><path d="M6.3 13.3 12 10v6l-5.7-2.7Z" fill="url(#g)" fill-opacity=".8"/><path d="M17.7 13.3 12 10v6l5.7-2.7Z" fill="url(#h)" fill-opacity=".8"/></g><path d="m12 7 2.598 1.5v3L12 13l-2.598-1.5v-3L12 7Z" fill="#0FB8AC"/><path d="m12 7 2.598 1.5v3L12 13l-2.598-1.5v-3L12 7Z" fill="url(#i)"/><path d="m12 7 2.598 1.5v3L12 13l-2.598-1.5v-3L12 7Z" fill="url(#j)" fill-opacity=".92"/><path d="m12 7 2.598 1.5v3L12 13l-2.598-1.5v-3L12 7Z" fill="url(#k)" fill-opacity=".6"/><defs><linearGradient id="b" x1="12" y1="4" x2="12" y2="16" gradientUnits="userSpaceOnUse"><stop stop-color="#fff" stop-opacity=".32"/><stop offset=".5" stop-color="#fff"/><stop offset="1" stop-color="#fff" stop-opacity=".32"/></linearGradient><linearGradient id="c" x1="12" y1="4" x2="12" y2="16" gradientUnits="userSpaceOnUse"><stop stop-color="#fff" stop-opacity=".32"/><stop offset=".5" stop-color="#fff"/><stop offset="1" stop-color="#fff" stop-opacity=".32"/></linearGradient><linearGradient id="e" x1="6.3" y1="10" x2="12" y2="4" gradientUnits="userSpaceOnUse"><stop stop-color="#fff"/><stop offset="1" stop-color="#fff" stop-opacity="0"/></linearGradient><linearGradient id="f" x1="18" y1="4" x2="12" y2="10" gradientUnits="userSpaceOnUse"><stop/><stop offset="1" stop-opacity="0"/></linearGradient><linearGradient id="g" x1="6.6" y1="16" x2="12" y2="10" gradientUnits="userSpaceOnUse"><stop/><stop offset="1" stop-opacity="0"/></linearGradient><linearGradient id="h" x1="12" y1="16" x2="18" y2="10" gradientUnits="userSpaceOnUse"><stop/><stop offset="1" stop-opacity="0"/></linearGradient><linearGradient id="i" x1="12" y1="7" x2="12" y2="13" gradientUnits="userSpaceOnUse"><stop stop-color="#fff" stop-opacity=".5"/><stop offset="1" stop-color="#fff" stop-opacity=".2"/></linearGradient><linearGradient id="j" x1="9" y1="7" x2="15" y2="13" gradientUnits="userSpaceOnUse"><stop offset=".306" stop-color="#fff" stop-opacity="0"/><stop offset=".356" stop-color="#fff"/><stop offset=".402" stop-color="#fff" stop-opacity="0"/></linearGradient><linearGradient id="k" x1="9" y1="7" x2="15" y2="13" gradientUnits="userSpaceOnUse"><stop stop-color="#fff"/><stop offset="1" stop-color="#fff" stop-opacity="0"/></linearGradient><filter id="a" x=".804" y="0" width="22.393" height="24" filterUnits="userSpaceOnUse" color-interpolation-filters="sRGB"><feFlood flood-opacity="0" result="BackgroundImageFix"/><feColorMatrix in="SourceAlpha" values="0 0 0 0 0 0 0 0 0 0 0 0 0 0 0 0 0 0 127 0" result="hardAlpha"/><feOffset dy="2"/><feGaussianBlur stdDeviation="3"/><feColorMatrix values="0 0 0 0 0 0 0 0 0 0 0 0 0 0 0 0 0 0 0.24 0"/><feBlend in2="BackgroundImageFix" result="effect1_dropShadow_1060_12768"/><feBlend in="SourceGraphic" in2="effect1_dropShadow_1060_12768" result="shape"/></filter></defs></svg>