<svg width="18" height="16" fill="none" xmlns="http://www.w3.org/2000/svg"><path fill-rule="evenodd" clip-rule="evenodd" d="M11.6 2H6.4c-.552 0-1.01 0-1.4.006V7h4l-.896-.897a.5.5 0 0 1 0-.707l.542-.543a.5.5 0 0 1 .708 0L12.5 8l-3.146 3.146a.5.5 0 0 1-.708 0l-.542-.543a.5.5 0 0 1 0-.707L9 9H5v4.994c.39.006.848.006 1.4.006h5.2c1.153 0 1.898-.002 2.464-.048.544-.044.745-.12.844-.17a2 2 0 0 0 .874-.874c.05-.099.126-.3.17-.844.046-.566.048-1.31.048-2.464V6.4c0-1.153-.002-1.898-.048-2.464-.044-.544-.12-.745-.17-.844a2 2 0 0 0-.874-.874c-.099-.05-.3-.126-.844-.17C13.498 2.002 12.754 2 11.6 2ZM6.4 0c-.524 0-.987 0-1.4.006V0c-.93 0-1.394 0-1.78.077A4 4 0 0 0 .077 3.22C0 3.606 0 4.07 0 5v6c0 .93 0 1.394.077 1.78a4 4 0 0 0 3.143 3.143C3.606 16 4.07 16 5 16v-.006c.413.006.876.006 1.4.006h5.2c2.24 0 3.36 0 4.216-.436a4 4 0 0 0 1.748-1.748C18 12.96 18 11.84 18 9.6V6.4c0-2.24 0-3.36-.436-4.216A4 4 0 0 0 15.816.436C14.96 0 13.84 0 11.6 0H6.4Z" fill="#999CA2"/></svg>