<svg viewBox="0 0 32 32"><path d="M25.612 17.3c.05-.417.084-.85.084-1.3s-.033-.883-.1-1.3l2.825-2.2a.686.686 0 0 0 .167-.85l-2.674-4.617c-.167-.3-.518-.4-.819-.3l-3.326 1.333a9.797 9.797 0 0 0-2.256-1.3l-.501-3.533a.667.667 0 0 0-.669-.567h-5.349a.65.65 0 0 0-.652.567l-.501 3.533c-.819.333-1.571.783-2.256 1.3L6.259 6.733a.661.661 0 0 0-.819.3L2.766 11.65c-.167.3-.1.65.167.85l2.825 2.2c-.067.417-.117.867-.117 1.3s.033.883.1 1.3l-2.825 2.2a.686.686 0 0 0-.167.85l2.674 4.617c.167.3.518.4.819.3l3.326-1.333a9.797 9.797 0 0 0 2.256 1.3l.501 3.533a.68.68 0 0 0 .669.567h5.349a.639.639 0 0 0 .652-.567l.501-3.533a10.027 10.027 0 0 0 2.256-1.3l3.326 1.333c.301.117.652 0 .819-.3l2.674-4.617c.167-.3.1-.65-.167-.85l-2.791-2.2zm-9.945 4.033c-2.75 0-5-2.25-5-5s2.25-5 5-5 5 2.25 5 5-2.25 5-5 5z"/></svg>