<svg viewBox="0 0 24 24"><path fill-rule="evenodd" clip-rule="evenodd" d="M12 19a7 7 0 1 0 0-14 7 7 0 0 0 0 14Zm0 2a9 9 0 1 0 0-18 9 9 0 0 0 0 18Zm0-12.1c-.857 0-1.361.421-1.533.81-.067.152-.201.29-.367.29h-1c-.276 0-.505-.226-.453-.497C8.932 8.015 10.483 7.1 12 7.1c1.68 0 3.4 1.121 3.4 2.9 0 1.436-.935 2.182-1.535 2.66l-.053.043c-.517.414-.787.659-.877 1-.042.16-.17.297-.335.297h-1c-.276 0-.505-.225-.46-.498.184-1.117.969-1.743 1.495-2.162l.053-.043c.654-.523.912-.776.912-1.297 0-.43-.518-1.1-1.6-1.1Zm-.5 6.1a.5.5 0 0 0-.5.5v1a.5.5 0 0 0 .5.5h1a.5.5 0 0 0 .5-.5v-1a.5.5 0 0 0-.5-.5h-1Z"/></svg>