<svg xmlns="http://www.w3.org/2000/svg" viewBox="0 0 48 48"><path d="M40.722 13.966a.944.944 0 0 0 .278-.668V7.946A.946.946 0 0 0 40.054 7h-5.352a.94.94 0 0 0-.668.277L24 17.312 13.966 7.277A.946.946 0 0 0 13.298 7H7.946A.946.946 0 0 0 7 7.946v5.35c0 .25.098.491.278.668L17.312 24l-3.728 3.729-.669-.669a2.82 2.82 0 0 0-2.005-.831c-.76 0-1.47.295-2.007.831a2.822 2.822 0 0 0-.831 2.007c0 .758.296 1.47.831 2.006l2.007 2.006-3.079 3.078a2.844 2.844 0 0 0 0 4.015 2.83 2.83 0 0 0 2.007.829c.727 0 1.454-.276 2.005-.83l3.077-3.078 2.006 2.007a2.82 2.82 0 0 0 2.006.831 2.82 2.82 0 0 0 2.006-.831c.536-.537.831-1.25.831-2.007a2.82 2.82 0 0 0-.831-2.006l-.668-.668 3.728-3.728 3.729 3.728-.669.668a2.822 2.822 0 0 0-.831 2.006c0 .759.295 1.47.831 2.007.536.535 1.25.831 2.006.831a2.82 2.82 0 0 0 2.007-.831l2.005-2.007 3.077 3.079a2.824 2.824 0 0 0 2.005.829c.728 0 1.453-.276 2.007-.83a2.823 2.823 0 0 0 .831-2.006 2.82 2.82 0 0 0-.831-2.006l-3.079-3.078 2.007-2.006a2.82 2.82 0 0 0 .831-2.006c0-.76-.296-1.47-.831-2.007a2.822 2.822 0 0 0-2.007-.831c-.758 0-1.47.296-2.005.831l-.668.668-3.729-3.728 10.038-10.035Zm-5.628-5.074h4.014v4.014l-9.758 9.757-4.012-4.015 9.756-9.756Zm-24.586 29.94a.947.947 0 0 1-1.616-.668c0-.252.098-.49.278-.668l3.075-3.078 1.339 1.338-3.076 3.076Zm9.096-1.07a.97.97 0 0 1-1.338 0l-2.674-2.674-5.352-5.352a.937.937 0 0 1-.278-.668.93.93 0 0 1 .278-.668.94.94 0 0 1 1.338 0l8.026 8.026c.18.18.278.416.278.668a.953.953 0 0 1-.278.668Zm-.668-4.682-4.014-4.014 3.728-3.73 4.014 4.015-3.728 3.729Zm19.894 4.414a.947.947 0 0 1-1.338 1.338l-3.076-3.078 1.339-1.338 3.075 3.078Zm-1.738-9.374c.253 0 .491.098.668.276.18.179.278.415.278.668 0 .252-.098.49-.278.668l-8.026 8.03a.97.97 0 0 1-1.338 0 .936.936 0 0 1-.277-.668c0-.252.098-.49.277-.668l8.026-8.026a.934.934 0 0 1 .67-.28Zm-8.026 4.96L8.894 12.906l-.002-4.014h4.014l20.172 20.174-4.012 4.014Z"/></svg>