<svg xmlns="http://www.w3.org/2000/svg" viewBox="0 0 48 48"><path d="m40.773 26.25-5.393 1.365L28.745 24l6.635-3.615 5.393 1.364L42 17.424 37.95 16.4l1.084-3.824-4.584-1.157-1.445 5.093-6.633 3.608v-7.223l3.951-3.728L26.965 6 24 8.798 21.035 6l-3.358 3.169 3.95 3.728v7.223l-6.632-3.608-1.445-5.093-4.585 1.157L10.05 16.4 6 17.424l1.227 4.325 5.396-1.364L19.255 24l-6.632 3.615-5.396-1.364L6 30.576l4.05 1.024-1.085 3.824 4.585 1.157 1.445-5.093 6.633-3.608v7.223l-3.951 3.728L21.035 42 24 39.202 26.965 42l3.358-3.169-3.95-3.728V27.88l6.632 3.608 1.445 5.093 4.584-1.157L37.95 31.6 42 30.576l-1.227-4.325Z"/></svg>