<svg xmlns="http://www.w3.org/2000/svg" viewBox="0 0 32 32"><path d="M25 19.333c.003.075.001.146-.001.218-.002.09-.005.182.001.282 0 2.755-3.224 5.308-5.833 7.167-.951.608-2.016.85-3.167.833-1.09-.016-2.266-.258-3.167-.833C10.224 25.141 7 22.588 7 19.833v-.5L3.333 17.5c0-6.518 7.167-14.167 7.167-14.167v7.472c1.513-1.178 3.58-1.902 5.5-1.972s3.487.794 5 1.972V3.333s7.667 7.649 7.667 14.167L25 19.333zm-7.477 4.054c1.684-1.111 4.171-3.037 4.143-4.704 0-6.578-5.652-6.517-5.652-6.517s-5.681-.062-5.681 6.517c0 1.667 2.476 3.581 4.171 4.704a2.774 2.774 0 0 0 3.018 0zM5.167 21l-3.833 3.667c1.576 1.787 6 4 6 4C5.592 25.682 5.167 21 5.167 21zm25.5 3.667c-1.576 1.787-6 4-6 4C26.409 25.682 26.834 21 26.834 21l3.833 3.667zM18.11 17.33l-1.338-1.919c-.168-.256-.457-.411-.767-.411s-.599.155-.767.411l-1.361 1.919c-.291.417-.28.97.028 1.375l1.361 1.754a.915.915 0 0 0 1.478 0l1.366-1.754a1.172 1.172 0 0 0 0-1.375z"/></svg>