<svg xmlns="http://www.w3.org/2000/svg" viewBox="0 0 48 48"><path d="M21.273 6.385c0-.765.61-1.385 1.363-1.385h2.728c.753 0 1.363.62 1.363 1.385v6.923h5.455c.753 0 1.363.62 1.363 1.384v2.77c0 .764-.61 1.384-1.363 1.384H28.09l.807 9.833L24 33.137l-4.898-4.458.807-9.833h-4.09c-.754 0-1.365-.62-1.365-1.384v-2.77c0-.764.611-1.384 1.364-1.384h5.455V6.385Z"/><path d="M23.808 36.682a.286.286 0 0 0 .384 0l8.863-8.068c.214-.195.551.018.46.29l-2.366 6.955a.276.276 0 0 0 .221.36l7.394 1.208a.275.275 0 0 1 .103.507l-4.49 2.751a2.145 2.145 0 0 1-1.12.315H14.743c-.396 0-.784-.11-1.12-.315l-4.49-2.751a.275.275 0 0 1 .103-.507l7.394-1.208a.276.276 0 0 0 .22-.36l-2.364-6.955c-.093-.272.245-.485.459-.29l8.863 8.068Z"/></svg>