<svg xmlns="http://www.w3.org/2000/svg" viewBox="0 0 48 48"><path d="M16.974 14.933h5.46l.253-.266L19.512 12h-5.08l-3.176 2.667 3.687 3.87c-.04-.09-.078-.182-.116-.274-.644-1.582.483-3.33 2.147-3.33Zm.978 7.605c-.208-.172-.41-.351-.605-.538h-1.645l-3.176 14h8.891l-2.197-9.689a8.756 8.756 0 0 1-1.198-2.001 2.449 2.449 0 0 1-.07-1.772Zm-11.777.795c1.608 3.72 5.716 4 5.716 4l1.905-6.666-3.492-3.334H3c1.97 4.834 6.986 5.334 6.986 5.334l-3.81.666Zm30.681-8.666L33.724 12h-5.01l-3.133 2.667 5.638 6 5.637-6Z"/><path d="m28.087 20.667-1.88 6.666s-4.052-.28-5.637-4l3.758-.666s-4.948-.5-6.89-5.334h7.204l3.445 3.334Zm6.263 0 3.445-3.334H45c-1.943 4.834-6.89 5.334-6.89 5.334l3.758.666c-1.586 3.72-5.638 4-5.638 4l-1.88-6.666ZM32.472 22l3.132 14h-8.77l3.132-14h2.506Z"/></svg>