<svg xmlns="http://www.w3.org/2000/svg" viewBox="0 0 48 48"><path d="M34.898 25.416a7.922 7.922 0 0 0-.727-.033c-1.7 0-3.16.492-4.315 1.487-1.174 1.012-1.846 2.393-2.005 4.062l-.128 1.348.286.054-1.238 1.242 1.467 1.472c.115.116.18.263.196.413l-1.41.303-2.692-2.705-3.772 3.788.627.63c.266.268.266.7 0 .967l-1.544 1.55a.677.677 0 0 1-.962 0l-4.633-4.653a.686.686 0 0 1 0-.967l1.543-1.55a.68.68 0 0 1 .963 0l.627.63 3.771-3.788-2.944-2.956a.686.686 0 0 1 0-.968.68.68 0 0 1 .964 0l1.465 1.472 14.292-14.35c.003-.003.008-.005.01-.008a.685.685 0 0 1 .2-.133c.011-.004.019-.009.03-.012a.612.612 0 0 1 .16-.043l6.112-.742h.013c.02-.003.044-.002.068-.002.022 0 .045 0 .066.002h.015c.02.003.036.01.06.012.02.005.04.008.058.014a.47.47 0 0 1 .086.034c.009.005.021.008.03.014a.63.63 0 0 1 .088.057l.02.014c.026.022.05.046.074.071l.021.021c.02.024.037.048.053.075a.292.292 0 0 1 .024.037c.012.024.025.05.034.075a.655.655 0 0 1 .02.05c.007.024.01.052.017.078.001.014.007.028.009.044v.012c.003.024.001.048.003.07 0 .024 0 .047-.003.083l-.74 6.135c-.003.034-.019.062-.028.092a.555.555 0 0 1-.036.111.737.737 0 0 1-.09.138c-.015.02-.022.043-.04.061l-6.165 6.192ZM32.41 12.88 20.543 24.797l-.21-.21a2.388 2.388 0 0 0-3.383-.004 2.414 2.414 0 0 0-.003 3.406l1.653 1.66-.307.308-2.81-2.822-3.772 3.788.627.63c.266.268.266.7 0 .967l-1.544 1.55a.678.678 0 0 1-.961 0l-4.634-4.653a.686.686 0 0 1 0-.967l1.543-1.55a.68.68 0 0 1 .963 0l.627.63 3.771-3.788-2.943-2.956a.686.686 0 0 1 0-.968.68.68 0 0 1 .963 0l1.466 1.472L25.88 6.94c.004-.003.008-.005.01-.008a.685.685 0 0 1 .2-.133l.03-.012a.612.612 0 0 1 .161-.043l6.111-.742h.013c.021-.003.044-.002.069-.002.021 0 .045 0 .066.002h.014c.02.003.036.01.06.012.02.005.04.008.058.014a.47.47 0 0 1 .086.034c.009.005.022.008.03.014a.64.64 0 0 1 .088.057l.02.014a.827.827 0 0 1 .074.071l.022.021c.02.024.037.048.052.075a.448.448 0 0 1 .024.037c.013.024.025.05.034.075a.68.68 0 0 1 .02.05c.008.024.01.052.017.078.002.014.008.028.01.044v.012c.002.024 0 .048.002.07l-.001.07c-.002.005 0 .008-.002.013l-.737 6.117Zm-3.814 24.06 2.704-.58c.276 2.101 1.246 3.152 2.912 3.152.812 0 1.445-.187 1.9-.56.453-.373.68-.898.68-1.576 0-1.423-.901-2.135-2.704-2.135h-.95v-2.198h.847c.66 0 1.183-.156 1.569-.467.385-.31.578-.75.578-1.316 0-.595-.183-1.061-.547-1.4-.365-.338-.87-.508-1.518-.508-1.252 0-1.989.733-2.21 2.198l-2.539-.477c.124-1.3.623-2.326 1.497-3.079.874-.753 1.993-1.13 3.355-1.13 1.308 0 2.389.366 3.242 1.099.867.719 1.3 1.686 1.3 2.903 0 .857-.199 1.527-.598 2.011-.372.456-.791.76-1.26.912v.063c.565.124 1.13.497 1.694 1.12.564.607.846 1.471.846 2.59 0 1.259-.454 2.316-1.363 3.173-.894.843-2.16 1.265-3.799 1.265-1.596 0-2.887-.432-3.871-1.296-.984-.864-1.573-2.118-1.765-3.763Z"/></svg>