<svg xmlns="http://www.w3.org/2000/svg" viewBox="0 0 48 48"><path fill-rule="evenodd" clip-rule="evenodd" d="M24.704 24.766c-4.533.347-8.632-1.078-11.016-3.484-2.636.578-5.002 2.522-5.327 4.909-.307 2.31 3.214 5.563 9.571 5.005 6.357-.559 8.289-3.35 7.332-6.487a5.124 5.124 0 0 0-.174.022c-.124.017-.25.035-.386.035ZM10.278 26.45c.163-1.183 1.336-2.387 2.92-2.999 2.6 2.131 6.303 3.328 10.265 3.308-.398 1.292-2.133 2.19-5.7 2.503-4.569.4-7.65-1.54-7.485-2.812Z"/><path fill-rule="evenodd" clip-rule="evenodd" d="M31.99 24.745c4.259-2.204 6.917-5.923 6.634-9.952-.408-6.164-7.366-10.364-15.248-9.73-7.892.636-14.159 5.79-13.73 11.928l.006.078c-4.246 2.2-6.897 5.913-6.634 9.942.43 6.157 7.287 10.162 15.243 9.547 2.741-.212 5.275-.943 7.401-2.063a4.162 4.162 0 0 1 1.214-2.767 4.131 4.131 0 0 1 3.458-1.188c1.19-1.69 1.808-3.638 1.663-5.717l-.006-.078Zm-20.415-7.89c-.343-4.91 5.02-9.298 11.955-9.856 6.935-.559 12.84 3.022 13.165 7.93.253 3.6-2.6 6.95-6.88 8.682.144.443.216.886.252 1.348.344 4.909-4.984 9.124-11.954 9.663-6.97.54-12.822-2.83-13.165-7.738-.235-3.6 2.6-6.95 6.88-8.682a5.711 5.711 0 0 1-.252-1.347Z"/><path d="M37.967 27.618c0-.696-.563-1.26-1.256-1.26l-.147.008a1.26 1.26 0 0 0-1.11 1.252v11.077l-4.889-4.908a1.253 1.253 0 0 0-1.776 0c-.49.493-.49 1.29 0 1.783l7.033 7.06a1.25 1.25 0 0 0 1.777 0l7.033-7.06c.49-.492.49-1.29 0-1.783l-.128-.113a1.253 1.253 0 0 0-1.648.113l-4.89 4.907V27.618Z"/></svg>