<svg xmlns="http://www.w3.org/2000/svg" viewBox="0 0 48 48"><path d="M21.416 5.01a5.059 5.059 0 0 0-.273-.01h-.74l-.045.002-.177.008c-1.957.122-3.402 1.732-6.233 7.197-2.196 4.048-4.782 7.646-7.846 10.87-.711.73-1.107 1.56-1.102 2.527.002.388.109.873.257 1.323 1.58 4.507 6.668 8.772 13.973 13.458.549.354 1.025.554 1.552.563.558.008.979-.172 1.586-.564l.197-.13c1.53-1.005 2.74-1.822 3.868-2.64a4.105 4.105 0 0 1-.36-2.25c-1.347 1.008-2.73 1.95-4.609 3.186l-.19.124c-.286.185-.414.24-.46.239-.062-.001-.238-.075-.5-.244-6.865-4.403-11.793-8.535-13.15-12.401-.08-.245-.146-.55-.147-.676-.002-.376.16-.715.532-1.097 3.198-3.365 5.889-7.109 8.177-11.328 2.525-4.874 3.594-6.065 4.58-6.126a2.53 2.53 0 0 1 .19-.006h.605c.079 0 .133.002.19.006.986.061 2.055 1.252 4.57 6.109 2.315 4.26 4.998 7.996 8.178 11.336.39.399.545.725.54 1.1 0 .013 0 .029-.004.05a4.009 4.009 0 0 1 1.89-.736l.063-.006c-.142-.672-.5-1.27-1.043-1.827-3.045-3.198-5.624-6.788-7.846-10.877-2.821-5.448-4.266-7.058-6.223-7.18Z"/><path d="M29.233 21.14c-.683-1.304-2.144-2.003-3.5-2.01-1.163 0-2.248.874-4.019 2.735-.168.178-.536.31-.916.31s-.747-.132-.914-.308c-1.772-1.863-2.857-2.737-4.016-2.737-1.374 0-2.84.697-3.521 2.008-.867 1.668-.334 3.914 1.682 6.678 2.347 3.187 3.533 4.924 4.656 6.957.432.795 1.212 1.33 2.113 1.33.9 0 1.679-.534 2.115-1.332 1.147-2.066 2.433-3.953 4.65-6.95 2.02-2.764 2.546-5.01 1.67-6.68Zm-6.063 2.133c1.277-1.342 2.228-2.108 2.558-2.108.67.003 1.43.367 1.722.926.444.846.099 2.321-1.506 4.518-2.265 3.06-3.591 5.006-4.797 7.18-.102.186-.237.279-.349.279-.112 0-.246-.093-.348-.28-1.182-2.14-2.405-3.93-4.8-7.182-1.604-2.2-1.955-3.68-1.517-4.524.29-.557 1.047-.917 1.735-.917.33 0 1.282.766 2.56 2.11.582.614 1.478.934 2.37.934.893 0 1.789-.32 2.372-.936Zm9.717 8.862.002-3.12c-.675.896-1.522 1.823-2.522 2.773.743.052 1.476.31 2.106.775.142-.143.28-.286.414-.428Z"/><path d="M38.155 28.955c0-.681-.547-1.234-1.222-1.234l-.143.009a1.23 1.23 0 0 0-1.08 1.225v10.834l-4.758-4.8a1.215 1.215 0 0 0-1.729 0 1.241 1.241 0 0 0 0 1.744l6.846 6.906a1.213 1.213 0 0 0 1.614.101 1.21 1.21 0 0 0 .114-.101l6.845-6.906a1.241 1.241 0 0 0 0-1.744l-.125-.11a1.214 1.214 0 0 0-1.604.11l-4.758 4.799V28.955Z"/></svg>