<svg xmlns="http://www.w3.org/2000/svg" viewBox="0 0 32 32"><path d="m17.333 1.333 4.867 9L21 12h-2.417L16 8.667 13.45 12H11l-1.183-1.667 4.85-9-13.333 8 4.667 8c0 8.75 6.833 13.167 6.833 13.167v-4h6.5v4s6.667-4.417 6.667-13.167l4.667-8-13.333-8zm.434 13.35c.3.733.133 1.567-.417 2.133s-1.367.733-2.083.417a1.969 1.969 0 0 1-1.183-1.8c0-1.067.85-1.95 1.9-1.95.783 0 1.483.467 1.783 1.2zm-6.917 3.25c.55-.55 1.367-.717 2.083-.417s1.183 1.017 1.183 1.8c0 1.067-.85 1.933-1.9 1.95-.8-.017-1.5-.5-1.783-1.217a1.948 1.948 0 0 1 .417-2.117zm5.15 7.2c-1.05 0-1.9-.867-1.9-1.95 0-1.067.85-1.933 1.9-1.933s1.9.867 1.9 1.95c0 .517-.2 1.017-.55 1.383s-.85.567-1.35.567v-.017zm2.467-7.2c.55-.55 1.367-.717 2.083-.417s1.183 1.017 1.183 1.8c0 1.067-.85 1.95-1.9 1.95-.8-.017-1.483-.5-1.783-1.217a1.948 1.948 0 0 1 .417-2.117z"/></svg>