<svg xmlns="http://www.w3.org/2000/svg" viewBox="0 0 48 48"><path d="m32.858 9.646-9.837-1.319-4.019 7.1 7.871 6.279.131-.236c.37-.65.803-1.393 1.483-1.92.696-.537 1.435-.523 1.92-.579.485-.053.609-.118.628-.146.099-.139.106-.447-.02-1.064-.125-.614-.392-1.421-.113-2.355.232-.777.72-1.301 1.095-1.732.376-.432.643-.77.735-1.055.113-.355.18-1.266.168-2.01a21.382 21.382 0 0 0-.042-.963Zm1.905.256c.01.201.019.429.023.67.014.82.01 1.77-.255 2.596-.245.768-.73 1.28-1.102 1.707-.374.426-.63.762-.716 1.048-.073.245.014.783.154 1.47.139.686.325 1.634-.286 2.491-.543.764-1.408.866-1.96.928-.552.062-.902.144-.968.195-.194.15-.678.797-1.001 1.368-.107.188-.203.367-.283.524l4.153 3.313 6.194-15.78-3.953-.53ZM24.118 21.898l-5.48 7.175-2.78 9.11a.906.906 0 0 1-.15.289l-2.83 3.707a.955.955 0 0 1-1.323.186l-4.177-2.78a.916.916 0 0 1-.189-1.299l3.144-3.587 2.783-8.197a.923.923 0 0 1 .111-.22l5.662-8.345a.94.94 0 0 1 .103-.13l-1.794-1.43a.916.916 0 0 1-.231-1.17l4.722-8.347a.954.954 0 0 1 .975-.464l2.848.388.007-.01 1.889-2.764a.949.949 0 0 1 .967-.392l4.716.923c.66.13.975.875.602 1.424l-1.203 1.77 7.714 1.05a.927.927 0 0 1 .722 1.276l-7.15 18.012a.953.953 0 0 1-1.467.36l-8.19-6.535Zm-1.467-1.17-2.2-1.755-5.585 8.231-2.791 8.224a.936.936 0 0 1-.142.261l-2.669 2.966 2.669 1.667 2.163-2.833 2.784-9.11a.922.922 0 0 1 .148-.29l5.623-7.362Zm7.76-13.277.926-1.364-2.711-.53-1.033 1.51 2.817.384Zm-1.315 21.19a.952.952 0 0 1 .807.4s.491.695.985 1.532c.245.42.496.874.696 1.321.2.448.376.85.376 1.384 0 1.526-1.28 2.782-2.834 2.782-1.553 0-2.833-1.256-2.833-2.782 0-.535.175-.936.375-1.384.199-.447.449-.904.697-1.321.494-.837.984-1.533.984-1.533.17-.24.45-.39.747-.399Zm.03 2.662c-.063.102-.063.093-.127.2-.226.382-.449.79-.602 1.136-.153.345-.215.66-.215.637 0 .524.41.928.944.928a.922.922 0 0 0 .945-.928c0 .023-.062-.292-.215-.637a12.323 12.323 0 0 0-.602-1.136c-.064-.107-.066-.098-.128-.2Zm4.692 5.685a.95.95 0 0 1 .808.398s.49.695.984 1.531c.245.42.496.873.696 1.32.201.447.376.848.376 1.383 0 1.525-1.28 2.78-2.833 2.78-1.554 0-2.833-1.255-2.833-2.78 0-.535.175-.935.375-1.383.198-.447.449-.903.697-1.32.493-.836.984-1.53.984-1.53a.952.952 0 0 1 .746-.4Zm.03 2.659c-.063.102-.063.093-.127.199-.227.383-.448.79-.602 1.135-.154.345-.215.66-.215.637 0 .523.41.927.945.927a.921.921 0 0 0 .944-.927c0 .023-.061-.292-.215-.637a12.514 12.514 0 0 0-.602-1.135c-.064-.106-.066-.097-.127-.2Z"/></svg>