<svg xmlns="http://www.w3.org/2000/svg" viewBox="0 0 48 48"><path d="m21.884 30.28-2.111 2.111.643.644c.516.516.8 1.2.8 1.93s-.284 1.416-.8 1.932-1.2.8-1.931.8a2.715 2.715 0 0 1-1.93-.8l-1.932-1.931-2.96 2.963a2.717 2.717 0 0 1-1.932.798c-.7 0-1.398-.265-1.93-.798a2.738 2.738 0 0 1 0-3.864l2.962-2.963-1.93-1.932a2.704 2.704 0 0 1-.801-1.93c0-.729.284-1.415.8-1.932.516-.515 1.2-.8 1.931-.8.729 0 1.415.285 1.93.8l.644.644 3.589-3.59-9.658-9.659A.901.901 0 0 1 7 12.06V6.91A.91.91 0 0 1 7.91 6h5.152a.91.91 0 0 1 .643.267l9.659 9.66 9.658-9.66A.902.902 0 0 1 33.665 6h5.152a.91.91 0 0 1 .91.91v5.152a.91.91 0 0 1-.267.643l-8.182 8.18a11.38 11.38 0 0 0-4.032 1.498L12.685 7.821H8.82l.002 3.864 14.56 14.561a11.381 11.381 0 0 0-1.499 4.034ZM34.043 7.821l-9.392 9.391 3.862 3.864 9.393-9.39V7.82h-3.863Zm-23.667 28.82 2.961-2.961-1.288-1.288-2.96 2.963a.898.898 0 0 0-.268.643.912.912 0 0 0 1.555.643Zm8.756-1.03c.17-.173.265-.4.267-.643a.901.901 0 0 0-.267-.643l-7.726-7.726a.905.905 0 0 0-1.288 0 .898.898 0 0 0-.267.643c0 .242.095.47.267.642l5.152 5.152 2.574 2.575a.934.934 0 0 0 1.288 0Zm-.643-4.507 3.589-3.59-3.864-3.863-3.589 3.589 3.864 3.864Zm14.693-8.74c5.422 0 9.818 4.396 9.818 9.818S38.604 42 33.182 42s-9.818-4.396-9.818-9.818 4.396-9.818 9.818-9.818Zm-3.928 4.909a1.637 1.637 0 1 0 .002 3.274 1.637 1.637 0 0 0-.002-3.274Zm7.855 0a1.637 1.637 0 1 0 .001 3.274 1.637 1.637 0 0 0 0-3.274Zm-3.927 6.218c-2.107 0-3.982 1.004-5.114 2.557a.657.657 0 0 0 .147.917.657.657 0 0 0 .917-.15c.886-1.216 2.36-2.015 4.05-2.015 1.689 0 3.163.8 4.05 2.015.1.141.255.237.428.264a.65.65 0 0 0 .753-.542.657.657 0 0 0-.117-.49c-1.132-1.552-3.007-2.556-5.114-2.556Z"/></svg>