<svg xmlns="http://www.w3.org/2000/svg" viewBox="0 0 48 48"><path d="M34.812 25.502h-4.206l-.805 5.032-3.03 3.042 1.467 1.472a.686.686 0 0 1-.482 1.168.675.675 0 0 1-.48-.2l-2.944-2.957-3.772 3.788.627.63c.266.268.266.7 0 .967l-1.544 1.55a.677.677 0 0 1-.962 0l-4.633-4.653a.686.686 0 0 1 0-.967l1.543-1.55a.68.68 0 0 1 .963 0l.627.63 3.771-3.788-2.944-2.956a.686.686 0 0 1 0-.968.68.68 0 0 1 .964 0l1.465 1.472 14.292-14.35c.003-.003.008-.005.01-.008a.685.685 0 0 1 .2-.133c.011-.004.019-.009.03-.012a.612.612 0 0 1 .16-.043l6.112-.742h.013c.02-.003.044-.002.068-.002.022 0 .045 0 .066.002h.015c.02.003.036.01.06.012.02.005.04.008.058.014a.47.47 0 0 1 .086.034c.009.005.021.008.03.014a.63.63 0 0 1 .088.057l.02.014c.026.022.05.046.074.071l.021.021c.02.024.037.048.053.075a.292.292 0 0 1 .024.037c.012.024.025.05.034.075a.655.655 0 0 1 .02.05c.007.024.01.052.017.078.001.014.007.028.009.044v.012c.003.024.001.048.003.07 0 .024 0 .047-.003.083l-.74 6.135c-.003.034-.019.062-.028.092a.555.555 0 0 1-.036.111.737.737 0 0 1-.09.138c-.015.02-.022.043-.04.061l-6.25 6.277Zm-2.4-12.622-11.87 11.917-.209-.21a2.388 2.388 0 0 0-3.383-.004 2.414 2.414 0 0 0-.003 3.406l1.653 1.66-.307.308-2.81-2.822-3.772 3.788.627.63c.266.268.266.7 0 .967l-1.544 1.55a.678.678 0 0 1-.961 0l-4.634-4.653a.686.686 0 0 1 0-.967l1.543-1.55a.68.68 0 0 1 .963 0l.627.63 3.771-3.788-2.943-2.956a.686.686 0 0 1 0-.968.68.68 0 0 1 .963 0l1.466 1.472L25.88 6.94c.004-.003.008-.005.01-.008a.685.685 0 0 1 .2-.133l.03-.012a.612.612 0 0 1 .161-.043l6.111-.742h.013c.021-.003.044-.002.069-.002.021 0 .045 0 .066.002h.014c.02.003.036.01.06.012.02.005.04.008.058.014a.47.47 0 0 1 .086.034c.009.005.022.008.03.014a.64.64 0 0 1 .088.057l.02.014a.827.827 0 0 1 .074.071l.022.021c.02.024.037.048.052.075a.448.448 0 0 1 .024.037c.013.024.025.05.034.075a.68.68 0 0 1 .02.05c.008.024.01.052.017.078.002.014.008.028.01.044v.012c.002.024 0 .048.002.07l-.001.07c-.002.005 0 .008-.002.013l-.737 6.117ZM30.16 38.035l2.487-1.133c.21.783.555 1.399 1.038 1.846a2.45 2.45 0 0 0 1.723.672c.77 0 1.394-.238 1.87-.714.477-.475.716-1.14.716-1.993 0-.853-.235-1.517-.705-1.993-.47-.475-1.078-.713-1.822-.713-1.188 0-2.102.525-2.742 1.573l-2.055-1.11L31.864 27h7.324v2.622h-5.327l-.528 3.315.02.021c.051-.084.175-.21.371-.378.21-.181.539-.346.99-.493.45-.146.923-.22 1.42-.22 1.24 0 2.277.462 3.113 1.385.849.937 1.273 2.119 1.273 3.545 0 1.623-.49 2.895-1.469 3.818-.979.923-2.193 1.385-3.643 1.385-1.318 0-2.421-.353-3.31-1.06-.887-.706-1.533-1.674-1.938-2.905Z"/></svg>