<svg xmlns="http://www.w3.org/2000/svg" viewBox="0 0 32 32"><path d="M14.8 1.333s1.1 4.667-2.2 7.7c-3.283 3.2-4.117 3.8-5.383 1.6-1.483 2.35-2.467 5.05-2.55 7.833 3.333-.183 1.967 4.5 4.167 7.7a24.647 24.647 0 0 1 5.95 4c.95.45 2.133.817 2.95.133l8.417-8.267c.683-.567 1.1-1.4 1.167-2.3.1-1.65 0-4-1.383-5.6 0 0-.067 1.667-.8 1.667 0 0-2.1-3.933-5.583-3.3-2.383.433-4.767 3.15-5.683 5-1.05 2.067 1 4.267 2.617 4.267 1.5-.4 2.667-3.167 2.667-3.167.283-.4-.033-.333-.517-.383l-.883.117c-.417-.05-.667-.833-.4-1.15 0 0 1.667-3 3.667-1.567 2.65 1.85 2.15 3.267 1.617 3.917l-5.217 6.033c-.717.733-1.683.067-2.5-.767a20.17 20.17 0 0 0-1.667-1.5c-1.467-1.15-4.3-3.383-.967-8.333l5.617-4.85a3.68 3.68 0 0 0 1.217-3.367c-.3-1.75-1.267-4.033-4.317-5.417z"/></svg>