<svg xmlns="http://www.w3.org/2000/svg" viewBox="0 0 48 48"><path d="M39 6h-3.333v6.136h-3.334V6H29v6.136h-3.333V6h-3.334v6.136H19V6h-3.333v6.136h-3.334V6H9v9l3.333 2.864V42h23.334V17.864L39 15V6ZM22.334 19.5V24H19v-4.5c0-.827.745-1.636 1.667-1.636s1.666.809 1.666 1.636Zm6.666 0V24h-3.333v-4.5c0-.827.744-1.636 1.666-1.636.922 0 1.667.809 1.667 1.636Zm-1.667 19.636h5v-9H15.667v9h5v-3.272C20.666 34.206 22.157 33 24 33c1.841 0 3.333 1.206 3.333 2.864v3.272ZM34.287 15l-1.953 1.636v10.228H15.666V16.636L13.713 15h20.574Z"/></svg>