<svg xmlns="http://www.w3.org/2000/svg" viewBox="0 0 48 48"><path d="m21.884 30.28-2.111 2.111.643.644c.516.516.8 1.2.8 1.93s-.284 1.416-.8 1.932-1.2.8-1.931.8a2.715 2.715 0 0 1-1.93-.8l-1.932-1.931-2.96 2.963a2.717 2.717 0 0 1-1.932.798c-.7 0-1.398-.265-1.93-.798a2.738 2.738 0 0 1 0-3.864l2.962-2.963-1.93-1.932a2.704 2.704 0 0 1-.801-1.93c0-.729.284-1.415.8-1.932.516-.515 1.2-.8 1.931-.8.729 0 1.415.285 1.93.8l.644.644 3.589-3.59-9.658-9.659A.901.901 0 0 1 7 12.06V6.91A.91.91 0 0 1 7.91 6h5.152a.91.91 0 0 1 .643.267l9.659 9.66 9.658-9.66A.902.902 0 0 1 33.665 6h5.152a.91.91 0 0 1 .91.91v5.152a.91.91 0 0 1-.267.643l-8.182 8.18a11.38 11.38 0 0 0-4.032 1.498L12.685 7.821H8.82l.002 3.864 14.56 14.561a11.381 11.381 0 0 0-1.499 4.034ZM34.043 7.821l-9.392 9.391 3.862 3.864 9.393-9.39V7.82h-3.863Zm-23.667 28.82 2.961-2.961-1.288-1.288-2.96 2.963a.898.898 0 0 0-.268.643.912.912 0 0 0 1.555.643Zm8.756-1.03c.17-.173.265-.4.267-.643a.901.901 0 0 0-.267-.643l-7.726-7.726a.905.905 0 0 0-1.288 0 .898.898 0 0 0-.267.643c0 .242.095.47.267.642l5.152 5.152 2.574 2.575a.934.934 0 0 0 1.288 0Zm-.643-4.507 3.589-3.59-3.864-3.863-3.589 3.589 3.864 3.864ZM32.51 41.993a12.942 12.942 0 0 1-.95-.116 9.84 9.84 0 0 1-8.16-8.651c-.049-.416-.049-1.676 0-2.092.273-2.275 1.2-4.238 2.757-5.83 1.599-1.635 3.635-2.623 5.979-2.903.415-.05 1.676-.05 2.092 0 2.344.28 4.38 1.268 5.978 2.903 1.557 1.592 2.485 3.555 2.757 5.83.05.416.05 1.676 0 2.092-.272 2.275-1.2 4.238-2.757 5.83-1.595 1.632-3.638 2.626-5.97 2.903a20.02 20.02 0 0 1-1.727.033h.001Zm5.585-8.892v-.922h-3.991v-4.912H32.26v6.753h5.834v-.92.002Z"/></svg>