<svg xmlns="http://www.w3.org/2000/svg" viewBox="0 0 48 48"><path d="M14.705 29.403a11.284 11.284 0 0 1-2.07-6.514c0-6.24 5.1-11.314 11.365-11.314 6.266 0 11.362 5.077 11.362 11.314 0 2.342-.728 4.616-2.07 6.514h4.304a.797.797 0 1 1 0 1.593H10.405a.798.798 0 0 1-.8-.797c0-.44.357-.796.8-.796h4.3Zm16.576 0a.797.797 0 0 1 .107-.157 9.699 9.699 0 0 0 2.375-6.36c0-5.36-4.378-9.72-9.763-9.72-5.384.002-9.765 4.362-9.765 9.725a9.7 9.7 0 0 0 2.375 6.357c.043.048.078.1.106.155h14.565Zm-4.59-19.253c-.012 0-.02-.002-.032 0h-5.316a.797.797 0 0 1-.692-1.195L23.31 4.37c.286-.493 1.1-.493 1.386 0l2.563 4.418a.794.794 0 0 1 .236.564.807.807 0 0 1-.804.798Zm-3.964-1.593h2.547L24 6.36l-1.273 2.198Zm12.768 7.428a.803.803 0 0 1-.566-.233l-3.759-3.743a.788.788 0 0 1-.206-.768.804.804 0 0 1 .566-.564l5.134-1.37a.798.798 0 0 1 .772.206c.202.2.282.496.206.768l-1.376 5.112a.8.8 0 0 1-.771.592Zm-2.214-4.127 1.8 1.791.66-2.448-2.46.656Zm4.315 14.475a.796.796 0 0 1-.4-.108.792.792 0 0 1-.4-.689v-5.293c0-.285.152-.548.4-.689a.808.808 0 0 1 .8 0l4.604 2.648a.793.793 0 0 1 0 1.377l-4.604 2.648a.809.809 0 0 1-.4.106Zm.8-4.71v2.536L40.6 22.89l-2.206-1.268Zm-27.992 4.71a.797.797 0 0 1-.4-.108L5.4 23.58a.791.791 0 0 1 0-1.377l4.604-2.65a.797.797 0 0 1 1.2.69v5.292a.792.792 0 0 1-.4.69.779.779 0 0 1-.4.109ZM7.4 22.89l2.205 1.266V21.62L7.4 22.89Zm5.107-6.906a.8.8 0 0 1-.772-.591L10.36 10.28a.795.795 0 0 1 .978-.973l5.136 1.37a.798.798 0 0 1 .565.563.778.778 0 0 1-.208.766l-3.76 3.743a.787.787 0 0 1-.564.235ZM12.26 11.2l.66 2.448 1.8-1.791-2.46-.657ZM37.596 42H10.405a.798.798 0 0 1-.8-.796c0-.44.357-.797.8-.797h27.19a.796.796 0 1 1 0 1.593Zm-2.37-5.504H12.774a.798.798 0 1 1 0-1.593h22.454a.798.798 0 1 1 0 1.593Zm5.02-2.75H30.083a.798.798 0 0 1-.8-.796c0-.44.359-.796.8-.796h10.165c.442 0 .8.356.8.796a.8.8 0 0 1-.8.796Zm-22.16 0H7.753a.798.798 0 0 1-.8-.796c0-.44.359-.796.8-.796h10.33a.797.797 0 1 1 .002 1.593Zm22.16 5.503H30.083a.798.798 0 0 1-.8-.797c0-.44.359-.796.8-.796h10.165c.442 0 .8.357.8.796a.8.8 0 0 1-.8.797Zm-22.16 0H7.753a.798.798 0 0 1-.8-.797c0-.44.359-.796.8-.796h10.33a.797.797 0 1 1 .002 1.593Z"/></svg>