<svg xmlns="http://www.w3.org/2000/svg" viewBox="0 0 48 48"><path d="M34.23 25.388h-1.243l-1.918 3.17-4.475 4.486 1.096 1.098-.687 1.137-2.716-2.723-3.568 3.577.593.595a.647.647 0 0 1 0 .913l-1.46 1.465a.641.641 0 0 1-.91 0l-4.383-4.395a.647.647 0 0 1 0-.913l1.46-1.465a.643.643 0 0 1 .91 0l.593.595 3.568-3.577-2.785-2.792a.647.647 0 0 1 0-.913.643.643 0 0 1 .911 0l1.387 1.39 13.52-13.553c.002-.003.006-.005.01-.008a.65.65 0 0 1 .188-.125c.01-.004.018-.009.028-.012a.575.575 0 0 1 .152-.04l5.781-.701h.012c.02-.003.042-.002.065-.002.02 0 .042 0 .063.002h.013c.018.003.034.008.056.011l.056.013a.445.445 0 0 1 .081.032c.008.005.02.008.029.013a.622.622 0 0 1 .083.055l.019.013c.024.02.048.043.07.067l.02.02a.461.461 0 0 1 .05.07.398.398 0 0 1 .023.035c.011.023.023.047.032.071a.452.452 0 0 1 .018.047c.008.023.01.05.017.074.001.013.007.027.008.041.002.004 0 .007 0 .012.003.023.002.045.003.067 0 .022 0 .044-.003.077l-.699 5.795c-.004.032-.019.058-.028.087-.01.037-.017.071-.033.105a.703.703 0 0 1-.086.13c-.014.019-.02.04-.038.058l-5.882 5.898Zm-2.3-11.89L20.702 24.753l-.198-.199a2.261 2.261 0 0 0-3.2-.003 2.277 2.277 0 0 0-.003 3.217l1.564 1.567-.29.291-2.659-2.665-3.568 3.577.593.595a.647.647 0 0 1 0 .913l-1.46 1.465a.641.641 0 0 1-.91 0L6.19 29.116a.647.647 0 0 1 0-.913l1.459-1.465a.643.643 0 0 1 .91 0l.594.595 3.567-3.577-2.784-2.792a.647.647 0 0 1 0-.913.643.643 0 0 1 .91 0l1.387 1.39 13.52-13.553.01-.008a.647.647 0 0 1 .189-.125c.01-.004.017-.009.027-.012a.58.58 0 0 1 .153-.04l5.78-.701h.012c.02-.003.043-.002.066-.002.02 0 .042 0 .062.002h.014c.018.003.034.008.056.011l.055.013a.445.445 0 0 1 .081.033c.01.004.021.007.03.013a.607.607 0 0 1 .083.054l.019.013a.75.75 0 0 1 .07.067l.02.02a.456.456 0 0 1 .049.07.427.427 0 0 1 .023.035.643.643 0 0 1 .032.071c.008.016.013.031.019.047.007.023.01.05.016.074.002.013.007.027.009.041v.012c.003.023.001.045.003.067 0 .022 0 .044-.002.065l-.001.012-.697 5.778Zm3.437 24.79H28.4v-2.55l5.387-8.905h4.152v8.925H39.6v2.53h-1.66V41h-2.573v-2.712Zm-.04-9.451-4.173 6.921h4.213v-6.921h-.04Z"/></svg>