<svg xmlns="http://www.w3.org/2000/svg" viewBox="0 0 32 32"><path d="M16 1.333c1.95 0 4.333 1.167 4.833 2.667.217.633.333 1.333.333 1.833s-.15 1.933-.333 2.5c-.092.284-.398 1.2-.916 2.75-.7 2.094-1.785 5.344-3.251 9.75-.05.2-.467.333-.667.333s-.6-.133-.667-.333a7093.817 7093.817 0 0 0-4-12.5c-.2-.6-.5-2-.5-2.5S10.899 4.6 11.165 4c.667-1.5 2.883-2.667 4.833-2.667zM6.567 7.917a.192.192 0 0 1 .2-.067c.083.017.133.067.167.15l6.733 18.45v3.983c0 .083-.05.167-.133.2s-.183.017-.25-.05l-10.05-9.05a1.883 1.883 0 0 1-.583-1.317v-8.95c0-.05.017-.1.067-.15l3.85-3.2zm22.716 3.216-3.85-3.217c-.067-.067-.133-.1-.217-.067a.221.221 0 0 0-.167.15l-6.717 18.467v4c0 .083.05.167.133.2s.183.017.25-.05l10.05-9.05c.367-.35.583-.817.583-1.317v-8.967a.244.244 0 0 0-.067-.15z"/></svg>