<svg xmlns="http://www.w3.org/2000/svg" viewBox="0 0 32 32"><path d="M0 16.645a9.147 9.147 0 0 0 5.691 8.469c2.514 2.884 6.2 4.704 10.309 4.704s7.795-1.82 10.309-4.704A9.145 9.145 0 0 0 32 16.645v-.139a9.136 9.136 0 0 0-4.337-7.779C25.245 4.798 20.925 2.181 16 2.181S6.755 4.798 4.337 8.727A9.138 9.138 0 0 0 0 16.506v.139zM16 5.636c1.274 0 2.386.695 2.977 1.727h-5.955a3.427 3.427 0 0 1 2.977-1.727zm-2.977 20.152h5.955a3.427 3.427 0 0 1-5.954 0zm-8.452-9.247a4.571 4.571 0 0 1 4.571-4.571h4.571l2.286 2.303 2.286-2.303h4.571a4.571 4.571 0 0 1 4.571 4.571v.069a4.571 4.571 0 0 1-4.571 4.571h-4.571l-2.286-2.303-2.286 2.303H9.142a4.571 4.571 0 0 1-4.571-4.571v-.069z"/></svg>