<svg xmlns="http://www.w3.org/2000/svg" viewBox="0 0 48 48"><path d="M32.842 5.65H18.528c-3.95 0-7.156 3.198-7.156 7.138 0 2.188 1.013 4.121 2.568 5.434-.258-.028-.514-.076-.784-.076-3.95 0-7.156 3.198-7.156 7.137 0 1.579.544 3.094 1.489 4.33l2.356 3.16c1.242 1.655 3.092 2.741 5.105 3.094v5.483h21.472v-5.739c2.09-.8 3.578-2.807 3.578-5.168V12.788c0-3.94-3.206-7.138-7.158-7.138ZM18.528 9.218h14.314c1.975 0 3.578 1.6 3.578 3.57a3.575 3.575 0 0 1-3.578 3.568H18.528a3.575 3.575 0 0 1-3.578-3.568c0-1.97 1.603-3.57 3.578-3.57Zm14.314 28.556H18.528v-1.79h14.314v1.79Zm1.593-5.349H16.302a4.512 4.512 0 0 1-3.588-1.79l-1.985-2.644.049-.048a3.585 3.585 0 0 1-1.194-2.655 3.575 3.575 0 0 1 3.579-3.568 3.574 3.574 0 0 1 3.577 3.568 3.53 3.53 0 0 1-.916 2.381l2.662 2.389a7.116 7.116 0 0 0 1.832-4.77c0-2.188-1.013-4.122-2.567-5.434.256.028.514.076.783.076H32.85c1.308 0 2.519-.38 3.578-.99v11.498a2 2 0 0 1-1.992 1.987Z"/></svg>