<svg xmlns="http://www.w3.org/2000/svg" viewBox="0 0 48 48"><path d="M33.046 20.23c-1.8.076-3.505.523-5.038 1.267l-1.315-4.684 3.491-3.454h12.22c-1.682 1.567-3.622 3.048-5.674 4.102-.823.253-1.538.429-2.4.431h-3.273l1.989 2.337Zm-7.668 2.967a12.708 12.708 0 0 0-4.577 9.774c0 1.526.269 2.989.762 4.345l-2.944-2.22 3.491-17.27c.148.489.577.813 1.091.864.517-.049.942-.373 1.091-.864l1.086 5.371Zm-6.54-16.53h8.728l1.527 1.943-5.891 6.908L17.31 8.61l1.528-1.943ZM4 13.359h12.22l3.49 3.454-2.182 7.772-5.673-2.59 3.491-4.103h-3.273c-.862-.002-1.577-.178-2.4-.431C7.621 16.405 5.681 14.928 4 13.359Zm28.89 29.966a13.767 13.767 0 0 1-1.006-.122 10.411 10.411 0 0 1-8.137-6.872 10.871 10.871 0 0 1-.506-2.258c-.052-.439-.052-1.77 0-2.208.288-2.401 1.27-4.473 2.92-6.154 1.693-1.726 3.849-2.768 6.332-3.064.44-.052 1.776-.052 2.216 0 2.483.296 4.639 1.338 6.332 3.064 1.65 1.681 2.632 3.753 2.92 6.154.052.439.052 1.77 0 2.208-.288 2.401-1.27 4.473-2.92 6.153-1.69 1.723-3.853 2.771-6.323 3.064-.26.031-1.584.057-1.83.035h.002Zm5.915-9.384v-.973h-4.228v-5.185h-1.952v7.128h6.18v-.972.002Z"/></svg>