<svg xmlns="http://www.w3.org/2000/svg" viewBox="0 0 48 48"><path d="M10.69 21.375A1.321 1.321 0 0 1 12 22.708 1.315 1.315 0 0 1 10.687 24h-.013a1.31 1.31 0 0 1-1.298-1.326 1.32 1.32 0 0 1 1.314-1.299Zm33.92-1.643-.003.003-2.67 4.318 2.575 4.564c.15.26.627 1.08.15 1.81-.13.2-.522.653-1.34.574-1.672-.165-6.249-3.288-7.865-5.779l-1.693-.02c.095 1.056.337 1.76.727 2.87.191.545-.1 1.137-.65 1.326a1.058 1.058 0 0 1-1.34-.644c-.47-1.335-.751-2.28-.846-3.578l-2.319-.026c.073 1.596.326 2.852.76 4.531a1.04 1.04 0 0 1-.76 1.267 1.05 1.05 0 0 1-1.28-.75c-.479-1.84-.75-3.284-.82-5.072L24.92 25.1c.055 2.047.31 3.762.766 5.918a1.039 1.039 0 0 1-.815 1.233 1.043 1.043 0 0 1-1.247-.806c-.483-2.28-.749-4.156-.802-6.369l-2.31-.026c.049 2.306.302 4.287.765 6.715A1.043 1.043 0 0 1 20.24 33c-.498 0-.94-.35-1.035-.851-.48-2.537-.744-4.666-.789-7.125l-2.399-.026-.06 5.085c-.013 1.175-.64 2-1.681 2.206-3.124.624-9.87-5.013-11.191-8.06a1.037 1.037 0 0 1 .01-.845c1.396-3.016 8.276-8.486 11.376-7.793 1.035.229 1.645 1.07 1.63 2.243l-.06 5.084 2.391.026c.084-2.56.41-4.694.978-7.135.13-.56.693-.912 1.263-.782.568.128.92.688.79 1.25-.54 2.326-.851 4.298-.935 6.694l2.31.026c.085-2.304.41-4.188.97-6.384a1.053 1.053 0 0 1 1.28-.756c.563.139.907.708.764 1.265-.527 2.064-.833 3.77-.919 5.896l2.314.027c.093-1.864.414-3.315.962-5.091.17-.55.758-.863 1.314-.695.558.168.87.75.701 1.3-.495 1.607-.788 2.855-.88 4.508l2.317.026c.113-1.355.434-2.306.965-3.6.22-.535.839-.79 1.374-.575.54.216.799.826.58 1.36-.433 1.057-.704 1.752-.81 2.839l1.573.017c1.532-2.49 6.413-5.69 8.139-5.821.832-.059 1.202.4 1.328.603.46.74-.038 1.55-.2 1.816ZM13.85 30.06l.141-12.254a.869.869 0 0 0-.015-.193c-1.24-.34-7.034 3.36-8.74 6.221 1.638 2.903 7.355 6.741 8.595 6.421.008-.037.017-.1.02-.195Zm25.944-5.523a1.03 1.03 0 0 1 .022-1.051l2.039-3.295c-1.643.971-3.827 2.63-4.639 3.895.79 1.296 2.974 3.03 4.602 4.03l-2.024-3.58Z"/></svg>