<svg xmlns="http://www.w3.org/2000/svg" viewBox="0 0 48 48"><path d="M25.453 40.286A10.907 10.907 0 0 0 27.675 43H14.5a1.357 1.357 0 0 1 0-2.714h10.953Zm-1.111-2.715H6.357a1.357 1.357 0 1 1 0-2.714h4.072V17.214c0-.204.022-.404.065-.595C11.174 10.03 17.023 5 24 5s12.826 5.03 13.506 11.619c.043.191.065.39.065.595v7.128A10.88 10.88 0 0 0 34.857 24v-6.786h-.024c-.372-5.305-5.08-9.5-10.833-9.5s-10.46 4.195-10.833 9.5h-.024v17.643H24c0 .937.119 1.847.342 2.714Zm-4.413-20.357h8.142a1.357 1.357 0 1 1 0 2.715H19.93a1.357 1.357 0 1 1 0-2.715Zm13.583 25.684a8.16 8.16 0 0 1-6.767-7.174c-.04-.345-.04-1.391 0-1.736.225-1.887.995-3.515 2.286-4.835 1.326-1.357 3.014-2.175 4.959-2.408.344-.04 1.39-.04 1.734 0 1.945.233 3.633 1.051 4.96 2.408 1.29 1.32 2.06 2.948 2.286 4.835.04.345.04 1.391 0 1.736-.226 1.887-.996 3.514-2.287 4.835-1.323 1.353-3.017 2.177-4.95 2.407-.204.025-1.24.045-1.434.028a11.311 11.311 0 0 1-.787-.096Zm5.42-8.043h-3.31v-4.074h-1.529v5.602h4.839v-1.528Z"/></svg>