<svg xmlns="http://www.w3.org/2000/svg" viewBox="0 0 48 48"><path d="M32.8 18.115c1.764 0 3.2 1.32 3.2 2.943v9.568C36 36.706 30.618 42 24 42s-12-5.295-12-11.38c0-2.095.886-4.062 2.498-5.544l.634-.585-3.064-14.436a2.809 2.809 0 0 1-.068-.62V9.16C12 7.418 13.542 6 15.436 6c1.634 0 3.052 1.07 3.372 2.541l2.078 9.904 2.712-10.319c.34-1.25 1.556-2.122 2.956-2.122 1.68 0 3.046 1.256 3.046 2.8v.672c0 .185-.02.37-.06.551l-1.368 6.634c1.32.066 2.416.86 2.836 1.96a3.388 3.388 0 0 1 1.792-.506ZM29.6 24v-4.413c0-.814-.718-1.472-1.6-1.472-.882 0-1.6.66-1.6 1.472v3.43c.948.505 1.574 1.415 1.594 2.44.858 0 1.606-.646 1.606-1.457ZM25.152 8.482c.162-.591.738-1.007 1.404-1.007.798 0 1.446.595 1.446 1.33v.673c0 .086-.01.174-.028.26l-1.51 7.283c-.988.502-1.664 1.457-1.664 2.566v2.798l-.31-.106a8.453 8.453 0 0 0-2.87-.454l3.532-13.343Zm-11.55.959c0 .11.01.22.034.329l2.914 13.743.778-.477a8.26 8.26 0 0 1 2.708-1.046.177.177 0 0 0-.008-.018.124.124 0 0 1-.012-.03L17.24 8.834c-.172-.787-.93-1.357-1.802-1.357-1.011 0-1.836.757-1.836 1.688v.276ZM34.4 30.624c0 5.272-4.665 9.909-10.4 9.909-5.733 0-10.399-4.637-10.399-9.91 0-1.702.722-3.3 2.028-4.503l.906-.833 1.68-1.03c1.682-1.033 3.816-1.26 5.712-.604l1.36.469.098.034c.606.21 1.014.75 1.014 1.346 0 .793-.7 1.438-1.564 1.438-1.786 0-3.464.64-4.726 1.8l-1.476 1.358a.695.695 0 0 0 0 1.04.837.837 0 0 0 .568.218c.204 0 .41-.072.566-.215l1.476-1.358c.96-.882 2.236-1.37 3.596-1.37 1.188 0 2.214-.614 2.754-1.507l.063.007c.115.015.23.03.345.03.96 0 1.812-.4 2.4-1.018a3.31 3.31 0 0 0 2.4 1.017c.586 0 1.128-.156 1.6-.408v4.09Zm-1.6-5.154c.882 0 1.6-.66 1.6-1.471v-2.942c0-.811-.718-1.471-1.6-1.471-.882 0-1.6.66-1.6 1.47V24c0 .811.718 1.471 1.6 1.471Z"/></svg>