<svg xmlns="http://www.w3.org/2000/svg" viewBox="0 0 48 48"><path d="M34.292 6H13.708v7.028H5l3.361 15.534h5.99c.627 1.803 1.823 3.576 3.316 4.75 1.492 1.175 3.262 2.203 5.145 2.376v5.937h-4.75V44h11.875v-2.375h-4.75v-5.938c1.884-.172 3.653-1.197 5.146-2.374 1.493-1.178 2.684-2.945 3.312-4.75h5.994L43 13.02h-8.708V6ZM10.146 26.188 8.166 15.5h5.542v9.896c0 .274-.036.528 0 .791h-3.562Zm20.979-.792c0 4.12-2.686 7.52-6.762 7.52h-.726c-4.076 0-7.158-3.4-7.158-7.52V8.375h14.646v17.02Zm8.708-9.896-1.979 10.688h-3.562c.02-.266 0-.525 0-.792V15.5h5.541Z"/></svg>