<svg viewBox="0 0 18 18" class="createSvgIcon__Svg-sc-1l8xi8d-0 loXvaP"><path fill-rule="evenodd" clip-rule="evenodd" d="M5 16a3 3 0 0 1-3-3v-1.658c0-.189.153-.342.342-.342.668 0 1.239.483 1.348 1.142l.17 1.022a1 1 0 0 0 .987.836h8.306a1 1 0 0 0 .986-.836l.17-1.022c.11-.659.68-1.142 1.35-1.142.188 0 .341.153.341.342V13a3 3 0 0 1-3 3H5Z"/><path d="M13.053 5.553 9 1.5 4.946 5.553a.5.5 0 0 0 0 .707l.707.708a.5.5 0 0 0 .707 0L8 5.328V10.5a.5.5 0 0 0 .5.5h1a.5.5 0 0 0 .5-.5V5.328l1.639 1.64a.5.5 0 0 0 .707 0l.707-.708a.5.5 0 0 0 0-.707Z"/></svg>