<svg xmlns="http://www.w3.org/2000/svg" viewBox="0 0 48 48"><path d="M21.595 5.01a4.8 4.8 0 0 0-.259-.01h-.703l-.043.002-.168.007c-1.86.116-3.232 1.644-5.922 6.829-2.085 3.84-4.542 7.254-7.453 10.312-.676.692-1.052 1.48-1.047 2.397.002.369.104.828.244 1.255 1.502 4.277 6.335 8.323 13.275 12.768.52.336.973.526 1.474.534.53.008.93-.163 1.507-.535l.187-.122c1.5-.985 2.678-1.78 3.78-2.58a3.767 3.767 0 0 1-.304-2.167c-1.326.996-2.67 1.914-4.522 3.129l-.18.118c-.272.175-.393.227-.438.227-.058-.001-.226-.072-.475-.232-6.521-4.177-11.203-8.097-12.492-11.765-.076-.232-.14-.52-.14-.641-.002-.357.151-.679.505-1.041 3.039-3.193 5.595-6.744 7.769-10.747 2.398-4.624 3.413-5.754 4.35-5.812.055-.003.106-.005.18-.006h.576c.075.001.126.003.18.006.937.058 1.953 1.188 4.342 5.796 2.2 4.042 4.748 7.587 7.77 10.755.369.378.517.687.513 1.043 0 .05-.013.133-.032.229l-.025.02.137-.103c.127-.089.127-.089.25-.165l.15-.086.12-.061c.032-.016.064-.03.13-.06.084-.038.084-.038.163-.07l.137-.05.155-.05.08-.022.076-.02.118-.027.124-.025.1-.016.106-.015.085-.008c-.114-.69-.463-1.296-1.014-1.86-2.893-3.034-5.343-6.44-7.453-10.32-2.681-5.168-4.054-6.696-5.913-6.812Z"/><path d="M29.022 20.312c-.649-1.236-2.038-1.9-3.326-1.907-1.105 0-2.136.83-3.818 2.595-.16.17-.509.294-.87.294-.36 0-.71-.125-.868-.292-1.684-1.767-2.715-2.596-3.815-2.596-1.305 0-2.699.66-3.346 1.904-.823 1.583-.317 3.714 1.599 6.336 2.229 3.023 3.356 4.671 4.423 6.6.41.754 1.15 1.262 2.007 1.262.856 0 1.595-.506 2.009-1.263 1.09-1.96 2.312-3.751 4.418-6.594 1.919-2.622 2.418-4.753 1.587-6.339Zm-5.76 2.024c1.212-1.273 2.116-2 2.43-2 .636.003 1.358.348 1.636.879.421.803.093 2.202-1.432 4.286-2.15 2.902-3.41 4.75-4.557 6.811-.096.178-.224.265-.33.265-.107 0-.235-.087-.332-.265-1.122-2.03-2.284-3.73-4.559-6.814-1.525-2.087-1.858-3.491-1.441-4.292.274-.529.994-.87 1.648-.87.313 0 1.217.727 2.431 2.001.553.583 1.405.887 2.252.887.848 0 1.7-.304 2.254-.888Zm13.213 4.229a1.166 1.166 0 0 0-.814.209l-.038.028-.013.011-.095.086-6.503 6.552a1.176 1.176 0 0 0 0 1.654l.12.105a1.155 1.155 0 0 0 1.522-.105l4.52-4.555v10.28c0 .646.52 1.17 1.162 1.17l.136-.008a1.167 1.167 0 0 0 1.025-1.162V30.551l4.52 4.554a1.155 1.155 0 0 0 1.643 0 1.176 1.176 0 0 0 0-1.654l-6.503-6.552a1.151 1.151 0 0 0-.23-.18l-.01-.006a1.108 1.108 0 0 0-.304-.123 1.095 1.095 0 0 0-.138-.025Z"/></svg>