<svg xmlns="http://www.w3.org/2000/svg" viewBox="0 0 32 32"><path d="M27.567 16.75c-.315-3.145-2.307-6.096-4.125-8.791C21.801 5.526 20.3 3.302 20.3 1.334c0 0-1.6 4.967.067 7.683s-.3 3.983-.3 3.983L16.65 7.75c-.117-.167-.3-.25-.483-.25s-.383.1-.483.25l-3.4 5.25s-2-1.267-.333-3.983.067-7.683.067-7.683c0 1.971-1.503 4.2-3.146 6.638-1.817 2.696-3.805 5.645-4.121 8.779-.1 1.2-.25 3.1.567 4.017 3.967 4.5 2.217 7.55 2.217 7.55.222-.392.505-.729.788-1.065.907-1.079 1.802-2.143.595-4.951-1.467-3.4 1.117-3.617 1.117-3.617 0 6.279 2.879 9.395 4.696 11.362l.004.004c.35.383.833.6 1.367.6.517 0 1.017-.217 1.367-.6l.164-.178c1.83-1.975 4.702-5.075 4.702-11.189 0 0 2.583.217 1.117 3.617-1.204 2.8-.317 3.857.587 4.935.285.34.572.682.796 1.082 0 0-1.733-3.05 2.217-7.55.8-.9.633-2.8.517-4.017zM14.767 22s-3.1.333-3.1-5c0-.017 3.7.817 3.1 5zm2.8 0c-.6-4.183 3.1-5 3.1-5 0 5.3-3.1 5-3.1 5z"/></svg>