<svg xmlns="http://www.w3.org/2000/svg" viewBox="0 0 32 32"><path d="M18.5 4.05c6.4-.483 11.85 2.617 12.15 6.867.233 3.117-2.4 6.017-6.35 7.517.133.383.2.767.233 1.167.317 4.25-4.6 7.9-11.033 8.367s-11.833-2.45-12.15-6.7c-.217-3.117 2.4-6.017 6.35-7.517a4.675 4.675 0 0 1-.233-1.167C7.15 8.334 12.1 4.534 18.5 4.051zm-14 16.617c-.283 2 2.967 4.817 8.833 4.333s7.65-2.9 6.767-5.617c-.053.005-.106.012-.16.019-.115.015-.232.031-.356.031-4.183.3-7.967-.933-10.167-3.017-2.433.5-4.617 2.183-4.917 4.25z"/></svg>