<svg xmlns="http://www.w3.org/2000/svg" viewBox="0 0 48 48"><path d="M23.772 36.956H7.892c-.312 0-.58-.178-.758-.444a.803.803 0 0 1 0-.89L21.201 12.55l-4.37-7.025a.912.912 0 0 1 .267-1.246.919.919 0 0 1 1.25.267l3.076 4.934V4.367c0-.488.402-.889.892-.889s.892.4.892.89v4.89L26.15 4.5c.269-.4.847-.532 1.249-.266.402.269.534.845.267 1.246l-4.37 7.025 5.869 9.678a9.88 9.88 0 0 0-3.635 2.059h-9.21l-6.823 10.98h5.46l6.512-10.448c.177-.222.446-.4.757-.4s.579.134.757.4l.874 1.401a9.859 9.859 0 0 0-.96 1.849l-.67-1.071-5.172 8.268h5.836c.238.61.534 1.19.882 1.734Zm-1.547-22.804-4.791 8.313h9.582l-4.791-8.313Zm9.883 7.587c5.463 0 9.892 4.429 9.892 9.891 0 5.463-4.429 9.892-9.892 9.892-5.462 0-9.89-4.429-9.89-9.892 0-5.462 4.428-9.89 9.89-9.89Zm-3.955 4.946a1.65 1.65 0 1 0 0 3.298 1.65 1.65 0 0 0 0-3.298Zm7.912 0a1.65 1.65 0 1 0 .001 3.298 1.65 1.65 0 0 0 0-3.298Zm-3.957 6.264c-2.122 0-4.011 1.012-5.152 2.576a.662.662 0 0 0 .148.924.662.662 0 0 0 .924-.151c.893-1.224 2.378-2.03 4.08-2.03s3.187.806 4.08 2.03a.658.658 0 0 0 .431.266.656.656 0 0 0 .76-.546.662.662 0 0 0-.119-.493c-1.14-1.564-3.03-2.576-5.152-2.576Z"/></svg>