<svg xmlns="http://www.w3.org/2000/svg" viewBox="0 0 48 48"><path d="M33.01 13.02c-1.072-1.157-2.232-2.27-3.348-3.334-1.383-1.298-2.767-2.639-4.018-4.077a1.744 1.744 0 0 0-1.474-.603c-.535.045-1.072.372-1.34.835-1.964 3.15-2.008 7.597-.134 11.58.179.372.358.695.535 1.066.223.464.446.927.67 1.344.534 1.25.49 2.594-.135 3.66-.67 1.159-2.754 1.761-4.138 1.53-1.116-.186-2.499-.972-2.857-2.594-.044-.231-.044-.554-.044-.926.088-1.436.223-3.011.357-4.26.045-.787.136-1.482.18-1.994.088-.972.135-1.575-.535-2.038-.402-.278-.937-.323-1.34-.092-.848.463-1.517 1.158-2.097 1.762l-.088.091c-4.552 4.772-5.536 12.507-2.32 18.343C13.248 37.99 18.754 41 23.932 41h.582c5.357-.231 10.862-3.798 13.139-8.801 1.25-2.78 1.65-5.93 1.116-8.848-.582-3.476-2.502-6.81-5.76-10.33Zm2.232 17.972c-1.877 4.123-6.487 7.043-10.863 7.229-4.376.185-9.21-2.316-11.354-6.254-2.411-4.4-1.874-10.283 1.204-14.22-.088 1.112-.178 2.362-.267 3.566-.044.649 0 1.204.089 1.713.534 2.456 2.499 4.309 5.045 4.723 2.499.418 5.655-.694 6.86-2.825 1.027-1.807 1.16-4.123.267-6.161-.224-.51-.49-1.019-.714-1.53-.18-.323-.311-.65-.49-.972-1.252-2.64-1.428-5.559-.535-7.784 1.071 1.158 2.232 2.225 3.348 3.29 1.071 1.017 2.187 2.084 3.26 3.196 2.9 3.103 4.552 5.976 5.089 8.847.4 2.367.086 4.915-.94 7.182Z"/></svg>