<svg xmlns="http://www.w3.org/2000/svg" viewBox="0 0 48 48"><path d="m43.36 23.197.64.805-.64.804c-.088.11-2.194 2.736-5.602 5.383-4.574 3.554-9.33 5.432-13.758 5.432-4.426 0-9.184-1.878-13.758-5.432-3.408-2.647-5.514-5.273-5.602-5.383L4 24.001l.64-.804c.088-.11 2.194-2.736 5.602-5.383 4.574-3.554 9.33-5.432 13.758-5.432 4.428 0 9.184 1.88 13.758 5.432 3.408 2.647 5.514 5.273 5.602 5.383ZM25.237 16.53v2.44c1.798.465 3.214 1.918 3.667 3.762h2.378c-.522-3.163-2.962-5.666-6.045-6.202Zm-2.474 0c-3.086.536-5.523 3.037-6.045 6.2h2.378c.454-1.844 1.87-3.296 3.667-3.762V16.53ZM11.783 28.2c1.533 1.185 3.515 2.493 5.77 3.455a10.213 10.213 0 0 1-3.418-7.654c0-3.054 1.326-5.796 3.418-7.654-2.255.963-4.237 2.27-5.77 3.457A35.694 35.694 0 0 0 7.255 24c.85.943 2.438 2.578 4.53 4.198Zm10.98 3.273v-2.44c-1.797-.465-3.213-1.918-3.667-3.762h-2.378c.522 3.163 2.962 5.666 6.045 6.202ZM21.419 24c0 1.46 1.159 2.648 2.581 2.648S26.58 25.46 26.58 24c0-1.459-1.158-2.647-2.58-2.647-1.422 0-2.58 1.188-2.58 2.647Zm3.818 7.472c3.086-.536 5.523-3.037 6.045-6.202h-2.378c-.453 1.844-1.87 3.297-3.667 3.762v2.44Zm10.98-3.274A35.689 35.689 0 0 0 40.746 24a35.527 35.527 0 0 0-4.53-4.197c-1.532-1.186-3.514-2.494-5.768-3.456A10.213 10.213 0 0 1 33.865 24c0 3.055-1.326 5.797-3.417 7.654 2.255-.962 4.236-2.27 5.769-3.456ZM22.763 9.15V4h2.477v5.149h-2.477Zm8.507-4.155 2.163 1.238-2.444 4.498-2.163-1.238 2.444-4.498Zm-14.543 0 2.444 4.498-2.162 1.238-2.444-4.498 2.162-1.238ZM22.763 44v-5.148h2.477V44h-2.477Zm8.507-.991-2.444-4.498 2.163-1.238 2.444 4.497-2.163 1.239Zm-14.264-5.73 2.162 1.238-2.444 4.498-2.162-1.238 2.444-4.498Z"/></svg>