<svg xmlns="http://www.w3.org/2000/svg" viewBox="0 0 48 48"><path d="m40.942 15.455.058-.053v-.162c-.055-.43-.335-.803-.728-1.018L24.784 5.655c-.45-.267-1.008-.267-1.51 0L7.729 14.222c-.39.215-.67.589-.728 1.018v17.348c0 .535.28.965.728 1.233l15.547 8.566h.056c.03.03.08.043.137.058a.7.7 0 0 1 .142.048h.055c.055 0 .111.013.168.026a.752.752 0 0 0 .167.026c.11 0 .224 0 .335-.052.023 0 .037 0 .049-.005.016-.005.03-.018.062-.048.11 0 .168-.053.223-.107h.056l15.488-8.566c.45-.268.729-.75.729-1.232v-17.08Zm-29.524 0L24 8.495l12.582 6.96L24 22.415l-12.582-6.96Zm-1.453 16.33 12.527 6.907V24.877L9.965 17.97v13.815Zm28.07 0-12.526 6.907V24.877l12.526-6.907v13.815ZM23.89 16.095c-1.288 0-2.296-.64-2.293-1.443 0-.804 1.063-1.445 2.293-1.445 1.228 0 2.291.641 2.291 1.444 0 .804-1.005 1.445-2.291 1.445Zm-8.837 7.338c-.39-1.018-1.343-1.66-2.126-1.391-.783.267-1.119 1.338-.728 2.355.39 1.018 1.343 1.66 2.126 1.392.783-.267 1.118-1.338.728-2.356Zm1.937 3.427c-.918-2.49 1.93-3.452 2.848-.962.917 2.49-1.928 3.452-2.848.962Zm-1.937 2.942c-.39-1.015-1.343-1.66-2.126-1.392-.783.268-1.119 1.339-.728 2.357.39 1.018 1.343 1.659 2.126 1.39.783-.267 1.118-1.338.728-2.355Zm2.686 1.017c.78-.267 1.732.377 2.125 1.392.391 1.018.055 2.089-.727 2.356-.784.268-1.737-.373-2.127-1.391-.39-1.018-.055-2.089.729-2.357Zm9.348 5.135c-1.674-1.071.874-4.721 2.549-3.65 1.671 1.07-.874 4.72-2.549 3.65Zm3.241-5.486c-1.671-1.07.877-4.72 2.549-3.65 1.674 1.07-.874 4.721-2.549 3.65Zm3.28-5.527c-1.674-1.07.874-4.72 2.546-3.65 1.674 1.071-.874 4.721-2.546 3.65Z"/></svg>