<svg xmlns="http://www.w3.org/2000/svg" viewBox="0 0 48 48"><path d="M24 24v13.104a1.95 1.95 0 0 1-.537-.08c-3.12-.888-6.63-2.719-8.525-5.209a14.614 14.614 0 0 1-2.987-6.633c-.07-.391-.12-.786-.15-1.181h12.178V10.874a.708.708 0 0 1 .272.061l11.721 4.56a.38.38 0 0 1 .268.41v6.84c-.002.424-.02.842-.057 1.256H24Zm17.41-11.69a686.507 686.507 0 0 0-.021 5.481v4.384c.025 4.967-1.755 9.793-5.044 13.678-2.709 3.362-7.278 5.827-11.58 7.034a2.7 2.7 0 0 1-1.544 0c-4.656-1.314-9.124-3.915-11.998-7.55-2.25-2.827-3.734-6.123-4.328-9.607a21.11 21.11 0 0 1-.287-3.31c-.021-3.386-.021-6.768-.021-10.155a.523.523 0 0 1 .405-.562c5.287-2.19 11.362-4.394 16.644-6.617a.901.901 0 0 1 .77 0C29.67 7.293 35.73 9.49 41.004 11.68c.278.09.449.356.405.63Zm-2.834 6.536.011.009v-4.56a.474.474 0 0 0-.348-.525c-4.377-1.82-9.543-3.644-13.913-5.475a.745.745 0 0 0-.637 0c-4.38 1.837-9.558 3.665-13.952 5.486a.43.43 0 0 0-.327.468c0 2.808-.027 5.621 0 8.43.006.92.087 1.838.238 2.747.492 2.893 1.727 5.633 3.595 7.98 2.28 2.999 6.345 5.204 10.102 6.271a2.25 2.25 0 0 0 1.284 0c3.569-1.002 7.5-3.046 9.75-5.837 2.734-3.226 4.216-7.234 4.197-11.36v-3.634Z"/></svg>