<svg xmlns="http://www.w3.org/2000/svg" viewBox="0 0 48 48"><path d="M38.949 22.75h3.801a1.25 1.25 0 1 1 0 2.5h-3.801c-.602 7.287-6.412 13.097-13.699 13.699v3.801a1.25 1.25 0 1 1-2.5 0v-3.801c-7.287-.602-13.097-6.412-13.699-13.699H5.25a1.25 1.25 0 1 1 0-2.5h3.801c.602-7.287 6.412-13.097 13.699-13.699V5.25a1.25 1.25 0 1 1 2.5 0v3.801c7.287.602 13.097 6.412 13.699 13.699Zm-8.187 2.5h-.512a1.25 1.25 0 1 1 0-2.5h.512a6.882 6.882 0 0 0-5.512-5.512v.512a1.25 1.25 0 1 1-2.5 0v-.512a6.882 6.882 0 0 0-5.512 5.512h.512a1.25 1.25 0 1 1 0 2.5h-.512a6.882 6.882 0 0 0 5.512 5.512v-.512a1.25 1.25 0 1 1 2.5 0v.512a6.882 6.882 0 0 0 5.512-5.512Zm6.304 0h-4.405a8.756 8.756 0 0 1-7.411 7.411v4.405c6.251-.59 11.226-5.565 11.816-11.816Zm0-2.5c-.59-6.251-5.565-11.226-11.816-11.816v4.405a8.756 8.756 0 0 1 7.411 7.411h4.405Zm-26.132 2.5c.59 6.251 5.565 11.226 11.816 11.816v-4.405a8.756 8.756 0 0 1-7.411-7.411h-4.405Zm0-2.5h4.405a8.756 8.756 0 0 1 7.411-7.411v-4.405c-6.251.59-11.226 5.565-11.816 11.816Z"/></svg>