<svg xmlns="http://www.w3.org/2000/svg" viewBox="0 0 48 48"><path d="m20.59 32.602 4.374-4.374v1.594c2.404-.417 4.303-2.365 4.71-4.832h-1.472l3.182-3.182c.197.697.302 1.433.302 2.193a7.958 7.958 0 0 1-2.662 5.964c1.757-.75 3.3-1.769 4.495-2.693a27.796 27.796 0 0 0 3.529-3.27 27.701 27.701 0 0 0-3.53-3.272c-.192-.149-.393-.3-.603-.452l1.403-1.404c.134.1.268.202.401.306 2.657 2.063 4.297 4.108 4.365 4.194l.5.627-.5.627c-.068.086-1.709 2.131-4.365 4.195-3.563 2.769-7.269 4.231-10.719 4.231-1.114 0-2.255-.152-3.41-.452Zm-6.929-3.49a25.942 25.942 0 0 1-.38-.29c-2.656-2.063-4.297-4.108-4.365-4.194l-.5-.627.5-.627c.068-.086 1.709-2.131 4.364-4.194 3.564-2.77 7.27-4.232 10.72-4.232 1.105 0 2.236.15 3.38.445l-4.344 4.345V18.18c-2.404.417-4.303 2.366-4.71 4.83h1.438l-3.156 3.156A8.057 8.057 0 0 1 16.314 24a7.958 7.958 0 0 1 2.662-5.964c-1.757.75-3.3 1.77-4.495 2.693A27.801 27.801 0 0 0 10.952 24a27.792 27.792 0 0 0 4.113 3.708l-1.404 1.404Zm6.725-6.724a4.009 4.009 0 0 1 2.136-2.136l-2.136 2.136Zm7.252 3.166-2.218 2.218a4.007 4.007 0 0 0 2.218-2.218Zm2.202-12.62-.606.606-1.474-.844 1.905-3.505 1.684.965-1.509 2.778Zm-11.102 21.52 1.497.858-1.905 3.504-1.684-.965 1.553-2.858.539-.539Zm4.298-22.026V8.417h1.93v4.011h-1.93Zm-4.703-3.237 1.905 3.505-1.685.965-1.905-3.505 1.685-.965Zm4.703 30.392v-4.011h1.93v4.011h-1.93Zm6.629-.772-1.905-3.505 1.685-.964 1.904 3.504-1.684.965ZM7 38.733 38.733 7 41 9.267 9.267 41 7 38.733Z"/></svg>