<svg xmlns="http://www.w3.org/2000/svg" viewBox="0 0 48 48"><path d="m25.235 13.247 5.002-7.974c.306-.454.154-1.109-.306-1.414-.46-.302-1.121-.152-1.43.302L25.133 9.56V4.01c0-.555-.46-1.01-1.02-1.01a1.02 1.02 0 0 0-1.021 1.01v5.802l-3.522-5.6a1.057 1.057 0 0 0-1.43-.303 1.03 1.03 0 0 0-.306 1.414l5.003 7.974-16.1 26.19a.906.906 0 0 0 0 1.008c.204.303.51.505.866.505h32.812c.356 0 .715-.203.866-.505.205-.302.155-.707 0-1.009l-16.046-26.24Zm-1.226 1.869 5.484 9.435H18.525l5.484-9.435Zm-5.92 23.915 5.92-9.385 5.92 9.385h-11.84Zm14.24 0-7.454-11.858a1.007 1.007 0 0 0-.866-.454c-.356 0-.665.202-.866.454l-7.454 11.858h-6.25l7.81-12.462H30.72l7.809 12.462h-6.2Z"/></svg>