<svg xmlns="http://www.w3.org/2000/svg" viewBox="0 0 48 48"><path d="M40.99 18.333s-3.265-1.141-3.39-4.87c-.17-4.337-.323-5.48-.323-5.48L29.95 5.455s-.082 5.479-5.95 5.479c-5.91 0-5.95-5.48-5.95-5.48l-7.325 2.53s-.156 1.1-.325 5.479c-.128 3.772-3.39 4.87-3.39 4.87s-.082.999.212 3.384c.223 1.77 1.75 4.043 2.864 5.702.36.537.677 1.009.893 1.38.929 1.518.464 9.366.464 9.366l2.357 1.388v1.691L24 42.545l10.2-1.3v-1.692l2.316-1.388s-.464-7.848.464-9.366c.2-.328.476-.736.788-1.198 1.13-1.672 2.737-4.048 2.97-5.884.338-2.342.252-3.384.252-3.384Zm-27.889-7.722c.026-.361.048-.677.061-.942.065.143.157.363.263.618.379.906.943 2.259 1.14 2.192.197-.057.934-.432 2.21-1.124a40.598 40.598 0 0 1-.425-2.529c1.182 2.386 3.598 4.637 7.65 4.637 4.094 0 6.47-2.251 7.65-4.637a34.993 34.993 0 0 1-.425 2.53c1.358.691 2.136 1.066 2.332 1.123.21.07.779-1.463 1.111-2.358.068-.184.126-.34.17-.452.058.576.096 1.393.143 2.394.02.434.043.902.069 1.4.083 2.428 1.123 4.264 2.306 5.48L24 22.313l-13.155-3.372c1.104-1.212 2.022-3.048 2.105-5.48.028-1.118.097-2.086.151-2.85Zm22.992 15.041c.822-1.125 1.8-2.463 1.932-4.18L24 25.264c-9.35-2.558-14.025-3.823-14.025-3.794.13 1.678 1.065 2.968 1.875 4.085.245.338.479.66.675.973.103.158.234.346.365.534.192.275.385.55.485.73.076.14.136.21.187.27.091.108.156.184.238.573.676.281 1.526.625 2.55 1.03v1.82c0 .218-1.197.434-2.125.565.027.257.019.532.01.825-.005.154-.01.312-.01.476a5.59 5.59 0 0 0 2.125.737v1.713c0 .144-.708.285-2.125.421v.468l1.275.797.85.421v1.264L24 40.438l7.65-1.265V37.91l.85-.421 1.275-.797v-.468c-1.417-.136-2.125-.277-2.125-.421V34.09a5.534 5.534 0 0 0 2.125-.737v-1.3c-.928-.131-2.125-.348-2.125-.565v-1.821c1.024-.405 1.874-.749 2.55-1.03.115-.444.173-.512.265-.622.043-.05.093-.11.16-.22.1-.182.292-.456.484-.73.132-.188.263-.376.366-.535.181-.279.394-.57.618-.877Z"/></svg>