<svg xmlns="http://www.w3.org/2000/svg" viewBox="0 0 48 48"><path d="M21.274 14.485c-.822-3.294-.448-6.635 1.124-9.164.275-.478.827-.813 1.375-.86a1.788 1.788 0 0 1 1.514.621c1.284 1.482 2.705 2.864 4.125 4.2 1.146 1.097 2.337 2.243 3.438 3.436 3.344 3.627 5.316 7.062 5.914 10.644.467 2.561.238 5.298-.635 7.824l-2.218-2.198a12.89 12.89 0 0 0 .195-5.153c-.551-2.959-2.246-5.919-5.226-9.116-1.1-1.146-2.246-2.244-3.346-3.293-1.146-1.097-2.338-2.196-3.438-3.389-.917 2.292-.736 5.3.549 8.02.184.332.32.668.503 1.001.23.527.504 1.051.733 1.576.096.22.18.442.253.666l-4.86-4.815Zm-10.396 3.77 1.975 1.956c-1.69 3.777-1.652 8.393.333 12.028 2.201 4.057 6.737 6.634 11.23 6.443 1.899-.081 3.764-.665 5.43-1.633l2.068 2.048c-2.206 1.45-4.752 2.335-7.36 2.448h-.597c-5.316 0-10.542-3.102-12.97-7.92-2.595-4.726-2.526-10.66-.109-15.37Zm3.258 3.227 6.557 6.497a6.38 6.38 0 0 1-1.274-.086c-2.614-.427-4.631-2.336-5.18-4.867a7.223 7.223 0 0 1-.103-1.544ZM7 9.352l1.805-1.807L41 39.74l-1.806 1.805L7 9.351Z"/></svg>