<svg xmlns="http://www.w3.org/2000/svg" viewBox="0 0 48 48"><path d="M5 25.914c.279-.598.585-1.155.907-1.71.322-.555.658-1.082.994-1.608a41.469 41.469 0 0 1 2.193-3.039 59.502 59.502 0 0 1 4.911-5.54 61.338 61.338 0 0 1 5.542-4.925 51.41 51.41 0 0 1 3.04-2.192c.527-.336 1.067-.688 1.61-.994.554-.321 1.11-.628 1.71-.906A21.35 21.35 0 0 1 25 6.71a43.482 43.482 0 0 1-.993 1.607 41.512 41.512 0 0 1-2.194 3.04 59.235 59.235 0 0 1-4.927 5.54 58.757 58.757 0 0 1-5.542 4.91 52.01 52.01 0 0 1-3.04 2.192c-.526.335-1.068.687-1.61.993-.538.338-1.11.66-1.694.922ZM22.093 43A21.32 21.32 0 0 1 23 41.29c.322-.555.658-1.082.993-1.608a41.477 41.477 0 0 1 2.194-3.04 59.505 59.505 0 0 1 4.91-5.54 61.33 61.33 0 0 1 5.543-4.924c.98-.76 1.987-1.492 3.04-2.193.526-.336 1.067-.687 1.609-.993.555-.322 1.11-.628 1.711-.906a21.392 21.392 0 0 1-.907 1.71 43.431 43.431 0 0 1-.994 1.607 41.488 41.488 0 0 1-2.193 3.04 59.249 59.249 0 0 1-4.927 5.54 58.772 58.772 0 0 1-5.542 4.91c-.98.76-1.988 1.49-3.041 2.191-.525.336-1.067.687-1.608.993-.54.338-1.11.66-1.695.923ZM7.057 41.04a52.866 52.866 0 0 1 1.754-2.557 75.73 75.73 0 0 1 1.841-2.455 97.802 97.802 0 0 1 1.915-2.397c.644-.79 1.302-1.564 1.96-2.338a158.607 158.607 0 0 1 8.29-8.915 165.896 165.896 0 0 1 8.919-8.301c.774-.658 1.548-1.315 2.339-1.959l1.183-.964 1.2-.95a75.815 75.815 0 0 1 2.455-1.84 53.372 53.372 0 0 1 2.559-1.754 43.566 43.566 0 0 1-1.755 2.558 75.226 75.226 0 0 1-1.84 2.454l-.951 1.2-.964 1.182c-.644.79-1.302 1.564-1.96 2.338-2.645 3.083-5.423 6.036-8.304 8.915a160.356 160.356 0 0 1-8.919 8.287c-.774.658-1.549 1.315-2.339 1.96-.79.643-1.578 1.285-2.399 1.913a76.163 76.163 0 0 1-2.455 1.84 27.825 27.825 0 0 1-2.53 1.784Z"/></svg>