<svg xmlns="http://www.w3.org/2000/svg" viewBox="0 0 48 48"><path fill-rule="evenodd" clip-rule="evenodd" d="M35.52 19.767h-7.772L31.85 6.145c.182-.605-.146-1.238-.782-1.513-.635-.274-1.401-.11-1.828.39L11.296 26.138a1.187 1.187 0 0 0-.14 1.371c.25.444.763.723 1.323.723h7.773l-4.103 13.622c-.183.606.145 1.238.781 1.513.206.09.428.133.646.133.453 0 .896-.184 1.183-.522l17.944-21.114a1.19 1.19 0 0 0 .142-1.372c-.25-.443-.765-.725-1.325-.725ZM20.96 36.033l2.642-8.771a1.19 1.19 0 0 0-.257-1.135 1.552 1.552 0 0 0-1.173-.511h-6.735l11.601-13.65-2.643 8.772c-.119.392-.023.813.257 1.135.28.322.713.51 1.173.51h6.735l-11.6 13.65Z"/></svg>