<svg xmlns="http://www.w3.org/2000/svg" viewBox="0 0 48 48"><path d="M23.348 25.44a11.291 11.291 0 0 0-2.89 7.56c0 2.774.997 5.315 2.652 7.285-.152.336-.254.507-.254.507L12.629 30.544A23.365 23.365 0 0 0 7 16.002c9 3.357 10.44 10.072 10.44 10.072 1.618-7.847-4.402-19.282-4.402-19.282 5.875 7.293 8.89 13.557 10.31 18.648Zm3.62-2.699c-.526.248-1.03.536-1.51.859-.547-1.356-1.289-2.892-2.134-3.85 2.181-4.88 5.142-9.035 8.785-12.958-2.431 5.176-4.166 10.415-5.14 15.95Zm4.56-1.071c1.568-2.136 3.711-4.203 6.639-5.941 0 0-2.502 1.823-4.094 6.167a11.388 11.388 0 0 0-2.545-.226Zm.264 2.122a9.208 9.208 0 1 1 0 18.417 9.208 9.208 0 0 1 0-18.417Zm-3.684 4.604a1.535 1.535 0 1 0 .001 3.07 1.535 1.535 0 0 0 0-3.07Zm7.367 0a1.535 1.535 0 1 0 .001 3.07 1.535 1.535 0 0 0-.001-3.07Zm-3.683 5.832c-1.976 0-3.735.941-4.796 2.398a.616.616 0 0 0 .137.86.616.616 0 0 0 .86-.14c.832-1.14 2.215-1.89 3.799-1.89s2.967.75 3.798 1.89c.095.132.24.221.402.247a.61.61 0 0 0 .706-.509.616.616 0 0 0-.11-.458c-1.062-1.456-2.82-2.398-4.796-2.398Z"/></svg>