<svg xmlns="http://www.w3.org/2000/svg" viewBox="0 0 48 48"><path d="M14.5 39.286h19a1.357 1.357 0 0 1 0 2.714h-19a1.357 1.357 0 0 1 0-2.714Zm5.429-23.072h8.142a1.357 1.357 0 1 1 0 2.715H19.93a1.357 1.357 0 1 1 0-2.715ZM37.57 33.857h4.072a1.357 1.357 0 0 1 0 2.714H6.357a1.357 1.357 0 1 1 0-2.714h4.072V16.214c0-.204.022-.404.065-.595C11.174 9.03 17.023 4 24 4s12.826 5.03 13.506 11.619c.043.191.065.39.065.595v17.643Zm-2.714 0V16.214h-.024c-.372-5.305-5.08-9.5-10.833-9.5s-10.46 4.195-10.833 9.5h-.024v17.643h21.714Z"/></svg>