<svg xmlns="http://www.w3.org/2000/svg" viewBox="0 0 48 48"><path d="M17.437 21.14c-3.735 0-6.773-3.172-6.77-7.07 0-3.899 3.037-7.07 6.772-7.07 3.735 0 6.773 3.171 6.773 7.07-.007 3.898-3.045 7.067-6.775 7.07Zm0-10.814c-1.978 0-3.586 1.678-3.588 3.743 0 2.062 1.608 3.743 3.585 3.743 1.976-.002 3.584-1.681 3.588-3.743 0-2.065-1.608-3.743-3.585-3.743ZM43.2 33.176v1.665H29.837c.15.808.234 1.642.234 2.495V39H4.8v-1.664c0-7.241 5.642-13.133 12.579-13.133h.114c2.948 0 5.659 1.072 7.804 2.853 1.849-2.608 4.79-4.192 7.94-4.192h.086c5.447 0 9.877 4.625 9.877 10.311ZM8.124 35.67H26.75c-.757-4.618-4.619-8.142-9.254-8.142h-.114c-4.636 0-8.498 3.524-9.257 8.142Zm20.628-4.159 11.068-.002c-.718-3.05-3.36-5.32-6.5-5.32h-.084c-2.311 0-4.455 1.265-5.673 3.308.452.63.85 1.304 1.189 2.014Zm4.527-10.357c-3.031 0-5.498-2.576-5.496-5.743 0-3.165 2.465-5.74 5.498-5.74 3.032 0 5.5 2.573 5.5 5.74-.007 3.165-2.474 5.739-5.502 5.743Zm0-8.155c-1.273 0-2.31 1.08-2.313 2.412 0 1.333 1.038 2.416 2.311 2.416 1.275-.002 2.312-1.085 2.314-2.416 0-1.33-1.035-2.412-2.312-2.412Z"/></svg>