<svg xmlns="http://www.w3.org/2000/svg" viewBox="0 0 48 48"><path d="M3 30.406V18.594h2.454v4.657h4.225v-4.657h2.454v11.812H9.679V25.48H5.454v4.927H3Zm13.92 0c-1.618 0-2.385-.76-2.385-2.362v-7.088c0-1.603.767-2.362 2.385-2.362h4.38c1.618 0 2.385.76 2.385 2.362v7.088c0 1.603-.767 2.362-2.386 2.362H16.92Zm.41-2.227h3.56c.256 0 .341-.085.341-.338V21.16c0-.253-.085-.338-.34-.338H17.33c-.256 0-.341.085-.341.338v6.682c0 .253.085.338.34.338Zm8.757 2.227V18.594h6.526c1.619 0 2.386.76 2.386 2.362v7.088c0 1.603-.767 2.362-2.386 2.362h-6.526Zm2.454-2.227h3.663c.255 0 .34-.085.34-.338V21.16c0-.253-.085-.338-.34-.338H28.54v7.358Zm8.86 2.227V18.594h2.453v9.585H45v2.227h-7.6Z"/></svg>