<svg xmlns="http://www.w3.org/2000/svg" viewBox="0 0 32 32"><path d="M28.767 16.317c4.867-5.217-.083-14.983-9.75-14.983S6.7 10.751 6.7 10.751c-1.267-.233-1.617-4.433-1.617-4.433-2.917 4.483-3.75 8.283-3.75 11.517 0 5.8 4.033 9.633 7 11.5.883.717 3.417 1.333 5.817 1.333 4.617 0 8.367-3.9 8.367-8.517s-3.75-8.35-8.367-8.35c-3.667 0-4.75 1.65-4.75 1.583 2.783-14.5 13.1-8.883 13.1-8.25 0 0-5.433 1.267-4.3 2.85.833 1.15 5.817.833 7.1 5.967 2.15 12.417-2.783 14.45-2.783 14.45 2.9-.283 5.067-4.467 5.533-6.117 1.817 1.15 3.633-2.033 1.433-4.133-1.1-1.35-1.433-2.967-.717-3.833z"/></svg>