<svg xmlns="http://www.w3.org/2000/svg" viewBox="0 0 32 32"><path d="M12.283 17.333c-.774.655-1.591 1.122-2.354 1.559-2.851 1.631-4.954 2.835-1.312 11.775 0 0-13.383-8.417 0-17.333 6-4 4.467-10.083 2.05-12 0 0 14.617 5 1.617 16zm14.384-8.666c2.4 4.933-.683 10.15-6 11.333-.547.12-1.148.184-1.787.252-2.455.26-5.476.58-8.213 4.415 0 0 1.067-4.8 7.833-8.167.933-.45 1.983-1.2 2.667-2 1.833-2.15 3.05-5.883-.5-11.833.133-.1 4.267 2.467 6 6zM24.833 28c4.283 0 4.5-10.667 4.5-10.667-2.582 8.263-6.384 6.965-9.191 6.006-.817-.279-1.549-.529-2.142-.506-2.633.1-4.817 3.35-5.333 5.167 1.733-2.533 3.8-2.75 5.9-2.083.642.201 1.22.501 1.818.811 1.188.616 2.453 1.273 4.449 1.273z"/></svg>