<svg xmlns="http://www.w3.org/2000/svg" viewBox="0 0 48 48"><path d="M38.872 6.25 6.75 38.372l2.378 2.378L41.25 8.628 38.872 6.25Zm-15.18 11.34 4.106-4.107 1.725-2.03-1.432-1.828h-8.182l-1.432 1.828 5.214 6.137Zm-7.674 7.673 4.173-4.173.536-1.918-3.273-3.25H6c1.576 1.476 3.394 2.866 5.318 3.86.772.238 1.442.403 2.25.405h3.068l-3.272 3.86 2.654 1.216Zm21.433-9.341H42c-1.576 1.474-3.395 2.868-5.318 3.86-.772.238-1.442.403-2.25.405h-1.247l4.266-4.265Zm-2.815 8.125L32.2 21.173l-3.412 3.413.531 1.898 5.318-2.437Zm-8.234 2.924 1.894 9.404L24 39.625l-4.295-3.25.682-3.39 6.015-6.014Z"/></svg>