<svg xmlns="http://www.w3.org/2000/svg" viewBox="0 0 48 48"><path d="M30.486 13.39a1.998 1.998 0 0 1 0 2.849L26.883 19.8l3.603 3.561a1.998 1.998 0 0 1 0 2.849 2.056 2.056 0 0 1-2.883 0L24 22.649l-3.604 3.561a2.056 2.056 0 0 1-2.882 0 1.998 1.998 0 0 1 0-2.849l3.603-3.561-3.603-3.561a1.998 1.998 0 0 1 0-2.849 2.056 2.056 0 0 1 2.883 0L24 16.951l3.604-3.561a2.056 2.056 0 0 1 2.882 0Z"/><path d="M24 45s17-14 17-25.9C41 10.208 33.389 3 24 3S7 10.208 7 19.1C7 31 24 45 24 45Zm0-4.078s14.167-11.789 14.167-21.705C38.167 11.807 31.824 5.8 24 5.8S9.833 11.807 9.833 19.217C9.833 29.133 24 40.922 24 40.922Z"/></svg>