<svg xmlns="http://www.w3.org/2000/svg" viewBox="0 0 48 48"><path d="M35.508 9.16c-.572 0-1.08.12-1.59.306-.51-1.776-2.162-3.06-4.195-3.06-.762 0-1.527.184-2.1.55A4.34 4.34 0 0 0 24 5c-1.08 0-2.099.427-2.861 1.039C20.378 5.366 19.358 5 18.278 5c-2.418 0-4.325 1.896-4.325 4.162v2.94c-3.306.672-5.786 3.426-5.786 6.791v2.754c0 5.142 2.736 9.977 7.187 12.791v7.153c0 .797.635 1.409 1.464 1.409.827 0 1.463-.612 1.463-1.41v-7.71c.126-.55-.192-1.163-.699-1.408-4.073-2.2-6.617-6.362-6.617-10.831v-2.754c0-2.326 1.97-4.162 4.326-4.162h6.931c-.573 1.59-2.225 2.754-4.07 2.754h-1.464c-.828 0-1.463.611-1.463 1.408v4.163c0 .797.635 1.41 1.463 1.41 2.418 0 4.325 1.895 4.325 4.161 0 .798.636 1.41 1.464 1.41s1.464-.612 1.464-1.41c0-3.365-2.48-6.18-5.786-6.792V20.3c.573 0 1.08-.06 1.653-.185.51 1.715 2.163 2.94 4.133 2.94 1.079 0 2.099-.428 2.861-1.04.761.673 1.781 1.04 2.861 1.04 1.08 0 2.1-.428 2.862-1.04.76.673 1.78 1.04 2.86 1.04.51 0 .955-.061 1.398-.246-.38 3.977-2.798 7.65-6.421 9.67-.51.306-.761.857-.699 1.409v7.704c0 .797.636 1.409 1.464 1.409s1.464-.612 1.464-1.41v-7.158c4.507-2.814 7.242-7.65 7.242-12.791V13.32c0-2.263-1.97-4.16-4.325-4.16ZM18.215 7.75c.828 0 1.464.613 1.464 1.41v2.754h-2.861V9.16c-.067-.737.569-1.41 1.397-1.41ZM24 20.237c-.828 0-1.463-.612-1.463-1.41 1.715-1.284 2.86-3.305 2.86-5.568 0-.797-.635-1.409-1.463-1.409H22.47V9.095c0-.732.635-1.408 1.463-1.408.828 0 1.464.612 1.464 1.408v9.731A1.394 1.394 0 0 1 24 20.236Zm5.723 0c-.828 0-1.463-.612-1.463-1.41v-8.261c0-.796.635-1.408 1.463-1.408.828 0 1.464.612 1.464 1.408v8.322c0 .737-.636 1.349-1.464 1.349Zm5.785 0c-.827 0-1.463-.612-1.463-1.41v-5.568c0-.732.636-1.409 1.463-1.409.828 0 1.464.612 1.464 1.41v5.567c0 .798-.698 1.41-1.464 1.41Z"/></svg>