<svg xmlns="http://www.w3.org/2000/svg" viewBox="0 0 48 48"><path d="M42.829 18.997 36.866 7.454c-.241-.458-.718-.87-1.207-.87H12.773c-.49 0-1.367.412-1.607.87L5.184 18.997c-.303.562-.228 1.483.183 1.955L23 40.958c.258.293.616.459.989.459.374 0 .73-.166.986-.459l17.633-20.006c.424-.466.512-1.386.22-1.955Zm-15.806 1.955L24 32.708l-3.023-11.756h6.046Zm-6.91-3.048-2.158-8.273h12.09l-2.159 8.273h-7.772Zm1.728 17.417L9.102 20.952h8.42l4.319 14.369Zm8.636-14.369h8.421L26.159 35.321l4.319-14.369Zm8.637-3.048h-8.205l2.16-8.273h1.727l4.318 8.273Zm-25.91-8.273h1.728l2.159 8.273H8.886l4.319-8.273Z"/></svg>