<svg width="14" height="14" fill="none" xmlns="http://www.w3.org/2000/svg"><path fill-rule="evenodd" clip-rule="evenodd" d="M6.993.333A6.663 6.663 0 0 0 .333 7c0 3.68 2.98 6.667 6.66 6.667A6.67 6.67 0 0 0 13.667 7 6.67 6.67 0 0 0 6.993.333Zm4.62 4H9.647a10.433 10.433 0 0 0-.92-2.373 5.353 5.353 0 0 1 2.886 2.373ZM7 1.693c.553.8.987 1.687 1.273 2.64H5.727c.286-.953.72-1.84 1.273-2.64Zm-5.16 6.64A5.494 5.494 0 0 1 1.667 7c0-.46.066-.907.173-1.333h2.253C4.04 6.107 4 6.547 4 7c0 .453.04.893.093 1.333H1.84Zm.547 1.334h1.966c.214.833.52 1.633.92 2.373a5.325 5.325 0 0 1-2.886-2.373Zm1.966-5.334H2.387A5.325 5.325 0 0 1 5.273 1.96c-.4.74-.706 1.54-.92 2.373ZM7 12.307a9.39 9.39 0 0 1-1.273-2.64h2.546A9.39 9.39 0 0 1 7 12.307Zm1.56-3.974H5.44c-.06-.44-.107-.88-.107-1.333 0-.453.047-.9.107-1.333h3.12c.06.433.107.88.107 1.333 0 .453-.047.893-.107 1.333Zm.167 3.707c.4-.74.706-1.54.92-2.373h1.966a5.353 5.353 0 0 1-2.886 2.373Zm1.18-3.707C9.96 7.893 10 7.453 10 7c0-.453-.04-.893-.093-1.333h2.253c.107.426.173.873.173 1.333 0 .46-.066.907-.173 1.333H9.907Z" fill="#E3E5EA"/></svg>