<svg viewBox="0 0 24 24"><path fill-rule="evenodd" clip-rule="evenodd" d="M14.999 19a.5.5 0 0 0-.465.316l-.542 1.368a.5.5 0 0 1-.465.316h-1.075a.5.5 0 0 1-.465-.684l3.958-9.998a.5.5 0 0 1 .465-.316h1.18a.5.5 0 0 1 .465.316l3.958 9.998a.5.5 0 0 1-.465.684h-1.075a.5.5 0 0 1-.465-.316l-.542-1.368a.5.5 0 0 0-.465-.316H15Zm.587-2.342a.25.25 0 0 0 .233.342h2.362a.25.25 0 0 0 .233-.342l-1.181-2.984a.25.25 0 0 0-.465 0l-1.182 2.984Z"/><path d="M9 2h2v2h6v2h-2.235c-.477 2.021-1.63 3.828-3.013 5.409a23.76 23.76 0 0 1-.34.38c.432.402.88.793 1.335 1.174l-.774 1.955A38.51 38.51 0 0 1 10 13.206C8.562 14.55 7 15.75 5.6 16.8l-1.2-1.6c1.388-1.041 2.859-2.176 4.188-3.411a21.39 21.39 0 0 1-.34-.38c-.91-1.04-1.72-2.177-2.304-3.409H8.21c.423.712.945 1.408 1.543 2.091.08.093.163.186.247.278.084-.092.166-.185.247-.277C11.394 8.78 12.261 7.418 12.693 6H3V4h6V2Z"/></svg>