<svg width="48" height="48" fill="none" xmlns="http://www.w3.org/2000/svg"><path d="m16 9-2-3h10.097v28H39l-2.683 8H14l2-4V9Z" fill="url(#a)"/><path d="M14 11.25C9.757 14.343 7 19.35 7 25c0 5.452 2.566 10.304 6.556 13.415l.444-.887v-4.22A12.947 12.947 0 0 1 11 25c0-3.159 1.127-6.055 3-8.307V11.25Z" fill="url(#b)"/><path d="M34.956 32A12.94 12.94 0 0 0 37 25c0-6.466-4.72-11.829-10.903-12.832v-4.04C34.497 9.162 41 16.321 41 25c0 2.495-.538 4.865-1.504 7h-4.54Z" fill="url(#c)"/><defs><linearGradient id="a" x1="2.92" y1="42" x2="35.975" y2="1.862" gradientUnits="userSpaceOnUse"><stop stop-color="#AF893D"/><stop offset=".234" stop-color="#D29D40"/><stop offset=".531" stop-color="#FFCC74"/><stop offset=".823" stop-color="#E8B55D"/></linearGradient><linearGradient id="b" x1="2.92" y1="42" x2="35.975" y2="1.862" gradientUnits="userSpaceOnUse"><stop stop-color="#AF893D"/><stop offset=".234" stop-color="#D29D40"/><stop offset=".531" stop-color="#FFCC74"/><stop offset=".823" stop-color="#E8B55D"/></linearGradient><linearGradient id="c" x1="2.92" y1="42" x2="35.975" y2="1.862" gradientUnits="userSpaceOnUse"><stop stop-color="#AF893D"/><stop offset=".234" stop-color="#D29D40"/><stop offset=".531" stop-color="#FFCC74"/><stop offset=".823" stop-color="#E8B55D"/></linearGradient></defs></svg>