<svg width="22" height="21" fill="none" xmlns="http://www.w3.org/2000/svg"><mask id="a" maskUnits="userSpaceOnUse" x="-.333" y="-.333" width="23" height="21" fill="#000"><path fill="#fff" d="M-.333-.333h23v21h-23z"/><path fill-rule="evenodd" clip-rule="evenodd" d="M9.436 5.947c-.114-1.157-.067-2.476-.038-3.28.498.02 3.238 1.858 3.208 4.463 1.252.594 2.396 1.43 3.394 2.203 1.02.79 1.93 1.794 2.676 2.618.172.19.335.37.489.536a.303.303 0 0 1 .026.381l-2.055 2.902a1 1 0 0 1-.428.344l-3.753 1.579a.203.203 0 0 1-.266-.116c-1.637-4.236-2.618-4.494-2.618-4.494-.695.935-1.106 1.018-1.666 1.132-.658.133-1.522.309-3.298 1.965-.358.334-.925 0-.925 0s-1.515-.85-1.515-1.734c0-.369.76-1.496 1.392-2.433l.291-.434c.705-1.057 1.301-2.024 1.301-2.024l1.19-2.186a.952.952 0 0 1 .322-.348c.273-.175.77-.481 1.177-.662.33-.148.781-.307 1.096-.412Zm.593 2.535c-1.682-.663-2.103.664-2.314 1.327.842.222 2.104 0 2.314-1.327Z"/></mask><path fill-rule="evenodd" clip-rule="evenodd" d="M9.436 5.947c-.114-1.157-.067-2.476-.038-3.28.498.02 3.238 1.858 3.208 4.463 1.252.594 2.396 1.43 3.394 2.203 1.02.79 1.93 1.794 2.676 2.618.172.19.335.37.489.536a.303.303 0 0 1 .026.381l-2.055 2.902a1 1 0 0 1-.428.344l-3.753 1.579a.203.203 0 0 1-.266-.116c-1.637-4.236-2.618-4.494-2.618-4.494-.695.935-1.106 1.018-1.666 1.132-.658.133-1.522.309-3.298 1.965-.358.334-.925 0-.925 0s-1.515-.85-1.515-1.734c0-.369.76-1.496 1.392-2.433l.291-.434c.705-1.057 1.301-2.024 1.301-2.024l1.19-2.186a.952.952 0 0 1 .322-.348c.273-.175.77-.481 1.177-.662.33-.148.781-.307 1.096-.412Zm.593 2.535c-1.682-.663-2.103.664-2.314 1.327.842.222 2.104 0 2.314-1.327Z" fill="currentColor"/><path d="M9.398 2.667 9.496.169A2.5 2.5 0 0 0 6.9 2.578l2.498.089Zm.038 3.28.792 2.371a2.5 2.5 0 0 0 1.696-2.615l-2.488.244Zm3.17 1.183-2.5-.028a2.5 2.5 0 0 0 1.43 2.287l1.07-2.259ZM16 9.333l-1.53 1.977L16 9.333Zm2.676 2.618 1.853-1.678-1.853 1.678Zm.489.536 1.832-1.7-1.832 1.7Zm.026.381-2.04-1.445 2.04 1.445Zm-2.055 2.902 2.04 1.445-2.04-1.445Zm-.428.344.97 2.304-.97-2.304Zm-3.753 1.579-.97-2.305.97 2.305Zm-.266-.116 2.332-.902-2.332.902Zm-2.618-4.494.636-2.418a2.5 2.5 0 0 0-2.641.926l2.005 1.492Zm-1.666 1.132.498 2.45-.498-2.45ZM5.107 16.18l-1.705-1.828 1.705 1.828Zm-.925 0 1.268-2.154A2.606 2.606 0 0 0 5.404 14l-1.222 2.18Zm-.123-4.167 2.073 1.397-2.073-1.397Zm.291-.434 2.08 1.387-2.08-1.387Zm1.301-2.024 2.128 1.312a2.55 2.55 0 0 0 .067-.117L5.651 9.556Zm1.19-2.186 2.196 1.196L6.84 7.37Zm.322-.348L8.51 9.127 7.163 7.02ZM8.34 6.36 7.319 4.076l1.02 2.283Zm1.69 2.123 2.469.392a2.5 2.5 0 0 0-1.552-2.717l-.918 2.325ZM7.714 9.81l-2.383-.755a2.5 2.5 0 0 0 1.748 3.173l.635-2.418ZM6.9 2.578c-.028.778-.085 2.263.048 3.614l4.976-.49c-.095-.963-.057-2.115-.028-2.946L6.9 2.578Zm8.206 4.58c.025-2.202-1.11-3.908-2.088-4.945A8.846 8.846 0 0 0 11.492.92a5.968 5.968 0 0 0-.754-.429A3.274 3.274 0 0 0 9.496.17L9.3 5.165a2.055 2.055 0 0 1-.546-.093c-.079-.025-.125-.047-.132-.05-.014-.006.026.012.113.07.17.113.41.303.647.553.508.538.73 1.054.725 1.457l5 .056Zm2.425.199c-1.018-.788-2.341-1.769-3.853-2.486L11.535 9.39c.991.47 1.955 1.163 2.935 1.92l3.061-3.952Zm2.998 2.916c-.723-.798-1.775-1.969-2.998-2.916L14.47 11.31c.817.633 1.583 1.469 2.353 2.32l3.706-3.357Zm.468.513a59.448 59.448 0 0 1-.468-.513l-3.706 3.357c.17.187.343.378.51.557l3.664-3.4Zm.234 3.527a2.803 2.803 0 0 0-.234-3.527l-3.665 3.402a2.197 2.197 0 0 1-.181-2.765l4.08 2.89Zm-2.055 2.902 2.055-2.902-4.08-2.89-2.055 2.902 4.08 2.89Zm-1.499 1.203a3.501 3.501 0 0 0 1.5-1.203l-4.081-2.89a1.5 1.5 0 0 1 .642-.515l1.94 4.608Zm-3.752 1.579 3.752-1.579-1.939-4.608-3.752 1.578 1.939 4.609Zm-3.568-1.519c.529 1.367 2.112 2.131 3.568 1.519l-1.94-4.609a2.297 2.297 0 0 1 3.036 1.287l-4.664 1.803Zm-.286-5.395c-.635 2.418-.64 2.417-.644 2.416l-.008-.002-.017-.005a2.511 2.511 0 0 1-.218-.072 2.134 2.134 0 0 1-.204-.09 1.653 1.653 0 0 1-.254-.159c-.098-.075-.076-.083.047.08.256.338.81 1.226 1.584 3.227l4.664-1.803c-.864-2.234-1.618-3.593-2.262-4.443a5.343 5.343 0 0 0-.985-1.024 3.365 3.365 0 0 0-.52-.332 2.867 2.867 0 0 0-.53-.206l-.009-.002c-.004-.002-.008-.003-.644 2.415Zm-1.168 3.582c.252-.051.883-.162 1.547-.55.658-.385 1.17-.926 1.627-1.54l-4.011-2.984c-.117.157-.186.23-.212.255-.02.02.004-.008.071-.047a.84.84 0 0 1 .161-.072l-.029.007a7.838 7.838 0 0 1-.149.03l.995 4.9Zm-2.09 1.343c.779-.727 1.252-1.028 1.506-1.158.207-.107.316-.13.584-.185l-.995-4.9c-.39.079-1.043.21-1.876.638-.787.405-1.634 1.02-2.63 1.95l3.41 3.655ZM4.181 16.18a348.441 348.441 0 0 0-1.267 2.155l.001.001.003.002.007.004.014.008a2.373 2.373 0 0 0 .108.06 3.775 3.775 0 0 0 .916.335c.523.117 1.784.256 2.848-.737l-3.41-3.656a1.871 1.871 0 0 1 1.654-.486 1.23 1.23 0 0 1 .35.134l.02.012.012.007.006.003.003.002h.001c.001.001.002.002-1.266 2.156ZM.167 14.446c0 .928.388 1.646.685 2.072.309.444.67.79.95 1.029a7.823 7.823 0 0 0 1.137.802l.01.007.006.002.002.002c.001 0 .002 0 1.225-2.18A551.44 551.44 0 0 1 5.405 14h.001l.002.002.003.001a.42.42 0 0 0 .008.005l-.012-.007a2.849 2.849 0 0 1-.36-.258c-.1-.085-.116-.117-.091-.08.012.017.211.297.211.783h-5Zm1.819-3.83a38.272 38.272 0 0 0-1 1.534 9.352 9.352 0 0 0-.452.827c-.074.157-.367.757-.367 1.469h5c0 .333-.076.562-.088.599-.021.066-.036.092-.022.063a4.66 4.66 0 0 1 .209-.372c.23-.382.54-.843.866-1.326l-4.146-2.795Zm.284-.423-.284.422 4.146 2.795.298-.444-4.16-2.773Zm3.381-.638L3.523 8.243l-.001.001a7.17 7.17 0 0 1-.096.154 72.765 72.765 0 0 1-1.156 1.795l4.16 2.773a77.976 77.976 0 0 0 1.319-2.05l.022-.036.006-.01.001-.002v-.001h.001L5.651 9.555ZM4.646 6.173 3.456 8.36l4.39 2.392 1.19-2.186-4.39-2.392Zm1.169-1.257c-.51.326-.902.768-1.17 1.257l4.392 2.392a1.548 1.548 0 0 1-.526.562L5.815 4.916Zm1.504-.84c-.592.265-1.226.662-1.504.84l2.696 4.21c.116-.074.276-.173.443-.27.176-.102.317-.175.406-.215L7.32 4.076Zm1.325-.5a15.8 15.8 0 0 0-1.325.5L9.36 8.641c.209-.094.56-.22.868-.323L8.644 3.576Zm2.303 2.58c-.71-.28-1.503-.435-2.327-.313a3.686 3.686 0 0 0-2.04 1.011c-.867.841-1.175 1.974-1.247 2.2l4.767 1.51c.056-.177.08-.244.102-.291.022-.048-.01.043-.14.169-.16.155-.41.303-.707.347-.264.04-.373-.033-.242.019l1.835-4.651ZM7.08 12.228c.846.223 1.96.253 3.022-.206 1.201-.52 2.152-1.606 2.396-3.147L7.56 8.09a.838.838 0 0 1 .176-.36 1 1 0 0 1 .38-.299.519.519 0 0 1 .179-.048c.014 0 .028 0 .056.007l-1.27 4.836Z" fill="var(--shade8)" mask="url(#a)"/></svg>