<svg xmlns="http://www.w3.org/2000/svg" width="20" height="20" fill="none"><mask id="a" style="mask-type:alpha" width="20" height="20" x="0" y="0" maskUnits="userSpaceOnUse"><path fill="#131C2E" fill-rule="evenodd" d="M3 0a3 3 0 0 0-3 3v14a3 3 0 0 0 3 3h14a3 3 0 0 0 3-3V3a3 3 0 0 0-3-3H3zm6 8a1 1 0 0 1-1 1H4a1 1 0 0 1-.71-1.703l.797-.806-.988-2.058a1 1 0 0 1 1.334-1.334l2.058.988.806-.798A1 1 0 0 1 9 4v4zm2 4a1 1 0 0 1 1-1h4a1 1 0 0 1 .71 1.704l-.797.805.988 2.058a1 1 0 0 1-1.334 1.334l-2.058-.988-.806.798A1 1 0 0 1 11 16v-4z" clip-rule="evenodd"/></mask><g mask="url(#a)" fill="currentColor" fill-rule="evenodd" clip-rule="evenodd"><path d="M11.59 5 9.774 6.818H6.818v2.955L5 11.59V5h6.59zM8.41 15l1.817-1.818h2.955v-2.955L15 8.41V15H8.41z" opacity=".35"/><path d="M5 15v-1.722L13.278 5H15v1.722L6.722 15H5z"/></g><path fill="currentColor" d="M16 12h-4v4l1.307-1.293L16 16l-1.293-2.693L16 12zM4 8h4V4L6.693 5.293 4 4l1.293 2.693L4 8z"/></svg>