<svg xmlns="http://www.w3.org/2000/svg" width="20" height="20" fill="none"><path fill="currentColor" fill-rule="evenodd" d="M17 3 3 17c.931-.35 2.623-1.26 4.532-2.636A10.98 10.98 0 0 0 10 15.5c2.648-.863 4.482-2.373 5.5-4.53V6.018C16.317 4.715 16.818 3.637 17 3zm-2.794 4.89a29.62 29.62 0 0 1-1.294 1.597v.836c-.47.863-1.941 2.01-2.912 2.442a4.552 4.552 0 0 1-.268-.13 33.2 33.2 0 0 1-1.082.888c.414.227.864.43 1.35.608 1.998-.732 3.38-1.88 4.206-3.463V7.89zM7.088 9.908l2.82-2.82h-2.82v2.82zM5.794 5.794h5.408L12.496 4.5H4.5v6.47a8.1 8.1 0 0 0 .547.98l.939-.94a6.782 6.782 0 0 1-.192-.342V5.794z" clip-rule="evenodd"/></svg>