<svg xmlns="http://www.w3.org/2000/svg" width="20" height="20" fill="none"><path fill="currentColor" fill-rule="evenodd" d="M17 3 3 17c1.033-.388 3.003-1.467 5.167-3.105L7.666 16h4.667l-1.123-4.715a29.835 29.835 0 0 0 1.027-1.05l.429 1.432s2.156-.14 3-2l-2-.334s2.633-.25 3.667-2.666h-2.255C16.145 5.077 16.788 3.74 17 3zm-5.667 1 .924.739L9.33 7.665 6.999 5.333 8.666 4h2.667zm-3 4.333-.142.471-2.394 2.394c-.549-.293-1.117-.767-1.464-1.531l2-.334S3.7 9.083 2.666 6.667H6.5l1.833 1.666z" clip-rule="evenodd"/></svg>