<svg xmlns="http://www.w3.org/2000/svg" width="20" height="20" fill="none"><path fill="currentColor" fill-rule="evenodd" d="M8.442 8.972a5.194 5.194 0 0 0 1.838 4.787l.16.658H6.728l1.326-5.445h.388zm1.939-3.313a5.223 5.223 0 0 0-1.825 2.767L6.198 6.12l1.326-1.037h2.12l.737.576zM7.259 8.454l-.796 2.592s-1.715-.108-2.386-1.555l1.59-.26s-2.094-.194-2.916-2.074h3.05l1.458 1.297zM13.58 5.7c-2.199 0-3.999 1.8-3.999 4s1.8 4 4 4 4-1.8 4-4-1.8-4-4-4zm-.699 1.7h1.2v2.21l1.655.993.26.156-.16.258-.32.52-.157.256-.255-.158-2.08-1.28-.143-.087V7.4z" clip-rule="evenodd"/></svg>