<svg width="20" height="20" fill="none" xmlns="http://www.w3.org/2000/svg"><mask id="a" maskUnits="userSpaceOnUse" x=".875" y=".5" width="19" height="18" fill="#000"><path fill="#fff" d="M.875.5h19v18h-19z"/><path fill-rule="evenodd" clip-rule="evenodd" d="M2.875 16h2.727V7.9H2.875V16Zm15-7.425a1.36 1.36 0 0 0-1.364-1.35H12.21l.648-3.085.02-.216c0-.276-.116-.533-.3-.715l-.723-.709-4.486 4.448c-.252.243-.402.58-.402.952v6.75c0 .742.614 1.35 1.364 1.35h6.136c.566 0 1.05-.338 1.255-.823l2.058-4.76c.062-.155.096-.316.096-.492v-1.35Z"/></mask><path fill-rule="evenodd" clip-rule="evenodd" d="M2.875 16h2.727V7.9H2.875V16Zm15-7.425a1.36 1.36 0 0 0-1.364-1.35H12.21l.648-3.085.02-.216c0-.276-.116-.533-.3-.715l-.723-.709-4.486 4.448c-.252.243-.402.58-.402.952v6.75c0 .742.614 1.35 1.364 1.35h6.136c.566 0 1.05-.338 1.255-.823l2.058-4.76c.062-.155.096-.316.096-.492v-1.35Z" fill="currentColor"/><path d="M2.875 16h-2a2 2 0 0 0 2 2v-2Zm2.727 0v2a2 2 0 0 0 2-2h-2Zm0-8.1h2a2 2 0 0 0-2-2v2Zm-2.727 0v-2a2 2 0 0 0-2 2h2Zm9.334-.675-1.957-.411a2 2 0 0 0 1.957 2.411v-2Zm.648-3.085 1.957.411a1.83 1.83 0 0 0 .034-.222l-1.991-.189Zm.02-.216 1.991.189c.006-.063.01-.126.01-.189h-2Zm-.3-.715 1.407-1.422-.006-.006-1.4 1.428Zm-.723-.709 1.4-1.428a2 2 0 0 0-2.808.008l1.409 1.42ZM7.369 6.948l1.388 1.44a1.97 1.97 0 0 0 .02-.02l-1.408-1.42Zm8.352 8.229-1.835-.795-.008.019 1.843.776Zm2.06-4.76 1.835.795.025-.06-1.86-.734ZM2.874 18h2.727v-4H2.875v4Zm4.727-2V7.9h-4V16h4Zm-2-10.1H2.875v4h2.727v-4Zm-4.727 2V16h4V7.9h-4Zm19 .675c0-1.866-1.528-3.35-3.364-3.35v4a.64.64 0 0 1-.636-.65h4Zm-3.364-3.35h-4.3v4h4.302v-4Zm-2.345 2.411.648-3.085L10.9 3.73l-.647 3.085 3.914.822Zm.682-3.307.02-.216-3.982-.377-.02.216 3.982.377Zm.03-.405c0-.836-.349-1.597-.894-2.137L11.17 4.63a.989.989 0 0 1-.293-.706h4Zm-.9-2.143-.723-.709-2.8 2.856.722.709 2.8-2.856Zm-3.532-.701L5.96 5.528l2.816 2.84 4.487-4.448-2.817-2.84ZM5.981 5.508A3.313 3.313 0 0 0 4.966 7.9h4a.69.69 0 0 1-.21.489L5.98 5.508ZM4.966 7.9v6.75h4V7.9h-4Zm0 6.75c0 1.866 1.528 3.35 3.364 3.35v-4a.64.64 0 0 1 .636.65h-4ZM8.33 18h6.136v-4H8.33v4Zm6.136 0a3.354 3.354 0 0 0 3.098-2.048l-3.687-1.551a.645.645 0 0 1 .589-.401v4Zm3.09-2.03 2.06-4.758-3.672-1.588-2.06 4.758 3.672 1.589Zm2.084-4.817a3.32 3.32 0 0 0 .235-1.228h-4a.702.702 0 0 1 .045-.242l3.72 1.47Zm.235-1.228v-1.35h-4v1.35h4Z" fill="var(--shade8)" mask="url(#a)"/></svg>