<svg width="24" height="24" fill="none" xmlns="http://www.w3.org/2000/svg"><path clip-rule="evenodd" d="M5.974 5.443a1.868 1.868 0 0 0-2.613.028.467.467 0 0 0 0 .66l2.332 2.331a1.46 1.46 0 0 0-.007.147v6.886l-.727-.105a.405.405 0 0 0-.363.136.435.435 0 0 0-.094.387c.343 1.306 1.713 4.346 6.094 5.099 0 0-1.682-.763-1.495-7.19 0 0-2.193-.669-2.047-3.998l4.186 4.185v2.886h2.263v-.623l1.91 1.911c-.427 2.471-1.267 2.85-1.267 2.85 1.234-.212 2.228-.604 3.029-1.088l1.046 1.046c.73.73 1.912.73 2.642 0a.467.467 0 0 0 .014-.646L5.974 5.443Zm13.103 9.8V8.61c0-1.913-3.654-4.619-5.585-5.674a2.273 2.273 0 0 0-2.221 0c-.744.402-1.743 1.054-2.69 1.812l5.825 5.825c1.238-1.257 3.239-1.274 3.239-1.274.217 1.883-.279 3.017-.83 3.682l2.262 2.263Z"/></svg>