<svg xmlns="http://www.w3.org/2000/svg" width="20" height="20" fill="none"><path fill="currentColor" fill-rule="evenodd" d="m16.856 2.825-4.011 3.054-1.412-.91-.052 4.999 4.814-1.35-1.135-1.042 1.796-4.751zm-5.07 8.587a1.5 1.5 0 0 1-.942-.043c-.786 1.886-.621 3.534-.621 3.534l1.961-1.995a9.365 9.365 0 0 1 .108-1.638l-.506.142zM8.767 9.094c.333-.75.715-1.476 1.145-2.171l-.031 3.03a1.5 1.5 0 0 0 .134.635c-.047.308-.088.618-.123.927 0 0-.478-1.683-1.125-2.421zm-.169 7.656-3.691-3.73a8.54 8.54 0 0 0-2.032-5.29c3.248 1.221 3.769 3.665 3.769 3.665.583-2.855-1.59-7.145-1.59-7.145 6.237 7.805 3.544 12.5 3.544 12.5z" clip-rule="evenodd"/></svg>