<svg width="20" height="20" fill="none" xmlns="http://www.w3.org/2000/svg"><mask id="a" maskUnits="userSpaceOnUse" x=".5" y="2" width="19" height="18" fill="#000"><path fill="#fff" d="M.5 2h19v18H.5z"/><path fill-rule="evenodd" clip-rule="evenodd" d="M12.046 4H5.909c-.566 0-1.05.338-1.254.824l-2.06 4.758a1.322 1.322 0 0 0-.095.493v1.35c0 .742.614 1.35 1.364 1.35h4.302l-.648 3.085-.02.216c0 .276.116.533.3.715l.722.709 4.494-4.448c.245-.243.395-.58.395-.952V5.35A1.36 1.36 0 0 0 12.045 4Zm2.727 0v8.1H17.5V4h-2.727Z"/></mask><path fill-rule="evenodd" clip-rule="evenodd" d="M12.046 4H5.909c-.566 0-1.05.338-1.254.824l-2.06 4.758a1.322 1.322 0 0 0-.095.493v1.35c0 .742.614 1.35 1.364 1.35h4.302l-.648 3.085-.02.216c0 .276.116.533.3.715l.722.709 4.494-4.448c.245-.243.395-.58.395-.952V5.35A1.36 1.36 0 0 0 12.045 4Zm2.727 0v8.1H17.5V4h-2.727Z" fill="currentColor"/><path d="m4.655 4.824 1.835.794.008-.019-1.843-.776Zm-2.06 4.758L.76 8.788l-.025.06 1.86.734Zm5.57 3.193 1.958.411a2 2 0 0 0-1.957-2.411v2Zm-.647 3.085-1.957-.411a1.998 1.998 0 0 0-.034.222l1.991.189Zm-.02.216-1.991-.189a1.999 1.999 0 0 0-.01.189h2Zm.3.715L6.39 18.213l.006.006 1.4-1.428Zm.722.709-1.4 1.428a2 2 0 0 0 2.808-.007L8.52 17.5Zm4.494-4.448 1.407 1.421-1.407-1.421ZM14.773 4V2a2 2 0 0 0-2 2h2Zm0 8.1h-2a2 2 0 0 0 2 2v-2Zm2.727 0v2a2 2 0 0 0 2-2h-2Zm0-8.1h2a2 2 0 0 0-2-2v2Zm-5.454-2H5.909v4h6.137V2ZM5.909 2a3.355 3.355 0 0 0-3.098 2.048l3.687 1.551A.646.646 0 0 1 5.909 6V2ZM2.82 4.03.759 8.787l3.672 1.588 2.06-4.758-3.672-1.589ZM.735 8.846A3.322 3.322 0 0 0 .5 10.075h4a.696.696 0 0 1-.045.242l-3.72-1.47ZM.5 10.075v1.35h4v-1.35h-4Zm0 1.35c0 1.866 1.528 3.35 3.364 3.35v-4a.64.64 0 0 1 .636.65h-4Zm3.364 3.35h4.302v-4H3.864v4Zm2.345-2.411-.648 3.085 3.915.822.647-3.085-3.914-.822Zm-.682 3.307-.02.216 3.982.377.02-.216-3.982-.377Zm-.03.405c0 .836.349 1.597.894 2.137l2.814-2.843a.99.99 0 0 1 .293.706h-4Zm.9 2.143.723.709 2.8-2.856-.722-.709-2.8 2.856Zm3.53.702 4.494-4.448-2.814-2.843-4.494 4.449 2.815 2.842Zm4.494-4.448a3.335 3.335 0 0 0 .988-2.373h-4a.67.67 0 0 1 .197-.47l2.815 2.843Zm.988-2.373V5.35h-4v6.75h4Zm0-6.75c0-1.866-1.528-3.35-3.364-3.35v4a.64.64 0 0 1-.636-.65h4ZM12.773 4v8.1h4V4h-4Zm2 10.1H17.5v-4h-2.727v4Zm4.727-2V4h-4v8.1h4ZM17.5 2h-2.727v4H17.5V2Z" fill="var(--shade8)" mask="url(#a)"/></svg>