<svg width="48" height="48" fill="none" xmlns="http://www.w3.org/2000/svg"><path fill-rule="evenodd" clip-rule="evenodd" d="M9.783 4.254c-.95 6.195 5.051 14.363 8.17 17.673-1.25.887-3.572 3.82-2.85 8.456.722 4.637 4.925 7.031 6.936 7.649l-1.852 5.606c-2.775-7.145-11.418-10.23-15.393-10.88-3.99-8.36-2.36-15.803-1.045-18.48 0 3.23 2.946 7.237 4.418 8.837.145-1.743-.01-2.228-.442-3.572a46.515 46.515 0 0 1-.793-2.7c-1.093-4.18 1.362-9.802 2.85-12.589ZM32.607 19H37v8h8v1.181c1.7-6.405.423-11.728-.645-13.903 0 3.23-2.945 7.237-4.418 8.837-.145-1.743.01-2.228.442-3.572.204-.634.47-1.46.793-2.7 1.093-4.18-1.362-9.802-2.85-12.589.734 4.788-2.684 10.755-5.715 14.746ZM28 43.431V37.17c-.728.416-1.407.7-1.935.863l1.853 5.606.082-.207Z" fill="#756572"/><path fill-rule="evenodd" clip-rule="evenodd" d="M28 23.973a5.98 5.98 0 0 0-8 8.843V27h8v-3.027Z" fill="#CD4545"/><path fill-rule="evenodd" clip-rule="evenodd" d="M43 34h-8v8h-5v-8h-8v-5h8v-8h5v8h8v5Z" fill="#E5EBEF"/></svg>