<svg width="16" height="10" fill="none" xmlns="http://www.w3.org/2000/svg"><path fill-rule="evenodd" clip-rule="evenodd" d="M6.812 4.233C8.2 3.667 8.037 1.3 8.037 1.3c2.068.865 3.45 3.638 2.802 5.69-.783 2.456-4.307 2.74-5.472.438C4.092 4.915 6.55 2.832 6.55 2.832c.002.473.104.955.263 1.4Zm.481 3.852a1.174 1.174 0 0 0 1.458 0c.427-.339.726-.873.73-1.445 0-1.36-1.444-2.495-1.444-2.495S6.55 5.28 6.55 6.64c.006.572.276 1.108.744 1.445ZM4.425 4.086c.11-.32.237-.694-.125-.815-.395-.133-.741.265-.924.694a1.647 1.647 0 0 0-.127.443 3.39 3.39 0 0 1-.129.522c-.09.279-.4.553-.56.07-.053-.107-.069-.485 0-.764.053-.212.093-.311.128-.4a2.93 2.93 0 0 0 .032-.082c.058-.159.128-.348.4-.805.059-.099.104-.184.143-.26.095-.18.16-.304.313-.406.096-.064.228-.151.424-.3.105-.078.205-.15.3-.219l.025-.018c.47-.34.795-.573.795-.889 0-.644-.62-.27-1.6.322l-.274.163c-.218.13-.344.204-.454.297-.149.126-.269.287-.552.666-.285.383-.457.709-.617 1.011v.001c-.11.206-.213.402-.343.597l-.08.12c-.337.502-.4.685-.4 1.329 0 .139.01.288.02.444C.864 6.5.81 7.105.158 7.833a.336.336 0 0 0-.055.373l.345.69a.32.32 0 0 0 .159.15l.76.332c.137.06.296.017.387-.1.352-.46.466-.536.806-.763l.14-.09c.429-.264 1.15-.71 1.239-2.002.017-.55.034-1.084.221-1.586.046-.113.125-.33.236-.665l.029-.086Zm7.15 0c-.109-.32-.236-.694.126-.815.395-.133.74.265.923.694.085.198.104.307.128.443.021.123.046.269.128.522.09.279.4.553.56.07.053-.107.07-.485 0-.764a2.646 2.646 0 0 0-.128-.4l-.032-.082c-.058-.159-.127-.348-.4-.805-.059-.099-.103-.184-.143-.26-.095-.18-.159-.304-.312-.406a7.392 7.392 0 0 1-.425-.3 16.78 16.78 0 0 0-.3-.219l-.024-.018c-.471-.34-.796-.573-.796-.889 0-.644.62-.27 1.6.322l.274.163c.219.13.344.204.454.297.15.126.27.287.552.666.286.383.458.709.618 1.011v.001a6.789 6.789 0 0 0 .422.717c.338.502.4.685.4 1.329 0 .139-.01.288-.02.444-.045.713.014 1.332.72 2.09a.206.206 0 0 1 .036.232l-.355.709a.5.5 0 0 1-.247.235l-.788.344a.202.202 0 0 1-.241-.064c-.4-.527-.507-.599-.865-.838-.041-.028-.089-.058-.14-.09-.428-.264-1.15-.71-1.239-2.002-.017-.55-.034-1.084-.221-1.586-.046-.113-.124-.33-.235-.665l-.03-.086Z" fill="currentColor"/></svg>