<svg xmlns="http://www.w3.org/2000/svg" width="20" height="20" fill="none"><mask id="a" style="mask-type:alpha" width="20" height="20" x="0" y="0" maskUnits="userSpaceOnUse"><path fill="currentColor" fill-rule="evenodd" d="M3 0a3 3 0 0 0-3 3v14a3 3 0 0 0 3 3h14a3 3 0 0 0 3-3V3a3 3 0 0 0-3-3H3zm8.273 9.633h.216a1.85 1.85 0 0 0 .547 1.38l.326.32a1.4 1.4 0 0 0 1.965-.005l1.997-1.977.018-.018h.991a1.4 1.4 0 0 0 1.4-1.4v-3.6a1.4 1.4 0 0 0-1.4-1.4h-1.212a1.4 1.4 0 0 0-.55.112 2.002 2.002 0 0 0-.662-.112h-2.727c-.818 0-1.536.49-1.845 1.215l-.913 2.11a1.987 1.987 0 0 0-.158.775v.6c0 1.117.913 2 2.007 2zm6.06-5.3v3.6h-1.212v-3.6h1.212z" clip-rule="evenodd"/></mask><g mask="url(#a)"><path fill="currentColor" fill-opacity=".8" fill-rule="evenodd" d="M9.032 4.75c.427-.001.757-.002 1.847 2.063a16.018 16.018 0 0 0 2.528 3.437c.16.161.262.338.26.563a1.23 1.23 0 0 1-.066.312c-.558 1.602-3.204 3.308-4.218 3.961l-.06.039c-.113.072-.214.127-.323.125a.667.667 0 0 1-.324-.125c-.99-.623-3.694-2.366-4.278-4a1.18 1.18 0 0 1-.065-.313c-.001-.221.1-.402.26-.562A16.04 16.04 0 0 0 7.12 6.813C8.21 4.748 8.54 4.749 8.968 4.75a11.329 11.329 0 0 0 .064 0zm.357 8.75c.432-.764.959-1.483 1.49-2.188 1.271-1.706.172-2.185-.324-2.187-.278 0-.7.402-1.037.75-.126.13-.333.193-.518.193-.186 0-.393-.062-.519-.193-.337-.348-.758-.75-1.037-.75-.508 0-1.595.478-.324 2.188.529.704 1.06 1.423 1.49 2.187.08.143.22.25.39.25.168 0 .31-.107.389-.25z" clip-rule="evenodd"/></g><path fill="currentColor" fill-rule="evenodd" d="M14.91 4.333h-2.728a.602.602 0 0 0-.557.366l-.916 2.115a.587.587 0 0 0-.042.22v.6c0 .33.273.6.606.6h1.912l-.288 1.37-.009.097a.45.45 0 0 0 .133.317l.322.316 1.997-1.977a.593.593 0 0 0 .175-.423v-3c0-.33-.272-.6-.606-.6zm1.211 0v3.6h1.213v-3.6H16.12z" clip-rule="evenodd"/></svg>