<svg xmlns="http://www.w3.org/2000/svg" viewBox="0 0 32 32"><path fill="#4e9996" d="M18.165 9.693A47.309 47.309 0 0 0 16 6s-1.018 1.528-2.165 3.693c.679-.233 1.407-.359 2.165-.359s1.486.126 2.165.359zM26 18l-1.333-.135V18H26zm-11.481 6h2.962c-.448 1.05-1.083 2-1.481 2s-1.034-.95-1.481-2zm-1.186-1.888v.849C12.742 23.848 12 25 12 25c0-2.667-3.333-5.667-6-7 0 0 1.876-.203 3.53-.386a6.683 6.683 0 0 0 3.803 4.497zm0-3.131a4 4 0 0 1 5.334-5.962V18h-5.333v.981zm8.442-6.314a6.71 6.71 0 0 0-2.087-2.221c2.436-.744 7.645-3.112 7.645-3.112 0 1.249-.781 4.58-2.667 7.067v-1.734h-2.892zM9.337 16.238a6.658 6.658 0 0 1 2.975-5.792c-2.436-.744-7.645-3.112-7.645-3.112 0 .746 1.319 6.435 4.671 8.904z"/><path fill="var(--shade0, white)" d="M28.667 22.667h-5.333V28h-3.333v-5.333h-5.333v-3.333h5.333v-5.333h3.333v5.333h5.333v3.333z"/></svg>