<svg xmlns="http://www.w3.org/2000/svg" width="20" height="20" fill="none"><path fill="currentColor" fill-rule="evenodd" d="M10 15.958a5.958 5.958 0 1 1 0-11.916 5.958 5.958 0 0 1 0 11.916zm-1.077-7.03L7.74 7.856H5.26C5.929 9.41 7.63 9.57 7.63 9.57l-1.293.215c.545 1.196 1.939 1.286 1.939 1.286l.646-2.144zm2.801 2.144-.646-2.144 1.184-1.072h2.478c-.668 1.554-2.37 1.715-2.37 1.715l1.293.215c-.545 1.196-1.939 1.286-1.939 1.286zm-.862-4.931H9.138l-1.077.857L10 8.928l1.939-1.93-1.077-.857zm-2.37 7.718L9.57 9.357h.861l1.078 4.502H8.493z" clip-rule="evenodd"/></svg>