<svg width="48" height="48" fill="none" xmlns="http://www.w3.org/2000/svg"><path fill-rule="evenodd" clip-rule="evenodd" d="M26.744 17.293c-2.08-.633-4.446-.316-5.38 0l2.667-3.436 2.713 3.436Zm3.39 8.477a6.217 6.217 0 1 1-12.433 0 6.217 6.217 0 0 1 12.434 0Zm-3.39 9.246c-.934.317-3.3.633-5.38 0l2.712 3.436 2.668-3.436Zm-8.726-1.175h-3.617c-.934-1.116-2.803-4.196-2.803-7.596 0-3.4 1.869-6.42 2.803-7.505h3.617c-1.326 1.115-3.617 4.178-3.617 7.505 0 3.328 2.29 6.45 3.617 7.596ZM33.3 18.74h-3.617c1.326 1.145 3.617 4.268 3.617 7.596 0 3.327-2.291 6.39-3.617 7.505H33.3c.934-1.085 2.803-4.106 2.803-7.506 0-3.4-1.87-6.48-2.803-7.595Z" fill="#6B6963"/></svg>