<svg width="16" height="16" fill="none" xmlns="http://www.w3.org/2000/svg"><path d="M7.425.083h-5.09l1.34 1.847v12.14l-1.608 1.846h11.518l1.875-2.639H7.425V.083Z" fill="#AF893D"/><path d="M2.603 3.356a7.31 7.31 0 0 0-.01 10.333l.01-.01v-1.65a6.238 6.238 0 0 1-1.071-3.502c0-1.294.394-2.499 1.071-3.502V3.356Zm10.579 8.866a6.242 6.242 0 0 0 1.207-3.695c0-3.32-2.593-6.043-5.893-6.311V1.157c3.892.27 6.964 3.467 6.964 7.37a7.272 7.272 0 0 1-1.003 3.695h-1.275Z" fill="#AF893D"/><path d="M11.786 12.222a5.22 5.22 0 0 0 1.531-3.694c0-2.737-2.114-4.987-4.821-5.252v8.946h3.29Z" fill="#117D8D"/></svg>