<svg viewBox="0 0 28 28"><path d="M8.52 5.522 11.634 5a3.852 3.852 0 0 0-.532 1.656l-1.134 13.27c-.079.92.17 1.793.646 2.497a1.882 1.882 0 0 1-1.527-1.57L6.985 7.709c-.166-1.037.521-2.016 1.534-2.186Zm10.327-.082-3.878-.348c-1.023-.091-1.925.683-2.014 1.73l-1.134 13.27a1.934 1.934 0 0 0 .188 1.016c.28.572.834.986 1.502 1.046l8.334.746c1.023.092 1.924-.683 2.014-1.73L24.993 7.9c.09-1.047-.667-1.97-1.69-2.061l-4.456-.4ZM3.154 7.83l1.967-.826c-.034.33-.025.669.03 1.011l2.103 13.146c.112.704.407 1.331.826 1.839a1.869 1.869 0 0 1-1.312-1.135L2.14 10.313c-.39-.973.064-2.084 1.014-2.483Z"/></svg>