<svg width="16" height="16" fill="none" xmlns="http://www.w3.org/2000/svg"><path fill-rule="evenodd" clip-rule="evenodd" d="m2.414 6.94-.497-3.95.125-.067c.28-.147.7-.345 1.248-.545 1.096-.399 2.699-.8 4.71-.8s3.614.401 4.71.8a10.367 10.367 0 0 1 1.373.612l-.497 3.95c-.458.258-1.165.8-1.165 1.908 0 .66.269 1.157.529 1.481.085.107.17.196.247.268l-.409 2.28L8 14.37l-4.788-1.493-.41-2.28a2.63 2.63 0 0 0 .248-.268c.26-.324.53-.822.53-1.48 0-1.108-.708-1.65-1.166-1.908Zm12.567-4.677-.002-.001-.002-.002-.009-.005-.027-.018a7.488 7.488 0 0 0-.466-.265 11.48 11.48 0 0 0-1.383-.603C11.895.933 10.162.5 8 .5c-2.162 0-3.895.433-5.092.869a11.28 11.28 0 0 0-1.383.603 7.479 7.479 0 0 0-.466.265l-.027.018-.009.005-.002.002H1.02l-.001.001-.277.185.654 5.192.265.13c.358.173.82.415.82 1.078 0 .356-.142.626-.294.816a1.524 1.524 0 0 1-.27.261l-.011.008-.303.191.642 3.583L8 15.5l5.755-1.793.642-3.583-.303-.191-.011-.008a1.522 1.522 0 0 1-.27-.261 1.284 1.284 0 0 1-.294-.816c0-.663.462-.905.82-1.079l.265-.129.654-5.192-.277-.185Zm-9 1.834L5.46 3.16h3.232c1.588 0 2.026 1.23 1.67 2.673-.198.803-.776 1.657-1.068 1.978.457 1.238 1.397 3.773 1.507 4.008.11.236.356.446.465.535H8.938c.247-.32.329-.615.329-.722 0-.085-.712-1.96-1.068-2.886l-.85.668v2.245l.466.695H5.542l.438-.695V4.097Zm1.396 3.795V4.19c.077 0 .156-.002.233-.004.364-.008.723-.017 1 .164.335.22.492.76.383 1.348-.201 1.08-1.004 1.712-1.494 2.097l-.122.097Z" fill="#AF893D"/></svg>