<svg viewBox="0 0 58 162" class="svg-mannequin"><path class="body-legs" d="M44.575 81.392c.185-.274.584-.172.621.168.858 7.668 1.173 14.313.602 21.115-.115.873-.058 1.713.06 2.539.048.332.102.657.16.986.084.489.172.979.236 1.468.044.326.077.654.09.983.018.329.014.661-.013.994a6.649 6.649 0 0 1-.06.504 5.666 5.666 0 0 1-.105.508 7.513 7.513 0 0 0 .105 2.513c.077.376.179.745.287 1.14l.067.241c.048.161.095.329.142.5.098.347.196.72.294 1.129a27.651 27.651 0 0 1 .21 1.001c.067.358.128.749.185 1.169.075.563.139 1.187.186 1.885.463 3.741.636 9.666.43 15.529a125.666 125.666 0 0 1-.224 4.293 93.671 93.671 0 0 1-.361 3.992 71.59 71.59 0 0 1-.216 1.728c-.068.3-.112.629-.122.976-.034 1.516.605 3.463 2.703 5.406a49.41 49.41 0 0 1 2.497 2.503c.358.383.692.745 1.007 1.085a33.7 33.7 0 0 0 1.193 1.238c.283.278.56.53.837.756.277.227.514.435.71.636.192.197.344.387.446.566.101.179.155.351.155.512a.835.835 0 0 1-.017.16c-.074.322-.368.621-.922.921-.078.044-.152.084-.227.128-.023.014-.043.025-.064.04-.047.029-.098.058-.142.088l-.07.043c-.044.03-.085.055-.126.084-.02.015-.04.026-.06.041-.048.033-.095.065-.139.098l-.03.022c-.054.04-.108.081-.163.117l-.037.029-.114.088-.058.044c-.04.029-.078.062-.118.091a.7.7 0 0 1-.085.062c-.017.015-.033.026-.05.04-.04.033-.085.063-.122.092-.003.003-.007.007-.014.007-.033.026-.07.051-.104.073-.014.007-.027.018-.037.026a.804.804 0 0 1-.078.047l-.044.026a.9.9 0 0 1-.074.04l-.04.022c-.031.014-.062.025-.092.04l-.027.011c-.037.015-.078.026-.118.037-.01.003-.024.003-.034.007a.668.668 0 0 1-.088.014c-.014.004-.03.004-.047.004a.605.605 0 0 1-.085.004h-.044a1.46 1.46 0 0 1-.169-.011c-.01 0-.02-.004-.027-.004a1.17 1.17 0 0 1-.162-.033l-.044-.011a3.267 3.267 0 0 1-.203-.065 4.746 4.746 0 0 1-.243-.103c-.013-.007-.027-.011-.044-.018a3.95 3.95 0 0 1-.253-.128 9.322 9.322 0 0 1-.321-.179c-.014-.007-.024-.014-.037-.022-.102-.058-.206-.128-.318-.197-.027-.018-.054-.033-.08-.051-.116-.073-.23-.15-.36-.234 0 0-.002 0-.002-.004-.554-.398-1.109-.599-1.707-.946a5.81 5.81 0 0 1-.94-.679 7.668 7.668 0 0 1-1.043-1.166 8.544 8.544 0 0 0-.554-.675c-1.287-1.418-2.537-1.769-3.507-2.116a2.052 2.052 0 0 1-.75-.46c-.274-.267-.494-.628-.639-1.11a4.65 4.65 0 0 1-.169-1.009 9.335 9.335 0 0 1 .081-1.808c.068-.522.112-1.158.129-1.881.007-.241.01-.49.01-.749a45.8 45.8 0 0 0-.078-2.535 56.991 56.991 0 0 0-.138-1.871c-.088-.961-.2-1.954-.338-2.955a58.768 58.768 0 0 0-.493-2.996c-.065-.328-.129-.657-.2-.982-1.476-8.381-4.43-8.779-3.69-15.961.278-2.692.4-4.208.403-5.136 0-.153-.004-.292-.007-.416a4.384 4.384 0 0 0-.027-.336 2.643 2.643 0 0 0-.044-.271 2.193 2.193 0 0 0-.094-.318 2.535 2.535 0 0 0-.23-.431c-.108-.175-.233-.376-.372-.675-.186-.399-.277-.998-.341-1.728-.03-.366-.058-.764-.081-1.184a55.875 55.875 0 0 0-.146-2.031 22.4 22.4 0 0 0-.182-1.45c-.196-1.224-.52-2.463-1.098-3.584a24.591 24.591 0 0 1-1.061-2.455 52.188 52.188 0 0 1-.71-1.987 77.057 77.057 0 0 1-.513-1.586 98.559 98.559 0 0 1-1.328-4.672l-.148-.588c-.065-.263-.129-.519-.186-.764-.068-.28-.129-.548-.186-.796-.058-.248-.105-.482-.149-.698-.064-.321-.115-1.121-.152-1.344l-.003-.015c-.112-.72.304-1.417.96-1.593 4.902-.534 10.035-2.812 13.332-5.592Zm-30.089 0c-.185-.274-.584-.172-.621.168-.858 7.668-1.173 14.313-.602 21.115.115.873.058 1.713-.06 2.539-.048.332-.102.657-.16.986-.084.489-.172.979-.236 1.468a10.64 10.64 0 0 0-.091.983 7.505 7.505 0 0 0 .074 1.498c.027.168.061.336.105.508a7.516 7.516 0 0 1-.105 2.513c-.077.376-.179.745-.287 1.14-.024.08-.044.157-.067.241-.048.161-.095.329-.142.5-.098.347-.196.72-.294 1.129a27.651 27.651 0 0 0-.21 1.001c-.067.358-.128.749-.186 1.169a29.74 29.74 0 0 0-.185 1.885c-.463 3.741-.636 9.666-.43 15.529.051 1.447.125 2.886.223 4.293a93.671 93.671 0 0 0 .362 3.992c.068.592.139 1.169.216 1.728.068.3.112.629.122.976.034 1.516-.605 3.463-2.703 5.406-.97.899-1.78 1.739-2.497 2.503-.358.383-.693.745-1.007 1.085a33.608 33.608 0 0 1-1.193 1.238c-.283.278-.56.53-.837.756a8.68 8.68 0 0 0-.71.636 2.856 2.856 0 0 0-.446.566 1.053 1.053 0 0 0-.155.512c0 .054.006.109.017.16.074.322.368.621.922.921.078.044.152.084.226.128.024.014.044.025.065.04.047.029.098.058.141.088l.071.043c.044.03.085.055.125.084.02.015.041.026.061.041.048.033.095.065.139.098l.03.022c.054.04.108.081.162.117l.038.029.114.088.058.044c.04.029.078.062.118.091.027.022.054.044.085.062.016.015.033.026.05.04.04.033.085.063.122.092.003.003.007.007.013.007.034.026.071.051.105.073.014.007.027.018.037.026a.807.807 0 0 0 .078.047l.044.026a.9.9 0 0 0 .074.04l.04.022c.031.014.062.025.092.04l.027.011c.037.015.078.026.118.037.01.003.024.003.034.007a.668.668 0 0 0 .135.018.597.597 0 0 0 .085.004h.044c.054 0 .108-.004.169-.011.01 0 .02-.004.027-.004.054-.007.108-.018.162-.033l.044-.011a3.28 3.28 0 0 0 .202-.065 4.738 4.738 0 0 0 .243-.103c.014-.007.028-.011.045-.018.08-.037.165-.08.253-.128a10.594 10.594 0 0 0 .321-.179l.037-.022c.102-.058.206-.128.318-.197.027-.018.054-.033.08-.051.116-.073.23-.15.359-.234 0 0 .003 0 .003-.004.554-.398 1.109-.599 1.707-.946a5.81 5.81 0 0 0 .94-.679 7.668 7.668 0 0 0 1.043-1.166c.186-.248.368-.474.554-.675 1.287-1.418 2.537-1.769 3.507-2.116.277-.098.53-.248.75-.46.274-.267.493-.628.639-1.11a4.65 4.65 0 0 0 .169-1.009c.033-.511.01-1.11-.081-1.808a18.335 18.335 0 0 1-.129-1.881c-.007-.241-.01-.49-.01-.749 0-.778.027-1.629.078-2.535.034-.603.08-1.228.138-1.871.088-.961.2-1.954.338-2.955.139-1.001.304-2.009.493-2.996.064-.328.129-.657.2-.982 1.476-8.381 4.43-8.779 3.69-15.961-.278-2.692-.4-4.208-.403-5.136 0-.153.004-.292.007-.416.007-.125.013-.234.027-.336.01-.099.027-.19.044-.271.027-.12.057-.223.094-.318.061-.157.139-.284.23-.431.108-.175.233-.376.372-.675.186-.399.277-.998.341-1.728.03-.366.057-.764.081-1.184.037-.632.078-1.319.145-2.031a22.4 22.4 0 0 1 .183-1.45c.196-1.224.52-2.463 1.098-3.584.345-.672.706-1.516 1.06-2.455.24-.625.477-1.297.71-1.987.176-.519.345-1.049.514-1.586a98.559 98.559 0 0 0 1.328-4.672l.148-.588c.065-.263.129-.519.186-.764.068-.28.129-.548.186-.796.058-.248.105-.482.149-.698.064-.321.115-1.121.152-1.344l.003-.015c.112-.72-.304-1.417-.96-1.593-4.902-.534-10.035-2.812-13.332-5.592Z"/><path class="body-torso" d="M10.74 43.75c-.412-1.035-.625-2.185-.625-3.437 0-.852.115-1.698.298-2.53.196-.886.47-1.755.794-2.604.335-.876.724-1.735 1.15-2.57.42-.829.876-1.637 1.36-2.432.453-.744.93-1.471 1.427-2.185.376-.54.775-1.065 1.17-1.59.102-.135-.02-.327-.182-.287a12.172 12.172 0 0 0-1.884.585c-.244.098-.514.193-.734.332-.04.02-.081.037-.122.057-.287.132-.578.277-.872.437-.592.317-1.194.693-1.783 1.133-.443.328-.876.693-1.288 1.095a11.087 11.087 0 0 0-2.162 2.912 10.916 10.916 0 0 0-.916 2.53 12.411 12.411 0 0 0-.298 2.236c0 2.956 0 4.434-1.478 7.39-1.478 2.956-1.478 7.39-1.478 9.605 0 1.248-.351 2.378-.723 3.588-.041.136-.085.271-.126.406-.084.274-.165.551-.243.839a14.92 14.92 0 0 0-.386 1.816c-.196 1.373-.392 4.208-.477 7.062-.01.335-.016.673-.027 1.005-.006.334-.013.666-.013.994-.004.328-.004.65-.004.967 0 .16 0 .315.004.47a38.075 38.075 0 0 0 .03 1.33c.01.28.024.547.038.801.023.382.05.734.084 1.045a17.247 17.247 0 0 1 .105 1.864c.003 2.675-.484 5.266-.484 7.366 0 .89.088 2.127.352 3.369.122.564.277 1.13.48 1.664.163.426.352.835.575 1.204.67 1.109 1.64 1.89 3.027 1.89.738 0 .738-.737 0-1.846-.737-1.11-.737-2.956-.737-4.066 0-.416.05-.778.135-1.072.112-.389.284-.653.464-.74a.29.29 0 0 1 .138-.034c.115 0 .23.179.369.45l.132.263c.047.095.094.197.149.301.033.068.07.139.108.213.074.142.159.288.247.433.044.071.091.142.142.213a2.742 2.742 0 0 0 .98.887c.02.013.041.023.061.037.088.047.17.091.25.128l.028.01c.07.03.138.054.203.075.017.003.03.01.047.013a.773.773 0 0 0 .186.027c.014 0 .027-.003.037-.003a.6.6 0 0 0 .088-.014c.014-.003.027-.01.04-.013a.253.253 0 0 0 .065-.04l.03-.028a.252.252 0 0 0 .048-.078c.003-.01.01-.016.017-.03a.484.484 0 0 0 .03-.149V87c.004-.047 0-.098-.003-.152-.004-.024-.007-.054-.01-.081a1.744 1.744 0 0 0-.054-.264 4.306 4.306 0 0 0-.095-.311 8.567 8.567 0 0 0-.132-.362c-.277-.693-.4-1.488-.538-2.273a12.116 12.116 0 0 0-.23-1.075 6.016 6.016 0 0 0-.132-.44c-.243-.714-.625-1.34-1.319-1.752-.693-.413-.97-1.143-1.008-1.989-.023-.537.055-1.126.18-1.707.013-.055.023-.112.037-.166a17.067 17.067 0 0 1 .25-.92c.173-.548.365-1.066.538-1.498.737-1.847 3.693-9.606 3.693-12.93 0-1.35-.06-2.155-.034-2.753a3.78 3.78 0 0 1 .078-.622l.03-.116c.02-.074.048-.149.075-.223.162-.41.45-.825.96-1.461.048-.058.092-.118.14-.183.09-.128.178-.27.266-.426.088-.152.173-.318.258-.49.084-.173.165-.355.246-.545.207-.487.4-1.021.575-1.556.393-1.315.768-2.935-1.616-8.955Zm37.4 0c-.004 0-.004 0 0 0 .412-1.035.625-2.185.625-3.437 0-.852-.115-1.698-.298-2.53a18.5 18.5 0 0 0-.795-2.604 26.472 26.472 0 0 0-1.15-2.57 35.643 35.643 0 0 0-1.36-2.432 42.474 42.474 0 0 0-1.426-2.185c-.376-.54-.775-1.065-1.17-1.59-.102-.135.02-.327.182-.287a12.17 12.17 0 0 1 1.884.585c.243.098.514.193.734.332.04.02.08.037.121.057.288.132.579.277.873.437.592.317 1.194.693 1.782 1.133.444.328.877.693 1.29 1.095a11.09 11.09 0 0 1 2.16 2.912c.39.761.704 1.604.917 2.53.159.697.264 1.441.297 2.236 0 2.956 0 4.434 1.479 7.39 1.477 2.956 1.477 7.39 1.477 9.605 0 1.248.352 2.378.724 3.588.04.136.085.271.125.406.085.274.166.552.244.839a14.855 14.855 0 0 1 .386 1.816c.196 1.373.392 4.208.476 7.062.01.335.017.673.027 1.005.007.335.014.666.014.994.003.328.003.65.003.967 0 .16 0 .315-.003.47a38.445 38.445 0 0 1-.03 1.33c-.01.28-.024.547-.038.801-.023.382-.05.734-.084 1.045a17.27 17.27 0 0 0-.105 1.864c-.017 2.682.473 5.27.473 7.37 0 .889-.088 2.127-.351 3.368-.122.565-.278 1.13-.48 1.664a7.465 7.465 0 0 1-.576 1.204c-.67 1.11-1.64 1.89-3.027 1.89-.737 0-.737-.737 0-1.846.738-1.11.738-2.956.738-4.065a3.9 3.9 0 0 0-.136-1.072c-.111-.39-.284-.653-.463-.741a.29.29 0 0 0-.139-.034c-.115 0-.23.18-.368.45l-.132.264c-.047.094-.095.196-.149.3l-.108.214a8.244 8.244 0 0 1-.247.433 3.866 3.866 0 0 1-.142.213 2.74 2.74 0 0 1-.981.886l-.06.037c-.089.047-.17.091-.251.129l-.027.01c-.071.03-.139.054-.203.074-.017.004-.03.01-.047.014a.772.772 0 0 1-.187.027c-.013 0-.026-.004-.037-.004a.621.621 0 0 1-.088-.013l-.04-.014a.256.256 0 0 1-.065-.04l-.03-.027a.254.254 0 0 1-.047-.078c-.004-.01-.01-.017-.017-.03a.484.484 0 0 1-.03-.15v-.043c-.004-.048 0-.098.003-.153l.01-.08a1.733 1.733 0 0 1 .054-.264c.017-.065.037-.136.06-.21.011-.034.021-.068.035-.102.037-.111.08-.23.132-.362.277-.693.399-1.488.537-2.272.065-.366.136-.728.23-1.076.041-.149.081-.297.132-.44.244-.713.626-1.339 1.32-1.752.693-.412.97-1.143 1.007-1.988.024-.538-.054-1.126-.18-1.708-.013-.054-.023-.112-.036-.166-.058-.24-.122-.477-.19-.713l-.06-.207a21.693 21.693 0 0 0-.538-1.498c-.738-1.847-3.694-9.605-3.694-12.93 0-1.35.061-2.154.034-2.753a3.766 3.766 0 0 0-.078-.622l-.03-.115a2.861 2.861 0 0 0-.074-.224c-.163-.409-.45-.825-.96-1.46-.048-.058-.092-.119-.14-.183a4.894 4.894 0 0 1-.267-.426 8.22 8.22 0 0 1-.257-.49 11.67 11.67 0 0 1-.247-.545 20.648 20.648 0 0 1-.575-1.556c-.385-1.32-.757-2.94 1.627-8.96Zm-3.233 31.636a63.244 63.244 0 0 0-.287-1.405c-.366-1.7-.798-3.306-1.216-4.799-.024-.082-.045-.163-.07-.245-.31-1.108-.614-2.154-.87-3.128a34.95 34.95 0 0 1-.456-1.912c-.062-.3-.117-.592-.159-.875-.065-.414-.11-.81-.131-1.184-.007-.134-.01-.265-.014-.396-.007-.977.183-1.79.653-2.429.097-.13.194-.277.283-.431a7.325 7.325 0 0 0 .373-.697c.1-.213.197-.437.29-.67.177-.44.336-.913.48-1.394.015-.052.032-.102.046-.154.062-.207.117-.414.176-.624.014-.047.024-.094.038-.14.097-.365.183-.729.262-1.085.139-.618.253-1.21.35-1.746.068-1.568-1.883-1.83-5.39-1.557a1.073 1.073 0 0 1-.131.012c-.857.099-1.755.151-2.694.151h-.084l-.082-.008c-2.505-.254-3.914-.834-4.947-1.257-.798-.326-1.21-.484-1.797-.484s-.998.158-1.796.484c-1.03.423-2.442 1-4.947 1.257l-.083.008h-.083c-.94 0-1.837-.055-2.694-.151a.504.504 0 0 1-.131-.012c-3.507-.274-5.458-.011-5.39 1.557.097.536.211 1.128.35 1.746.079.356.169.723.262 1.085.014.046.024.093.038.14.055.21.114.417.176.624.014.052.031.102.045.154.145.481.304.953.48 1.394.094.233.19.457.29.67.052.108.1.21.156.312a7.136 7.136 0 0 0 .5.816c.474.636.66 1.452.654 2.429 0 .128-.007.262-.014.396-.02.373-.066.77-.131 1.184-.045.283-.1.574-.16.875a33.5 33.5 0 0 1-.455 1.912c-.256.974-.56 2.02-.87 3.128-.025.082-.046.163-.07.245-.418 1.496-.85 3.099-1.216 4.799-.1.457-.193.927-.287 1.405-.159.83.128 1.685.795 2.312 3.085 2.903 10.215 6.472 14.585 6.475 4.366 0 11.5-3.572 14.585-6.475.66-.63.946-1.481.788-2.312Z"/><path class="body-torso" d="M46.328 38.16c-.226-1.062-.582-2.097-1-3.102a29.169 29.169 0 0 0-1.503-3.04 38.6 38.6 0 0 0-1.714-2.757 42.403 42.403 0 0 0-2.216-2.976c-.456-.527-1.427-1.363-3.514-.599a.386.386 0 0 1-.033.01c-.051.02-.102.045-.156.065-1.143.45-2.307.856-3.497 1.174-1.059.284-2.161.53-3.264.53-1.103 0-2.205-.243-3.264-.53a33.69 33.69 0 0 1-3.497-1.174c-.05-.02-.101-.044-.155-.064a.2.2 0 0 0-.034-.01c-2.084-.765-3.058.07-3.514.598a41.06 41.06 0 0 0-2.215 2.976 38.598 38.598 0 0 0-1.715 2.757 28.82 28.82 0 0 0-1.502 3.04c-.42 1.002-.774 2.036-1.001 3.102-.152.71-.247 1.434-.247 2.158a8.665 8.665 0 0 0 .21 1.92c.138.593.341 1.137.602 1.638a6.578 6.578 0 0 0 1.244 1.657 7.35 7.35 0 0 0 1.336 1.028 9.319 9.319 0 0 0 1.593.771c.427.163.876.301 1.343.416a14.856 14.856 0 0 0 1.948.345 19.19 19.19 0 0 0 2.097.112c4.045-.487 4.735-2.03 6.764-2.03 2.03 0 2.72 1.543 6.765 2.03.72 0 1.42-.038 2.096-.112a14.793 14.793 0 0 0 1.949-.345 11.692 11.692 0 0 0 1.762-.585 9.319 9.319 0 0 0 1.173-.602c.247-.149.48-.311.704-.48a6.92 6.92 0 0 0 1.44-1.492c.16-.226.305-.463.437-.713a7.02 7.02 0 0 0 .602-1.637c.068-.298.122-.606.156-.924.033-.321.054-.652.054-.997a9.438 9.438 0 0 0-.234-2.158Z"/><path class="body-head" d="M38.066 11.675v-.017a.897.897 0 0 0-.044-.203.738.738 0 0 0-.098-.2.15.15 0 0 1-.02-.023.542.542 0 0 0-.119-.115c-.006-.003-.01-.01-.017-.014a.674.674 0 0 0-.206-.087.8.8 0 0 0-.206-.027c-.014 0-.027 0-.04.003a1.07 1.07 0 0 0-.177.017l-.064.01a2.997 2.997 0 0 0-.247.064c.024-.067.044-.145.064-.223a6.08 6.08 0 0 0 .105-.528c.017-.094.03-.192.044-.29.027-.2.048-.406.064-.613.01-.101.017-.206.024-.307.014-.203.027-.403.034-.589.03-.65.03-1.143.03-1.143 0-.2-.01-.4-.023-.592-.122-1.958-.85-3.595-2.074-4.772a6.678 6.678 0 0 0-1.582-1.12 7.774 7.774 0 0 0-1.046-.43 8.649 8.649 0 0 0-.926-.256A9.841 9.841 0 0 0 30.03.024 8.471 8.471 0 0 0 29.442 0c-.2 0-.396.01-.592.024a9.859 9.859 0 0 0-1.512.196 8.655 8.655 0 0 0-.927.257 7.29 7.29 0 0 0-1.045.43 6.678 6.678 0 0 0-1.583 1.119C22.56 3.203 21.832 4.84 21.71 6.798a8.524 8.524 0 0 0-.024.592s0 .494.03 1.143c.01.186.021.386.035.589.006.101.016.203.023.307.017.207.04.413.064.613.014.098.028.196.044.29.03.19.065.37.105.528.02.081.04.156.065.223-.088-.03-.17-.05-.247-.064l-.065-.01a1.106 1.106 0 0 0-.175-.017c-.014 0-.027-.004-.041-.004a.782.782 0 0 0-.206.028l-.04.01a.622.622 0 0 0-.167.078c-.006.003-.01.01-.017.013a.635.635 0 0 0-.138.139.817.817 0 0 0-.085.162c-.003.014-.01.027-.013.037a.938.938 0 0 0-.044.203v.017a1.663 1.663 0 0 0 0 .274c.006.085.02.17.037.26a2.773 2.773 0 0 0 .095.348c.02.062.04.133.057.204 0 .007.003.01.003.013l.051.224c.004.01.004.02.007.027.017.077.034.159.047.24l.01.047c.017.085.034.17.048.257.017.095.037.19.054.284.003.014.003.024.007.037.017.092.037.186.057.281.004.01.004.02.007.034.02.095.044.19.068.284.003.007.003.017.006.024.024.098.051.193.082.29a5.73 5.73 0 0 0 .098.29v.005c.034.088.07.176.108.257l.01.02c.037.078.078.156.122.227l.017.027c.044.068.088.132.138.193.007.01.014.017.02.027a1.5 1.5 0 0 0 .16.159c.01.006.017.013.027.02.057.047.118.085.182.118.01.007.02.01.03.014.068.034.136.057.214.078l.03.006c.078.017.16.027.247.027h.024c.091 0 .186-.01.287-.03 0 .484 0 1.393.125 2.357.027.21.068.44.119.673.26 1.164.795 2.29 1.36 2.865 1.592 1.627 3.148 2.841 4.677 2.841 1.529 0 3.084-1.214 4.677-2.84.565-.58 1.103-1.706 1.36-2.866a9.89 9.89 0 0 0 .118-.673c.125-.964.125-1.87.125-2.357.102.02.197.03.288.03h.024c.088 0 .169-.01.247-.027l.03-.006a.943.943 0 0 0 .213-.078l.03-.014c.065-.034.126-.074.183-.118.01-.007.017-.014.027-.02a1.51 1.51 0 0 0 .16-.16c.006-.01.013-.016.02-.026.05-.061.094-.125.138-.193l.017-.027c.044-.071.085-.146.122-.227l.01-.02c.037-.085.074-.17.108-.257v-.004c.034-.09.064-.189.095-.284 0-.003 0-.003.003-.006l.081-.291c.004-.007.004-.017.007-.024a8.35 8.35 0 0 0 .068-.284c.003-.01.003-.02.007-.034.02-.095.04-.186.057-.28.004-.014.004-.024.007-.038.02-.095.037-.193.054-.284.017-.088.034-.176.047-.257l.01-.047c.017-.081.03-.163.048-.24.003-.01.003-.02.007-.027.017-.078.033-.156.05-.224 0-.006.004-.01.004-.013.02-.075.037-.142.057-.203.034-.102.061-.2.081-.294l.014-.054c.017-.092.03-.18.037-.26 0-.018 0-.031.004-.048-.007-.078-.007-.156-.014-.227Z"/></svg>