<svg width="20" height="20" fill="none" xmlns="http://www.w3.org/2000/svg"><mask id="a" style="mask-type:alpha" maskUnits="userSpaceOnUse" x="2" y="2" width="16" height="16"><rect x="2" y="2" width="16" height="16" rx="3.5" fill="#C4C4C4"/></mask><g mask="url(#a)"><path clip-rule="evenodd" d="M2 9.5A1.5 1.5 0 0 0 3.5 11h4A1.5 1.5 0 0 0 9 9.5v-6A1.5 1.5 0 0 0 7.5 2h-4A1.5 1.5 0 0 0 2 3.5v6Zm0 7A1.5 1.5 0 0 0 3.5 18h4A1.5 1.5 0 0 0 9 16.5v-2A1.5 1.5 0 0 0 7.5 13h-4A1.5 1.5 0 0 0 2 14.5v2Zm9 0a1.5 1.5 0 0 0 1.5 1.5h4a1.5 1.5 0 0 0 1.5-1.5v-6A1.5 1.5 0 0 0 16.5 9h-4a1.5 1.5 0 0 0-1.5 1.5v6ZM12.5 2A1.5 1.5 0 0 0 11 3.5v2A1.5 1.5 0 0 0 12.5 7h4A1.5 1.5 0 0 0 18 5.5v-2A1.5 1.5 0 0 0 16.5 2h-4Z"/></g></svg>