<svg width="24" height="24" fill="none" xmlns="http://www.w3.org/2000/svg"><path d="M5.028 12.427c0-2.002.833-3.887 2.287-5.179l.444-.268A2.571 2.571 0 0 0 8.914 5.4a2.693 2.693 0 0 0-.247-1.973L7.88 2l-1.026.621c-1.185.717-1.592 2.31-.908 3.552l.228.415a7.945 7.945 0 0 0-.545.606 2.537 2.537 0 0 0-.968-1.072L3.3 5.297l-.593 1.076a2.693 2.693 0 0 0-.248 1.974 2.572 2.572 0 0 0 1.157 1.58l.474.285c-.068.25-.124.506-.169.764a2.387 2.387 0 0 0-1.35-.422H1v1.242c0 1.434 1.113 2.6 2.481 2.6h.548c.061.255.134.506.218.751a2.372 2.372 0 0 0-1.371.341l-1.361.824.592 1.076A2.483 2.483 0 0 0 3.613 18.6a2.38 2.38 0 0 0 1.883-.26l.478-.29c.174.187.356.366.547.536a2.517 2.517 0 0 0-1.026 1.016l-.786 1.427 1.026.621a2.379 2.379 0 0 0 1.882.26c.46-.129.807-.364 1.09-.71.218-.266.293-.615.293-.96v-.794c0-.403-.246-.76-.598-.956-2.052-1.142-3.374-3.451-3.374-6.063Zm15.492 1.97c1.367 0 2.48-1.167 2.48-2.6v-1.243h-1.572c-.483 0-.95.148-1.35.421a8.384 8.384 0 0 0-.168-.763l.474-.286a2.571 2.571 0 0 0 1.156-1.58 2.693 2.693 0 0 0-.248-1.973l-.593-1.075-1.361.824a2.538 2.538 0 0 0-.968 1.072 7.943 7.943 0 0 0-.545-.605l.229-.415c.33-.602.419-1.303.247-1.974a2.57 2.57 0 0 0-1.155-1.579L16.118 2l-.786 1.427a2.693 2.693 0 0 0-.247 1.974A2.571 2.571 0 0 0 16.24 6.98l.444.268c1.454 1.292 2.287 3.176 2.287 5.179 0 2.612-1.322 4.922-3.374 6.064-.352.196-.598.553-.598.956v.795c0 .344.075.693.293.959.283.345.63.58 1.09.71a2.38 2.38 0 0 0 1.882-.26l1.026-.622-.786-1.427a2.517 2.517 0 0 0-1.026-1.016c.19-.17.373-.349.547-.537l.479.291a2.379 2.379 0 0 0 1.882.26c.64-.18 1.175-.61 1.506-1.212l.592-1.076-1.36-.824a2.371 2.371 0 0 0-1.372-.341c.084-.245.157-.496.218-.75h.549Z"/><path d="m12 7.5-4.146 4.146a.5.5 0 0 0 0 .708l.542.542a.5.5 0 0 0 .708 0L11 11v5.5a.5.5 0 0 0 .5.5h1a.5.5 0 0 0 .5-.5V11l1.896 1.896a.5.5 0 0 0 .708 0l.542-.542a.5.5 0 0 0 0-.708L12 7.5Z"/></svg>