<svg width="24" height="24" fill="none" xmlns="http://www.w3.org/2000/svg"><path clip-rule="evenodd" d="M18.265 19a2 2 0 0 0 1.73-.994c-.015.766-.07 1.241-.268 1.629a2.5 2.5 0 0 1-1.092 1.092C18.1 21 17.4 21 16 21h-5.6c-2.24 0-3.36 0-4.216-.436a4 4 0 0 1-1.748-1.748C4 17.96 4 16.84 4 14.6V9.4c0-2.24 0-3.36.436-4.216a4 4 0 0 1 1.748-1.748C7.04 3 8.16 3 10.4 3h.603L11 8.556a.4.4 0 0 0 .638.322l1.624-1.202a.4.4 0 0 1 .476 0l1.624 1.202A.4.4 0 0 0 16 8.556V3c1.4 0 2.1 0 2.635.272a2.5 2.5 0 0 1 1.092 1.093C20 4.9 20 5.6 20 7v8a2 2 0 0 1-2 2H7a1 1 0 1 0 0 2h11.265Z"/></svg>