<svg width="24" height="24" fill="none" xmlns="http://www.w3.org/2000/svg"><path clip-rule="evenodd" d="M15.684 4.557c-1.29-.86-1.934-1.29-2.678-1.45a4.817 4.817 0 0 0-2.012 0c-.743.16-1.388.59-2.678 1.45L5.335 6.544c-1.29.86-1.934 1.29-2.176 1.785a1.491 1.491 0 0 0 0 1.342c.242.495.887.925 2.176 1.785l2.981 1.987c1.29.86 1.934 1.29 2.678 1.45a4.819 4.819 0 0 0 2.012 0c.743-.16 1.388-.59 2.678-1.45l2.981-1.987c1.29-.86 1.934-1.29 2.176-1.785a1.491 1.491 0 0 0 0-1.342c-.242-.495-.887-.925-2.176-1.785l-2.981-1.987Z"/><path fill-rule="evenodd" clip-rule="evenodd" d="M3.627 13.72a1.986 1.986 0 0 0-.533.761 1.48 1.48 0 0 0 .027 1.106c.118.282.324.551.616.788.067.055.14.109.217.16l2.074 1.383a2 2 0 0 0-.555-2.774L5.257 15l.144-.096-1.235-.824-.54-.36Zm14.972 1.184.144.096-.216.144a2 2 0 0 0-.555 2.774l2.074-1.383c.077-.051.15-.105.217-.16a2.054 2.054 0 0 0 .643-.856 1.48 1.48 0 0 0-.027-1.106 1.985 1.985 0 0 0-.506-.694c-.173.117-.353.237-.54.361l-1.234.824Zm-4.996 3.523a2 2 0 0 1 2.774.554l-2.075 1.383a3.241 3.241 0 0 1-.297.176c-.29.151-.607.265-.94.341A4.76 4.76 0 0 1 12 21h-.058a4.76 4.76 0 0 1-1.006-.119 3.942 3.942 0 0 1-.94-.34 3.235 3.235 0 0 1-.298-.177l-2.075-1.383a2 2 0 0 1 2.774-.554l.41.273.006.008L12 19.5l1.178-.785a.123.123 0 0 1 .015-.015l.41-.273Z" fill="#7F838B"/></svg>