<svg width="914" height="858" fill="none" xmlns="http://www.w3.org/2000/svg"><path d="M766.011 431 538.06 631.276a29.999 29.999 0 0 1-19.801 7.463h-39.187a30.001 30.001 0 0 0-21.352 8.926L411 695" stroke="url(#a)" stroke-opacity=".25"/><g filter="url(#b)"><path d="M706.567 481 539.643 628.225a30.003 30.003 0 0 1-19.844 7.5h-38.893a30 30 0 0 0-21.392 8.967L413 692" stroke="url(#c)"/></g><path d="M913.006 542 586.441 833" stroke="url(#d)" stroke-opacity=".5"/><path d="m721.707 713-40.963 36" stroke="url(#e)" stroke-opacity=".4"/><path d="M680 608 432 828" stroke="url(#f)" stroke-opacity=".6"/><circle r="1.5" transform="matrix(-1 0 0 1 432.5 827.5)" fill="#393C47"/><circle r="1" transform="matrix(-1 0 0 1 681.02 749)" fill="var(--primary)"/><g filter="url(#g)"><path d="m403.955 777 83.536-74.678c20.519-18.344 7.544-52.326-19.979-52.326s-40.498-33.983-19.979-52.327l124.194-111.024a93.582 93.582 0 0 1 62.37-23.814h8.198c28.29 0 55.589-10.423 76.68-29.278L755.39 401" stroke="url(#h)"/></g><path d="m533.955 837 83.536-74.678c20.519-18.344 7.544-52.326-19.979-52.326s-40.498-33.983-19.979-52.327l124.194-111.024a93.582 93.582 0 0 1 62.37-23.814h8.198c28.29 0 55.589-10.423 76.68-29.278L885.39 461" stroke="url(#i)" stroke-opacity=".2"/><path d="M327.565 121 1 412" stroke="url(#j)" stroke-opacity=".5"/><path d="M380.436 1 296.9 75.678c-20.52 18.344-7.544 52.326 19.979 52.326s40.498 33.983 19.979 52.327L212.664 291.355a93.582 93.582 0 0 1-62.37 23.814h-8.198a115.053 115.053 0 0 0-76.68 29.278L29 377" stroke="url(#k)" stroke-opacity=".2"/><defs><linearGradient id="a" x1="685.724" y1="504.214" x2="525.31" y2="770.092" gradientUnits="userSpaceOnUse"><stop offset=".021" stop-color="#fff" stop-opacity="0"/><stop offset=".375" stop-color="#fff"/><stop offset=".51" stop-color="#fff"/><stop offset="1" stop-color="#fff" stop-opacity="0"/></linearGradient><linearGradient id="c" x1="684.08" y1="514.878" x2="428.412" y2="711.991" gradientUnits="userSpaceOnUse"><stop stop-color="#fff"/><stop offset="1" stop-color="#fff"/></linearGradient><linearGradient id="d" x1="913.006" y1="542" x2="538.676" y2="744.859" gradientUnits="userSpaceOnUse"><stop stop-color="#fff" stop-opacity="0"/><stop offset=".474" stop-color="#fff" stop-opacity=".37"/><stop offset="1" stop-color="#fff" stop-opacity="0"/></linearGradient><linearGradient id="e" x1="724.267" y1="715.737" x2="709.771" y2="735.324" gradientUnits="userSpaceOnUse"><stop stop-color="var(--primary)" stop-opacity="0"/><stop offset="1" stop-color="var(--primary)"/></linearGradient><linearGradient id="f" x1="662.286" y1="629.818" x2="700.731" y2="831.914" gradientUnits="userSpaceOnUse"><stop stop-color="#fff" stop-opacity="0"/><stop offset=".474" stop-color="#fff" stop-opacity=".15"/><stop offset="1" stop-color="#fff" stop-opacity=".54"/></linearGradient><linearGradient id="h" x1="389" y1="777" x2="709.584" y2="365.329" gradientUnits="userSpaceOnUse"><stop stop-color="#fff" stop-opacity="0"/><stop offset=".12" stop-color="#fff" stop-opacity=".88"/><stop offset="1" stop-color="#fff" stop-opacity="0"/></linearGradient><linearGradient id="i" x1="519" y1="837" x2="839.584" y2="425.329" gradientUnits="userSpaceOnUse"><stop stop-color="#fff" stop-opacity="0"/><stop offset=".182" stop-color="#fff" stop-opacity=".917"/><stop offset="1" stop-color="#fff" stop-opacity="0"/></linearGradient><linearGradient id="j" x1="327.565" y1="121" x2="-46.766" y2="323.859" gradientUnits="userSpaceOnUse"><stop stop-color="#fff" stop-opacity="0"/><stop offset=".474" stop-color="#fff" stop-opacity=".37"/><stop offset="1" stop-color="#fff" stop-opacity="0"/></linearGradient><linearGradient id="k" x1="395.391" y1="1" x2="74.807" y2="412.671" gradientUnits="userSpaceOnUse"><stop stop-color="#fff" stop-opacity="0"/><stop offset=".182" stop-color="#fff" stop-opacity=".917"/><stop offset="1" stop-color="#fff" stop-opacity="0"/></linearGradient><filter id="b" x="332.643" y="400.625" width="454.254" height="371.726" filterUnits="userSpaceOnUse" color-interpolation-filters="sRGB"><feFlood flood-opacity="0" result="BackgroundImageFix"/><feBlend in="SourceGraphic" in2="BackgroundImageFix" result="shape"/><feGaussianBlur stdDeviation="40" result="effect1_foregroundBlur"/></filter><filter id="g" x="323.621" y="320.627" width="512.101" height="536.746" filterUnits="userSpaceOnUse" color-interpolation-filters="sRGB"><feFlood flood-opacity="0" result="BackgroundImageFix"/><feBlend in="SourceGraphic" in2="BackgroundImageFix" result="shape"/><feGaussianBlur stdDeviation="40" result="effect1_foregroundBlur"/></filter></defs></svg>