<svg viewBox="0 0 48 48"><path fill-rule="evenodd" clip-rule="evenodd" d="M27.514 15.932c-2.523-.768-5.393-.384-6.527 0l3.236-4.169 3.291 4.169Zm4.114 10.284a7.542 7.542 0 1 1-15.084 0 7.542 7.542 0 0 1 15.084 0Zm-4.114 11.216c-1.133.384-4.004.768-6.527 0l3.291 4.169 3.236-4.169Zm-10.586-1.426H12.54c-1.133-1.353-3.4-5.09-3.4-9.214 0-4.125 2.267-7.789 3.4-9.105h4.388c-1.609 1.353-4.388 5.068-4.388 9.105 0 4.037 2.78 7.825 4.388 9.214Zm18.54-18.32h-4.389c1.609 1.39 4.388 5.178 4.388 9.215s-2.779 7.752-4.388 9.105h4.388c1.134-1.316 3.4-4.98 3.4-9.105 0-4.124-2.266-7.861-3.4-9.214Z" fill="#6B6963"/></svg>