<svg width="44" height="44" fill="none" xmlns="http://www.w3.org/2000/svg"><path d="M7 13.5V1h36v36H30.5" stroke="url(#a)" stroke-miterlimit="10"/><path d="M21.227 35.336c7.062 0 12.828-5.746 12.828-12.784 0-7.039-5.766-12.784-12.828-12.784-7.063 0-12.829 5.745-12.829 12.784 0 7.038 5.622 12.784 12.829 12.784Z" stroke="var(--primary)" stroke-opacity=".4" stroke-miterlimit="10"/><path d="M18.779 41.8c9.08 0 16.575-7.47 16.575-16.52 0-9.049-7.495-16.518-16.575-16.518-9.08 0-16.576 7.47-16.576 16.519 0 9.05 7.495 16.519 16.576 16.519Z" stroke="var(--primary)" stroke-opacity=".2" stroke-miterlimit="10"/><path d="M25.41 25.712c4.035 0 7.35-3.304 7.35-7.326s-3.315-7.182-7.35-7.182c-4.036 0-7.351 3.303-7.351 7.325s3.315 7.183 7.35 7.183Z" stroke="var(--primary)" stroke-opacity=".6" stroke-miterlimit="10"/><path d="M30.013 19.541c3.027 0 5.477-2.442 5.477-5.315 0-3.016-2.45-5.314-5.477-5.314a5.311 5.311 0 0 0-5.333 5.314c0 2.873 2.45 5.315 5.333 5.315Z" fill="var(--primary)"/><defs><linearGradient id="a" x1="25" y1="1" x2="10" y2="24.5" gradientUnits="userSpaceOnUse"><stop stop-color="var(--primary)"/><stop offset="1" stop-color="var(--primary)" stop-opacity="0"/></linearGradient></defs></svg>