<svg width="44" height="44" fill="none" xmlns="http://www.w3.org/2000/svg"><g clip-path="url(#a)"><path d="M44 0H5.009v39.677H44V0Z" stroke="url(#b)" stroke-miterlimit="10"/><path d="M15 43c7.653 0 14-6.243 14-14s-6.16-14-14-14S1 21.243 1 29s6.16 14 14 14Z" stroke="var(--primary)" stroke-opacity=".55" stroke-miterlimit="10"/><path d="M30 21c4.28 0 8-3.535 8-8s-3.535-8-8-8-8 3.535-8 8 3.72 8 8 8Z" stroke="var(--primary)" stroke-opacity=".55" stroke-miterlimit="10"/><path d="M25 25c3.29 0 6-2.71 6-6s-2.71-6-6-6-6 2.71-6 6 2.71 6 6 6Z" fill="var(--primary)"/></g><defs><linearGradient id="b" x1="24.504" y1="0" x2=".548" y2="28.622" gradientUnits="userSpaceOnUse"><stop stop-color="var(--primary)"/><stop offset="1" stop-color="var(--primary)" stop-opacity="0"/></linearGradient><clipPath id="a"><path fill="#fff" d="M0 0h44v44H0z"/></clipPath></defs></svg>