<svg width="44" height="40" fill="none" xmlns="http://www.w3.org/2000/svg"><path d="M43 1H9v34h34V1Z" stroke="url(#a)" stroke-miterlimit="10"/><path d="M15.575 39c7.987 0 14.485-6.477 14.485-14.44 0-7.961-6.363-14.574-14.485-14.574-8.123 0-14.485 6.478-14.485 14.44S7.588 39 15.575 39Z" stroke="var(--primary)" stroke-opacity=".35" stroke-miterlimit="10"/><path d="M15.576 34.817C21.397 34.817 26 30.093 26 24.426c0-5.668-4.738-10.391-10.424-10.391-5.686 0-10.424 4.723-10.424 10.39 0 5.803 4.738 10.392 10.424 10.392Z" stroke="var(--primary)" stroke-opacity=".75" stroke-miterlimit="10"/><path d="M15.575 29.553a4.99 4.99 0 0 0 5.009-4.992c0-2.834-2.301-4.994-5.009-4.994-2.707 0-5.009 2.294-5.009 4.994 0 2.698 2.302 4.992 5.01 4.992Z" fill="var(--primary)"/><defs><linearGradient id="a" x1="32.737" y1="6.392" x2="10.749" y2="20.117" gradientUnits="userSpaceOnUse"><stop stop-color="var(--primary)"/><stop offset="1" stop-color="var(--primary)" stop-opacity="0"/></linearGradient></defs></svg>