<svg width="44" height="40" fill="none" xmlns="http://www.w3.org/2000/svg"><g clip-path="url(#a)"><path d="M43.851 0H5.777v38.358h38.074V0Z" stroke="url(#b)" stroke-miterlimit="10"/><path d="M12.889 14.03c2.37 0 4.593.597 6.37 1.79-3.852 2.24-6.37 6.419-6.37 11.195 0 4.776 2.518 8.955 6.37 11.194-1.926 1.045-4.148 1.79-6.37 1.79C5.778 40 0 34.18 0 27.016 0 20 5.778 14.03 12.889 14.03Z" fill="var(--primary)"/><path d="M25.777 36.866c5.334 0 9.778-4.478 9.778-9.851 0-5.373-4.444-9.85-9.777-9.85-5.482 0-9.778 4.477-9.778 9.85-.149 5.522 4.296 9.85 9.777 9.85Z" stroke="var(--primary)" stroke-opacity=".75" stroke-miterlimit="10"/></g><defs><linearGradient id="b" x1="32.359" y1="6.083" x2="7.633" y2="21.403" gradientUnits="userSpaceOnUse"><stop stop-color="var(--primary)"/><stop offset="1" stop-color="var(--primary)" stop-opacity="0"/></linearGradient><clipPath id="a"><path fill="#fff" d="M0 0h44v40H0z"/></clipPath></defs></svg>