<svg xmlns="http://www.w3.org/2000/svg" width="20" height="20" fill="currentColor"><path d="M9.5 20c-2.538 0-4.923-.988-6.718-2.782S0 13.038 0 10.501c0-2.538.988-4.923 2.782-6.718S6.962 1 9.5 1c2.538 0 4.923.988 6.718 2.783S19 7.963 19 10.501s-.988 4.923-2.782 6.717A9.438 9.438 0 0 1 9.5 20zm0-18C4.813 2 1 5.813 1 10.5S4.813 19 9.5 19c4.687 0 8.5-3.813 8.5-8.5S14.187 2 9.5 2z"/><path d="M6.5 16a.5.5 0 0 1-.5-.5v-10a.5.5 0 0 1 .765-.424l8 5a.5.5 0 0 1 0 .848l-8 5A.496.496 0 0 1 6.5 16zM7 6.402v8.196l6.557-4.098L7 6.402z"/></svg>