<svg xmlns="http://www.w3.org/2000/svg" viewBox="0 0 64 64"><path fill="var(--shade9, black)" d="M61.333 32C61.333 48.2 48.2 61.333 32 61.333S2.667 48.2 2.667 32 15.8 2.667 32 2.667 61.333 15.8 61.333 32z"/><path fill="var(--shade0, white)" d="m13.271 41.195-.428 10.061 4.907 2.481 5.763-1.035 2.344-3.024-.593-2.213 6.265-6.271 2.712.585 4.203-2.085 9.171 7.021 2.445 4.54 1.069-4.54-7.5-7.021v-2.953l2.944-2.188 2.412.517 1.075-3.071-2.445-.911-2.555.911-2.815-4.001 4.328-2.436-2.944-6.037-2.213.651-2.972-2.033 1.437 2.545-.935.676h-4.705l-2.712 2.337.895 1.267-6.567 5.512-2.344-.727L20.205 32l4.06 2.029 2.051 4.776-2.051 2.389-8.644-1.5zm5.612-13.099 7.911-1.94.731-3.529-3.268-2.404V18.37l-3.279-2.797 1.416-3.667-2.375.427V9.921L17.88 14.11l2.139 2.648 2.375 4.844-2.375 1.025-.641 2.3h3.016zm-6.216-3.429 4.379-1.264-.709-3.013.709-2.837-4.379 1.973.776 2.556-2.644 1.997z"/></svg>