<svg xmlns="http://www.w3.org/2000/svg" viewBox="0 0 64 64"><path fill="#fff" d="M61.333 32C61.333 48.2 48.2 61.333 32 61.333S2.667 48.2 2.667 32 15.8 2.667 32 2.667 61.333 15.8 61.333 32z"/><path d="m11.878 25.292-1.403-.936 5.614-8.421 1.403.936zm2.137 1.424-1.403-.936 5.614-8.421 1.403.936zm2.136 1.424-1.405-.936 5.614-8.421 1.404.936zm27.055 18.036-1.404-.936 5.614-8.421 1.404.936-5.614 8.421zm2.136 1.424-1.404-.936 5.614-8.421 1.404.936-5.614 8.421zm2.136 1.424-1.404-.936 5.614-8.421 1.404.936-5.614 8.421z"/><path stroke="#fff" stroke-width="1.147" d="m43.888 40.548 7.12 4.746"/><path fill="#cd2e3a" d="M37.398 24.059c4.718 3.146 6.03 9.466 2.929 14.117s-9.439 5.871-14.158 2.726c-4.718-3.146-6.03-9.466-2.929-14.117s9.439-5.871 14.158-2.726z"/><path fill="#0047a0" d="M23.24 26.784c-1.55 2.325-.895 5.486 1.465 7.059s5.529.963 7.079-1.363c1.55-2.325 4.72-2.936 7.079-1.363s3.015 4.733 1.465 7.059c-3.101 4.651-9.439 5.871-14.158 2.725s-6.03-9.466-2.93-14.117z"/><path d="m17.493 48.089-1.404.936-5.614-8.421 1.403-.936 5.614 8.421zm2.136-1.424-1.404.936-5.614-8.421 1.403-.936 5.614 8.421zm2.136-1.424-1.404.936-5.614-8.421 1.403-.936 5.614 8.421zM48.82 27.204l-1.404.936-5.614-8.421 1.404-.936 5.614 8.421zm2.136-1.424-1.404.936-5.614-8.421 1.404-.936 5.614 8.421zm2.136-1.424-1.404.936-5.614-8.421 1.404-.936 5.614 8.421z"/><path fill="#fff" d="m15.555 43.985-.468-.702 2.136-1.424.468.702-2.136 1.424zM44.39 24.762l-.468-.702 2.492-1.661.468.702-2.492 1.661zm4.627-3.086-.468-.702 2.136-1.424.468.702-2.136 1.424z"/></svg>