<svg xmlns="http://www.w3.org/2000/svg" viewBox="0 0 64 64"><path fill="var(--shade9, black)" d="M32 61.333C48.2 61.333 61.333 48.2 61.333 32S48.2 2.667 32 2.667 2.667 15.8 2.667 32 15.8 61.333 32 61.333z"/><path fill="#fff" d="M30.767 8h3.498l-.637 3.194 1.877 5.049 2.139 6.12-6.877 3.85-1.794-2.863 2.549-6.319-2.549-.788-.971 4.271-2.281 1.849-.587 8.203-2.122 2.463-1.131-5.82-3.359 2.768-1.781-.635-.74-4.976 4.009-3.79 3.89-8.712 6.868-3.865zm.754 23.674.584-3.614 3.4-.85v4.464l2.525 1.199 3.357 4.682 6.612 4.475-4.311 4.206-3.652-2.449-6.609 7.234L32.715 56l-8.731-9.764 2.408-4.509-3.383-.735.974-4.146 5.729-3.027 1.808-2.144z"/></svg>