<svg xmlns="http://www.w3.org/2000/svg" viewBox="0 0 64 64"><path fill="var(--shade9, black)" d="M61.333 32C61.333 48.2 48.2 61.333 32 61.333S2.667 48.2 2.667 32 15.8 2.667 32 2.667 61.333 15.8 61.333 32z"/><path fill="var(--shade0, white)" d="m25.394 33.509.555 6.441 3.281 3.376 4.24.617 2.804 3.451 3.881-2.881 2.437.42.908 2.83.631-5.138 1.285-3.831c2.296-1.936 3.444-3.012 3.444-3.229 0-.325.454-1.998-.216-1.493-.447.336-2.464 1.546-6.052 3.631l-.416-2.467-1.761 2.242 1.096-3.405-3.368-1.045-12.749.482z"/><path fill="var(--shade0, white)" d="m26.08 32.001-4.717-6.127-4.095-1.015-6.7 2.112 1.454-2.112.551-2.863h-2.005l.572-2.833 2.707-1.483 8.392 2.349 10.267.831 6.687-.315 1.853-1.674.787 1.989-3.943 3.981.908 2.131 5.612 4.252.743-7.248 2.97 1.126.379 1.87 2.243-.684 2.831 4.563-5.866 2.438-3.798 2.558-2.079-3.099-2.304-.445-13.45-.301z"/></svg>