<svg xmlns="http://www.w3.org/2000/svg" viewBox="0 0 64 64"><path fill="#e30a17" d="M61.333 32C61.333 48.2 48.2 61.333 32 61.333S2.667 48.2 2.667 32 15.8 2.667 32 2.667 61.333 15.8 61.333 32z"/><path fill="#fff" d="M42.092 32.055c0 6.764-5.546 12.247-12.388 12.247s-12.388-5.483-12.388-12.247 5.546-12.247 12.388-12.247 12.388 5.483 12.388 12.247z"/><path fill="#e30a17" d="M42.711 32.055c0 5.411-4.437 9.797-9.911 9.797s-9.911-4.386-9.911-9.797c0-5.411 4.437-9.797 9.911-9.797s9.911 4.386 9.911 9.797z"/><path fill="#fff" d="m39.511 32.055 11.205 3.6-6.925-9.424v11.648l6.925-9.424z"/></svg>