<svg xmlns="http://www.w3.org/2000/svg" viewBox="0 0 64 64"><path fill="var(--shade9, black)" d="M61.333 32C61.333 48.2 48.2 61.333 32 61.333S2.667 48.2 2.667 32 15.8 2.667 32 2.667 61.333 15.8 61.333 32z"/><path fill="var(--shade0, white)" d="m47.333 48.23-3.774-2.841 2.95-3.836v-3.694h3.938L54.214 32l-5.328-2.246-3.728 1.487v-2.344l-4.221 2.344-4.683-.658v-4.535h-4.255l1.455-4.99-5.539 2.915-3.11-2.915v-7.47l-5.015-1.381-7.036-2.063-.836 2.063c1.998 5.253 2.997 7.697 2.997 7.334s-.418-2.808-1.255-7.334l5.485 9.59 5.66 3.692 3.837.559 4.813 2.849 4.015 4.063 2.158-.888 1.31 3.891-2.847 4.845-.621 2.18 4.189 7.306 5.675 3.69v-5.755z"/></svg>