<svg xmlns="http://www.w3.org/2000/svg" viewBox="0 0 64 64"><path fill="#009b3a" d="M32 61.333C48.2 61.333 61.333 48.2 61.333 32S48.2 2.667 32 2.667 2.667 15.8 2.667 32 15.8 61.333 32 61.333z"/><path fill="#fedf00" d="M4.459 30.774 31.37 48.07l26.911-17.296L31.37 13.478 4.459 30.774z"/><path fill="#002776" d="M31.371 42.196c6.267 0 11.348-5.114 11.348-11.422s-5.081-11.422-11.348-11.422-11.348 5.114-11.348 11.422 5.081 11.422 11.348 11.422z"/><path fill="#fff" d="M20.384 27.903a25.985 25.985 0 0 1 4.502-.392c6.656 0 12.727 2.523 17.319 6.672.181-.584.317-1.188.403-1.808a27.344 27.344 0 0 0-17.722-6.495c-1.323 0-2.624.094-3.897.275-.247.561-.45 1.145-.605 1.748z"/></svg>