<svg xmlns="http://www.w3.org/2000/svg" viewBox="0 0 64 64"><path fill="var(--shade9, black)" d="M61.333 32C61.333 48.2 48.2 61.333 32 61.333S2.667 48.2 2.667 32 15.8 2.667 32 2.667 61.333 15.8 61.333 32z"/><path fill="var(--shade0, white)" d="M32 54c0-.299-1.798-1.911-5.394-4.837l-1.68-14.117 1.68-3.698-.602-13.651.602-3.512v-3.123l2.356-.57.999 1.564 4.052 3.193 1.545 5.268 3.593 3.061-1.837 3.576 2.546 3.726L36.468 32l.846 3.046-4.195 2.006-1.121 4.434-.903 2.949.903 2.247-1.51 2.482 3.525 4.205c-1.343.72-2.014.93-2.014.631z"/></svg>