<svg xmlns="http://www.w3.org/2000/svg" viewBox="0 0 64 64"><path fill="var(--shade9, black)" d="M61.333 32C61.333 48.2 48.2 61.333 32 61.333S2.667 48.2 2.667 32 15.8 2.667 32 2.667 61.333 15.8 61.333 32z"/><path fill="var(--shade0, white)" d="M12.667 24.667v9.599h5.887l6.317-2.265 3.055 4.437 4.075 3.464h3.615l5.92-9.664-1.209-4.649-2.6-3.215-2.111-6.28-3.615 4.559-2.171-2.247.947-2.312h-3.676l-4.785 2.312zm27.354 22.666.452 2.479 4.101-3.649 2.741-2.653h1.629l2.159-4.027-2.641-4.233v4.652l-1.147 1.24-1.015 1.389z"/></svg>