<svg viewBox="0 0 48 48"><path d="m35.598 25.835-.158-3.19v-1.002c0-5.823-4.941-10.562-11.011-10.562-6.07 0-11.011 4.74-11.011 10.562v.967l-.158 3.214c-.34.303-.886.931-.886 1.805 0 .885.085 1.828 1.092 2.795.887.85 1.882 1.537 4.334.605.219 0 .765.408.814.583v1.991l-.012.769v.512c.048.582.4 1.526 1.323 1.968.097.047.218.082.34.117 0-.024-.012-.035-.012-.059v-1.432c0-.536.449-.967 1.007-.967h.024c.559 0 1.008.431 1.008.967v1.432c0 .059-.024.117-.036.175h1.177c-.012-.058-.036-.116-.036-.175v-1.432c0-.536.45-.967 1.008-.967h.024c.558 0 1.007.431 1.007.967v1.432c0 .059-.024.117-.036.175h1.19c-.012-.058-.037-.116-.037-.175v-1.432c0-.536.45-.967 1.008-.967h.024c.559 0 1.008.431 1.008.967v1.432c0 .07-.024.129-.037.187h.061c.23 0 .51-.07.753-.198.473-.256.886-.78.886-1.666v-.791l-.024-.839v-1.968c.048-.21.607-.617.789-.617 2.476.943 3.484.256 4.407-.64.874-.84 1.056-1.678 1.056-2.76 0-.85-.559-1.48-.886-1.782ZM19.45 27.268c-.91.629-2.573.35-2.889 0-.801-.885-.364-3.273 0-4.006.364-.734.704-1.607 2.89-1.607 2.185 0 2.889.396 2.889 1.607.012 1.397-.814 2.55-2.89 4.006Zm7.673 3.366H25.91v-.758l-1.47-1.409-1.468 1.41v.757h-1.214v-1.002c0-.151.06-.303.182-.408l2.076-1.991a.62.62 0 0 1 .862 0l2.076 1.991a.58.58 0 0 1 .182.408v1.002h-.012Zm5.171-3.366c-.315.35-1.99.629-2.889 0-2.076-1.456-2.89-2.609-2.89-4.006 0-1.2.705-1.607 2.89-1.607s2.537.873 2.89 1.607c.364.733.813 3.11 0 4.006Z"/><path d="m37.115 33.137-.96-.92-.06-.058c-.959.745-2.197 1.281-4.042.978l.012 1.794.097.105 1.882 1.816c-.013.745.279 1.887 1.444 2.318.23.081.45.116.656.116.971 0 1.675-.803 1.979-1.141l.097-.117c.036-.035.097-.058.157-.093.413-.233 1.287-.733 1.215-2.143-.049-1.56-1.93-2.433-2.477-2.655Zm-24.329-.955-.024.035-.959.92c-.546.222-2.428 1.095-2.5 2.655-.074 1.421.8 1.91 1.213 2.143.061.035.122.07.158.093l.097.117c.292.338.996 1.141 1.979 1.141.206 0 .425-.035.656-.116 1.165-.431 1.456-1.572 1.444-2.318l1.882-1.816.06-.059-.012-.582.013-1.258c-1.833.326-3.06-.21-4.007-.955Zm-1.7-15.895 1.433.815a12.403 12.403 0 0 1 3.205-4.46l-.777-.513c0-.768-.17-2.55-1.493-3.04-1.117-.407-1.7.665-2.076 1.375-.219.408-.462.862-.729 1.036-.145.094-.29.187-.46.28-.948.582-2.259 1.374-2.186 2.888.024.443.218.827.57 1.106.741.583 1.991.56 2.513.513Zm27.547-4.495a15.639 15.639 0 0 1-.462-.28c-.267-.174-.51-.64-.728-1.036-.377-.71-.96-1.782-2.076-1.374-1.323.489-1.493 2.27-1.493 3.04l-.753.5a12.292 12.292 0 0 1 3.217 4.46l1.396-.792c.522.035 1.773.07 2.513-.524a1.48 1.48 0 0 0 .57-1.106c.074-1.526-1.238-2.318-2.184-2.888Z"/></svg>