<svg width="28" height="28" fill="none" xmlns="http://www.w3.org/2000/svg"><path clip-rule="evenodd" d="M18.386 11.813c-.425-.093-.819-.388-1.606-.978L15 9.5l3.914-3.914A2 2 0 0 1 20.328 5H23v2.672a2 2 0 0 1-.586 1.414l-1.452 1.451c-.695.696-1.043 1.044-1.451 1.196a2 2 0 0 1-1.125.08Zm-9.293 4.132L13 18.5l-.75.75.573.573a.604.604 0 0 1 0 .854l-.97.97a.5.5 0 0 1-.707 0L9.75 20.25 8 22v.646a.354.354 0 0 1-.604.25l-2.292-2.292a.354.354 0 0 1 .25-.604H6l1.75-1.75-1.396-1.396a.5.5 0 0 1 0-.708c.415-.368.623-.553.855-.649a1.5 1.5 0 0 1 .943-.069c.243.061.476.213.94.517ZM7.672 5a2 2 0 0 1 1.414.586L19.25 15.75l.573-.573a.604.604 0 0 1 .854 0l.97.97a.5.5 0 0 1 0 .707L20.25 18.25 22 20h.646a.354.354 0 0 1 .25.604l-2.292 2.292a.353.353 0 0 1-.604-.25V22l-1.75-1.75-1.396 1.396a.5.5 0 0 1-.708 0l-.97-.97a.604.604 0 0 1 0-.853l.574-.573L5.586 9.086A2 2 0 0 1 5 7.672V5h2.672Z"/></svg>