<svg width="103" height="16" fill="none" xmlns="http://www.w3.org/2000/svg"><g clip-path="url(#a)"><path d="M.907 2 .5 3.66h3.774L2.89 9.448l-1.019 4.27h2.471l1.018-4.27L6.745 3.66h3.761L10.9 2H.907Zm75.432.128c-.2.862-.385 1.535-.57 2.114h-.923l.299-.199c.514-.35.768-.528.774-.553-.275-.649-.508-1.097-.72-1.32-.006-.04-.398.21-1.154.724l-.258.17c.006.013.036.06.095.142.266.361.491.702.665 1.036h-.76l-.244 1.191h1.71l-.122.242-.122.24h-1.847l-.23 1.192h1.276a6.509 6.509 0 0 1-1.942 1.675l1.195-5.959h-3.299L68.927 8.98c-.034.161-.071.315-.11.468-.286 1.191-.714 2.26-1.289 3.207.349.321.633.666.869 1.035.691-1.03 1.234-2.35 1.643-3.972h.72l-.408 2.014c-.032.276-.3.4-.787.355.101.493.145.987.108 1.504 1.176-.008 1.77-.285 1.792-.851l.666-3.292.04-.227c.07.073.139.15.204.227.159.196.282.387.367.582.18-.093.394-.236.638-.454l-.435 1.475h3.951l-.068.383c-.156.797-.376 1.184-.652 1.135l.218-1.135h-4.236l-.245 1.178h3.449c.197.444.281.9.244 1.376 1.1-.037 1.774-.214 2.037-.54.082-.094.168-.258.257-.538.18-.563.39-1.385.652-2.469l.15-.624h-1.467l.082-.369.108-.567c.261.238.492.424.693.567.148.106.279.188.394.241.063-.082.127-.163.19-.24.378-.48.737-.88 1.072-1.207-.885-.263-1.533-.64-1.941-1.135h1.941l.231-1.191h-3.49c.094-.143.181-.297.245-.483h2.878l.231-1.191h-1.031c.45-.46.847-.839 1.208-1.135l-1.209-.78a17.142 17.142 0 0 1-1.262 1.503l.733.468h-1.045l.149-.496.19-.497c.159-.418.289-.736.38-.936.009-.082-.043-.124-.204-.142-.304-.05-.782-.083-1.439-.1Zm7.305.1c-.369.127-.94.36-1.738.708.25.748.431 1.493.556 2.242.282-.112.894-.332 1.82-.681-.386-1.453-.607-2.213-.638-2.27Zm1.344.637-.285 1.377h1.086l-.516 2.567h-1.358l-.285 1.376h1.371l-.258 1.263-.828 4.1h1.52l.815-4.1.258-1.263h1.086l-.217 1.036c-.015.077-.027.152-.04.227-.279 1.521-.136 2.711.42 3.56.34.504.748.717 1.236.64.505.027 1.01-.825 1.507-2.554a62.63 62.63 0 0 0-1.236-.568c-.246.793-.4 1.05-.461.767-.097-.405-.077-1.02.054-1.845.043-.267.097-.553.163-.865l1.154-5.718h-5.186Zm-22.551.142-.516 2.185H59.94l-.38 1.617h7.25l-4.372-3.802Zm8.743 1.036h.72l-.34 1.688h-.706l.326-1.688Zm16.116.199h1.14l-.516 2.567h-1.14l.516-2.567Zm-73.559.468c-1.506 0-2.813.411-3.923 1.234a5.643 5.643 0 0 0-2.146 3.277c-.019.08-.039.15-.054.227-.248 1.253-.028 2.274.666 3.05.739.818 1.88 1.22 3.42 1.22 2.629 0 4.643-1.675 4.848-1.858l-1.14-.27c-.269.065-1.73.507-3.191.37-1.844-.174-2.262-1.585-2.159-2.285h7.4l.067-.227.055-.241c.335-1.406.158-2.512-.53-3.305-.693-.8-1.791-1.192-3.313-1.192Zm21.927 0c-1.586 0-3.02.43-4.318 1.305-1.3.876-2.098 1.962-2.403 3.235-.017.07-.041.13-.054.198-.228 1.182.074 2.181.896 2.994.872.852 2.107 1.276 3.706 1.276.97 0 1.987-.21 3.055-.624l.625-2.596c-.71.572-1.306.951-1.779 1.15a4.064 4.064 0 0 1-1.588.311c-.9 0-1.58-.252-2.037-.766-.405-.463-.55-1.05-.434-1.745.013-.076.035-.148.054-.227.187-.782.638-1.439 1.358-1.957a4.057 4.057 0 0 1 2.43-.78c.573 0 1.037.1 1.412.311.382.204.783.587 1.194 1.135l.625-2.624c-.81-.403-1.723-.596-2.742-.596Zm8.947 0c-1.507 0-2.814.411-3.924 1.234a5.637 5.637 0 0 0-2.145 3.277c-.02.08-.039.15-.054.227-.25 1.253-.03 2.274.665 3.05.738.818 1.88 1.22 3.421 1.22 2.627 0 4.643-1.675 4.847-1.858l-1.14-.27c-.269.065-1.73.507-3.19.37-1.844-.174-2.264-1.585-2.16-2.285h7.4l.068-.227.054-.241c.337-1.406.17-2.512-.516-3.305-.693-.8-1.804-1.192-3.326-1.192Zm-19.252.24c-1.047 0-2.07.34-3.068 1.022l-2.213-.78-1.019 4.256-1.018 4.27h2.403l.978-4.114c.012-.052.028-.108.04-.156.25-.98.585-1.68.991-2.085.436-.432 1.04-.639 1.833-.639.729 0 1.2.155 1.399.483.206.32.201.904 0 1.745l-.109.496-1.032 4.27h2.403l1.018-4.27.231-.965c.289-1.202.21-2.063-.244-2.596-.523-.624-1.39-.936-2.593-.936Zm30.67 0c-1.048 0-2.07.34-3.069 1.022l-2.213-.78-1.018 4.256-1.018 4.27h2.403l.977-4.114.041-.156c.251-.98.584-1.68.991-2.085.436-.432 1.04-.639 1.833-.639.728 0 1.2.155 1.398.483.206.32.202.904 0 1.745l-.122.496-1.018 4.27h2.403l1.018-4.27.231-.965c.288-1.202.209-2.063-.244-2.596-.523-.624-1.391-.936-2.593-.936Zm24.397.895-.285 1.39h1.344l-.448 2.213-.285 1.476c-.062.308-.298.63-.706.978-.12.104-.194.17-.204.2.15.488.416.964.788 1.404.029.008.188-.139.461-.426.409-.452 1.445-1.45 3.123-2.993-.006-.02-.098-.227-.272-.61l-.013-.029-.245-.567-.271.241c-.13.12-.257.23-.367.326-.293.266-.516.46-.665.582l.122-.582.72-3.603h-2.797Zm-67.069.638c1.274 0 1.955.523 2.037 1.575H10.6c.136-.245.293-.46.489-.653a3.106 3.106 0 0 1 1.425-.809c.275-.076.558-.114.842-.113Zm30.874 0c1.274 0 1.956.523 2.036 1.575h-4.793c.137-.245.295-.46.49-.653.194-.192.415-.362.65-.496.249-.141.503-.242.775-.312a3.07 3.07 0 0 1 .842-.114Zm26.38.426h.705l-.312 1.574h-.706l.312-1.574Zm5.199.198h.42c.06.175.137.341.232.497H75.43l.19-.256.19-.24Zm-14.364.071-.543 2.27-1.032 4.27h2.39l1.031-4.27.543-2.27h-2.39Zm12.898 1.547h1.697l-.136.723-.095.412h-1.168c.044-.152.083-.289.123-.412.045-.142.081-.263.122-.369-.057-.034-.092-.056-.122-.056h-.706l.285-.298Z" fill="#E5EBEF"/></g><path d="M102.5 16V0" stroke="#E3E5EA" stroke-opacity=".15"/><defs><clipPath id="a"><path fill="#fff" transform="translate(.5 2)" d="M0 0h90v12H0z"/></clipPath></defs></svg>