<svg width="90" height="12" fill="none" xmlns="http://www.w3.org/2000/svg"><path d="M.407.006 0 1.666h3.774L2.39 7.454l-1.019 4.27h2.471l1.018-4.27 1.385-5.788h3.761L10.4.006H.407ZM75.84.133c-.2.863-.385 1.536-.57 2.114h-.923l.299-.198c.514-.35.768-.529.774-.554-.275-.648-.508-1.096-.72-1.32-.006-.04-.398.21-1.154.724l-.258.17c.006.013.036.061.095.142.266.362.491.702.665 1.036h-.76l-.244 1.192h1.71l-.122.241-.122.241h-1.847l-.23 1.192h1.276a6.509 6.509 0 0 1-1.942 1.674L72.961.83h-3.299l-1.235 6.157c-.034.16-.071.314-.11.468-.286 1.191-.714 2.26-1.289 3.206.349.322.633.667.869 1.036.691-1.03 1.234-2.35 1.643-3.973h.72l-.408 2.015c-.032.276-.3.4-.787.355.101.493.145.987.108 1.504 1.176-.008 1.77-.285 1.792-.852l.666-3.291.04-.227c.07.073.139.149.204.227.159.195.282.387.367.582a3.12 3.12 0 0 0 .638-.454l-.435 1.475h3.951l-.068.383c-.156.797-.376 1.184-.652 1.135l.218-1.135h-4.236l-.245 1.178h3.449a2.8 2.8 0 0 1 .244 1.376c1.1-.038 1.774-.215 2.037-.54.082-.094.168-.259.257-.539.18-.562.39-1.384.652-2.468l.15-.624h-1.467l.082-.37.108-.567c.261.239.492.424.693.568.148.106.279.187.394.241.063-.082.127-.163.19-.241.378-.48.737-.88 1.072-1.206-.885-.263-1.533-.641-1.941-1.135h1.941l.231-1.192h-3.49c.094-.143.181-.296.245-.482h2.878l.231-1.192h-1.031c.45-.46.847-.838 1.208-1.135l-1.209-.78c-.387.516-.804 1.02-1.262 1.504l.733.468h-1.045l.149-.496.19-.497c.159-.418.289-.736.38-.936.009-.083-.043-.124-.204-.142-.304-.05-.782-.083-1.439-.1Zm7.305.1c-.369.127-.94.36-1.738.709.25.747.431 1.493.556 2.241.282-.111.894-.33 1.82-.68-.386-1.453-.607-2.213-.638-2.27Zm1.344.638-.285 1.376h1.086l-.516 2.568h-1.358l-.285 1.376h1.371l-.258 1.263-.828 4.1h1.52l.815-4.1.258-1.263h1.086l-.217 1.036c-.015.076-.027.151-.04.227-.279 1.521-.136 2.711.42 3.56.34.504.748.717 1.236.64.505.026 1.01-.826 1.507-2.555-.41-.194-.822-.383-1.236-.567-.246.792-.4 1.05-.461.766-.097-.404-.077-1.019.054-1.844.043-.267.097-.554.163-.866L89.674.871h-5.186Zm-22.551.142-.516 2.185H59.44l-.38 1.617h7.25l-4.372-3.802Zm8.743 1.036h.72l-.34 1.688h-.706l.326-1.688Zm16.116.198h1.14l-.516 2.568h-1.14l.516-2.568Zm-73.559.468c-1.506 0-2.813.412-3.923 1.235a5.643 5.643 0 0 0-2.146 3.277c-.019.079-.039.15-.054.227-.248 1.252-.028 2.274.666 3.05.739.817 1.88 1.22 3.42 1.22 2.629 0 4.643-1.675 4.848-1.858l-1.14-.27c-.269.065-1.73.507-3.191.369-1.845-.173-2.263-1.585-2.16-2.285h7.4l.067-.227.055-.241c.335-1.407.158-2.513-.53-3.306-.693-.8-1.791-1.192-3.313-1.192Zm21.927 0c-1.586 0-3.02.43-4.318 1.306-1.3.876-2.098 1.961-2.403 3.234-.017.07-.041.13-.054.199-.228 1.181.074 2.18.896 2.993.872.853 2.107 1.277 3.706 1.277.97 0 1.987-.21 3.055-.624l.625-2.596c-.71.571-1.306.95-1.779 1.149a4.065 4.065 0 0 1-1.588.312c-.9 0-1.58-.252-2.037-.766-.405-.463-.55-1.051-.434-1.745.013-.077.035-.148.054-.227.187-.782.638-1.44 1.358-1.958a4.057 4.057 0 0 1 2.43-.78c.573 0 1.037.102 1.412.312.382.204.783.586 1.194 1.135l.625-2.625c-.81-.402-1.723-.596-2.742-.596Zm8.947 0c-1.507 0-2.814.412-3.924 1.235a5.637 5.637 0 0 0-2.145 3.277c-.02.079-.039.15-.054.227-.25 1.252-.03 2.274.665 3.05.738.817 1.88 1.22 3.421 1.22 2.627 0 4.643-1.675 4.847-1.858l-1.14-.27c-.269.065-1.73.507-3.19.369-1.844-.173-2.264-1.584-2.16-2.284h7.4l.068-.227.054-.241c.337-1.407.17-2.513-.516-3.306-.693-.8-1.804-1.192-3.326-1.192Zm-19.252.242c-1.047 0-2.07.338-3.068 1.021l-2.213-.78-1.019 4.256-1.018 4.27h2.403l.978-4.114c.012-.053.028-.109.04-.156.25-.98.585-1.68.991-2.086.436-.43 1.04-.638 1.833-.638.729 0 1.2.155 1.399.482.206.32.201.905 0 1.745l-.109.497-1.032 4.27h2.403l1.018-4.27.231-.965c.289-1.202.21-2.063-.244-2.596-.523-.624-1.39-.936-2.593-.936Zm30.67 0c-1.048 0-2.07.338-3.069 1.021l-2.213-.78-1.018 4.256-1.018 4.27h2.403l.977-4.114.041-.156c.251-.98.584-1.68.991-2.086.436-.43 1.04-.638 1.833-.638.728 0 1.2.155 1.398.482.206.32.202.905 0 1.745l-.122.497-1.018 4.27h2.403l1.018-4.27.231-.965c.288-1.202.209-2.063-.244-2.596-.523-.624-1.391-.936-2.593-.936Zm24.397.893-.285 1.39h1.344l-.448 2.214-.285 1.475c-.062.309-.298.63-.706.979-.12.103-.194.17-.204.199.15.488.416.965.788 1.404.029.008.188-.138.461-.425.409-.453 1.445-1.45 3.123-2.994-.006-.02-.098-.227-.272-.61l-.013-.028-.245-.568-.271.242c-.13.12-.257.23-.367.326-.293.265-.516.46-.665.582l.122-.582.72-3.604h-2.797Zm-67.069.639c1.274 0 1.955.523 2.037 1.574H10.1a2.79 2.79 0 0 1 .489-.652 3.106 3.106 0 0 1 1.425-.809c.275-.076.558-.114.842-.113Zm30.874 0c1.274 0 1.956.523 2.036 1.574h-4.793a2.85 2.85 0 0 1 .49-.652c.194-.192.415-.363.65-.497.249-.14.503-.241.775-.312.274-.076.557-.114.842-.113Zm26.38.425h.705l-.312 1.575h-.706l.312-1.575Zm5.199.199h.42c.06.174.137.34.232.496H74.93l.19-.255.19-.241Zm-14.364.07-.543 2.27-1.032 4.27h2.39l1.031-4.27.543-2.27h-2.39ZM73.844 6.73h1.697l-.136.724-.095.411h-1.168c.044-.152.083-.288.123-.411.045-.142.081-.263.122-.37-.057-.033-.092-.056-.122-.056h-.706l.285-.298Z" fill="#E3E5EA"/></svg>