<svg viewBox="0 0 28 28"><path d="M9.5 7.708c0-1.011 1.233-1.465 2.414-1.899.859-.316 1.69-.621 2-1.123A4.84 4.84 0 0 1 14 4.5c.031.063.06.125.087.186.31.502 1.14.807 1.999 1.123 1.18.434 2.414.888 2.414 1.9 0 1.466-.6 2.138-.9 2.291.15-.611 0-1.925-1.8-2.292-.81-.164-1.436-.459-1.8-.9-.364.441-.99.736-1.8.9-1.8.367-1.95 1.68-1.8 2.292-.3-.153-.9-.825-.9-2.292Z"/><path d="m14.513 18.25 7.684-6.83a3.147 3.147 0 0 1 2.853-.7l.486.121c0-2.097-1.678-6.187-8.39-5.768L18.65 6.09a3.063 3.063 0 0 1 .89 4.152l-1.346 2.174s-1.05-.525 0-1.573c-1.05 0-2.518 1.363-2.098 2.621.42 1.259-1.224 2.622-2.098 3.147-.874-.525-2.517-1.888-2.097-3.147.42-1.258-1.049-2.621-2.098-2.621 1.05 1.048 0 1.573 0 1.573L8.53 10.82a3.203 3.203 0 0 1 .708-4.655l1.616-1.092c-6.712-.42-8.39 3.67-8.39 5.768l.486-.121a3.147 3.147 0 0 1 2.853.7l7.684 6.83c-.834.241-1.06 1.062-1.06 1.506.84.42 1.399.874 1.573 1.049.175-.175.735-.63 1.574-1.049 0-.444-.226-1.265-1.06-1.505Z"/><path d="m15.573 10-1.574 1.53L12.426 10c0 2.618 1.049 3.758 1.573 4 .525-.242 1.574-1.382 1.574-4Z"/><path d="M6.5 14 5 12.5v7.366l9 3.72 8.999-3.72V12.5L21.5 14c.254.983.185 3.13-.5 4.5-.452.905-.894 1.155-1.316 1.394-.061.035-.123.07-.183.106L14 22.012 8.5 20a8.113 8.113 0 0 0-.185-.106c-.42-.239-.863-.49-1.315-1.394-.685-1.37-.754-3.517-.5-4.5Z"/><path d="M12 18.5 8 15c-.06.687.015 2.284 1 3 .807.587 1.724.548 2.505.514.172-.007.338-.014.495-.014Zm7.999-3.5-4 3.5c.157 0 .323.007.495.014.781.034 1.699.073 2.506-.514.985-.716 1.059-2.313.999-3Z"/><path d="m19.999 15-4 3.5c.156 0 .322.007.495.014.78.034 1.698.073 2.505-.514.985-.716 1.06-2.313 1-3Z"/></svg>