<svg viewBox="0 0 28 28"><path fill-rule="evenodd" clip-rule="evenodd" d="M8.825 13.72a1.654 1.654 0 0 0-1.65 0l-3.35 1.928c-.51.294-.825.837-.825 1.424v3.856c0 .587.314 1.13.825 1.424l3.35 1.928c.51.293 1.14.293 1.65 0l3.35-1.928c.51-.294.825-.837.825-1.424v-3.856c0-.587-.314-1.13-.825-1.424l-3.35-1.928Zm12 0a1.654 1.654 0 0 0-1.65 0l-3.35 1.928c-.51.294-.825.837-.825 1.424v3.856c0 .587.314 1.13.825 1.424l3.35 1.928c.51.293 1.14.293 1.65 0l3.35-1.928c.51-.294.825-.837.825-1.424v-3.856c0-.587-.314-1.13-.825-1.424l-3.35-1.928Zm-6-10.5a1.654 1.654 0 0 0-1.65 0l-3.35 1.928C9.315 5.442 9 5.985 9 6.572v3.856c0 .587.314 1.13.825 1.424l3.35 1.928c.51.293 1.14.293 1.65 0l3.35-1.928c.51-.294.825-.837.825-1.424V6.572c0-.587-.314-1.13-.825-1.424l-3.35-1.928Z"/></svg>