<svg viewBox="0 0 28 28"><path fill-rule="evenodd" clip-rule="evenodd" d="M15.65 3.42a3.452 3.452 0 0 0-3.3 0L5.888 6.964a.9.9 0 0 0-.025 1.565l7.107 4.188a2.078 2.078 0 0 0 2.057 0l7.11-4.188a.9.9 0 0 0-.025-1.565L15.65 3.42ZM15 24.516c0 .352.344.601.65.427l6.7-3.822A3.252 3.252 0 0 0 24 18.298v-7.012a7.38 7.38 0 0 0-.006-.261c-.023-.653-.672-.956-1.233-.62l-6.79 4.055A1.99 1.99 0 0 0 15 16.168v8.348ZM5.239 10.404c-.561-.335-1.21-.032-1.233.621a7.804 7.804 0 0 0-.006.26v7.013c0 1.164.629 2.24 1.65 2.823l6.7 3.822c.306.174.649-.075.649-.426v-8.35c0-.7-.369-1.347-.971-1.707l-6.79-4.056Z"/></svg>