<svg viewBox="0 0 28 28"><path fill-rule="evenodd" clip-rule="evenodd" d="M12.35 3.42a3.452 3.452 0 0 1 3.3 0l6.462 3.544a.9.9 0 0 1 .024 1.565l-7.109 4.188a2.078 2.078 0 0 1-2.057 0L5.863 8.529a.9.9 0 0 1 .025-1.565L12.35 3.42ZM15 21.5c.61-.888 1.449-1.453 2.38-1.497.563-1.73 1.69-2.93 3-3C20.96 15.221 22.14 14 23.5 14c.17 0 .337.019.5.056v-2.77a7.38 7.38 0 0 0-.006-.261c-.023-.653-.672-.956-1.233-.62l-6.79 4.055A1.99 1.99 0 0 0 15 16.168V21.5ZM4.006 11.026c.023-.653.672-.956 1.233-.62l6.789 4.055a1.99 1.99 0 0 1 .97 1.707v8.35c0 .352-.342.6-.648.426l-6.7-3.822A3.253 3.253 0 0 1 4 18.298v-7.012c0-.064.002-.155.006-.26Z"/><path d="M17.375 24.625A.625.625 0 0 1 16.75 24v-1.5a.625.625 0 1 1 1.25 0V24c0 .345-.28.625-.625.625ZM24.25 24A.625.625 0 1 1 23 24v-7a.625.625 0 1 1 1.25 0v7Zm-3.75.625a.625.625 0 0 1-.625-.625v-4.25a.625.625 0 1 1 1.25 0V24c0 .345-.28.625-.625.625Z"/></svg>