<svg width="12" height="12" fill="none" xmlns="http://www.w3.org/2000/svg"><mask id="a" maskUnits="userSpaceOnUse" x="-.14" y="-.675" width="10" height="11" fill="#000"><path fill="#fff" d="M-.14-.675h10v11h-10z"/><path d="M1.86 7.211V3.277l3.194-1.952 3.194 1.952v3.75l-.836.558-.836-.557V4.473l-.153-.102-1.179-.786-.19-.126-.19.126-1.18.786-.152.102v3.714L1.86 7.21Z"/></mask><path d="M1.86 7.211V3.277l3.194-1.952 3.194 1.952v3.75l-.836.558-.836-.557V4.473l-.153-.102-1.179-.786-.19-.126-.19.126-1.18.786-.152.102v3.714L1.86 7.21Z" fill="#EFBF6C"/><path d="m1.86 3.277-.626-1.024-.574.351v.673h1.2Zm0 3.934H.66v.69l.595.346.605-1.036Zm3.194-5.886L5.68.3l-.626-.382L4.428.3l.626 1.024Zm3.194 1.952h1.2v-.673l-.574-.351-.626 1.024Zm0 3.75.666 1 .534-.357v-.642h-1.2Zm-.836.558-.666.999.666.444.666-.444-.666-.999Zm-.836-.557h-1.2v.642l.534.356.666-.998Zm0-2.555h1.2v-.642l-.535-.356-.665.998Zm-.153-.102-.665.999.665-.999Zm-1.179-.786-.666.999.666-.999Zm-.19-.126.666-.999-.666-.444-.666.444.666.999Zm-.19.126.665.999-.665-.999Zm-1.332.888-.666-.998-.534.356v.642h1.2Zm0 3.714-.605 1.036 1.805 1.053v-2.09h-1.2ZM.66 3.277V7.21h2.4V3.277H.66ZM4.428.3 1.234 2.253l1.251 2.048L5.68 2.349 4.428.3Zm4.446 1.952L5.68.301 4.428 2.349 7.622 4.3l1.252-2.048Zm.574 4.775v-3.75h-2.4v3.75h2.4Zm-1.37 1.556.836-.558L7.583 6.03l-.837.558 1.332 1.997ZM5.91 8.026l.836.558 1.332-1.997-.837-.558-1.33 1.997Zm-.534-3.37v2.372h2.4V4.657h-2.4Zm0-.183v.184h2.4v-.184h-2.4Zm.382.897.152.102 1.331-1.997-.152-.102L5.758 5.37Zm-1.18-.786 1.18.786 1.33-1.997-1.178-.786-1.332 1.997Zm-.19-.127.19.127L5.91 2.587l-.19-.127-1.332 1.997Zm1.141.127.19-.127L4.39 2.46l-.19.127 1.33 1.997ZM4.35 5.37l1.18-.786-1.332-1.997-1.179.786L4.35 5.37Zm-.152.102.152-.102-1.33-1.997-.154.102 1.332 1.997Zm.534-.815v-.184h-2.4v.184h2.4Zm0 3.53v-3.53h-2.4v3.53h2.4Zm-3.477.06 1.672.976 1.21-2.073-1.673-.976-1.209 2.073Z" fill="var(--shade9)" mask="url(#a)"/><mask id="b" maskUnits="userSpaceOnUse" x="2.218" y=".682" width="10" height="12" fill="#000"><path fill="#fff" d="M2.218.682h10v12h-10z"/><path d="M10.607 4.657v3.934l-3.195 1.952-3.194-1.952v-3.75l.836-.558.836.557v2.555l.153.102 1.18.786.19.127.19-.127 1.179-.786.152-.102V3.68l1.673.976Z"/></mask><path d="M10.607 4.657v3.934l-3.195 1.952-3.194-1.952v-3.75l.836-.558.836.557v2.555l.153.102 1.18.786.19.127.19-.127 1.179-.786.152-.102V3.68l1.673.976Z" fill="#EFBF6C"/><path d="m10.607 8.591.625 1.024.575-.35V8.59h-1.2Zm0-3.934h1.2v-.689l-.596-.347-.604 1.036Zm-3.195 5.886-.625 1.024.625.383.626-.383-.626-1.024ZM4.218 8.591h-1.2v.673l.574.351.626-1.024Zm0-3.75-.666-1-.534.357v.642h1.2Zm.836-.558.666-.999-.666-.443-.665.443.665.999Zm.836.557h1.2v-.642l-.534-.356-.666.998Zm0 2.371h1.2-1.2Zm0 .184h-1.2v.642l.535.356.665-.998Zm.153.102.666-.999-.666.999Zm1.18.786-.666.998.665-.998Zm.19.127-.666.998.665.444.666-.444-.666-.998Zm.19-.127.665.998-.665-.998Zm1.179-.786.665.998-.665-.998Zm.152-.102.666.998.534-.356v-.642h-1.2Zm0-3.713.605-1.037-1.805-1.053v2.09h1.2Zm2.873 4.91V4.656h-2.4V8.59h2.4Zm-3.769 2.975 3.194-1.952-1.251-2.048L6.787 9.52l1.251 2.048ZM3.592 9.615l3.195 1.952L8.038 9.52 4.844 7.567 3.592 9.615ZM3.018 4.84v3.751h2.4v-3.75h-2.4Zm1.37-1.556-.836.558 1.332 1.997.836-.558-1.331-1.997Zm2.168.558-.836-.558-1.331 1.997.836.558 1.331-1.997Zm.534 3.37V4.84h-2.4v2.371h2.4Zm0 .183V7.21h-2.4v.184h2.4Zm-.381-.897-.153-.102-1.331 1.997.152.102L6.71 6.498Zm1.179.786-1.18-.786-1.33 1.997 1.179.786 1.33-1.997Zm.19.127-.19-.127-1.331 1.997.19.127 1.331-1.997Zm-1.141-.127-.19.127 1.331 1.997.19-.127-1.331-1.997Zm1.179-.786-1.18.786 1.332 1.997 1.18-.786-1.332-1.997Zm.153-.102-.153.102 1.331 1.997.153-.102-1.331-1.997Zm-.535.815v.184h2.4V7.21h-2.4Zm0-3.53v3.53h2.4v-3.53h-2.4Zm3.477-.06L9.54 2.645 8.33 4.718l1.673.976 1.21-2.073Z" fill="var(--shade9)" mask="url(#b)"/><path d="M1.86 7.211V3.277l3.194-1.952 3.194 1.952v3.75l-.836.558-.836-.557V4.473l-.153-.102-1.179-.786-.19-.126-.19.126-1.18.786-.152.102v3.714L1.86 7.21Z" fill="url(#c)"/><path d="M10.607 4.657v3.934l-3.195 1.952-3.194-1.952v-3.75l.836-.558.836.557v2.555l.153.102 1.18.786.19.127.19-.127 1.179-.786.152-.102V3.68l1.673.976Z" fill="url(#d)"/><defs><linearGradient id="c" x1="5.054" y1="1.325" x2="5.054" y2="8.187" gradientUnits="userSpaceOnUse"><stop offset=".034"/><stop offset=".372"/><stop offset=".554"/><stop offset=".841"/><stop offset="1"/></linearGradient><linearGradient id="d" x1="7.412" y1="3.682" x2="7.412" y2="10.543" gradientUnits="userSpaceOnUse"><stop/><stop offset=".216"/><stop offset=".372"/><stop offset=".575"/><stop offset=".841"/><stop offset="1"/></linearGradient></defs></svg>