<svg width="18" height="18" fill="none" xmlns="http://www.w3.org/2000/svg"><path fill-rule="evenodd" clip-rule="evenodd" d="M1.805 10.654c.125.109.384.288.777.539v1.504l5.013 2.917-.011-.724c1.514.67 2.68 1.073 3.497 1.211l.025.004L9 17.333l-7.195-4.198v-2.481ZM9 .667l7.195 4.147v6.329A7.108 7.108 0 0 1 18 13.035a16.17 16.17 0 0 0-.765-.313c.477 1.052.54 2.606-1.165 3.007-4.079.96-9.414-1.692-11.432-3.057 1.025.416 2.003.774 2.933 1.072v-.654a19.05 19.05 0 0 1-4.437-2.21C1.485 9.77.193 8.376 0 8.134c.276.075.51.121.702.138-.627-1.14.038-2.318 1.103-2.794v-.665L9 .667Zm0 .89L2.582 5.264v3.02c-.276-.263-.69-.94-.777-1.378-.276.2-.322.641-.15 1.078.745 1.898 3.931 3.968 5.916 5.053V7.972H4.462L3.36 5.53h11.344L13.6 7.972h-3.108v6.545c.92.186 1.78.297 2.582.335 3.472.163 3.71-.84 3.121-1.68l-2.006 1.166a6.365 6.365 0 0 1-1.504-.025l2.733-1.566V5.266L9 1.556Z" fill="#AF893D"/></svg>