<svg xmlns="http://www.w3.org/2000/svg" viewBox="0 0 48 48"><path d="M23.971 39.738 40.99 27.393 34.483 7.495H13.42L6.952 27.393l17.019 12.345Z" fill="var(--shade7)"/><path d="M18 25.511v-2.34L23.291 15h4.078v8.19H29v2.321h-1.631V28h-2.526v-2.489H18Zm2.705-2.321h4.138v-6.351h-.04l-4.098 6.351Z" fill="#fff"/><path d="m12.528 6-5.3 15.302H3.65L2 25.138l8.804 7.122 1.1-3.287-2.75-2.192L15.205 9.25h17.588l6.053 17.532-2.752 2.192 1.101 3.287L46 25.138l-1.65-3.836h-3.577L35.473 6H12.527Z" fill="#316C9C"/><path d="m24.177 37.821-7.893-5.712-1.078 3.412L24.177 42l8.933-6.48-1.078-3.411-7.855 5.712Z" fill="#316C9C"/></svg>