<svg xmlns="http://www.w3.org/2000/svg" viewBox="0 0 48 48"><path d="m24.099 39.74 17.039-12.33-6.515-19.878H13.536L7.06 27.409 24.099 39.74Z" fill="var(--shade7)"/><path d="M20.108 29v-1.978c0-1.253.277-2.232.832-2.937.458-.587 1.41-1.272 2.855-2.056.084-.039.205-.104.362-.195.482-.248.825-.438 1.03-.568a8.44 8.44 0 0 0 .723-.548c.265-.222.445-.457.542-.705.096-.262.144-.562.144-.901 0-.51-.186-.927-.56-1.253-.373-.34-.873-.51-1.5-.51-1.313 0-2.054.888-2.223 2.664L20 19.68c.084-1.501.53-2.657 1.337-3.466.82-.81 1.928-1.214 3.326-1.214 1.229 0 2.24.385 3.036 1.155.807.757 1.21 1.802 1.21 3.133 0 .561-.09 1.077-.27 1.547a3.778 3.778 0 0 1-.796 1.233c-.337.353-.68.653-1.03.901-.337.235-.747.483-1.229.744-.927.51-1.548.862-1.861 1.058-.301.195-.524.404-.669.626-.168.274-.253.614-.253 1.018H29V29h-8.892Z" fill="#fff"/><path d="M12.642 6.038 7.335 21.325h-3.58l-1.653 3.83 8.814 7.116 1.102-3.284-2.755-2.19 6.06-17.513h17.609l6.06 17.514-2.754 2.189 1.101 3.284 8.815-7.115-1.653-3.831h-3.58L35.613 6.037H12.642Z" fill="#E9881F"/><path d="m24.305 37.825-7.902-5.706-1.08 3.409L24.305 42l8.944-6.472-1.08-3.409-7.864 5.706ZM5.407 6H9.54l-1.725 4.926H3.683L5.407 6Zm-2.682 7.662L1 18.588h4.132l1.724-4.926H2.725ZM42.593 6H38.46l1.725 4.926h4.131L42.593 6Zm2.682 7.662L47 18.588h-4.132l-1.724-4.926h4.131Z" fill="#E9881F"/></svg>