<svg xmlns="http://www.w3.org/2000/svg" viewBox="0 0 48 48"><path d="m24.099 39.738 17.039-12.345-6.515-19.898H13.536L7.06 27.393l17.039 12.345Z" fill="var(--shade7)"/><path d="m19 24.32 2.505-.536c.255 1.943 1.153 2.915 2.696 2.915.752 0 1.338-.173 1.759-.518.42-.345.63-.831.63-1.458 0-1.317-.834-1.975-2.504-1.975h-.88v-2.033h.784c.6 0 1.078-.14 1.434-.422.37-.281.555-.69.555-1.227 0-.55-.172-.978-.516-1.285-.332-.32-.797-.48-1.396-.48-1.16 0-1.842.678-2.046 2.033l-2.352-.44c.115-1.203.574-2.149 1.377-2.84C21.862 15.353 22.9 15 24.163 15c1.21 0 2.211.339 3.001 1.016.803.665 1.205 1.56 1.205 2.685 0 .806-.185 1.426-.555 1.86-.37.435-.758.717-1.166.845v.057c.536.115 1.058.46 1.568 1.036.523.562.784 1.361.784 2.397 0 1.176-.42 2.154-1.262 2.934-.841.78-2.014 1.17-3.518 1.17-1.453 0-2.645-.39-3.576-1.17-.917-.793-1.465-1.962-1.644-3.51Z" fill="#fff"/><path d="M12.642 6 7.335 21.302h-3.58l-1.653 3.836 8.814 7.122 1.102-3.287-2.755-2.192 6.06-17.532h17.609l6.06 17.532-2.754 2.192 1.101 3.287 8.815-7.122-1.653-3.836h-3.58L35.613 6H12.642Z" fill="#46A5B5"/><path d="m24.305 37.821-7.902-5.712-1.08 3.412L24.305 42l8.944-6.48-1.08-3.411-7.864 5.712Zm18.563-19.258-1.652-4.93h4.131L47 18.562h-4.132Zm-37.736 0 1.652-4.93H2.653L1 18.562h4.132Z" fill="#46A5B5"/></svg>