<svg xmlns="http://www.w3.org/2000/svg" viewBox="0 0 48 48"><path d="m24.099 39.74 17.039-12.33-6.515-19.878H13.536L7.06 27.409 24.099 39.74Z" fill="var(--shade7)"/><path d="M9.539 6H5.407L1 18.588h4.132L9.539 6Zm28.922 0h4.132L47 18.588h-4.132L38.461 6Z" fill="var(--primary)"/><path d="M12.642 6.039 7.335 21.325h-3.58l-1.653 3.83 8.814 7.116 1.102-3.284-2.755-2.19 6.06-17.513h17.609l6.06 17.514-2.754 2.189 1.101 3.284 8.815-7.115-1.653-3.831h-3.58L35.613 6.039H12.642Z" fill="var(--primary)"/><path d="m24.305 37.825-7.902-5.706-1.08 3.409L24.305 42l8.944-6.472-1.08-3.409-7.864 5.706Z" fill="var(--primary)"/><path d="M23.236 29V18L20 19.9V17l3.45-2H26v14h-2.764Z" fill="#fff"/></svg>