<svg xmlns="http://www.w3.org/2000/svg" viewBox="0 0 48 48"><path d="m23.961 39.738 17.034-12.345-6.513-19.898h-21.08L6.928 27.393 23.96 39.738Z" fill="var(--shade7)"/><path d="m19 25.3 2.4-1.058c.202.718.53 1.292.984 1.723.466.418 1.027.627 1.682.627.719 0 1.31-.216 1.777-.646.479-.431.718-1.058.718-1.88 0-.823-.233-1.45-.699-1.88-.466-.43-1.046-.646-1.74-.646-1.133 0-2.015.49-2.646 1.468l-1.985-1.037L20.645 15h7.07v2.448h-5.142l-.51 3.093.018.02c.063-.105.183-.222.36-.353.176-.143.478-.287.907-.43a4.103 4.103 0 0 1 1.418-.235c1.184 0 2.186.43 3.005 1.292.82.861 1.229 1.964 1.229 3.31 0 1.513-.473 2.701-1.418 3.563-.945.861-2.117 1.292-3.516 1.292-1.31 0-2.388-.34-3.232-1.018-.845-.679-1.456-1.573-1.834-2.683Z" fill="#fff"/><path d="m36.096 28.973 1.102 3.287L43 27.57 35.472 6H12.435L5 27.586l5.783 4.674 1.101-3.287L9.13 26.78l6.058-17.53h17.604l6.058 17.532-2.754 2.192Z" fill="#325173"/><path d="m24.168 37.821-7.9-5.712-1.08 3.412L24.168 42l8.94-6.48-1.079-3.411-7.861 5.712Z" fill="#325173"/></svg>