<svg viewBox="0 0 32 32"><path d="M11.35 7.3c1.484-1.426 3.101-3.217 5.306-3.3 1.89.539 3.333 1.94 4.701 3.283.705-.58 1.41-1.16 2.13-1.724.266.72.805 2.155 1.079 2.876A53.91 53.91 0 0 1 26.995 5.9c.937 3.026.845 6.408-.564 9.268-1.351 2.405.249 5.953-2.462 7.611-2.786 1.8-4.966 5.845-8.722 5.14-2.943-1.906-5.903-4.228-8.042-6.98.017-5.057-3.217-9.534-1.882-14.691 1.227.307 2.031 1.285 2.844 2.18.315-.97.655-1.923 1.028-2.868.73.563 1.442 1.144 2.155 1.74Zm-2.412 5.944c-.216 1.584-.97 3.515.315 4.85 1.36 1.758 3.69 2.073 5.704 2.512-.39-3.39-2.247-6.989-6.02-7.362Zm8.804 7.37c2.18-.447 4.743-.887 6.011-2.951.912-1.343.166-2.976-.008-4.41-3.772.372-5.621 3.979-6.003 7.361Zm-3.987 3.516c.704 2.686 2.064-1.816 0 0Zm3.954-.141c.2 2.785 2.355-1.377 0 0Z"/></svg>