<svg viewBox="0 0 32 32"><path d="M13.314 4.434c.648-.78 1.575-1.429 2.624-1.433.925-.029 1.78.483 2.366 1.168.253.31.564.644.564 1.07-.048.403-.533.45-.828.604-.53.19-.733.83-.574 1.338.085.606.768.798 1.279.897 1.15.172 2.125.948 2.765 1.89.127.329.023.789-.3.978-.418.304-.985.504-1.48.264-.634-.303-1.055-.903-1.67-1.24.23.307.44.664.402 1.064-.052.624-.36 1.185-.514 1.785-.739 2.626-.51 5.382-.569 8.077-.034 1.985-.44 3.936-.75 5.89-.099.578-.521 1.018-.773 1.53-.257-.543-.582-1.061-.743-1.644-.484-1.667-.676-3.404-.715-5.135-.059-1.751.12-3.502.02-5.252-.074-1.574-.33-3.157-.94-4.617-.31-.594.207-1.169.362-1.73-.348.195-.735.375-.936.74-.216.364-.599.652-1.038.64-.558-.023-1.086-.269-1.553-.56-.28-.186-.263-.574-.063-.812.749-.893 1.7-1.755 2.909-1.893.433-.03.862-.252 1.088-.63.162-.356.227-.804.026-1.159-.307-.498-1.011-.53-1.32-1.026-.076-.316.18-.578.361-.804Z"/><path d="M5.054 9.584c.468.12.941.23 1.384.428 1.824.79 3.665 1.542 5.457 2.403.49.257.97.71.98 1.301.284 3.07.482 6.148.707 9.223.057.255-.159.432-.298.612-.265-.465-.554-.934-.65-1.47a9.182 9.182 0 0 0-2.4-4.585c-.727-.76-1.58-1.387-2.48-1.93-.345-.215-.75-.369-1.004-.703-.37-.483-.585-1.059-.87-1.592l.276-.338c1.204.455 2.413.897 3.621 1.341l.103-.22a378.47 378.47 0 0 0-3.655-1.998c-.428-.228-.842-.535-1.062-.979-.22-.465-.174-.997-.11-1.493Zm21.257.14c.178-.093.376-.046.563-.02.034.82-.202 1.746-.966 2.177-1.319.726-2.66 1.437-3.826 2.4 1.255-.463 2.497-.958 3.75-1.43-.161.71-.296 1.467-.76 2.051-.341.438-.867.65-1.335.917-1.59.883-2.968 2.208-3.757 3.862-.306.613-.506 1.27-.679 1.931-.188.687-.532 1.32-.96 1.884-.066-.216-.135-.437-.105-.667.214-3.075.425-6.152.695-9.224a1.24 1.24 0 0 1 .761-1.072c2.19-.974 4.404-1.897 6.62-2.81Z"/></svg>