<svg viewBox="0 0 32 32"><path d="M26.49 14.997c-.203-.361-.503-.646-.82-.899-.477-.543-.981-1.065-1.425-1.632-.602-.77-.989-1.637-1.367-2.528l-.16-.253a14.537 14.537 0 0 1-.776-1.442c-.376-.43-.754-.862-1.133-1.308l1.838-2.428c-.008-.016-.013-.034-.021-.05l-.106-.27c-.005-.012-.007-.023-.01-.028a.118.118 0 0 1-.008-.019l-.052-.11c-.547-.024-.92-.066-1.249.031a145.51 145.51 0 0 0-4.468 1.41c-.544.059-1.086.117-1.63.178-.691.076-1.374.179-2.037.374V6.02a14.1 14.1 0 0 1-.355.085 9.195 9.195 0 0 0-.289.09.272.272 0 0 1-.12.007h-.003c-.568.135-1.13.3-1.682.498-.342.05-.644.18-.912.359a15.5 15.5 0 0 0-.634.282.228.228 0 0 0-.076.063 8.654 8.654 0 0 0-1.49.913c-.08.06-.153.126-.226.19a6.38 6.38 0 0 0-.718.896c0 .013.003.026.003.04.002.005.002.01.002.012v.006c.006.026.013.05.021.076.008.003.013.008.021.01l.555-.089c.063-.016.123-.032.187-.042a9.27 9.27 0 0 1 1.048-.113l.35-.024c.047.002.094.005.142.01-.008.04-.037.074-.092.085l-.06.008a11.742 11.742 0 0 0-3.46 3.16l-.063.059a.123.123 0 0 0-.036.076c-.008.013-.019.024-.027.037-.042.055-.09.105-.131.164-.069.097.045.221.147.192.528-.148 1.057-.29 1.588-.43.076-.013.152-.031.228-.042a9.76 9.76 0 0 0-.4 1.063 6.413 6.413 0 0 0-.152.43c-.144.305-.273.616-.386.935-.166.48-.297.97-.397 1.466a5.21 5.21 0 0 0-.1.804 6.664 6.664 0 0 0-.158 1.094c0 .005.003.01.003.016-.005.098-.013.195-.013.293 0 .092.116.176.197.113.21-.16.423-.322.636-.482a3.82 3.82 0 0 0 .142-.082c-.008.11-.018.219-.034.327-.003.53.042 1.057.081 1.545.09 1.094.34 2.204 1.015 3.074a.16.16 0 0 1 .06.01c.81.309 1.601.662 2.392 1.018l-.002-.003c.002.003.005.003.005.006.278.126.56.25.84.374-.062-.116-.13-.232-.191-.35-.468-.918-.925-2.007-.862-3.067-.342-1.932-.27-3.938.155-5.85.237-1.065.557-2.12 1.001-3.119.305-.69.707-1.46 1.31-1.956.018-.03.034-.058.052-.084.14-.196.286-.383.439-.565l.754-.41a7.05 7.05 0 0 0-.19.297 9.61 9.61 0 0 0-.748 1.284c-.176.285-.35.575-.51.873-.04.126-.082.253-.116.382-.055.108-.102.221-.152.33a.33.33 0 0 1-.03.136c-.577 1.353-.982 2.8-1.13 4.266a11.975 11.975 0 0 0-.041 1.99c.047.475.131.945.265 1.4.873 2.948 3.375 5.27 5.977 6.737l.675.153c1.18.253 2.35.498 3.423.954.23-1.26.402-2.526.31-3.812a7.155 7.155 0 0 0-.97-3.17c-.245-.416-.507-.822-.765-1.23a71.279 71.279 0 0 1-.912-1.287c-.463-.675-.704-1.503-1.049-2.26.82-.084 1.688-.374 2.445-.192.457.108.956.324 1.377.612l.142.04c.444.229.904.418 1.393.6.43.161.812.364 1.098.736.266.348.54.543.983.58.752.066 1.796-.05 1.948-.96.145-.84.118-1.906-.305-2.66Z"/></svg>