<svg viewBox="0 0 32 32"><path d="M8.865 7.634c1.863-2.1 4.77-3.17 7.552-2.92 1.593.309 3.134 1.017 4.345 2.109a3.988 3.988 0 0 1 1.27 2.22c.209 1.132.076 2.308-.257 3.402-.265-1.55-1.27-2.924-2.613-3.72-1.498-.903-3.384-1.157-5.058-.63-1.323.394-2.509 1.32-3.119 2.57-.563 1.116-.609 2.469-.165 3.633a5.527 5.527 0 0 0 2.17 2.63 6.281 6.281 0 0 0 5.363.689c.378.764.514 1.641.47 2.487-.049.299-.13.712-.459.812-3.116.575-6.488-.4-8.776-2.605-1.338-1.274-2.252-2.997-2.51-4.83-.284-2.086.393-4.271 1.787-5.847Z"/><path d="M12.724 11.29c3.572-.663 7.5.78 9.677 3.716 1.121 1.515 1.75 3.43 1.568 5.32-.153 1.809-1.015 3.537-2.342 4.771a8.916 8.916 0 0 1-5.207 2.345c-2.195.134-4.45-.683-5.995-2.258-.582-.577-1.062-1.28-1.292-2.073-.318-1.06-.234-2.213.141-3.248.275 1.414 1.152 2.676 2.352 3.46 1.563 1.041 3.602 1.345 5.387.753 1.188-.373 2.248-1.182 2.879-2.262.698-1.177.8-2.677.3-3.948-.396-.97-1.062-1.837-1.925-2.435-1.544-1.116-3.61-1.45-5.433-.908a4.787 4.787 0 0 1-.608-2.246c.05-.357.19-.784.498-.986Z"/></svg>