<svg viewBox="0 0 32 32"><path d="M16.868 5h.193c1.146 1.255 2.963 1.915 3.618 3.613.533 1.533 1.925 2.5 3.495 2.731.595 1.255 1 2.59 1.552 3.864.41-.302.821-.604 1.227-.906.655 1.24 1.099 2.627 2.047 3.689v.948a77.845 77.845 0 0 0-.326 2.372c-.523-.405-1.028-.84-1.594-1.188-1.01-.18-2.042-.142-3.061-.166-.123-.259-.377-.783-.5-1.042a94.944 94.944 0 0 0-3.076.156c.378-.42.755-.845 1.128-1.264-1.283-.25-2.562-.514-3.854-.717.76 1.052 1.627 2.014 2.443 3.023-.122.203-.372.609-.495.816 1.236.312 2.439.745 3.646 1.16.533-.48 1.066-.966 1.6-1.452.065 1.245.094 2.49.127 3.74a33.217 33.217 0 0 1-2.368 1.85h-.057c-2.316-1.35-5.07-1.534-7.604-2.288.217-1.08.75-2.066 1.085-3.113a80.808 80.808 0 0 1-3.085 1.32c-2.59-2.099-5.212-4.16-7.745-6.33 2.07-.689 4.156-1.32 6.217-2.028-.972-1.302-1.854-2.675-2.858-3.944C7.203 8.754 5.547 8.038 4 7.16v-.042c2.019.203 4.061.18 6.07.467 1.477.443 2.83 1.222 4.317 1.637 1.033.188 2.08.26 3.118.386.023-.933.269-1.948-.227-2.806-.32-.557-.363-1.18-.41-1.802Zm.495 7.288c.425.717.76 1.51 1.335 2.127.793.453 1.722.609 2.576.915a34.63 34.63 0 0 0-.925-2.25c-.981-.325-1.986-.556-2.986-.792Z"/></svg>