<svg viewBox="0 0 32 32"><path d="M25.637 17.691c-1.15 1.134-2.793.374-2.793-1.437 0-.853.431-1.582.91-2.39.855-1.447 1.861-3.149.826-6.279-.049-.145-.244-.2-.366-.103-2.881 2.263-4.649-.845-6.002-3.223C17.515 3.032 16.927 2 16.355 2c-.573 0-1.16 1.033-1.86 2.261-1.351 2.378-3.118 5.485-5.994 3.226-.123-.093-.318-.042-.367.103-1.035 3.127-.029 4.83.826 6.277.479.81.91 1.538.91 2.392 0 1.81-1.643 2.566-2.793 1.437-.132-.13-.366-.07-.406.103-.48 2.397 1.707 3.588 3.923 4.797 1.145.623 2.298 1.251 3.095 2.052h-2.088l.748 1.358c.23.415.68.672 1.179.672h1.482a4.436 4.436 0 0 1 0 3.322h2.685a4.436 4.436 0 0 1 0-3.322h1.481c.5 0 .954-.257 1.179-.672l.748-1.358h-2.088c.797-.801 1.95-1.43 3.095-2.054 2.214-1.208 4.4-2.4 3.923-4.795-.03-.182-.264-.238-.396-.108ZM14.78 24.644l-1.83-12.435 3.331-5.286c.03-.056.118-.056.147 0l3.33 5.286-1.829 12.435h-3.15Z"/><path d="M25.87 15.923c-.504.565-1.135.832-1.52.607-.454-.266-.39-1.12.142-1.909.082-.12.17-.233.262-.336l.775-1.087c.344-.322.424-.594.484-.795.07-.235.11-.371.514-.371.836 0 .498 2.566-.5 3.732a1.375 1.375 0 0 1-.157.16ZM10.78 5.532a1.334 1.334 0 0 0-.006-.289c-.027-.4-.072-1.068.23-1.209.623-.154.83.837.927 1.306.024.113.041.196.056.225.079.149.118.882-.562.732-.514-.115-.546-.271-.63-.692l-.016-.073Zm-4.866 7.792c.113.11.25.245.464.378.396.369.988 1.48.597 1.852-.762.71-1.318-.313-1.504-.656l-.037-.067c-.142-.238-.768-1.31-.2-1.754.352-.075.48.05.68.247Z"/></svg>