<svg viewBox="0 0 32 32"><path d="M14.445 19.028c3.558 0 4.204-3.074 2.372-3.842 3.809-.384 4.104 5.587 0 6.916-4.744 1.537-13.733-3.301-9.882-11.911 3.781-8.453 14.877-4.995 16.997-.768-1.33-1.153-2.516-2.305-7.115-2.305C6 7.886 8.427 19.029 14.445 19.029z"/><path d="M18.398 12.496c-3.306 0-4.348 1.921-2.767 4.226-4.888-.768-4.743-6.916 0-7.685 3.051-.494 6.891.574 8.948 3.458 1.673 2.347 2.247 6.025-.395 9.99-1.809 2.714-5.238 3.779-8.301 3.458-3.875-.406-7.402-2.822-8.947-4.611 1.437 1.153 6.114 3.527 10.133 2.689 2.317-.483 4.841-2.439 5.534-4.611.962-3.014-1.186-6.916-4.204-6.916z"/></svg>