<svg viewBox="0 0 32 32"><path d="M14.247 13.147c-.46-1.168.103-2.084.769-2.387.666-.307 1.486-1.015 1.486-1.577 0 .558.82 1.27 1.486 1.577.666.307 1.229 1.219.769 2.387 2.56-.865 2.457-4.471.872-5.439C18.044 6.741 16.502 4 16.502 4s-1.538 2.745-3.123 3.708c-1.589.968-1.692 4.574.868 5.439Z"/><path d="M21.491 24.854v-7.837c0-1.298-1.07-2.36-2.377-2.36H17.41V13.29a.91.91 0 0 0-.912-.905.91.91 0 0 0-.912.905v1.368h-1.704c-1.307 0-2.377 1.062-2.377 2.36v7.837H9S9.88 28 14.342 28h4.312c4.462 0 5.342-3.146 5.342-3.146h-2.505Z"/></svg>