<svg viewBox="0 0 32 32"><path d="M7.729 4h.25c.115 1.55.052 3.11.22 4.654.38 1.623 1.758 2.734 2.968 3.767 1.231.48 2.54-.073 3.793-.157 1.654-.323 3.292.183 4.883.58 1.399-.887 2.87-1.874 3.548-3.454.893-1.66.59-3.59.621-5.39h.261c1.017 1.66 2.431 3.167 2.64 5.191v1.472c-.485 2.024-1.42 3.918-1.795 5.968-.318 1.597.486 3.11.94 4.597-1.915 3.302-4.942 6.104-8.818 6.772h-2.191c-3.976-.532-7.237-3.329-9.204-6.704.397-1.232.924-2.442 1.033-3.741C6.79 15.134 5.501 12.99 5 10.663V9.3C5.214 7.245 6.55 5.6 7.729 4Zm1.257 15.877c.903-.36 1.78-1.054 2.807-.934.762.208 1.435.641 2.129 1.007-.313-1.346-.85-2.85-2.296-3.334-1.659.14-2.254 1.914-2.64 3.26Zm10.221-2.724c-.736.746-.913 1.816-1.231 2.77.845-.406 1.622-1.137 2.608-1.11.83.16 1.56.61 2.332.928-.333-.924-.516-1.998-1.346-2.635-.605-.689-1.727-.5-2.363.047Zm-6.877 4.242c.287 1.946 2.124 3.506 4.122 3.177 1.675-.156 2.797-1.622 3.073-3.193-1.335.412-2.676 1.096-4.116.897-1.065-.15-2.061-.573-3.079-.881Z"/></svg>