<svg viewBox="0 0 32 32"><path d="M15.139 7h.207c.44.285.709.817.685 1.34-.01.274-.058.544-.101.814-.185-.237-.42-.432-.717-.5-.404.411-.74.883-1.09 1.34-.962 1.257-1.986 2.487-3.233 3.472.08.065.153.136.216.218 1.38-.9 2.416-2.21 3.485-3.44.261-.294.493-.619.801-.866.182-.046.262.161.33.286.161.403.3.885.095 1.297-.167.365-.406.688-.643 1.009-.976 1.29-2.103 2.459-3.05 3.771-.219.357-.543.722-.526 1.16.25.46.637.948 1.198.996.453.01.81-.332 1.254-.364.547-.068 1.101-.07 1.652-.084.191.34.325.73.273 1.125-.04.119-.163.175-.256.244-.397.238-.808.45-1.227.643-.437.221-.942.193-1.4.344-1.034.286-1.835 1.093-2.888 1.327-.917.21-1.896.235-2.808-.005.196.45.71.575 1.147.644-.47.96-.968 1.905-1.444 2.861C6.052 23.54 5.041 22.412 4 21.316v-.058c.505-.608 1.04-1.238 1.247-2.018.123-.44.005-.968.347-1.325.899-1.084 1.814-2.167 2.519-3.39.304-.52.44-1.119.74-1.641.215-.392.695-.444 1.076-.576.825-.207 1.39-.891 1.957-1.476C13.036 9.611 14 8.23 15.139 7Zm2.483 0h.215c1.045 1.113 1.924 2.37 2.954 3.498.512.559 1.014 1.146 1.653 1.565.49.31 1.15.27 1.581.677.369.508.48 1.15.791 1.691.653 1.169 1.507 2.208 2.361 3.234.139.173.296.338.391.541.113.405.075.84.224 1.238.254.699.735 1.28 1.208 1.843-1.042 1.117-2.074 2.244-3.124 3.353-.48-.956-.955-1.915-1.437-2.871.466-.056.936-.233 1.201-.646-.906.23-1.87.222-2.78.032-1.104-.227-1.938-1.072-3.016-1.362-.455-.145-.957-.114-1.386-.344-.483-.235-.977-.466-1.41-.785-.159-.401.04-.839.216-1.203.549-.008 1.1.008 1.645.07.503.033.924.474 1.447.338.486-.143.853-.585 1.04-1.04-.076-.44-.35-.807-.597-1.167-.971-1.328-2.123-2.512-3.1-3.835-.242-.347-.513-.694-.621-1.108-.037-.49.054-1.072.468-1.392.48.44.869.967 1.3 1.454.803.922 1.616 1.853 2.588 2.602.2.137.461.404.666.12-1.278-1.061-2.362-2.33-3.356-3.655-.314-.411-.617-.834-.988-1.195a1.283 1.283 0 0 0-.713.518c-.045-.309-.092-.618-.083-.93-.02-.493.27-.96.662-1.241Z"/></svg>