<svg viewBox="0 0 32 32"><path d="M14.392 5.01c.879-.018 1.758-.007 2.637-.004.203.757.41 1.513.62 2.27a9.565 9.565 0 0 1 2.655 1.093c.678-.39 1.362-.766 2.046-1.146.618.619 1.239 1.236 1.854 1.857-.372.672-.754 1.338-1.124 2.013a8.47 8.47 0 0 1 1.147 2.681c.732.207 1.465.41 2.2.606.007.876.003 1.752.003 2.628-.713.2-1.427.395-2.138.602a8.596 8.596 0 0 1-1.133 2.822c.356.643.71 1.285 1.072 1.924l-1.855 1.853c-.62-.35-1.249-.686-1.861-1.052-.885.57-1.866.98-2.89 1.219-.192.686-.384 1.371-.581 2.055-.873.002-1.744-.002-2.616.003a163.57 163.57 0 0 1-.59-2.064 9.116 9.116 0 0 1-2.89-1.209c-.625.346-1.248.697-1.872 1.046-.615-.627-1.246-1.238-1.858-1.869.369-.618.708-1.253 1.069-1.877-.527-.878-.943-1.827-1.15-2.833-.714-.194-1.424-.401-2.135-.605 0-.874-.005-1.747.002-2.621.73-.21 1.464-.416 2.194-.629.217-.963.636-1.865 1.147-2.705-.372-.67-.748-1.337-1.123-2.005.614-.625 1.236-1.242 1.857-1.86.69.378 1.362.791 2.064 1.147.799-.516 1.701-.846 2.618-1.081.204-.755.439-1.5.631-2.258Zm.223 5.2c-1.826.329-3.425 1.645-4.149 3.348-.5 1.143-.59 2.453-.295 3.66.357 1.506 1.389 2.814 2.718 3.59a5.775 5.775 0 0 0 4.148.582c1.595-.394 3.013-1.481 3.768-2.945.664-1.233.799-2.72.456-4.07-.327-1.327-1.186-2.494-2.299-3.274-1.248-.874-2.857-1.178-4.347-.891Z"/><path d="M14.584 11.315c.665.005 1.33 0 1.995.005-.001 1.272-.002 2.546 0 3.82.892.873 1.747 1.784 2.62 2.677-.473.466-.905.974-1.384 1.436-1.095-1.092-2.144-2.231-3.232-3.332l.001-4.606Z"/></svg>