<svg viewBox="0 0 32 32"><path d="m26.983 15.738.793-.835c.584-.584.584-1.78 0-2.365l-1.169-1.53c-.64-.626-1.822-.626-2.462 0l-1.169 1.53c-.584.584-.584 1.781 0 2.365l.807.835v3.06c-.264-.245-.527-.503-.794-.764-1.293-1.266-2.681-2.623-4.756-3.131v-2.518c.556-.543.835-.821.835-.821.403-.389.556-1.113.556-1.391s-.431-1.002-.835-1.669l-1.252-1.669c-.39-.389-.974-.835-1.53-.835s-1.127.445-1.53.835l-1.252 1.669c-.08.132-.16.26-.238.385-.318.507-.596.949-.596 1.284 0 .417.181 1.002.57 1.391l.821.821v2.518c-2.111.603-3.884 2.3-5.479 3.827l-.071.068v-3.06l.821-.835a1.67 1.67 0 0 0 0-2.365l-1.21-1.53a1.712 1.712 0 0 0-2.42 0l-1.224 1.53c-.668.668-.529 1.697.139 2.365l.709.835v6.677a14.95 14.95 0 0 1-.354.294c-.673.548-1.371 1.116-.523 1.375 2.671 1.461 11.852 1.669 11.852 1.669s9.209-.209 11.894-1.669c.806-.252-.006-.914-.714-1.491l-.218-.178v-6.677zM8.259 21.455 9.65 20.05l1.391 1.405-1.391 1.377-1.391-1.377zm7.79 2.072-2.921-2.935 2.921-2.907 2.921 2.907-2.921 2.935zm4.994-2.072 1.391-1.405 1.391 1.405-1.391 1.377-1.391-1.377z"/></svg>