<svg viewBox="0 0 32 32"><path d="M27.999 10.235C27.923 5.368 23.687 5 23.687 5s1.715 1.29 1.412 4.24c-.264 2.544-4.091 3.387-5.132 3.57l-1.484-.807-1.567-3.649L16 7.173l-.917 1.181-1.567 3.65-1.484.805c-1.041-.182-4.868-1.025-5.133-3.57C6.596 6.29 8.31 5 8.31 5S4.078 5.368 4 10.235c-.076 4.863 3.672 5.809 3.676 5.812.24 1.583.154 2.813.154 2.813 4.199.664 6.28 4.847 6.28 4.847s-2.652-3.042-4.75-2.893c.23.936 2.06 4.386 2.06 4.386L16 28l4.58-2.8s1.83-3.45 2.06-4.386c-2.098-.146-4.75 2.893-4.75 2.893s2.081-4.183 6.28-4.847c0 0-.087-1.234.154-2.813.003-.003 3.752-.949 3.676-5.812ZM10.54 16.137c.653-.22 2.604-.163 3.508 1.463-1.842.48-3.226-.853-3.508-1.463Zm7.41 1.463c.904-1.626 2.855-1.682 3.508-1.463-.282.61-1.663 1.944-3.508 1.463Z"/></svg>