<svg viewBox="0 0 32 32"><path d="M5 27.042h15.931c.303-6.024-3.793-7.906-5.31-8.283-.759-.628-1.517-2.259 0-3.388 2.37-1.764 2.655-9.412-2.655-9.412s-5.31 7.718-3.034 9.412c1.517 1.129 1.138 2.886.759 3.388-4.931 1.129-5.437 5.647-5.69 8.283z"/><path d="M21.31 21.771c-.759-2.636-3.035-4.141-4.552-4.518.91-.904 2.276-1.255 2.655-1.13.632-.251 1.055-1.588 0-2.635-1.896-1.882-1.896-7.153 1.897-7.153s3.414 6.024 1.896 7.153c-1.316.98-.379 2.259 0 2.635 3.338 0 3.667 3.765 3.793 5.647h-5.69z"/></svg>