<svg viewBox="0 0 32 32"><path d="m5.822 6.994.601-1.792A.297.297 0 0 1 6.705 5h18.59c.128 0 .241.081.282.202l.6 1.792a.294.294 0 0 1-.123.344l-2.107 1.308a.299.299 0 0 1-.158.045H8.211a.299.299 0 0 1-.158-.045L5.947 7.338a.294.294 0 0 1-.125-.344Zm19.163 3.366 2.25-1.191a.297.297 0 0 1 .358.062l1.329 1.449c.09.097.103.241.035.354l-9.586 15.823a.297.297 0 0 1-.31.138l-1.932-.362a.297.297 0 0 1-.243-.292v-2.493c0-.054.015-.107.043-.153l7.94-13.226a.296.296 0 0 1 .116-.11ZM4.765 9.169l2.25 1.19a.296.296 0 0 1 .116.11l7.94 13.226a.297.297 0 0 1 .043.153v2.493a.297.297 0 0 1-.243.292l-1.933.362a.297.297 0 0 1-.309-.138L3.043 11.034a.297.297 0 0 1 .035-.354l1.33-1.45a.297.297 0 0 1 .357-.061Zm7.529 1.441h7.412c1.243 0 2.018 1.379 1.39 2.474l-3.706 6.459a1.594 1.594 0 0 1-2.78 0l-3.705-6.459c-.629-1.095.146-2.473 1.39-2.473Z"/></svg>