<svg viewBox="0 0 32 32"><path d="M9.81 24.86s.443.783 1.774.783v-.89l-1.774.107Zm3.549 0s-.443.783-1.774.783v-.89l1.774.107Z"/><path d="M13.359 12.844H9.81V24.86h3.549V12.844Z"/><path d="M4.465 7.44c-1.013-.593-2.053-.824-1.063.876.99 1.701 2.577 5.02 5.154 5.02h8.252v-3.94s-6.847-.102-8.252-.102c-1.405 0-4.091-1.853-4.091-1.853Zm11.425 10.4H7.324a.922.922 0 0 1-.912-.927v-.825c0-.51.41-.927.912-.927h8.566c.502 0 .913.417.913.927v.825c0 .51-.41.926-.913.926Zm5.912 7.02s-.442.783-1.774.783v-.89l1.774.107Zm-3.549 0s.443.783 1.775.783v-.89l-1.775.107Z"/><path d="M18.256 24.862h3.55V12.846h-3.55v12.016Z"/><path d="M27.148 7.44c1.013-.593 2.053-.825 1.063.876-.99 1.7-2.577 5.019-5.155 5.019h-8.251v-3.94s6.846-.101 8.251-.101c1.405 0 4.092-1.854 4.092-1.854Zm-11.426 10.4h8.566a.922.922 0 0 0 .912-.927v-.825c0-.51-.41-.927-.912-.927h-8.566a.922.922 0 0 0-.913.927v.825c0 .51.41.926.913.926Z"/></svg>