<svg viewBox="0 0 31 32"><path d="M15.515 4.848c-2.198 0-5.672 1.446-6.206 7.111-.353 3.743-1.939 5.24-3.491 5.988.517 2.246 2.638 7.036 6.982 8.234-2.198-4.366-4.732-13.099 2.715-13.099V4.848zm0 0c2.198 0 5.672 1.446 6.206 7.111.388 4.117 1.939 5.24 3.491 5.988-.517 2.246-2.638 7.036-6.982 8.234 2.198-4.366 4.732-13.099-2.715-13.099V4.848z"/><path d="M17.423 20.818c-.971 1.23-2.893 1.278-3.863.047-.845-1.071-1.319-2.205-1.57-3.788-.146-.92.446-1.781 1.341-2.098a6.573 6.573 0 0 1 4.379.004c.888.315 1.494 1.166 1.351 2.079-.225 1.444-.699 2.567-1.638 3.756z"/></svg>