<svg viewBox="0 0 32 32"><path d="M27.966 14.73C27.424 6.357 18.93 4 18.93 4s1.605 2.296 1.149 6.137c-.236 2.016-1.149 3.264-1.966 3.996a1.76 1.76 0 0 1-.32-.025c-.502-.09-.913-1.92-.803-2.391.11-.472.857-2.141 1.143-3.034.286-.892-1.479-2.557-2.05-2.973-.572-.416-2.167 1.785-2.337 2.321-.17.537-.17 5.651-.17 5.651l-.086.07c-.697-.757-1.374-1.91-1.574-3.605C11.469 6.297 13.069 4 13.069 4S4.575 6.357 4.034 14.73c-.542 8.374 5.65 10.58 5.65 10.58s-2.782-3.054-1.358-6.589c1.118 2.994 3.535 3.811 3.535 3.811s-2.518-4.212-.266-6.88c.416.658 1.258 2.107 1.75 3.766.17.587.416 1.068.687 1.49v.005c.085.155.195.33.31.511.076.226.151.451.231.677.005.02.015.045.02.065.015.25.03.506.04.757.015.396.06.833-.045 1.219-.145.536-.662.752-1.178.601-.607-.175-.737-.586-.692-1.163.01-.105-.09-.25-.2-.266-.617-.085-1.024.341-1.104.928-.085.652.146 1.334.527 1.86.812 1.128 2.377 1.685 3.735 1.555a3.544 3.544 0 0 0 1.86-.753c.552-.426 1.149-.962 1.485-1.579a3.14 3.14 0 0 0 .356-1.374c.09-.416.14-.862.15-1.334v-.05c.045-1.875-.26-2.903-.32-4.553-.06-1.664-.307-2.732.45-2.712a3.948 3.948 0 0 1 .392.065c.105.04.19.085.24.14 2.447 2.658-.15 7.015-.15 7.015s2.417-.817 3.535-3.81c1.419 3.534-1.359 6.588-1.359 6.588s6.197-2.196 5.65-10.57Z"/></svg>