<svg viewBox="0 0 32 32"><path d="M13.542 8.289c.505-.674 1.257-1.208 2.115-1.28 1.006-.089 1.97.486 2.538 1.287a198.805 198.805 0 0 1 3.27 4.713c.26.396.544.85.443 1.345-.114.48-.416.885-.699 1.279a4.813 4.813 0 0 1 1.393 1.634c.639 1.183.861 2.524 1.297 3.784.09.25.101.603-.137.772-1.86 1.191-3.925 2.11-6.114 2.47-.193-1.756-.394-3.511-.581-5.267l-.228-.008c-.009 1.796-.001 3.59-.003 5.386-.906-.063-1.817-.058-2.716-.192-1.946-.304-3.873-.883-5.56-1.916-.307-.194-.656-.376-.833-.708-.072-.205-.039-.43.034-.629.38-.966.516-2.014.987-2.945.457-.89 1.022-1.718 1.55-2.567-.257-.462-.681-.922-.589-1.49.073-.376.306-.693.508-1.01a230.16 230.16 0 0 1 3.325-4.658Zm-.173 3.06c-.037.975-.197 2.01.215 2.933.316.736.995 1.204 1.578 1.715.297.253.724.561 1.116.307.59-.429 1.076-.99 1.55-1.542.734-.944.6-2.208.488-3.322-.426.155-.845.332-1.296.404-1.232.24-2.504-.028-3.65-.495Z"/><path d="M19.792 8.012c.486-.753 1.581-.995 2.351-.547.382.193.614.563.861.895.625.838 1.234 1.69 1.778 2.582.131.223.297.443.319.71.029.384-.05.767-.07 1.149.166.029.193.205.255.33.418 1.072.818 2.15 1.224 3.227.127.283-.057.609-.31.748-.63.366-1.298.665-1.943 1.005a36.8 36.8 0 0 1-1.463-2.303c-.2-.3-.11-.67-.052-.997.113-.556.102-1.152-.119-1.68-.176-.459-.507-.827-.765-1.239-.687-1.011-1.296-2.074-1.97-3.094-.16-.225-.25-.534-.096-.786Zm-11.114.175c.308-.44.755-.819 1.3-.902.648-.131 1.326.155 1.764.632.306.348.191.865-.037 1.221-.726 1.165-1.53 2.28-2.32 3.402-.445.642-.69 1.44-.57 2.221.15.683-.228 1.332-.616 1.863-.35.465-.562 1.034-.999 1.431-.791-.227-1.469-.707-2.157-1.143-.035-.182-.078-.376.004-.553.472-1.264.965-2.52 1.46-3.774-.42-.429-.18-1.06.122-1.48.7-.96 1.361-1.949 2.05-2.918Z"/></svg>