<svg viewBox="0 0 32 32"><path d="M10.09 5.289c.696-.785 1.721-1.438 2.812-1.26.167-.005.258.21.158.336-.157.194-.393.298-.593.442-.824.535-1.354 1.43-1.62 2.358-.141.572-.173 1.263.24 1.734.334.371.873.258 1.303.41.549.205.985.724 1.046 1.314.098.777-.31 1.539-.866 2.057-.422.4-1.028.528-1.592.466-.59-.033-1.127-.324-1.716-.35-.989-.043-2.006.342-2.666 1.09-.504.534-.763 1.252-.84 1.972-.187 1.395.353 2.871 1.418 3.796.373.336.84.702.836 1.256-.655.053-1.28-.256-1.805-.618-1.5-1.168-2.283-3.126-2.199-5.003.05-1.47.783-2.855 1.82-3.875.742-.775 1.644-1.383 2.605-1.852.54-.257.494-.951.517-1.456-.07-1.057.483-2.034 1.141-2.817Zm9.486-1.235a2.698 2.698 0 0 1 2.076.441c.925.605 1.586 1.56 1.949 2.594.243.687.003 1.454.285 2.13.072.194.262.292.433.381 1.582.786 3.041 1.976 3.815 3.596.783 1.6.653 3.537-.108 5.118-.417.852-1.01 1.655-1.833 2.154-.463.259-.977.505-1.523.45.004-.582.513-.947.886-1.32.997-.904 1.512-2.296 1.367-3.631-.066-.729-.302-1.465-.795-2.018-.833-.976-2.27-1.408-3.495-1.003-.686.21-1.47.344-2.138.011a2.604 2.604 0 0 1-1.277-2.002c-.076-.839.604-1.683 1.457-1.732.324-.027.683-.057.915-.32.375-.43.373-1.055.26-1.584-.22-.938-.717-1.841-1.503-2.419-.283-.25-.855-.37-.771-.846Zm-5.693 3.301c.829-1.913 3.953-1.867 4.828-.012-.634.342-1.019.984-1.213 1.659-.79 0-1.58.002-2.37-.002-.2-.678-.6-1.315-1.245-1.645Z"/><path d="M14.769 10.312c.574-.193 1.198-.058 1.794-.097.527.034 1.178-.144 1.585.292.415.489.168 1.187.454 1.73a3.378 3.378 0 0 0 2.65 1.825c.565.066.928.606 1.044 1.122.147.672.203 1.395-.022 2.058-.328 1.03-.847 1.993-1.45 2.887-.648.933-1.414 1.854-1.63 2.999-1.91-.007-3.821.016-5.732-.012-.142-.805-.6-1.5-1.04-2.173-.91-1.228-1.737-2.564-2.121-4.057-.118-.81-.076-1.727.408-2.418.375-.508 1.063-.38 1.581-.613.861-.36 1.634-1.063 1.895-1.978.09-.545.004-1.266.584-1.565Zm2.864 4.929c-.748.221-1.23 1.074-1.006 1.829.176.753 1 1.276 1.756 1.085.881-.166 1.421-1.238 1.042-2.05-.257-.697-1.085-1.092-1.792-.864Zm-2.855 2.857a.993.993 0 0 0-.761.843c-.078.552.383 1.126.953 1.115.533.02.996-.465.987-.99.02-.595-.6-1.11-1.18-.968Zm-.547 6.844c.23-.277.472-.543.722-.802.922.002 1.844.002 2.767 0 .238.26.478.52.71.787-.541.87-1.108 1.726-1.656 2.592-.17.316-.736.322-.893-.011a148.368 148.368 0 0 0-1.65-2.566Z"/></svg>