<svg viewBox="0 0 32 32"><path d="M27.781 12.164c-.722.499-11.783 8.028-11.783 8.028s-11.061-7.53-11.78-8.028c-.717-.494-1.786-.733-.855 1.057.927 1.785 2.434 4.606 3.62 9.08h18.04c1.18-4.474 2.687-7.29 3.618-9.08.923-1.79-.142-1.551-.86-1.057ZM24.997 23.41H7.003v2.586h17.994v-2.587Z"/><path d="M18.945 8.985a4.252 4.252 0 0 1-2.947 1.19 4.271 4.271 0 0 1-2.947-1.19L8.368 12.85l7.63 5.327 7.63-5.327-4.683-3.865Zm-2.947 0c1.349 0 2.442-1.116 2.442-2.492C18.44 5.116 17.347 4 15.998 4c-1.349 0-2.442 1.116-2.442 2.493 0 1.376 1.093 2.492 2.442 2.492Z"/></svg>