<svg viewBox="0 0 32 32"><path d="M27 13.51c-1.51 1.05-2.984 2.077-4.467 3.11l3.066 4.537c-.45-.043-.871-.078-1.29-.123-.587-.063-1.176-.108-1.756-.207-1.192-.203-2.378-.438-3.566-.658-.12-.022-.188-.08-.247-.194-.804-1.555-1.615-3.105-2.425-4.657-.017-.034-.04-.065-.074-.118l-.684 1.27c-.623 1.172-1.244 2.347-1.873 3.516a.336.336 0 0 1-.208.149c-.818.154-1.635.316-2.457.439-.524.078-1.057.093-1.585.137-.774.064-1.546.128-2.32.19-.27.023-.541.04-.858.064 1.061-1.507 2.1-2.984 3.152-4.476A46183.29 46183.29 0 0 1 5 13.292l5.242-1.367-1.357-5.334 4.878 2.384L16.09 4l2.231 5.02 4.922-2.288-1.458 5.307L27 13.509Z"/><path d="m16.237 17.84.75 1.437c.317.606.629 1.215.955 1.815a.409.409 0 0 0 .248.185c1.172.23 2.346.449 3.555.677-.16.175-.303.337-.452.493-.683.719-1.365 1.438-2.053 2.152-.088.09-.123.175-.106.301.093.674.179 1.348.266 2.021.07.54.138 1.08.21 1.651-.077-.034-.14-.059-.2-.089-1.027-.511-2.053-1.025-3.082-1.531a.32.32 0 0 0-.247-.008c-1.028.491-2.052.991-3.077 1.489l-.238.115c.048-.36.09-.695.137-1.031.113-.827.214-1.656.352-2.478.043-.257-.032-.406-.196-.579-.762-.8-1.511-1.612-2.265-2.42-.032-.034-.06-.07-.112-.132l.98-.18c.872-.156 1.742-.314 2.613-.465.117-.02.176-.078.23-.18.544-1.033 1.093-2.061 1.641-3.091.021-.04.047-.078.091-.151Z"/></svg>