<svg viewBox="0 0 32 32"><path d="M13.02 6.287c1.492-.283 3.022-.336 4.537-.249 1.276.089 2.577.241 3.767.739.347.176.772.369.895.77.101.857.044 1.723-.007 2.581 1.306.125 2.62-.323 3.911-.009.288.057.545.205.795.351-.772.876-1.308 1.927-1.78 2.986-.54 1.642-1.29 3.331-2.72 4.389-.958.723-2.201 1.01-3.387.88-.408.533-.922.97-1.359 1.479a1.494 1.494 0 0 0-.339 1.23c.068.453.186.935.51 1.277.521.51 1.368.384 1.893.885.45.423.644 1.038.798 1.62-1.21.777-2.638 1.228-4.082 1.203a8.655 8.655 0 0 1-4.256-1.205c.156-.57.335-1.172.776-1.594.552-.553 1.504-.38 2.007-1.002.315-.432.417-.992.412-1.516-.017-.502-.3-.945-.669-1.265-.364-.341-.685-.724-1.015-1.099-1.08.078-2.201-.169-3.091-.801-1.117-.768-1.852-1.96-2.373-3.188-.264-.604-.396-1.26-.716-1.842-.431-.837-.84-1.717-1.527-2.379.336-.369.861-.429 1.327-.499 1.065-.11 2.123.187 3.192.101a24.014 24.014 0 0 1-.043-2.482c-.007-.285.234-.488.45-.631.63-.402 1.37-.581 2.094-.73Zm.298 1.461c-.174.085-.402.147-.484.338-.014.203.198.321.357.393.505.197 1.046.28 1.581.341a14.75 14.75 0 0 0 3.807-.09c.471-.095.983-.182 1.335-.54-.15-.36-.562-.457-.902-.552-.982-.225-1.996-.271-3-.26-.906.033-1.829.085-2.694.37Zm-3.944 4.533c.23 1.352.55 2.733 1.335 3.88a3.617 3.617 0 0 0 2.198 1.513c-1.028-1.618-1.704-3.445-2.076-5.32l-1.457-.072Zm12.533.085c-.383 1.883-1.07 3.71-2.105 5.333.751-.125 1.48-.458 1.987-1.038 1.099-1.193 1.474-2.83 1.74-4.383-.541.037-1.082.061-1.622.088Z"/></svg>