<svg viewBox="0 0 32 32"><path d="M19.179 13.813h8.333c1.006 0 1.822.83 1.822 1.853s-.816 1.853-1.822 1.853h-8.333l4.445 7.703a1.857 1.857 0 0 1-.644 2.517l-.01.006-.008.005a1.804 1.804 0 0 1-2.483-.666L16 19.322l-4.479 7.762a1.804 1.804 0 0 1-2.483.666l-.008-.005a1.858 1.858 0 0 1-.66-2.513l.006-.01 4.445-7.703H4.488c-1.006 0-1.822-.83-1.822-1.853s.816-1.853 1.822-1.853h8.333L8.376 6.11a1.857 1.857 0 0 1 .644-2.517l.01-.006.008-.005a1.804 1.804 0 0 1 2.483.666L16 12.01l4.479-7.762a1.804 1.804 0 0 1 2.483-.666l.008.005a1.858 1.858 0 0 1 .66 2.513l-.006.01-4.445 7.703z"/></svg>