<svg viewBox="0 0 32 32"><path d="M4.903 12.822c.064.449.051.905-.037 1.35l-.637 3.183c-.15.748-.095 1.528.248 2.209 1.591 3.16 5.456 7.937 11.523 7.937s9.932-4.776 11.523-7.937c.343-.681.398-1.461.248-2.209l-.637-3.183a4.001 4.001 0 0 1-.038-1.35l.903-6.322-5.489 1.689a1.996 1.996 0 0 1-1.837-.35l-1.126-.901a1.998 1.998 0 0 0-1.249-.438h-4.597c-.454 0-.895.155-1.249.438l-1.126.901a2.001 2.001 0 0 1-1.838.35L3.999 6.5l.903 6.322zM8 16.5c.5-5 5-5 6 0 0 0-1-1-3-1s-3 1-3 1zm16 0s-1-1-3-1-3 1-3 1c.5-5 5-5 6 0zm-8 4c2.5 0 5-1 5-1 0 5.5-10 5-10 0 0 0 2.5 1 5 1z"/></svg>