<svg viewBox="0 0 32 32"><path d="M22.197 24.139c3.708-3.77 4.325-8.581 4.981-10.817a25.869 25.869 0 0 1-4.98-.94l1.561-1.805 2.06-.385L26.907 4l-5.382 3.238.368 1.97-2.027 2.343c-2.92-1.24-4.279-2.627-4.279-2.627s-1.358 1.387-4.279 2.627l-2.02-2.344.367-1.97L4.272 4l1.08 6.187 2.061.384 1.562 1.806a25.805 25.805 0 0 1-4.975.94c.657 2.235 1.274 7.052 4.98 10.816l-2.637 3.05a1.162 1.162 0 0 0 .3 1.614 1.161 1.161 0 0 0 1.613-.3l2.468-2.858c1.313.962 2.91 1.805 4.862 2.44 1.953-.635 3.55-1.478 4.862-2.44l2.468 2.858a1.162 1.162 0 0 0 1.613.3 1.162 1.162 0 0 0 .3-1.613l-2.632-3.045Zm-6.605.752V12.337l8.626 3.668s-5.887.77-2.038 3.64c-3.203 5.4-6.588 5.246-6.588 5.246Z"/></svg>