<svg viewBox="0 0 32 32"><path d="M25.456 11.355C24.586 7.165 20.93 4 16.588 4h-.466c-4.367 0-8.035 3.198-8.884 7.418L5 12.66v5.218l2.051 1.474v2.758s3.658 2.397 9.304 2.397c5.646 0 9.304-2.397 9.304-2.397v-2.69L28 17.877V12.66l-.616-.316V8.126a.747.747 0 0 0-.736-.753.747.747 0 0 0-.736.753v3.463l-.456-.234Zm-2.527 6.76-.32.105c-1.523.498-3.553 1.163-6.27 1.163-2.63 0-4.62-.637-6.124-1.119l-.366-.116v-6.035c1.678-.769 3.874-1.379 6.61-1.379 2.698 0 4.838.6 6.47 1.353v6.029Z"/><path d="M6.507 25.874c.057.031 1.036.556 2.746 1.081A24.28 24.28 0 0 0 16.355 28c2.958 0 5.392-.52 7.102-1.045 1.71-.525 2.688-1.05 2.745-1.081a1.205 1.205 0 0 0 .482-1.607c-.3-.583-1.005-.8-1.57-.493-.056.032-.942.493-2.465.949a22.036 22.036 0 0 1-6.289.901 21.97 21.97 0 0 1-6.434-.944 15.97 15.97 0 0 1-2.196-.843 1.318 1.318 0 0 1-.104-.053l-.02-.01a1.148 1.148 0 0 0-1.57.493c-.31.578-.093 1.3.471 1.607Z"/></svg>