<svg viewBox="0 0 32 32"><path d="M5.03 16.972c.055.46.139.915.18 1.375.011.131.036.258.063.386.394.57.923 1.042 1.522 1.403.606.368 1.438.485 1.933 1.007.275.293.421.647.536 1.015.192.261.324.557.474.856.372.746 1.013 1.338 1.434 2.063.404.699.742 1.431 1.18 2.108.464.72 1.08 1.345 1.909 1.634.86.303 1.773.186 2.633-.058.693-.2 1.751-.258 2.232-.85.466-.574.647-1.348 1.027-1.977.794-1.317 1.511-2.803 2.814-3.7 1.19-1.318 2.66-2.422 3.475-4.069a5.89 5.89 0 0 0 .62-2.596c-.042-.12-.087-.238-.13-.358-.1-.289-.152-.547-.292-.784-.08-.134-.18-.258-.264-.389-.146-.137-.3-.268-.446-.405-.338-.327-.71-.623-.933-1.042-.167-.317-.279-.657-.467-.96a.968.968 0 0 0-.066-.1 1.505 1.505 0 0 0-.585.203c-.06.097-.115.196-.157.3a3.035 3.035 0 0 0-.146.457c-.02.093-.035.24-.031.278.024.317.282.702.438 1.032.21.437.296.877.199 1.355a2.472 2.472 0 0 1-.226.636c-.13.936-.836 1.878-1.498 2.58-.035-.073-.066-.142-.104-.21a5.03 5.03 0 0 0-1.209-1.48 2.978 2.978 0 0 1-.18-.969c-.025-.928.156-1.895.31-2.803.152-.904.4-1.74.706-2.586.084-.23.157-.464.22-.701-.007-.076-.018-.152-.025-.23-.042-.376-.031-.757-.104-1.125-.08-.413-.29-.712-.592-1.001-.498-.471-1.125-.767-1.707-1.121-.599-.365-1.044-.812-1.532-1.303-.247-.248-.508-.478-.825-.633a3.211 3.211 0 0 0-.547-.193 2.756 2.756 0 0 0-.198.867c.014.244.031.492.076.732.077.41.192.874.376 1.29l.01.017c.04.086.085.172.126.258.087.158.188.303.307.433.407.45 1.062.781 1.225 1.403.004.018.004.031.007.049l.01.01c-.003.007-.003.014-.006.017.118.633-.355 1.166-.568 1.726-.136.355-.275.705-.418 1.053-.097.474-.163.952-.198 1.437-.306.674-.557 1.369-.596 2.088a9.67 9.67 0 0 0-.773.041c-.107-.083-.215-.162-.32-.251l-.167-.144a8.853 8.853 0 0 1-.484-.73c-.049-1.004.285-2.004.682-2.93a3.26 3.26 0 0 0 .136-.711c.035-.461.192-.864.063-1.31-.007-.007-.01-.014-.017-.018-.216-.203-.492-.41-.798-.395a.596.596 0 0 0-.33.123 1.963 1.963 0 0 0-.276.265c-.08.09-.157.176-.233.265-.077.327-.23.647-.376.939-.004.003-.007.007-.007.01-.025.086-.046.172-.07.255-.052.179-.111.357-.167.536a5.067 5.067 0 0 0-.111-.237c-.157-.31-.3-.633-.394-.966a.487.487 0 0 1-.066-.117c-.01-.018-.021-.031-.031-.052-.248-.492-.007-.863.083-1.348.087-.471-.017-.953.129-1.417.122-.385.359-.708.679-.956a1.79 1.79 0 0 1 .14-.093c.142-.299.316-.588.448-.877.091-.196.182-.409.22-.643-.004.004.007-.113.007-.13 0-.018-.007-.073-.007-.08-.007-.03-.021-.072-.024-.089a.513.513 0 0 1-.042-.069c-.303-.371-.766-.302-1.16-.12-.06.103-.111.21-.164.32-.048.106-.094.216-.15.32-.03.058-.069.113-.1.171-.004.004-.004.007-.004.01l-.028.028-.07.07-.034.023c-.021.014-.042.028-.063.038a3.27 3.27 0 0 1-.306.158c-.206.096-.422.179-.617.303-.372.237-.717.595-.846 1.018l-.01.01a1.812 1.812 0 0 1-.188.506l-.052.106-.021.062-.028.093a3.281 3.281 0 0 0-.084.485c-.045.399-.063.794.007 1.193.052.31.112.623.136.936.202.732.272 1.502.38 2.262.118.833.285 1.655.39 2.483l.038.131c.122.337.268.67.369 1.014.01.035.02.073.031.107.007.01.01.02.018.031.275.46.564.874.78 1.369.428.99.752 2.153.707 3.236a.313.313 0 0 1-.227.292c-1.361.337-2.03-1.83-2.496-2.696-.488-.911-1.202-1.716-1.338-2.775-.038-.31-.045-.623-.108-.929-.055-.278-.132-.55-.163-.832-.07-.626.017-1.245.167-1.85.007-.02.017-.038.024-.055.032-.213.077-.427.143-.647a.762.762 0 0 0-.073-.656 1.555 1.555 0 0 0-.244-.09c-.049-.014-.1-.024-.153-.038a.14.14 0 0 1-.038-.01h-.157l-.08.017c-.345.107-.7.368-.958.66-.108.12-.226.303-.31.485a3.749 3.749 0 0 0-.188.633c-.055.272-.104.537-.17.801-.098.826-.13 1.661.031 2.46.198.976.61 1.894 1.038 2.805-.38-.206-.76-.409-1.142-.615a5.736 5.736 0 0 1-.202-.11.571.571 0 0 1-.324-.13c-.035-.032-.066-.066-.098-.097l-.017-.01-.063-.038-.003-.035a2.555 2.555 0 0 1-.244-.299 1.508 1.508 0 0 1-.136-.227c-.02-.038-.038-.079-.056-.117l-.031-.075c-.017-.045-.038-.087-.056-.131-.076-.196-.097-.406-.118-.612-.004-.028-.004-.162-.004-.048 0-.042-.017-.09-.027-.135-.042-.03-.084-.058-.126-.089a1.05 1.05 0 0 0-.414-.02 1.88 1.88 0 0 0-.345.512c-.17.35-.157.677-.111 1.042Z"/></svg>