<svg viewBox="0 0 32 32"><path d="m8.004 5 16.289 16.232-2.924 2.913-12-11.957C7.16 9.988 8.004 5 8.004 5Z"/><path d="M27.569 26.574a1.477 1.477 0 0 1-2.081 0l-2.726-2.716a1.465 1.465 0 0 1 0-2.074 1.477 1.477 0 0 1 2.08 0L27.57 24.5a1.465 1.465 0 0 1 0 2.074Z"/><path d="M24.704 17.55c1.345 1.34.863 3.993-1.08 5.925-1.942 1.932-4.605 2.417-5.946 1.077l7.026-7.003ZM23.996 5 7.707 21.232l2.924 2.913 12-11.957C24.84 9.988 23.996 5 23.996 5Z"/><path d="M4.431 26.574a1.477 1.477 0 0 0 2.081 0l2.726-2.716a1.465 1.465 0 0 0 0-2.074 1.477 1.477 0 0 0-2.08 0L4.43 24.5a1.465 1.465 0 0 0 0 2.074Z"/><path d="M7.296 17.55c-1.345 1.34-.863 3.993 1.08 5.925s4.605 2.417 5.946 1.077l-7.026-7.003Z"/></svg>