<svg viewBox="0 0 32 32"><path d="M15.743 3.77c1.788-.39 3.678.785 4.267 2.486.597 1.574-.04 3.486-1.442 4.41-.942.656-2.193.854-3.287.492-.79-.247-1.471-.787-1.936-1.466-.752-1.116-.87-2.634-.271-3.843a3.765 3.765 0 0 1 2.67-2.079Zm-.782 1.99c-.543.23-.912.938-.58 1.482.18.315.538.746.94.514.5-.276.804-.912.653-1.47-.103-.417-.605-.746-1.013-.527Zm-6.802 5.238c1.167.546 2.414.974 3.437 1.78 1.045.76 1.945 1.878 2.021 3.215.057 1.285-.009 2.572.047 3.856.035.381.22.73.26 1.11.111.92-.206 1.811-.346 2.71-.29-.085-.375-.391-.536-.61-.384-.573-1.005-.954-1.67-1.112-.975-.238-1.989-.228-2.975-.395-.123-.004-.194-.113-.276-.187.776-.637 1.539-1.289 2.312-1.93-1.238-.756-2.602-1.43-3.452-2.657 1.38-.063 2.76-.131 4.141-.19-.55-.892-1.14-1.76-1.656-2.673-.351-.636-.911-1.145-1.168-1.836-.141-.343-.136-.718-.14-1.081Zm14.874.84c.535-.264 1.063-.543 1.606-.792.06.048.178.142.238.188-.429 2.043-2.166 3.442-2.855 5.372 1.326.07 2.652.152 3.978.214-.847 1.229-2.211 1.912-3.457 2.658.833.674 1.656 1.36 2.483 2.04-.86.133-1.718.325-2.594.337-.575-.01-1.191.047-1.663.41-.535.377-.727 1.043-1.182 1.493-.256.296-.63.436-.979.59-.273-.937.062-1.895.332-2.791.466-1.292.316-2.684.3-4.028-.019-.706.086-1.406.158-2.106.017-.274.196-.493.339-.712.503-.73.955-1.533 1.688-2.064.48-.372 1.072-.542 1.608-.809Z"/><path d="M13.057 11.373c.396-.17.774.092 1.124.25 1.396.656 3.072.685 4.478.042.288-.12.572-.3.894-.29.412-.01.524.528.469.848-.333.827-.918 1.516-1.438 2.23-.535.772-.436 1.746-.437 2.634-.029.916.116 1.835-.01 2.749-.084.823-.352 1.61-.657 2.375-.483 1.248-.741 2.622-.473 3.95.13.564.04 1.144.031 1.716-.273.108-.58.232-.871.11-.34-.145-.468-.517-.583-.838-.296-.863-.68-1.722-.687-2.65-.01-.573.209-1.114.286-1.676.258-1.61-.009-3.24-.29-4.827-.176-.99-.123-2.02-.441-2.983a3.512 3.512 0 0 0-.78-1.329c-.398-.417-.67-.94-.845-1.485-.096-.283-.038-.659.23-.826Z"/></svg>