<svg viewBox="0 0 32 32"><path d="M26.24 17.121a7.621 7.621 0 0 0-.143-1.964c-.373-1.779-1.327-3.379-2.47-4.784-.586-.723-1.222-1.589-2.113-1.954-.136-.057-.225.05-.23.164a.202.202 0 0 0-.061.178c.1.707.159 1.421.178 2.136a16.616 16.616 0 0 1-1.88-1.197c-1-.756-2.195-1.73-2.513-2.99a6.22 6.22 0 0 1-.353-1.369A3.956 3.956 0 0 1 16.438 4c-.659.391-1.244.885-1.803 1.41-.395.574-.69 1.227-.907 1.88-.012.035-.02.073-.031.107-.384.946-.706 1.915-1.117 2.85-.372.847-.884 1.657-1.652 2.208a2.01 2.01 0 0 1-.279.17 6.605 6.605 0 0 1-.112-.239c-.008-.019-.012-.038-.02-.057a7.314 7.314 0 0 1-.26-.991 5.442 5.442 0 0 1-.073-1.44c.078-.27.17-.536.295-.79.008-.016.004-.028.008-.039a.1.1 0 0 1-.02-.023.442.442 0 0 1-.12-.038l-.02-.011c-.054.026-.108.057-.162.083-.276.137-.57.266-.83.434-.248.16-.48.372-.74.52-.152.126-.303.251-.45.38a10.21 10.21 0 0 0-.772 1.155c-.283.487-.523 1.026-.628 1.574-.5 2.656.004 5.16 1.403 7.47.411.677.888 1.315 1.373 1.95.295.28.609.543.938.779a.03.03 0 0 0 .016.007 8.885 8.885 0 0 0 3.838 2.155c.838.228 1.71.395 2.586.47-.612.107-1.236.18-1.865.176-.771 0-1.558-.076-2.314-.24-.434-.095-.981-.232-1.365-.52l-.128-.042c-.806-.327-1.683-.612-2.334-1.144-1.505-1.223-2.354-2.9-2.889-4.72a44.038 44.038 0 0 1-.418-1.557c-.094-.148-.175-.304-.26-.456a1.04 1.04 0 0 1-.167.095c-.07.828-.155 1.657-.159 2.485-.004 1.178.233 2.367.62 3.48.276.787.648 1.54 1.094 2.242.03.03.058.061.093.092.97.9 2.032 1.649 3.288 2.101.705.25 1.427.467 2.152.665.539.148 1.097.338 1.648.342 1.07.008 2.136.106 3.222-.13 1.357-.292 2.702-.57 3.935-1.207.663-.342 1.338-.696 1.92-1.152.953-.749 1.853-1.57 2.477-2.633.547-.931.985-1.893 1.031-2.987a17.006 17.006 0 0 0-.24-3.743ZM20.959 20.5c-.368.274-.74.544-1.144.753-.744.383-1.52.73-2.315 1.01-1.349.475-2.694.244-3.997-.224a5.655 5.655 0 0 1-1.345-.688 1.366 1.366 0 0 1-.078-.045c-.822-.483-1.59-1.114-2.047-1.942a3.892 3.892 0 0 1-.155-.197c-.016-.016-.035-.03-.05-.05-.028-.053-.059-.102-.086-.156.109-.163.229-.319.345-.479.264-.341.535-.68.818-1.007.555-.634 1.171-1.227 1.885-1.687.69-.448 1.477-.783 2.303-.885.632-.076 1.275-.008 1.911.087a5.999 5.999 0 0 1 2.098 1.133c.461.387.868.85 1.291 1.28a7.2 7.2 0 0 1 .33.354 10.486 10.486 0 0 0-.57-2.102 6.51 6.51 0 0 0-.737-1.383c-.136-.129-.275-.25-.415-.376a8.176 8.176 0 0 0-1.012-.916 14.56 14.56 0 0 0-1.5-1.003l.112.011a11.942 11.942 0 0 1 3.908 1.923c.291.296.55.627.756 1 .155.231.299.467.438.703.555.965.795 2.032.888 3.13A51.092 51.092 0 0 1 20.96 20.5Z"/><path d="M12.778 20.659c.907.502 1.927.89 2.954.908.83.015 1.594-.24 2.319-.593.1-.212.167-.44.205-.684.183-1.143-.205-2.097-1.178-2.75-1.005-.673-2.07-.67-3.121-.07-.974.556-1.548 1.848-1.264 2.923.019.091.054.178.085.266Z"/></svg>