<svg viewBox="0 0 32 32"><path d="M26.941 8.557a.397.397 0 0 0-.39-.177l-4.403.617.28-4.64a.395.395 0 0 0-.701-.211l-3.024 2.496a2.924 2.924 0 0 0-.355-.283c-.484-.332-1.251-.65-2.348-.648-1.097-.001-1.865.316-2.349.648a2.926 2.926 0 0 0-.354.283l-3.024-2.495a.4.4 0 0 0-.425-.131.384.384 0 0 0-.277.342l.28 4.64-4.403-.618a.397.397 0 0 0-.39.177.372.372 0 0 0 .01.417l2.549 3.587-2.108.939a.382.382 0 0 0-.23.352.377.377 0 0 0 .242.344l1.817.739a6.957 6.957 0 0 0-.391.45c-.204.26-.414.562-.576.9-.16.334-.278.706-.278 1.098-.002.34.094.698.317 1.018.084.122.194.22.315.297.18.114.384.183.6.224.215.042.444.06.683.06.26 0 .535-.022.813-.056l-1.41 2.691a.372.372 0 0 0 .045.413.394.394 0 0 0 .405.128l3.074-.798a38.39 38.39 0 0 0-.124.764c-.08.525-.137.974-.153 1.29a2.559 2.559 0 0 0-.003.124c0 .335.062.676.156 1.016.143.512.357 1.024.57 1.496.212.47.421.899.55 1.216.19.467.473.893.866 1.213.392.32.901.521 1.481.52.13 0 .26-.01.396-.03.335-.047.617-.148.846-.296.172-.11.311-.247.417-.396.022-.03.04-.063.059-.093a1.56 1.56 0 0 0 .662.592c.192.093.413.158.664.194.135.019.268.029.396.029a2.31 2.31 0 0 0 1.48-.52c.394-.32.678-.746.866-1.213.172-.424.488-1.043.762-1.7.137-.328.264-.67.358-1.012a3.84 3.84 0 0 0 .157-1.016c0-.042-.002-.084-.004-.124a14.768 14.768 0 0 0-.153-1.29 49.038 49.038 0 0 0-.123-.764l3.073.798a.401.401 0 0 0 .406-.128.371.371 0 0 0 .045-.413l-1.41-2.69c.277.033.554.054.812.054.32 0 .62-.028.893-.11.137-.042.269-.097.388-.173.12-.076.23-.175.314-.297a1.76 1.76 0 0 0 .317-1.018c0-.392-.118-.764-.278-1.099-.243-.502-.59-.936-.878-1.25-.031-.034-.06-.067-.09-.097l1.818-.739a.385.385 0 0 0 .24-.344.377.377 0 0 0-.228-.352l-2.108-.939 2.548-3.587a.362.362 0 0 0 .018-.42Zm-4.619 8.688c-1.232-.487-2.003-.84-2.358-1.166-.27-.223-.858-.739-1.304-1.133a6.376 6.376 0 0 1-.766 1.904c.69.7 1.392 4.288 1.58 5.9.189 1.612-.906 3.27-1.22 4.03-.313.759-1.09 1.276-.907-2.192.094-1.78.408-1.048.094-1.78-.313-.73-1.44-2.645-1.44-2.645s-1.128 1.917-1.44 2.648c-.314.73 0 0 .093 1.78.182 3.467-.595 2.95-.907 2.19-.313-.761-1.408-2.417-1.22-4.03.188-1.611.891-5.201 1.58-5.9a6.731 6.731 0 0 1-.783-1.886c-.444.392-1.02.897-1.287 1.116-.354.323-1.126.68-2.358 1.166-1.232.488-2.963.851-1.712-.323a17.92 17.92 0 0 1 2.691-2.039s.813-2.048 1.732-3.081c.644-.727 1.772-.613 2.387-.48a2.216 2.216 0 0 1-.53-1.465c0-1.13.785-2.048 1.753-2.048.967 0 1.753.917 1.753 2.048 0 .575-.204 1.094-.531 1.465.615-.131 1.743-.245 2.388.48.918 1.033 1.731 3.081 1.731 3.081s1.44.863 2.691 2.039c1.254 1.172-.478.807-1.71.322Z"/></svg>