<svg viewBox="0 0 32 32"><path d="M6.02 7.833c-.17-1.635.764-3.746 2.659-3.692 5.991-.296 12-.018 17.991-.117v23.947c-5.99-.09-11.99.18-17.964-.108-1.904.072-2.856-2.048-2.686-3.674a1651.36 1651.36 0 0 1 0-16.356Zm14.848-1.841c1.464 1.14 2.811 2.425 3.97 3.87-.045-1.257-.072-2.523-.099-3.78a139.158 139.158 0 0 1-3.871-.09Zm-8.407 7.212c1.697.656 2.937 1.913 3.71 3.557.628-1.76 1.975-3 3.736-3.575-1.869-.512-3.297-1.859-3.79-3.754-.54 1.814-1.851 3.143-3.657 3.772Zm8.389 7.698c1.293-.036 2.587-.072 3.89-.099.026-1.266.062-2.533.116-3.8a22.855 22.855 0 0 1-4.006 3.899ZM9.28 26.237c4.797.405 9.63-.053 14.435.234-.53-1.114-.52-2.219.027-3.332-4.698.206-9.413-.198-14.102.18-1.473.197-1.76 2.29-.36 2.919Z"/></svg>