<svg viewBox="0 0 32 32"><path d="M21.783 17.152v-1.78c.548-.191 2.395-.72 3.207.537 0-2.528-2.544-2.9-3.207-2.957v-1.21c0-.366-.039-.728-.106-1.075.596-.42 2-1.22 3.058-.372-.803-2.414-3.356-1.962-3.99-1.81a5.78 5.78 0 0 0-.578-.695c.048-.37.409-2.523 2.034-2.633-2.125-1.152-3.63.614-4.092 1.272a5.7 5.7 0 0 0-1.102-.305c-.235-.61-.75-2.3.428-3.124-2.452.11-2.789 2.448-2.832 3.214a5.665 5.665 0 0 0-1.337.515c-.553-.296-2.116-1.258-1.75-2.672-1.76 1.624-.573 3.576-.082 4.233a5.82 5.82 0 0 0-.765 1.305c-.615.067-2.472.143-2.972-1.238-.6 2.6 2.087 3.486 2.544 3.614v2.153c-.505.18-2.409.757-3.241-.524 0 2.576 2.63 2.914 3.241 2.957V18.7c-.505.181-2.409.757-3.241-.524 0 2.576 2.63 2.915 3.241 2.957v1.957L16.21 29l5.583-5.91v-3.509c.549-.19 2.395-.72 3.208.538-.01-2.538-2.549-2.91-3.217-2.967Zm-2.116 4.538v.172l-.866-5.09v-4.843c0-.762-.312-1.448-.822-1.953a2.807 2.807 0 0 0-1.972-.814c-.77 0-1.462.31-1.972.814a2.753 2.753 0 0 0-.822 1.953v4.838l-.865 5.1v-9.938c0-1.996 1.644-3.62 3.654-3.62 2.015 0 3.655 1.63 3.655 3.62v9.761h.01Zm-4.819-9.419c0-.638.52-1.152 1.164-1.152.644 0 1.164.514 1.164 1.152 0 .638-.52 1.153-1.164 1.153a1.156 1.156 0 0 1-1.164-1.153Z"/></svg>