<svg viewBox="0 0 32 32"><path d="M16.4 4a.8.8 0 0 1 .8.8v1.274a9.605 9.605 0 0 1 8.326 8.327L27.2 14.4a.8.8 0 0 1 .8.8v.8a.8.8 0 0 1-.8.8h-1.674a9.605 9.605 0 0 1-8.326 8.326V27.2a.8.8 0 0 1-.8.8h-.8a.8.8 0 0 1-.8-.8v-2.074A9.605 9.605 0 0 1 6.475 16.8H4.8A.8.8 0 0 1 4 16v-.8a.8.8 0 0 1 .8-.8h1.674a9.605 9.605 0 0 1 8.327-8.326L14.8 4.8a.8.8 0 0 1 .8-.8h.8Zm.8 4.5v4.534a.4.4 0 0 1-.117.283L16 14.4l-1.083-1.083a.4.4 0 0 1-.117-.283V8.5a7.206 7.206 0 0 0-5.9 5.9h4.134a.4.4 0 0 1 .283.117L14.4 15.6l-1.083 1.083a.4.4 0 0 1-.283.117H8.9a7.206 7.206 0 0 0 5.9 5.9v-3.734a.4.4 0 0 1 .117-.283L16 17.6l1.083 1.083a.4.4 0 0 1 .117.283V22.7a7.207 7.207 0 0 0 5.9-5.9h-4.134a.4.4 0 0 1-.283-.117L17.6 15.6l1.083-1.083a.4.4 0 0 1 .283-.117H23.1a7.206 7.206 0 0 0-5.9-5.9Z"/></svg>