<svg viewBox="0 0 32 32"><path d="M16.354 5.714c.926-.611 2.07-.78 3.16-.692.216.022.487.012.615.226.352.485.541 1.064.857 1.572-.858.207-1.702.489-2.578.614-.3.051-.585-.11-.784-.323-.44-.45-.85-.928-1.27-1.397Zm-5.796.482c.2-.558.822-.834 1.38-.87 2.044-.217 4.05.99 5.093 2.71-.707.355-1.398.753-2.145 1.018-.31.12-.63-.05-.92-.15-.84-.354-1.703-.662-2.486-1.13-.565-.31-.859-.96-.922-1.578Z"/><path d="M8 7.962c1.952-.01 3.932.541 5.5 1.728 1.711 1.283 2.862 3.149 3.775 5.051.36-.211.009-.584-.06-.871-.492-1.408-1.245-2.697-1.965-3.997 1.62-.719 3.281-1.38 5.031-1.701a14.455 14.455 0 0 1 3.499-.22c-.464.525-.85 1.133-1.446 1.523-.897.618-1.31 1.719-1.406 2.769-.174 1.587-.476 3.3-1.63 4.494-.627.707-1.516 1.07-2.34 1.489.002 1.563.003 3.127 0 4.691.615-1.097 1.57-2.033 2.768-2.466.972-.361 2.032-.4 3.056-.31-.053 1.226-.609 2.459-1.61 3.194-.78.6-1.788.855-2.764.798-.515-.017-1.145-.036-1.491.42-.472.679-.395 1.551-.648 2.309-.12.446-.569.655-.89.938-.148-.32-.347-.626-.4-.979-.026-.937.462-1.811.387-2.75a1.593 1.593 0 0 0-.682-1.212c-.49-.36-1.116-.41-1.675-.612-.946-.335-1.838-.936-2.341-1.824-.387-.649-.537-1.412-.525-2.161.897-.269 1.94-.302 2.737.26 1.256.869 1.992 2.267 2.712 3.572.003-1.21.017-2.419-.016-3.627-.336-.336-.83-.348-1.256-.495-1.172-.368-2.206-1.205-2.73-2.326-.614-1.157-.526-2.512-.936-3.733-.359-1.295-1.112-2.5-2.215-3.286-.245-.145-.336-.419-.439-.666Z"/></svg>