<svg viewBox="0 0 32 32"><path d="M15.95 4.571c1.382 1.078 2.68 2.28 3.778 3.648.44.669.992 1.278 1.294 2.027-1.1.084-2.203-.073-3.305-.055-1.725-.029-3.433.36-5.038.971-.647.242-1.225.623-1.83.945.111-.457.305-.9.635-1.243C12.73 9.468 14.122 8.17 15.07 6.54c.37-.62.639-1.29.878-1.968Zm1.995 7.051c1.582-.124 3.207.146 4.623.873.666.396 1.29.864 1.878 1.366-.451.256-.996.179-1.493.158a13.607 13.607 0 0 0-7.977 1.481c-1.248.646-2.26 1.634-3.257 2.604-.462.488-.94.97-1.265 1.565-.57 1.048-.965 2.209-1.019 3.41-.002.173-.195.04-.24-.037-1.029-.938-1.184-2.466-.996-3.77.295-1.546 1.14-2.936 2.165-4.108.986-1.068 2.112-2.047 3.447-2.648 1.296-.588 2.722-.825 4.134-.894Z"/><path d="M19.182 16.39c1.797-.234 3.688.459 4.917 1.79.72.757.938 1.949.522 2.91-.36-.374-.666-.821-1.137-1.065-.72-.4-1.574-.384-2.374-.39-1.695.058-3.188.964-4.636 1.753a4.21 4.21 0 0 0-1.734 1.655c-.385.865.39 1.88 1.281 1.957 1.077.117 2.089-.417 2.96-.991.267-.156.385-.452.512-.717-.346-.426-.98-.205-1.456-.317.116-.39.516-.577.852-.747.84-.33 1.752-.532 2.659-.445.595.064 1.056.556 1.25 1.098.188.543-.02 1.133-.319 1.595-.717 1.093-1.808 1.91-3.015 2.39-1.232.492-2.563.716-3.886.741-.446.027-.862-.147-1.258-.328-1.114-.45-1.882-1.494-2.282-2.596-.33-1.028-.422-2.187-.002-3.205.36-.919 1.074-1.624 1.725-2.341.77-.86 1.659-1.647 2.726-2.118.841-.4 1.774-.546 2.695-.63Z"/></svg>