<svg viewBox="0 0 32 32"><path d="M21.922 5.263v2.759h-1.679v8.309l4.192 6.103c1.066 1.682.58 3.919-1.085 4.995a3.554 3.554 0 0 1-1.929.57H10.579C8.602 27.999 7 26.38 7 24.383c0-.691.196-1.367.565-1.95l4.285-6.239V8.021h-1.679V5.262h11.751zm-3.824 15.792c-1.082 0-1.959.894-1.959 1.998s.877 1.998 1.959 1.998 1.959-.894 1.959-1.998-.877-1.998-1.959-1.998zm-3.823-3.615c-.876 0-1.585.724-1.585 1.617s.71 1.617 1.585 1.617c.876 0 1.585-.724 1.585-1.617s-.71-1.617-1.585-1.617zm3.45-1.902c-.567 0-1.026.468-1.026 1.046s.459 1.046 1.026 1.046 1.026-.468 1.026-1.047c0-.578-.459-1.046-1.026-1.046z"/></svg>