<svg viewBox="0 0 32 32"><path d="m19.472 11 2.917-3.3S21.139 4 16 4 9.611 7.7 9.611 7.7l2.917 3.3h6.944Z"/><path d="M12.528 13.054 6 6.012v2.3l4.861 8.335 3.056 2.155L16 23.832l2.083-5.03 3.056-2.155L26 8.31V6.012l-6.528 7.042h-6.944Z"/><path d="m8.343 14.9 1.389 2.412a.15.15 0 0 1 .018.072v1.194c0 .045.02.087.054.115l2.97 2.243c.02.017.036.039.045.064l1.62 4.503a.14.14 0 0 0 .13.094h2.862a.14.14 0 0 0 .13-.094L19.182 21a.145.145 0 0 1 .045-.064l2.97-2.243a.147.147 0 0 0 .054-.115v-1.194a.15.15 0 0 1 .018-.072l1.39-2.412c.07-.129.259-.049.259.1v4.698a.15.15 0 0 1-.025.082l-5.35 8.157a.137.137 0 0 1-.115.063h-4.854a.137.137 0 0 1-.114-.063L8.108 19.78a.15.15 0 0 1-.025-.082V15c0-.149.19-.229.26-.1Z"/></svg>