<svg viewBox="0 0 32 32"><path d="M13.734 6.008c1.836-.015 3.67-.004 5.505-.007.003.599 0 1.196.003 1.795-1.465 1.472-2.938 2.935-4.403 4.407 1.572 1.58 3.164 3.143 4.721 4.738 1.487-1.473 2.954-2.968 4.447-4.433.59.006 1.18.002 1.77.003-.003 1.846.012 3.693-.008 5.54-1.447 1.424-2.873 2.87-4.313 4.303-.098.118-.27.058-.4.075-2.03-.01-4.058.006-6.086-.007-1.132 1.108-2.242 2.24-3.367 3.356-.461 0-.921.005-1.383-.005a760.083 760.083 0 0 0-4.213-4.21c-.013-.463-.004-.926-.006-1.387 1.116-1.123 2.242-2.235 3.354-3.362-.006-2.099 0-4.197-.003-6.296-.023-.144.109-.224.191-.317 1.4-1.395 2.8-2.79 4.19-4.193Z"/></svg>