<svg viewBox="0 0 32 32"><path d="M20.517 4c3.45 1.513 5.944 3.518 7.483 6.016-.909 1.572-2.064 2.727-3.465 3.465l-1.542-.75.42 7.417c-2.065 1.53-4.125 2.568-6.18 3.113 1.795-.092 3.775-.562 5.941-1.41.789 1.17 1.243 2.427 1.361 3.773C22.586 27.208 19.741 28 16 28h-.112c-3.685-.016-6.493-.808-8.423-2.376.118-1.346.572-2.604 1.361-3.773 2.166.848 4.146 1.318 5.941 1.41-2.021-.536-4.046-1.549-6.077-3.037l-.103-.076.42-7.417-1.542.75C6.064 12.744 4.909 11.589 4 10.017c1.538-2.498 4.033-4.503 7.483-6.016-.303.478-.492 1.76-.567 3.847 1.334-1.328 3.004-2 5.009-2.016H16c2.039 0 3.734.672 5.085 2.016-.075-2.087-.265-3.369-.567-3.847zm-4.581 4.326c-1.412 0-2.771.736-4.078 2.208.97 1 2.33 1.5 4.078 1.5s3.15-.5 4.205-1.5c-1.391-1.472-2.793-2.208-4.206-2.208z"/></svg>