<svg viewBox="0 0 32 32"><path d="M24.864 17.04c-.02-.034-.038-.07-.058-.102-.13-.226-.267-.45-.41-.677-.016-.026-.035-.051-.05-.077a17.256 17.256 0 0 0-.402-.594c-.028-.041-.06-.083-.089-.128A17.05 17.05 0 0 0 23 14.36c.817.524 1.59 1.112 2.388 1.729.86.655 1.473 1.453 2.558 2.166.258-2.582-1.746-4.825-3.35-6.594-1.61-1.78-3.416-2.84-5.563-3.809a21.092 21.092 0 0 0-6.74-1.767 20.487 20.487 0 0 0-3.458-.025c-1.145.108-2.297.28-3.407.68 2.173.85 4.224 1.54 6.228 2.281.21.077.414.154.624.23-.181.004-.363.01-.544.023-.029.003-.054.003-.083.003-.226.016-.455.035-.687.064l-.15.02c-.47.057-.95.14-1.443.248-.051.013-.105.023-.156.035a17.671 17.671 0 0 0-1.524.422l-.146.048a22.045 22.045 0 0 0-.916.332c-.239.093-.478.189-.72.294-.034.016-.07.03-.104.045-.264.115-.531.24-.802.367l-.178.087c-.27.13-.547.271-.827.421.067.275.14.54.216.806l.07.236c.054.182.108.364.166.54l.086.259c.057.172.117.341.178.508l.082.23c.08.214.163.421.245.626l.029.07c.095.227.19.447.29.665.028.064.057.121.085.185.073.153.147.307.223.457l.108.21c.073.141.146.279.223.416.035.064.07.128.108.192.092.16.184.316.28.473l.057.095c.115.186.236.365.353.537l.096.134c.089.128.18.256.273.377.042.058.086.112.127.167.086.111.175.22.261.329l.128.153c.101.121.203.236.308.351l.086.096c.134.144.267.285.407.422.032.032.064.06.092.09.108.105.213.204.322.303l.14.125c.098.086.197.169.295.252.048.038.096.08.144.118.108.09.219.173.33.259.035.025.07.054.105.08.147.108.296.214.446.316.025.02.054.035.08.051.123.083.247.16.371.237l.147.086c.105.064.213.124.32.185.052.029.103.058.154.083.114.061.229.122.343.18.042.018.083.04.124.06.156.077.315.15.474.22.016.007.032.013.045.02a12.114 12.114 0 0 0 .575.23c.115.041.226.083.34.121.055.02.106.035.16.054.117.039.235.077.353.112l.133.042a15.568 15.568 0 0 0 1.12.274c.118.023.236.048.353.067l.16.03a13.451 13.451 0 0 0 .976.127h.006a22.32 22.32 0 0 0 .623.048c.122.006.242.013.36.016.051.003.105.003.156.003.114.003.23.006.347.006h.136c.188 0 .379-.003.564-.01l.095-.002c.165-.007.33-.016.496-.029l.105-.006a15.528 15.528 0 0 0 1.133-.125c.031-.003.063-.01.095-.013a14.135 14.135 0 0 0 .636-.105c.156-.029.309-.058.461-.09.029-.006.058-.013.083-.016a19.669 19.669 0 0 0 1.053-.262l.067-.019c.162-.045.318-.093.477-.144.035-.01.07-.022.105-.031.14-.045.28-.093.417-.141l.054-.02a18.042 18.042 0 0 0 .54-.204c.134-.054.264-.105.395-.163l.035-.016c.137-.06.27-.121.4-.182.033-.013.061-.029.093-.045.124-.06.245-.118.363-.182l.019-.01c.12-.063.238-.127.356-.194l.08-.048c.114-.067.225-.131.33-.198v-.003c-.032-.176-.07-.358-.111-.54l-.038-.157c-.038-.15-.08-.303-.124-.46-.013-.041-.023-.086-.035-.128a14.543 14.543 0 0 0-.194-.6c-.013-.042-.032-.083-.045-.125-.06-.17-.124-.338-.194-.511l-.067-.163a17.368 17.368 0 0 0-.598-1.3c-.025-.048-.05-.1-.076-.147-.108-.18-.213-.37-.321-.56Zm-9.473-5.265c1.409.38 2.66 1.013 3.757 1.796-1.07 3.489-2.714 7.003-4.486 7.799-1.164-1.738-.684-5.77.729-9.595Z"/></svg>