<svg viewBox="0 0 32 32"><path d="m9.3 6.066 5.874 4.032h1.567L16.153 4C10.964 4 9.3 6.066 9.3 6.066ZM7.44 7.541l5.385 3.64-.784.59a6.75 6.75 0 0 0-.391.147c-.123.05-.245.098-.392.148l-6.853 1.377C3.915 11.673 7.44 7.54 7.44 7.54Zm2.545 8.262v-.983l-5.972.983c-.196 4.623 1.86 6.787 1.86 6.787l3.72-5.41c.197-.393.392-.885.392-1.377Zm.979 3.541L7.342 24.46c1.86 2.458 5.972 3.54 5.972 3.54l-1.175-7.082c-.098-.393-.293-.787-.49-.984l-.685-.59Zm5.287 2.558 6.266 4.426S20.56 28 15.762 28l-.783-6.098h1.272Zm4.112-9.05L18.7 4.492s2.937.098 5.776 3.344l-3.622 5.016h-.49Zm1.665 4.033v-1.082L26.14 9.41C28 12.656 28 16.393 28 16.393l-5.972.492Zm-1.763 3.246-1.076.885 5.286 3.738s2.35-2.262 3.035-6.098l-7.245 1.475Z"/></svg>