<svg viewBox="0 0 32 32"><path d="M5.066 5.01c.519.015 1.043-.034 1.56.02.514.208.994.493 1.495.73.006.756-.017 1.515.007 2.271.005.636.755.943.772 1.573.018 1.494-.001 2.988.008 4.483-.003.357.023.727-.099 1.07-.304.878-1.217 1.397-1.437 2.319-.107.606-.032 1.227-.055 1.84-.786-.014-1.571.02-2.357.013-.023-2.516.07-5.033.105-7.549l.001-6.77Zm19.114.707c.6-.257 1.14-.772 1.83-.712.367.002.735.006 1.103.003v6.897c.036 2.475.127 4.95.106 7.425-.741-.002-1.482-.027-2.223-.015-.016-.578.038-1.161-.033-1.736-.177-1.142-1.507-1.714-1.55-2.901a650.384 650.384 0 0 1 0-5.075c0-.629.758-.924.759-1.55.022-.779 0-1.558.007-2.336Z"/><path d="M12.045 5.477c.904-.004 1.806-.135 2.708-.099.323.242.502.618.693.963a3.43 3.43 0 0 0-.805 1.785 5.383 5.383 0 0 1 2.905-.034c-.115-.644-.379-1.26-.814-1.75.224-.343.382-.792.768-.983.88.02 1.76.088 2.64.128.003 1.413 0 2.825 0 4.238-.024.231.15.402.259.585.216-.24.435-.479.664-.707.003-1.249 0-2.498 0-3.748h2.708c-.015.764.033 1.53-.021 2.292-.134.342-.452.565-.605.896-.159.28-.145.608-.148.918.006 1.536 0 3.071.003 4.608a2.385 2.385 0 0 0 .488 1.433c.363.517.894.947 1.059 1.58.087.569.022 1.147.04 1.72-.883-.298-1.763-.61-2.645-.916-.289-.672-.559-1.352-.856-2.02-.902.413-1.803.824-2.707 1.23.413.332.827.663 1.234 1.001-.014.677.023 1.354-.014 2.03-.282.429-.682.763-1.016 1.15-.207 1.67-.43 3.337-.647 5.006-1.179.002-2.357 0-3.537 0-.192-1.497-.393-2.993-.58-4.492.019-.721-.69-1.098-1.087-1.603-.001-.703.002-1.406-.001-2.108.406-.324.81-.65 1.22-.971-.94-.438-1.884-.863-2.828-1.29-.294.69-.583 1.383-.874 2.076-.84.274-1.669.584-2.507.86.052-.763-.185-1.642.335-2.296.491-.658 1.182-1.266 1.235-2.143.043-1.45.005-2.905.018-4.357-.007-.401.035-.813-.059-1.207-.12-.432-.521-.7-.702-1.097-.064-.764-.008-1.533-.025-2.3h2.585c0 1.248.004 2.497-.002 3.744.24.261.491.514.74.77a.534.534 0 0 0 .168-.397c.011-1.498-.012-2.997.01-4.495Zm1.025 7.392c-.073 1.147.55 2.255 1.496 2.882.283-.86.803-1.643 1.549-2.168.76.521 1.303 1.319 1.568 2.198 1.152-.663 1.777-2.082 1.51-3.381-.19-1.09-1.001-2.007-2.027-2.394-.01.475.006.95-.004 1.426.026.524-.422 1.028-.952 1.04-.525.044-1.017-.398-1.049-.92-.03-.51.003-1.025-.013-1.538-1.188.416-2.044 1.598-2.078 2.855Z"/></svg>