<svg viewBox="0 0 32 32"><path d="m4.324 9.143 1.873-1.841A4.562 4.562 0 0 1 9.395 6h13.21c1.2 0 2.35.468 3.198 1.302l1.873 1.84A4.406 4.406 0 0 1 29 12.286v1.493h-3.391v-3.334h-7.913v3.334h-3.392V16h3.392v3.333h2.287c.366 0 1.383 0 2.35-.176.478-.087 1.15-.252 1.757-.614.648-.386 1.519-1.204 1.519-2.543H29v4.826a4.405 4.405 0 0 1-1.324 3.142l-.743.73A4.562 4.562 0 0 1 23.736 26H8.264a4.558 4.558 0 0 1-3.197-1.302l-.743-.73A4.406 4.406 0 0 1 3 20.826V16h3.391c0 1.339.871 2.157 1.52 2.543.607.362 1.278.527 1.756.614.966.177 1.984.177 2.35.176h2.287v-8.889H6.391v3.334H3v-1.493c0-1.178.476-2.309 1.324-3.142Z"/><path d="M9.783 16.909c-.628-.155-1.13-.428-1.13-.909v-3.333h3.39v4.444c-.403 0-1.439 0-2.26-.202ZM23.348 16c0 .481-.503.754-1.13.909-.822.202-1.858.202-2.262.202v-4.444h3.392V16Z"/></svg>