<svg viewBox="0 0 32 32"><path d="M16.16 4.017a.682.682 0 0 1 .525.489l3.44 13.663h1.833l.373-2.668c.05-.348.38-.61.773-.61.357 0 .66.224.735.528l.015.085.396 3.894 2.75.819v3.687l-6.875 2.457V28c-1.086-.243-2.294-.378-3.621-.405L16 27.59c-1.528 0-2.903.137-4.125.41v-1.639L5 23.904v-3.687l2.75-.82.396-3.893c.035-.347.36-.612.75-.612.393 0 .724.261.773.61l.373 2.667h1.833l3.44-13.663c.088-.352.467-.571.846-.489ZM16 16.414c-1.32 0-2.2 1.166-2.2 2.483v1.655h4.4v-1.655c0-1.38-.88-2.483-2.2-2.483Z"/></svg>