<svg viewBox="0 0 32 32"><path d="M18.302 6.012c.217-.403.5-.83.963-.97.55-.134 1.093.088 1.626.197 1.328.309 2.736.612 3.803 1.52 1.41 1.232 1.944 3.293 1.48 5.084-.104.376-.23.818-.614.998-.309.132-.653.027-.964-.046-1-.26-1.986-.645-2.8-1.296-.671-.502-1.173-1.195-1.578-1.921-.318-.514-.211-1.164-.06-1.715.067-.283.342-.45.623-.447.983-.034 1.941.472 2.54 1.241.48.623.809 1.347 1.112 2.068.392-1.908-1.016-3.89-2.887-4.292-.646-.142-1.4-.098-1.916.361-.444.381-.62.999-.548 1.568.152 1.25.703 2.477 1.642 3.332.864.805 1.997 1.216 3.09 1.604.867.332 1.838.516 2.512 1.207-.3.317-.585.704-1.04.797a37.356 37.356 0 0 1-3.191.738c-.988.195-1.9-.34-2.712-.829-1.423-.905-2.55-2.207-3.446-3.623-.327-.524-.088-1.184.187-1.678.698-1.315 1.471-2.587 2.178-3.898ZM14 11.813c.401-.182.865.065 1.1.4 1.204 1.613 2.641 3.08 4.365 4.138.215.147.465.33.479.617.023.354-.28.601-.513.82a38.933 38.933 0 0 0-1.986 1.83c-.326.332-.658.74-1.15.807-.489.059-.916-.237-1.301-.497-1.604-1.106-2.733-2.768-3.536-4.519-.183-.367.053-.758.137-1.122.322.17.713.293.882.65a5.075 5.075 0 0 0 2.774 2.272c-.677-1.008-1.413-1.98-2.031-3.027-.458-.816-.095-2 .78-2.369Zm-4.278 4.642c.265-.164.569-.394.898-.292.318.103.43.453.577.718a8.71 8.71 0 0 0 3.14 3.6c.273.186.622.37.686.726.046.326-.164.613-.325.879-.84 1.246-1.677 2.5-2.38 3.83-.265.527-.833.93-1.442.83-.801-.11-1.58-.336-2.366-.524.344-.87.694-1.737 1.03-2.61l-.274-.022c-.58.438-1.055 1.012-1.684 1.388-.189.11-.397.202-.62.195-.44-.358-.436-.946-.44-1.462-.002-.402-.392-.594-.722-.699-.457-.138-.657-.63-.736-1.059a3.775 3.775 0 0 1 .518-2.56c.234-.39.648-.603 1.013-.845a87.26 87.26 0 0 0 3.127-2.093Z"/></svg>