<svg viewBox="0 0 32 32"><path d="m23.68 11.576-1.534 1.563a7.218 7.218 0 0 1 .956 3.606c0 1.99-.784 3.773-2.063 5.077-1.28 1.3-3.033 2.104-4.98 2.104-1.952 0-3.7-.804-4.98-2.104a7.205 7.205 0 0 1-2.064-5.077 7.2 7.2 0 0 1 2.064-5.077c1.28-1.3 3.033-2.104 4.98-2.104a6.89 6.89 0 0 1 3.747 1.107l-1.184 1.208a5.326 5.326 0 0 0-2.559-.659 5.36 5.36 0 0 0-3.83 1.616 5.565 5.565 0 0 0-1.585 3.905c0 1.52.608 2.907 1.585 3.904a5.354 5.354 0 0 0 3.83 1.616c1.49 0 2.852-.619 3.83-1.616a5.565 5.565 0 0 0 1.585-3.904 5.56 5.56 0 0 0-.534-2.376l-2.486 2.534a2.441 2.441 0 0 1-.693 1.568 2.367 2.367 0 0 1-3.395 0 2.46 2.46 0 0 1-.702-1.73c0-.681.267-1.283.702-1.731a2.367 2.367 0 0 1 1.878-.707l-.512.523a1.199 1.199 0 0 0 0 1.664 1.144 1.144 0 0 0 1.632 0l.836-.852 2.175-2.218 1.164-1.186 1.688-1.717v-.004h4.437L25.45 8.247l2.546-2.596c-.285-.29-.38-.364-.827-.82-.448-.458-.504-.51-.815-.831l-2.533 2.582-2.21-2.253v3.865A9.9 9.9 0 0 0 16.06 6.49a9.935 9.935 0 0 0-7.112 3.004A10.327 10.327 0 0 0 6 16.745c0 2.828 1.129 5.402 2.947 7.251A9.95 9.95 0 0 0 16.059 27a9.935 9.935 0 0 0 7.112-3.004 10.327 10.327 0 0 0 2.947-7.25c0-1.885-.509-3.65-1.379-5.17h-1.06Z"/></svg>