<svg viewBox="0 0 32 32"><path d="M17.36 21.507a4.298 4.298 0 0 0-3.364 1.619L17.36 27l3.363-3.874a4.308 4.308 0 0 0-3.363-1.62Zm5.418-11.352C22.571 5.756 17.857 5 17.857 5v3.918c.006 0-.007 0 0 0V19.66a6.052 6.052 0 0 1 1.505.311l3.416-9.816Zm-10.86-.056.02.056 3.416 9.816a6.183 6.183 0 0 1 1.505-.311V8.918c-2.95-2.89-5.896-1.416-5.896-1.416l.394.99.56 1.607Zm-.871.545c-.004 0 0 0 0 0-4.655-1.486-7.047.98-7.047.98l2.813 3.225 5.946 6.852a6.196 6.196 0 0 1 1.678-1.318l-3.39-9.74Zm13.64-2.77-1.018 2.77-3.387 9.735a6.25 6.25 0 0 1 1.679 1.318l5.946-6.851c.76-4.182-3.22-6.972-3.22-6.972Z"/></svg>