<svg viewBox="0 0 32 32"><path d="M14.607 25.4c-2.299-1.05-7.503-3.697-8.191-7.65-.813-4.665-.214-6.532-.029-7.109l.029-.091c.406 1.05 1.395 2.7 3.018 3.15-.431-2.25.431-3.6 2.156-5.4 2.093-2.185 3.906-4.5 4.311-6.3.406 1.8 2.218 4.115 4.311 6.3 1.725 1.8 2.587 3.15 2.156 5.4 1.623-.45 2.612-2.1 3.018-3.15l.029.091c.185.576.784 2.443-.029 7.109-.689 3.953-5.892 6.6-8.192 7.65 0 2.16-.431 3.6-1.293 3.6s-1.293-1.44-1.293-3.6zm-3.025-11.212c-1.174 1.126 0 2.555.533 3.066l3.729 3.067 4.262-3.578c.533-.511 1.066-1.533 0-2.556-1.224-1.174-3.374.171-4.262 1.022-.888-.852-2.664-2.555-4.262-1.022z"/></svg>