<svg viewBox="0 0 32 32"><path d="m20.213 7.032 5.679-1.75C15.105 1.3 8.243 7.416 8.145 12.378l.157-6.173c-9.583 11.154-.887 19.77 4.22 20.558l-6.527.423c12.956 5.827 19.857-3.904 19.522-7.866l1.854 5.193c3.963-14.058-3.924-17.808-7.158-17.481Zm-.69 13.712c-.612 2.269-1.046 4.115-4.161 3.692-3.155-.365-.79-2.558-2.998-3.904-3.372-2.038-5.58-2.115-3.253-6.75 1.538.788-.138 2.115 1.912 3.538 6.113 3.328 7.71-6.038-.197-6.25 2.445-2.23 5.522-2.019 7.395 3.577 1.518-1.269 1.065-3.769-1.163-5.192 5.698.27 3.588 6.365 3.588 6.365 2.347-.769 1.874-3.634 1.874-3.634 2.997 2.288-.02 6.827-2.998 8.558Z"/></svg>