<svg viewBox="0 0 32 32"><path d="M28.795 13.54c0-.964-.329-1.877-.894-2.6a4.133 4.133 0 0 0-1-.918l-.264-2.307a.293.293 0 0 0-.205-.246.289.289 0 0 0-.301.097L24.744 9.36c-.018 0-.036-.005-.06-.005h-.004c-.839 0-1.633.264-2.299.718a3.82 3.82 0 0 0-.291-.435 4.09 4.09 0 0 0-1.428-1.159l-.534-2.27a.284.284 0 0 0-.52-.084l-1.177 1.96a4.078 4.078 0 0 0-2.125.885 4.1 4.1 0 0 0-.41.39 4.158 4.158 0 0 0-.411-.394 4.1 4.1 0 0 0-2.126-.885l-1.172-1.942a.284.284 0 0 0-.52.083l-.534 2.271a4.09 4.09 0 0 0-1.428 1.159c-.11.139-.2.282-.292.435a4.041 4.041 0 0 0-2.299-.718H7.11c-.018 0-.037.005-.06.005L5.665 7.57a.28.28 0 0 0-.301-.097.276.276 0 0 0-.2.24l-.265 2.308a4.199 4.199 0 0 0-1.802 4.412 4.19 4.19 0 0 0 1.455 2.377 4.075 4.075 0 0 0 3.44.811h.004a4.02 4.02 0 0 0 1.637-.778c.602.649 1.693 2.034 1.419 3.28-.37 1.702-1.793 1.067-1.793 2.642 0 1.58 1.606 1.785 2.536 1.785h8.211c.93 0 2.536-.204 2.536-1.785 0-1.58-1.419-.945-1.793-2.641-.273-1.247.822-2.632 1.419-3.281a4.085 4.085 0 0 0 2.518.876c.949 0 1.847-.334 2.559-.909a4.181 4.181 0 0 0 1.455-2.368v-.009c.064-.296.096-.598.096-.894ZM8.547 14.703a1.824 1.824 0 0 1-1.437.7 1.81 1.81 0 0 1-1.14-.408 1.864 1.864 0 0 1-.69-1.455c0-.427.147-.834.402-1.159a1.83 1.83 0 0 1 1.045-.658h.004c.128-.028.26-.042.388-.042a1.849 1.849 0 0 1 1.83 1.863c0 .427-.147.835-.402 1.159Zm12.115-2.053a1.85 1.85 0 0 1-1.788 1.464 1.71 1.71 0 0 1-.397-.046 1.813 1.813 0 0 1-1.04-.658 1.876 1.876 0 0 1-.36-1.557 1.85 1.85 0 0 1 1.788-1.464c.132 0 .26.013.387.041h.005a1.82 1.82 0 0 1 1.04.658c.255.325.401.732.401 1.159.01.134-.004.264-.036.403Zm-6.304.76a1.82 1.82 0 0 1-1.437.704 1.81 1.81 0 0 1-1.14-.407 1.86 1.86 0 0 1-.69-1.46c0-.427.147-.834.402-1.159.256-.324.612-.56 1.04-.658h.005a1.81 1.81 0 0 1 1.528.366 1.85 1.85 0 0 1 .689 1.456c.004.426-.142.834-.397 1.158Zm12.115.528a1.85 1.85 0 0 1-1.788 1.465 1.812 1.812 0 0 1-1.437-.7 1.875 1.875 0 0 1-.36-1.557v-.005a1.85 1.85 0 0 1 1.788-1.464c.132 0 .26.014.388.042h.004c.433.097.785.333 1.04.658.255.324.401.732.401 1.158.005.134-.009.269-.036.403Z"/></svg>