<svg viewBox="0 0 32 32"><path d="M16.003 9.756c-1.75 0-3.36.282-4.92 2.665-1.558 2.382-3.5 3.95-6.107 4.945-2.607.995-1.374 2.427.71 2.048 2.082-.379 5.487-1.804 6.528-3.281v4.52s-4.587 2.897-6.056 3.899c-1.47 1.001-1.942 3.949 1.559 3.377 3.5-.571 8.286-1.81 8.286-1.81V9.755Zm0 0c1.75 0 3.36.282 4.92 2.665 1.559 2.382 3.5 3.95 6.108 4.945 2.606.995 1.373 2.427-.71 2.048-2.082-.379-5.488-1.804-6.53-3.281v4.52s4.595 2.903 6.058 3.899c1.47 1.001 1.942 3.949-1.56 3.377-3.5-.571-8.286-1.81-8.286-1.81V9.755Z"/><path d="M16.003 10.141a3.561 3.561 0 0 0 3.552-3.57A3.561 3.561 0 0 0 16.003 3a3.561 3.561 0 0 0-3.552 3.57 3.561 3.561 0 0 0 3.552 3.571Z"/></svg>