<svg viewBox="0 0 32 32"><path d="M21.584 5.097c.663-.217 1.513-.082 1.928.529.417.595.325 1.351.32 2.036.667.01 1.412-.091 1.99.318.807.55.728 1.824.087 2.472-.593.542-1.514.416-2.179.082-.506-.272-1.131-.064-1.5.34-.314.328-.681.733-1.186.657-.638-.099-.947-.796-.976-1.375.068-.637.827-.886.965-1.496.195-.665-.284-1.277-.227-1.941.011-.607.158-1.352.778-1.622Z"/><path d="M16.082 7.242c.956-.299 1.954.108 2.833.478.289.141.752.295.681.704-.16.63-.671 1.14-.679 1.817-.123 1.138.771 2.275 1.925 2.357.724.105 1.364-.288 2-.562.264-.134.614-.074.756.205.39.723.732 1.501.821 2.326.06.52-.1 1.147-.596 1.409-.63.351-1.394.264-2.076.152-2.11-.42-3.994-1.765-5.173-3.552-.772-1.148-1.254-2.518-1.258-3.91-.009-.56.2-1.204.766-1.424Z"/><path d="M12.565 11.057c.264-.743.797-1.34 1.336-1.897.578 2.291 1.715 4.516 3.562 6.039 1.408 1.186 3.155 1.907 4.947 2.28-.019.112-.035.224-.052.337-.764.508-1.518 1.043-2.365 1.406-.966.439-1.8 1.2-2.237 2.174-.404.8-.434 1.788-1.074 2.464-.4.413-1.024.445-1.558.359-1.554-.233-2.953-.992-4.398-1.56-.341.2-.528.616-.407 1.003.178.591.551 1.177.38 1.82-.14.976-1.3 1.715-2.207 1.195-.873-.466-.997-1.554-.935-2.44-.686-.09-1.471.091-2.057-.372-.585-.44-.582-1.277-.369-1.91.219-.64.92-1.024 1.58-.922.673.113 1.324.376 2.019.34.174-.167.347-.333.522-.498C8.1 19.58 7.376 17.9 7.28 16.165c-.03-.517.092-1.092.514-1.431.554-.46 1.317-.46 1.947-.765 1.3-.518 2.32-1.615 2.823-2.912Z"/></svg>