<svg viewBox="0 0 32 32"><path d="M17.927 6.539c.168-.202.303-.483.585-.539.253-.005.496.082.74.138 2.423.59 4.85 1.17 7.274 1.763.307.042.45.422.255.663a1562.98 1562.98 0 0 1-2.473 4.352c-.104.245-.396.314-.632.233-2.09-.521-4.178-1.053-6.27-1.57a1.924 1.924 0 0 1-.574-.276 99.661 99.661 0 0 0-1.736-1.108 652.76 652.76 0 0 0 2.831-3.656Zm-7.361 3.534a4.85 4.85 0 0 1 1.182-.585c.25.093.5.19.73.33 1.467.88 2.938 1.756 4.399 2.648.31.193.696.349.84.714-.054.203-.215.356-.386.465-1.42.857-2.838 1.717-4.261 2.568-.351.204-.679.466-1.074.58-.346.099-.706-.028-1.001-.21C9.4 15.6 7.786 14.65 6.181 13.68c-.191-.111-.328-.29-.469-.455.118-.193.237-.402.446-.51 1.47-.88 2.93-1.775 4.407-2.642Zm16.09.44c.197-.356.335-.749.611-1.056.077.533.022 1.071.023 1.607-.027 1.504-.046 3.01-.101 4.513-.011.347-.033.704-.187 1.023-.533 1.085-1.027 2.19-1.554 3.28-.193.367-.389.748-.727 1.005-.108-1.692-.032-3.391-.055-5.087.03-.7-.112-1.45.216-2.1.598-1.058 1.186-2.122 1.774-3.185Zm-7.618 2.324c1.467.385 2.94.75 4.41 1.125.237.04.41.27.372.51a2075.1 2075.1 0 0 1-.1 6.593c.026.352-.366.553-.669.426-1.142-.294-2.284-.586-3.424-.883.038-2.007.14-4.014.089-6.02-.001-.647-.286-1.25-.678-1.75ZM4.993 14.308c.135-.146.342.031.485.086 1.63.972 3.255 1.956 4.885 2.93.652.38.885 1.177.88 1.89.005 1.574-.034 3.15.002 4.726-.013.462.045.936-.074 1.388-.184.13-.365-.052-.53-.126-1.716-1.038-3.444-2.059-5.158-3.103-.463-.273-.64-.832-.638-1.343-.005-1.872.002-3.744-.004-5.616.029-.274-.05-.61.152-.832Zm12.999.1c.151-.099.33-.137.502-.177.213.379.166.822.171 1.239-.002 1.69-.002 3.379 0 5.068-.004.414-.04.858-.292 1.204-.203.312-.553.473-.86.661-1.591.946-3.174 1.904-4.76 2.857-.125.081-.276.099-.418.13a4.33 4.33 0 0 1-.075-.772c.01-1.841-.004-3.683.007-5.523.007-.692.275-1.442.909-1.797a563.13 563.13 0 0 0 4.816-2.89Z"/></svg>