<svg viewBox="0 0 32 32"><path d="M15.631 10.614c1.008.086 1.908-.876 2.011-2.148s-.63-2.374-1.638-2.46c-1.008-.086-1.908.876-2.011 2.148s.63 2.374 1.638 2.46zm-3.505-.559c.071 1.661-.691 3.044-1.701 3.09s-1.886-1.264-1.957-2.925c-.071-1.661.691-3.044 1.701-3.09s1.886 1.264 1.957 2.925zm4.746 3.795c-.951-.564-2.729-.316-4.636.726-1.384.756-2.456.802-3.334.841-1.058.046-1.834.08-2.535 1.326-1.045 1.859.135 4.125 3.539 5.095.7.199 1.393.438 2.022.812s1.177.871 1.695 1.394c2.519 2.544 5.018 2.461 6.063.602.7-1.246.34-1.954-.15-2.919-.407-.801-.904-1.778-.959-3.387-.076-2.217-.755-3.924-1.706-4.488zm5.045-.877c-1.063.73-2.38.621-2.942-.243s-.155-2.156.908-2.886 2.38-.621 2.942.243.155 2.156-.908 2.886zm-.836 5.743c.599.922 2.132.95 3.424.063s1.854-2.353 1.255-3.274c-.599-.922-2.132-.95-3.424-.063s-1.854 2.353-1.255 3.275z"/></svg>