<svg viewBox="0 0 32 32"><path d="M9.54 9h12.675c1.789 4.356 2.237 11.278 2.237 14H7.303c0-2.722.447-9.644 2.237-14zm2.609 4.667c.618 0 1.118-.522 1.118-1.167s-.501-1.167-1.118-1.167c-.618 0-1.118.522-1.118 1.167s.501 1.167 1.118 1.167zm8.575-1.167c0-.644-.501-1.167-1.118-1.167s-1.118.522-1.118 1.167c0 .644.501 1.167 1.118 1.167s1.118-.522 1.118-1.167zm.745 5.833H10.285v2.722h11.184v-2.722zM6.952 15.556a2.133 2.133 0 0 0-1.03-.098c-1.223.182-2.073 1.364-1.899 2.639.166 1.214 1.2 2.076 2.354 2l.575-4.54zm19.127-.186a2.146 2.146 0 0 0-1.03.098l.575 4.54c1.154.076 2.188-.785 2.354-2 .174-1.276-.676-2.457-1.899-2.639z"/></svg>