<svg viewBox="0 0 32 32"><path d="M23.46 14.054c-.124-.87-.124-2.318-.37-2.455-1.543 1.326-1.206 3.566-1.206 5.018 0 2.636-2.185 2.6-2.185 2.6-2.727-3.193.446-5.726.446-5.726C20.15 6.788 16 4 16 4s-4.15 2.788-4.15 9.491c0 0 3.174 2.533.447 5.725 0 0-2.186.037-2.186-2.6 0-1.447.338-3.691-1.205-5.017-.246.137-.246 1.585-.37 2.455-.122.87-2.036 4.162-2.036 4.162s.83 6.222 7.77 5.122v3.125c0 .848.775 1.537 1.73 1.537s1.73-.689 1.73-1.537v-3.125c6.94 1.096 7.77-5.122 7.77-5.122s-1.918-3.292-2.04-4.162Z"/></svg>