<svg viewBox="0 0 32 32"><path d="M15.13 7h2.151c2.318.23 4.907.755 6.386 2.73 1.192 1.374 1.109 3.29 1.276 4.994 1.703 1.104 3.656 2.213 4.057 4.406v1.23c-.281 2.385-1.99 4.364-4.354 4.87h-8.448c-1.188-1.652-2.583-3.496-2.276-5.662.187-2.782 3.791-4.64 6.088-3.078 1.443 1.474.485 3.468-.791 4.65 4.083.433 3.849-5.541.911-6.833-2.786-1.047-6.4-.24-7.968 2.438-1.058 1.557-.995 3.5-1.074 5.302a38.94 38.94 0 0 1-6.473.005c-.157-.281-.464-.854-.615-1.135V19.16c.276-2.838 3.063-3.859 5.406-4.53C9.422 11.12 11.5 7.67 15.13 7Z"/></svg>