<svg viewBox="0 0 32 32"><path d="M16.193 25.472c-3.144-3.227-6.449-3.315-8.108-3.092l-.268 3.568s3.942-1.5 8.376 3.052c4.433-4.55 8.376-3.052 8.376-3.052L24.3 22.38c-1.658-.223-4.964-.135-8.107 3.092Z"/><path d="M24.143 17.094c.565-.916.883-1.943.883-3.03 0-2.73-2.001-5.09-4.912-6.227L16.193 4l-3.921 3.837c-2.91 1.136-4.912 3.498-4.912 6.228 0 1.086.318 2.113.883 3.03L7 21.4s4.758-1.694 9.193 2.857c4.433-4.55 9.193-2.857 9.193-2.857l-1.243-4.307Zm-12.765-2.887c-.303.684-.472 1.412-.365 2.18.075.536.324 1.009.678 1.401-.9-.415-1.852-1.318-1.92-3.283-.127-3.79 6.188-5.89 6.188-5.89s-3.988 2.811-4.581 5.592Z"/></svg>