<svg viewBox="0 0 32 32"><path d="M20.24 5.385c1.254-.695 2.841-.554 4.055.155 1.166.621 1.972 1.762 2.406 2.988a5.552 5.552 0 0 1-.237 4.175c-.776 1.678-2.315 2.955-4.07 3.508-.651.211-1.333.298-2.012.374-.483.062-.97-.106-1.448.012-.696.148-1.256.675-1.585 1.287-.366.626-.442 1.361-.708 2.025-.573 1.485-1.648 2.726-2.895 3.692A31.014 31.014 0 0 1 9.6 26.303c-.484.273-1.134.136-1.429-.346-.234-.266-.146-.648.074-.892 1.037-1.244 2.11-2.46 3.14-3.71.644-.8 1.34-1.585 1.733-2.548.529-1.253.991-2.564 1.868-3.628a5.683 5.683 0 0 1 3.81-2.18c.905-.155 1.849.077 2.73-.232a2.407 2.407 0 0 0 1.424-1.144c.44-.736.389-1.694.006-2.44-.287-.32-.754-.373-1.127-.554-.192.378-.49.734-.487 1.18-.006.585-.128 1.205-.536 1.65-.774.816-2.375.595-2.809-.476-.349-.804-.364-1.725-.198-2.575.274-1.323 1.229-2.45 2.441-3.023ZM9.913 6.748c-.025-.328.235-.557.424-.786.231.17.525.332.568.647.178.935.357 1.974 1.107 2.638.899.735 2.117.71 3.204.897.022.085.066.26.09.345-.358.223-.713.484-1.143.533-.902.155-1.871.496-2.358 1.33-.592.91-.344 2.083-.909 3.005l-.4-.1c-.298-.943-.318-2-.934-2.818-.614-.874-1.737-1.19-2.76-1.171-.345.034-.594-.22-.825-.433.22-.262.466-.553.84-.56.81-.072 1.64-.34 2.213-.947.675-.669.893-1.66.883-2.58ZM22.88 17.44l.37-.022c.236.627.247 1.367.747 1.87.405.482 1.05.604 1.644.671.337.121.304.558.027.737-.404.029-.836.063-1.17.318-.485.346-.654.957-.75 1.515-.052.433-.402.726-.64 1.061-.1-.8-.333-1.65-.95-2.21-.512-.479-1.203-.69-1.879-.796.827-.305 1.692-.723 2.168-1.5.318-.487.403-1.075.432-1.644Z"/></svg>