<svg viewBox="0 0 32 32"><path d="M11.176 15.044V11.21c0-.887-1.132-1.03-1.132-1.03V7.445s2.427-.497 2.69-3.445h2.193l6.547 4.19v7.351l-3.518-3.445s1.274 0 .849-1.385c-.566-.444-4.019-2.45-4.019-2.45v5.54s5.274 1.598 7.893 6.64c-.708.78-.885 1.208-.885 1.208l-.07 3.267s-5.098 1.492-7.68 4.084c-1.187-1.19-2.388-2.738-2.388-2.738l1.593-1.599.849.887s1.77-1.279 3.434-1.882c0-.78.035-4.185.035-4.185s-2.746-3.232-6.285-3.232c-.071-.32-.106-1.207-.106-1.207Z"/><path d="m12.642 23.669-1.821-1.827L9 23.669l1.82 1.826 1.822-1.826Zm2.468-2.476-1.821-1.827-1.821 1.827 1.82 1.827 1.822-1.827Z"/></svg>