<svg viewBox="0 0 32 32"><path d="M23.196 13.76 12.498 7.311l-1.426 2.15 6.775 4.657c-.475.597-1.07 2.078.357 3.224s2.972.478 3.566 0c.856 2.006-.832 3.702-1.783 4.299l3.209 2.866c4.565-4.586 2.496-8.957 0-10.748zm-3.39-3.298.876-.602a.72.72 0 0 0 .191-.989l-.658-.992a.71.71 0 0 0-.96-.217l-2.046 1.233 2.598 1.566z"/><path d="m12.491 11.738-3.353 2.021c-2.407 1.727-4.416 5.853-.464 10.257a.684.684 0 0 0 .967.042l1.995-1.781c.356-.318.309-.896-.035-1.226-.855-.818-1.691-2.173-1.036-3.709.594.478 2.14 1.146 3.566 0s.832-2.627.357-3.224l.733-.504-2.729-1.876z"/></svg>