<svg viewBox="0 0 32 32"><path d="M8.144 8.474c1.325.007 2.65 0 3.974.004.197.323.344.672.442 1.038.42 1.492.539 3.046.64 4.587 1.646-.004 3.29-.002 4.935-.002.079-1.395.206-2.794.522-4.158.128-.514.275-1.035.574-1.478 1.319-.002 2.637-.007 3.956.002.482.722.605 1.6.768 2.434.366 2.324.42 4.686.318 7.033-.086 1.444-.201 2.898-.558 4.305-.12.454-.259.913-.533 1.3-1.32-.011-2.64.005-3.961-.008a3.664 3.664 0 0 1-.487-1.127c-.382-1.472-.51-2.995-.604-4.508a1622.3 1622.3 0 0 1-4.933 0c-.083 1.483-.212 2.974-.575 4.418-.127.416-.226.874-.527 1.204-1.314.045-2.63.002-3.946.02-.483-.72-.605-1.602-.772-2.434-.416-2.633-.453-5.317-.266-7.972.11-1.288.242-2.588.63-3.826a2.85 2.85 0 0 1 .403-.832ZM3.84 11.327c.112-.288.198-.676.519-.796.76-.034 1.524-.002 2.286-.013-.39 2.254-.46 4.55-.399 6.833.05 1.382.161 2.765.403 4.127-.79-.018-1.589.046-2.376-.03-.347-.31-.435-.796-.554-1.225-.332-1.533-.397-3.111-.383-4.677.04-1.415.112-2.851.504-4.22Zm20.845-.807a329.89 329.89 0 0 1 2.375 0c.442.498.54 1.181.665 1.81.317 1.964.336 3.97.178 5.95-.097.91-.189 1.84-.526 2.7-.097.214-.226.513-.508.498-.73.01-1.46-.002-2.19.002.363-2.085.449-4.209.413-6.322a32.212 32.212 0 0 0-.407-4.639Z"/></svg>