<svg viewBox="0 0 32 32"><path d="M16.05 4.007a.178.178 0 0 1 .12.12l2.127 7.176a3.556 3.556 0 0 0 2.4 2.4l7.176 2.127a.178.178 0 0 1 0 .34l-7.176 2.127a3.556 3.556 0 0 0-2.4 2.4l-2.127 7.176a.178.178 0 0 1-.34 0l-2.127-7.176a3.556 3.556 0 0 0-2.4-2.4L4.127 16.17a.178.178 0 0 1 0-.34l7.176-2.127a3.556 3.556 0 0 0 2.4-2.4l2.127-7.176a.178.178 0 0 1 .22-.12Zm-8.382 14.66s1.798 6.158 3.057 6.861c.45.264 2.158.264 2.158.264l.45 1.76s-2.788.088-3.777-.352c-1.618-.792-4.226-8.533-4.226-8.533h2.338Zm19.002 0s-2.608 7.741-4.226 8.533c-.99.44-3.777.352-3.777.352l.54-1.76s1.708 0 2.158-.264c1.259-.703 3.057-6.86 3.057-6.86h2.248ZM22.444 4.8c1.618.792 4.226 8.533 4.226 8.533h-2.248s-1.798-6.158-3.057-6.861c-.54-.352-2.248-.264-2.248-.264l-.45-1.76s2.788-.088 3.777.352Zm-12.888 0c.99-.44 3.777-.352 3.777-.352l-.45 1.76s-1.708-.088-2.248.264c-1.259.703-3.057 6.86-3.057 6.86H5.33S7.938 5.593 9.556 4.8Z"/></svg>