<svg viewBox="0 0 32 32"><path d="M17.613 11.569c.047.651.104 2.312.146 2.954.14 2.18.272 4.361.412 6.542.09 1.35.179 2.701.282 4.052.028.337-.07.614-.32.9-.838.97-1.65 1.96-2.503 2.983-.202-.24-.399-.465-.587-.69l-.051.029s-.849-1.013-1.266-1.595c-.46-.474-.976-.92-1.027-1.547-.061-.802-.01-1.614.037-2.42.09-1.614.207-3.222.314-4.835.108-1.637.211-3.274.32-4.905.009-.146.037-1.309.06-1.473h-2.284V9.261c2.927.596 5.839.676 8.76-.018v2.321l-2.293.005ZM16.563 4h-2.11v5.248h2.11V4Z"/><path d="M22.312 15.278c1.243-.122 2.73-.36 3.625-.863 1.764-.98 2.364-2.48 2.054-4.98-3.109 3.114-5.965 3.353-8.891 3.775.112 2.772.225 5.52.338 8.263.417-.38.637-.732.764-1.191.052-.183.098-.37.15-.558 1.904.464 2.63-.211 3.733-1.45-1.14.367-2.514-.229-3.226-.614 3.409.887 5.486-.45 6.363-2.659-1.205.68-3.372.516-4.91.277Zm-17.177-.863c.895.497 2.377.741 3.625.863-1.539.24-3.705.403-4.915-.277.877 2.21 2.954 3.546 6.364 2.66-.718.389-2.087.98-3.227.614 1.102 1.238 1.83 1.913 3.733 1.449.047.188.099.375.15.558.127.46.347.811.764 1.191.113-2.743.226-5.491.338-8.263-2.921-.422-5.782-.661-8.891-3.775-.305 2.5.295 4 2.059 4.98Z"/></svg>