<svg viewBox="0 0 32 32"><path d="M4.571 11.521c4.366-2.548 8.46-5.606 11.99-9.235 2.27 2.636 4.905 4.952 7.78 6.909 1.278.86 2.6 1.662 3.991 2.326-1.93-.01-3.86.02-5.79-.013-1.497-.739-2.77-1.863-3.997-2.981-.697-.641-1.343-1.334-1.98-2.032-1.564 1.707-3.25 3.336-5.206 4.588-.322.177-.625.466-1.018.44-1.923-.004-3.846 0-5.77-.002Z"/><path d="M15.72 10.238c1.57-.516 3.391.557 3.73 2.164.415 1.547-.665 3.285-2.238 3.593-1.545.394-3.25-.702-3.55-2.264-.365-1.468.6-3.1 2.058-3.493Z"/><path d="M5.071 13.311c1.87.004 3.738.002 5.607.001.228-.018.408.147.576.278.899.774 1.483 1.831 2.019 2.872 1.036 2.017 2.174 3.98 3.285 5.956a211.267 211.267 0 0 0 3.03-5.44c.597-1.191 1.212-2.428 2.22-3.334.183-.149.373-.353.632-.33 1.877-.009 3.754.013 5.63-.01-2.129.546-3.876 2.166-4.794 4.136-.378.859-.82 1.688-1.268 2.513-1.7 3.072-3.549 6.06-5.451 9.011a229.125 229.125 0 0 1-3.578-5.763c-1.128-1.904-2.24-3.823-3.173-5.832-.911-1.936-2.642-3.518-4.735-4.058Z"/></svg>