<svg viewBox="0 0 32 32"><path d="M16 4C9.37 4 4 9.37 4 16s5.37 12 12 12 12-5.37 12-12S22.623 4 16 4Zm0 22.185c-5.627 0-10.19-4.564-10.19-10.191 0-5.628 4.563-10.191 10.19-10.191 5.628 0 10.19 4.563 10.19 10.19-.005 5.635-4.563 10.192-10.19 10.192Z"/><path d="M22.366 9.634A8.958 8.958 0 0 0 16 7a8.984 8.984 0 0 0-6.366 2.634A8.958 8.958 0 0 0 7 16a8.984 8.984 0 0 0 2.634 6.366A8.958 8.958 0 0 0 16 25a8.984 8.984 0 0 0 6.366-2.634A8.958 8.958 0 0 0 25 16a8.958 8.958 0 0 0-2.634-6.366Zm-7.62-.718h2.52v2.521h-2.52V8.916Zm-3.303 8.345h-2.52V14.74h2.52v2.52Zm5.824 5.823h-2.521v-2.521h2.52v2.521Zm1.128-4.695h-4.784v-4.784h4.784v4.784Zm2.174-1.128V14.74h2.521v2.52h-2.52Z"/></svg>