<svg viewBox="0 0 32 32"><path d="m24.731 9.788-3.654-2.944-1.693 4.376 1.365.533.012.046.894 3.339c.217.807.27 1.478.21 2.031a3.077 3.077 0 0 1-.316 1.088c-.25.478-.64.922-1.278 1.345-.316.21-.7.412-1.143.602l-2.003-7.474 1.15-1.782L13.142 4l-.97 8.583 1.886.969 2.003 7.474a6.866 6.866 0 0 1-1.025.06c-.534-.01-.987-.085-1.362-.215a2.917 2.917 0 0 1-1.37-.943c-.382-.462-.716-1.117-.96-2.027l-.894-3.339-.013-.046.915-1.143-3.658-2.938L6 14.807l1.365.533.012.046.895 3.338c.295 1.104.73 2.09 1.341 2.922a6.325 6.325 0 0 0 1.661 1.577c.967.623 2.103.955 3.299 1.023.735.044 1.51-.01 2.308-.136l.987 3.713a1.586 1.586 0 0 0 1.944 1.122 1.586 1.586 0 0 0 1.123-1.944l-.985-3.708a10.946 10.946 0 0 0 1.725-.824 7.544 7.544 0 0 0 1.825-1.491 6.127 6.127 0 0 0 1.462-3.072c.192-1.141.088-2.346-.243-3.584l-.895-3.338-.012-.046.92-1.15Z"/></svg>