<svg viewBox="0 0 32 32"><path d="M15.124 5.57c.716-.466 1.642-.764 2.47-.423.156.653.697 1.103.913 1.726.23.582.468 1.18.886 1.654.433.472 1.041.712 1.617.957.686.332 1.406.581 2.094.907.51.253 1.141.246 1.566.664.624.541.695 1.418 1.145 2.074 1.084 1.633 1.467 3.633 1.44 5.567-.005 1.278-.149 2.55-.311 3.816-.066.4-.155.915-.597 1.066-1.188.367-2.45.256-3.675.237-.147-.614-.225-1.25-.444-1.846-.106-.327-.489-.301-.758-.239-.162-.16-.33-.334-.378-.563.04-.272.273-.438.439-.631.455-.477.637-1.166.557-1.812-.113-.928-.564-1.77-.717-2.69-.058-.383-.328-.682-.54-.99-.487.36-.806.93-.814 1.54-.088 1.748.23 3.482.342 5.222.075 1.295.314 2.573.394 3.866.129.516.602.826 1.074.995.278.092.636.326.499.668-.175.357-.615.36-.955.341-.839-.056-1.708.173-2.522-.107-.427-.158-.435-.683-.464-1.066-.022-1.165-.18-2.32-.363-3.467-.088-.56-.444-1.131-1.005-1.31-.392-.13-.762.149-.963.462-.382.616-.518 1.359-.506 2.077.011.9.268 1.778.28 2.679-.003.222-.046.517-.294.595-.385.12-.796.078-1.194.104-.538.01-1.096.117-1.62-.06-.332-.214-.272-.664-.179-.991.329-.187.692-.418.768-.819.16-.87.16-1.786-.162-2.623-.548-1.453-.645-3.023-.646-4.563-.021-1 .083-2.002-.004-3.001-.035-.245-.14-.551-.388-.647-.356.015-.687.217-.95.445-.59 1.244-.847 2.78-.198 4.055.175.41.537.725.638 1.165-.02.563-.707.642-.97 1.05-.503.7-.41 1.612-.58 2.417-1.17.128-2.33.344-3.505.429-.594.044-.806-.632-.836-1.109-.226-2.378-.41-4.76-.657-7.135-.044-.45-.108-.92.05-1.356.107-.372.385-.653.638-.932.885-.928 1.786-1.843 2.63-2.808.488-.55.913-1.185 1.564-1.558.73-.435 1.585-.561 2.408-.71.426-.084.898-.03 1.28-.272.552-.34.955-.894 1.17-1.502.193-.496.22-1.033.333-1.548Z"/></svg>