<svg viewBox="0 0 32 32"><path d="m15.862 12.88-2.483-2.543 2.483-2.543 2.483 2.543-2.483 2.543z"/><path d="M14.483 17.826v8.62L16 28l1.517-1.554v-8.902l6.759-6.924L15.862 2l-8.414 8.62 7.035 7.207zm1.379-2.967-4.414-4.522 4.414-4.522 4.414 4.522-4.414 4.522zm-4.138 6.5v4.663l-2.621.706-.552-3.25-3.172-.424 1.379-2.543-2.759-1.696 1.931-2.544-1.931-1.554 2.483-1.554 2.621 2.543c-.662 2.939 1.471 4.993 2.621 5.652zm8.552 0v4.663l2.621.706.552-3.25 3.172-.424-1.379-2.543 2.759-1.696-1.931-2.544 1.931-1.554-2.483-1.554-2.621 2.543c.662 2.939-1.471 4.993-2.621 5.652z"/></svg>