<svg viewBox="0 0 32 32"><path d="M12.76 11.59c3.81-1.792 7.732-3.322 11.694-4.733 1.127 1.858 2.242 3.724 3.38 5.575a144.499 144.499 0 0 1-5.381 4.851c-.816-.995-1.983-1.7-3.25-1.92-1.395-.25-2.893.054-4.056.876-1.3.886-2.191 2.357-2.346 3.931-.146 1.23.183 2.488.832 3.532-1.072.488-2.307.863-3.474.5-.684-.187-1.239-.655-1.726-1.154-.559.395-1.297.527-1.95.314-.958-.277-1.636-1.29-1.539-2.286.058-.758.537-1.444 1.199-1.798-.27-.78-.396-1.641-.142-2.443.31-.993 1.065-1.759 1.85-2.399 1.5-1.168 3.216-2.005 4.91-2.846Z"/><path d="M17.762 16.617c1.866-.246 3.783.962 4.386 2.752.488 1.36.204 2.969-.739 4.065-1.107 1.357-3.107 1.866-4.72 1.186a4.145 4.145 0 0 1-2.393-2.532c-.408-1.202-.235-2.597.484-3.646a4.157 4.157 0 0 1 2.982-1.825Zm.228 3.166c-.514.114-.858.676-.732 1.19.1.512.649.872 1.155.764.58-.086.978-.77.754-1.318a1.004 1.004 0 0 0-1.177-.636Z"/></svg>