<svg viewBox="0 0 32 32"><path d="M18.866 12.092c-1.1-1.09-1.92-2.467-2.459-4.107-.539 1.64-1.353 3.012-2.458 4.107-1.1 1.09-2.484 1.9-4.144 2.435 1.654.534 3.04 1.341 4.144 2.436 1.1 1.09 1.92 2.467 2.458 4.106.54-1.64 1.354-3.012 2.459-4.106 1.1-1.09 2.484-1.902 4.14-2.436-1.65-.54-3.04-1.346-4.14-2.435Z"/><path d="M27.218 15.554a1.621 1.621 0 0 1-.026-.157c.46.434 1.078.9 1.808 1.2-.439-3.463-2.648-6.805-3.7-8.051a26.41 26.41 0 0 0-.566-.723c-.228-.283-.307-.534-.217-.89a6.72 6.72 0 0 0 .185-1.341c.01-.194-.111-.393-.17-.592-.089.031-.184.058-.274.089-.65.12-1.845 1.01-2.263 1.545-.01.016-.026.032-.037.047 0 .006-.005.006-.01.01l-.17.236c-.819 1.153-1.691 2.274-2.542 3.405.211.24.428.476.682.676.195.157.417.277.64.382.195-.283.422-.555.724-.828.83-.754 1.184-1.136 1.395-.036.074.398.037.838-.031 1.241-.085.466-.18.932-.286 1.393a10.6 10.6 0 0 0 1.354.482.916.916 0 0 1 0 1.76c-.889.257-1.676.592-2.38.995a13.81 13.81 0 0 1-.956 1.865c-.825 1.34-1.877 2.545-2.818 3.823-.106.147-.159.335-.238.503.2-.01.428.037.603-.037.433-.183.84-.424 1.364-.57-.07.14-.106.308-.207.424a83.15 83.15 0 0 1-2.067 2.257.37.37 0 0 1-.1.068 4.335 4.335 0 0 1-.407.382c-.053-.047-.106-.094-.164-.14a3.47 3.47 0 0 1-.243-.242.303.303 0 0 1-.1-.068 69.829 69.829 0 0 1-2.068-2.257c-.1-.116-.137-.283-.206-.425.524.152.93.388 1.364.571.175.074.402.027.603.037-.08-.168-.127-.356-.238-.503-.941-1.273-1.988-2.477-2.818-3.823a13.884 13.884 0 0 1-.888-1.713 10.239 10.239 0 0 0-2.627-1.147.916.916 0 0 1 0-1.76 10.954 10.954 0 0 0 1.517-.56c-.1-.44-.19-.875-.27-1.32-.074-.404-.105-.844-.031-1.242.206-1.1.56-.717 1.395.037.302.272.529.55.724.828.223-.105.444-.226.64-.383.254-.199.47-.434.682-.675-.856-1.132-1.723-2.247-2.543-3.405a3.109 3.109 0 0 0-.264-.345c-.439-.524-1.528-1.33-2.168-1.477-.11-.032-.227-.058-.333-.1-.058.199-.18.398-.169.592.027.45.08.906.19 1.34.09.362.011.608-.216.891-.196.241-.386.487-.576.733v-.005C6.649 9.798 4.439 13.14 4 16.601c.735-.293 1.353-.77 1.813-1.204-.01.052-.016.11-.031.162-.254 1.053-.233 2.106-.111 3.153l-.006.005c.016.12.032.241.053.362.021.178.048.356.074.534.01.079.053.152.095.22.407 1.378 1.422 2.996 4.07 5.091a9.145 9.145 0 0 0-.015-.031c.132.115.254.24.396.35l.17-.078c-.339-1.063-.672-2.127-1.01-3.185.085-.047.17-.094.254-.146.962 1.644 2.003 3.221 3.748 4.127.391.052.772.157 1.152.257.487.13.984.235 1.48.33a1 1 0 0 1 .122.02 1.31 1.31 0 0 0 .153-.041c.027.005.053.005.085.01.111.01.222.01.333.016.01 0 .021-.005.032-.005.497-.095.994-.2 1.48-.33.38-.1.761-.205 1.152-.257 1.75-.9 2.787-2.477 3.749-4.127.084.047.169.094.253.146-.338 1.064-.671 2.127-1.01 3.185.059.026.112.052.17.079.137-.11.259-.231.386-.341-.005.01-.005.016-.01.026 2.637-2.09 3.652-3.703 4.065-5.075a.584.584 0 0 0 .105-.236 18.833 18.833 0 0 0 .121-.901c.133-1.058.154-2.105-.1-3.163Z"/></svg>