<svg viewBox="0 0 32 32"><path d="M15.5 20.12 8.78 13.4h13.44l-6.72 6.72zM20.12 7.1a4.62 4.62 0 1 1-9.24 0 4.62 4.62 0 1 1 9.24 0z"/><path d="M13.4 14.24c.42-1.68 0-3.08-.42-3.78 1.82-.42 5.712-1.008 5.04 0-.73 1.095-.42 3.36 0 4.2-.84.56-4.946.884-4.62-.42zm3.36 10.08c0 2.94.42 4.2 1.68 4.2.42 0 1.68-.243 1.68-1.26 0-1.344.84-1.96 1.26-2.1 1.68-.84 4.62-4.179 4.62-8.4 0-4.206-.86-3.04-1.81-.959-.378.828-.771 1.802-1.13 2.639-1.26 2.94-2.1 2.94-2.94 2.52s1.26-2.1 1.68-2.94c.42-.84-.84-.84-2.1.42s-2.94 2.94-2.94 5.88zm-2.52 0c0 2.94-.42 4.2-1.68 4.2-.42 0-1.68-.243-1.68-1.26 0-1.344-.84-1.96-1.26-2.1C7.94 24.32 5 20.981 5 16.76c0-4.206.86-3.04 1.81-.959.378.828.771 1.802 1.13 2.639 1.26 2.94 2.1 2.94 2.94 2.52s-1.26-2.1-1.68-2.94c-.42-.84.84-.84 2.1.42s2.94 2.94 2.94 5.88z"/></svg>