<svg viewBox="0 0 32 32"><path d="M5.007 7.11C7.014 6.346 8.867 6 10.56 6c1.99-.002 3.753.487 5.23 1.286l.21.12c1.517-.868 3.353-1.408 5.44-1.406 1.691 0 3.543.346 5.55 1.11l1.01.383-.127 1.074c-.251 2.144-.805 3.956-1.591 5.464a11.167 11.167 0 0 1-2.124 2.869c-.58.56-1.2 1.032-1.846 1.426 0 .056.005.109.005.164a10.673 10.673 0 0 1-1.262 5.02c-.886 1.681-2.267 3.313-4.228 4.834l-.849.658-.848-.657c-1.961-1.522-3.343-3.154-4.228-4.834a10.672 10.672 0 0 1-1.262-5.02c0-.065.002-.128.004-.19l-.083-.048a10.753 10.753 0 0 1-3.538-3.67c-.95-1.61-1.614-3.602-1.898-6.014l-.127-1.073 1.01-.386Zm13.828 9.748c.169-.05.337-.106.503-.166a8.034 8.034 0 0 0-.198-.794c-.39-1.246-1.034-2.403-1.758-3.356-.454-.6-.943-1.12-1.402-1.528-.217.194-.44.408-.662.648a11.665 11.665 0 0 0-2.03 3.024 11.409 11.409 0 0 0-.563 1.71 7.55 7.55 0 0 0-.062.296c.044.016.09.035.134.05 1.044.359 2.152.52 3.213.534a10.667 10.667 0 0 0 2.825-.418Zm4.759-3.688c.592-1.005 1.07-2.262 1.36-3.828-1.305-.399-2.474-.572-3.515-.572a8.319 8.319 0 0 0-2.991.533c.067.067.133.134.196.203 1.197 1.28 2.062 2.743 2.648 4.167.221.538.403 1.069.546 1.588a8.144 8.144 0 0 0 1.756-2.091Zm-7.617 12.28c1.23-1.09 2.072-2.18 2.628-3.234.456-.87.724-1.722.85-2.555-.13.032-.26.064-.394.092a14.28 14.28 0 0 1-2.892.293l-.18-.002-.16.002c-1.023 0-2.001-.108-2.892-.293-.15-.03-.293-.067-.438-.102a8.04 8.04 0 0 0 .853 2.565c.556 1.057 1.396 2.144 2.625 3.234ZM8.17 12.745a8.401 8.401 0 0 0 1.598 2.165c.118.115.24.224.362.328l.049-.169c.152-.487.334-.953.537-1.405.325-.79.731-1.586 1.236-2.362a13.06 13.06 0 0 1 1.599-1.999 8.572 8.572 0 0 0-.623-.212 8.488 8.488 0 0 0-2.367-.323c-1.04 0-2.21.173-3.515.572.247 1.355.64 2.477 1.124 3.405Z"/></svg>