<svg viewBox="0 0 32 32"><path d="M13.665 12.655a.511.511 0 0 0-.045-.449l-3.148-5.223L8.925 4l-.548 2.859h.005l-1.372 6.67a.54.54 0 0 0 .17.498l3.023 2.879 2.38 11.324c.094.499.658.838 1.251.758 0 0 .993-.553.898-1.052l-2.444-11.634 1.377-3.647Z"/><path d="M11.59 16.138s6.3.474 6.465-1.008c.084-.843-2.04-.534-1.996-1.587.02-.533 3.976-1.606 9.578-1.75-.848 1.566-3.068 3.532-3.068 3.532s2.574 1.436 4.046 3.317c-1.79.434-6.57-.434-6.984.35.21.947.723 2.903.723 2.903s-3.417 1.79-7.538.823c-.454-2.225-.24-4.84-.24-4.84l-.987-1.74Z"/></svg>