<svg viewBox="0 0 32 32"><path d="M14.792 7.396c1.77-.987 3.516-2.483 5.65-2.392.44.418 1.329 1.268 1.777 1.694-.577 0-1.716-.008-2.294-.008-.675.82-1.07 1.853-1.32 2.878-.236 1.724 1.26 2.894 2.133 4.17.835-.676 1.663-1.367 2.491-2.058-.008.751-.038 2.255-.046 3.007 1.74.402 3.464.888 5.112 1.595-.228.319-.676.941-.904 1.253-6.425 2.468-13.632 2.514-20.247.729C6.035 17.93 5.04 17.322 4 16.828v-.918c1.61-.327 3.16-.897 4.731-1.352-.068-.957-.053-1.906.175-2.84.76.653 1.504 1.313 2.248 1.99.691-2.317 1.276-5.104 3.638-6.312Z"/><path d="M9.058 20.079c4.648.47 9.333.683 13.958-.13.16 1.034.312 2.059.479 3.084-1.8 2.62-4.982 4.185-8.164 3.888-2.688-.015-5.012-1.67-6.653-3.683.137-1.048.266-2.104.38-3.16Zm1.693.501a8.03 8.03 0 0 0 1.686 3.6c.471-.038 1.42-.107 1.899-.137.038-.364.13-1.078.175-1.443-1.261-.653-2.506-1.352-3.76-2.02Zm6.873 1.929c.107.919.578 1.58 1.42 1.975 1.292-.942 2.446-2.188 2.4-3.927-1.253.691-2.506 1.39-3.82 1.952Z"/></svg>