<svg viewBox="0 0 32 32"><path d="M27.9 13.954c-.04-.198-.072-.391-.128-.593-.063-.206-.12-.408-.202-.618a9.312 9.312 0 0 0-.14-.318c-.05-.106-.089-.209-.157-.318a10.622 10.622 0 0 0-.195-.322l-.102-.16c-.034-.053-.06-.084-.089-.128-.455-.642-1.064-1.299-1.891-1.8a6.118 6.118 0 0 0-2.78-.88 7.592 7.592 0 0 0-2.657.303c-.25.073-.49.155-.726.246-.898.618-1.803 1.246-2.764 1.732-.934.474-2.252 1.029-3.32.81a1.884 1.884 0 0 1-.208-.057c-.493.015-.982-.083-1.255-.425a.81.81 0 0 1-.076-.115c-.395-.234-.592-.684-.387-1.258.17-.478.532-.9.95-1.26.5-.49 1.147-.931 1.845-1.291 1.596-.805 3.507-1.198 5.411-.94a8.834 8.834 0 0 1 2.8.882 9.905 9.905 0 0 1 2.487 1.83 10.419 10.419 0 0 0-1.995-2.532 10.13 10.13 0 0 0-2.815-1.829c-1.05-.465-2.193-.737-3.361-.855-1.172-.12-2.367-.05-3.561.171-1.19.24-2.38.63-3.54 1.31A8.111 8.111 0 0 0 7.346 6.86c-.133.15-.27.29-.4.455-.128.174-.256.34-.374.529-.059.1-.116.199-.173.301-.056.105-.114.196-.162.317-.048.115-.097.231-.143.349l-.067.176c-.022.06-.032.098-.049.149a6.693 6.693 0 0 0-.344 1.989 10.068 10.068 0 0 0-1.631 5.35c-.03 1.154.156 2.321.49 3.453.333 1.137.853 2.223 1.509 3.249.671 1.017 1.482 1.976 2.548 2.797a8.084 8.084 0 0 0 1.86 1.078c.188.069.369.142.57.199.207.053.407.11.627.148.113.017.228.033.343.047.117.01.224.032.353.03.123.003.249.003.374 0l.188-.004c.063-.003.103-.007.155-.01.783-.057 1.658-.238 2.514-.688.254-.129.5-.284.739-.455.934.078 1.898.04 2.855-.154a10.12 10.12 0 0 0 3.132-1.2c.993-.576 1.889-1.341 2.674-2.22.79-.878 1.442-1.889 1.971-2.986.513-1.107.906-2.301 1.048-3.644a8.175 8.175 0 0 0-.053-2.161ZM13.358 21.82c-.278.575-.918.812-1.52.701-.033 0-.066 0-.1.003-.275-.009-.624-.09-.979-.222-.72-.269-1.467-.748-2.141-1.33-1.346-1.18-2.435-2.81-2.918-4.68a8.938 8.938 0 0 1-.252-2.94 9.18 9.18 0 0 1 .228-1.431 6.23 6.23 0 0 0 .92 2.588 7.39 7.39 0 0 0 1.25 1.494c.025.013.05.028.074.048.917.721 1.914 1.297 2.973 1.78.85.386 1.659.814 2.155 1.642.388.645.659 1.628.31 2.347Zm10.327-3.236-.002.005c-.004.022-.005.046-.01.068-.3 1.772-1.115 3.554-2.451 4.945a8.843 8.843 0 0 1-2.364 1.747 9.631 9.631 0 0 1-2.4.833c.49-.383.928-.844 1.27-1.339a7.744 7.744 0 0 0 1.129-2.44c.11-.406.19-.808.245-1.212.015-.11.023-.224.035-.336.027-1.428.16-2.889.873-4.147.475-.838 1.993-2.663 3.12-2.045 1.257.688.875 2.837.555 3.921Z"/></svg>