<svg viewBox="0 0 32 32"><path d="M21.005 10.847a5.221 5.221 0 0 1-.865-.684c-.03-.033-.063-.064-.094-.098a3.518 3.518 0 0 1-.886-1.118c-.547-1.092-.808-2.193-.452-3.386.243-.816.579-1.582 1.25-2.152.06-.052.095-.225.056-.281-.053-.075-.201-.144-.286-.125-.356.082-.71.181-1.053.306-1.084.395-2.071.986-3.008 1.646-.551.39-1.024.894-1.53 1.349-.119.106-.153.232-.123.404.076.427.177.862.167 1.292-.02.858-.086 1.716-.18 2.57-.05.453-.135.922-.31 1.338-.37.885-1.052 1.504-1.872 1.977-.15.087-.302.17-.46.26.376.926.742 1.801.598 2.826-.041.297-.048.465.013.581a8.942 8.942 0 0 1 2.238.892c.544.311 1.098.724 1.5 1.225a16.416 16.416 0 0 1-.994-.29l-.274-.09c-.027-.02-.053-.042-.083-.062.017.015.031.034.046.05-.325-.106-.65-.214-.979-.31a11.301 11.301 0 0 0-.704-.18c-.314-.094-.634-.175-.948-.27a.323.323 0 0 0-.147.003c-.8.14-1.433.548-1.906 1.208-.648.9-.842 1.909-.646 2.997.009.05.028.113.051.17a2.47 2.47 0 0 1 .293-.051 3.11 3.11 0 0 1 .384-.386c.338-.269.743-.398 1.158-.492.254-.135.519-.253.798-.35.509-.178 1.013-.306 1.53-.316-.467.27-.92.573-1.276.953-.415.442-.575.976-.601 1.54a5.034 5.034 0 0 1-.954 1.462 9.12 9.12 0 0 0-.565.669.982.982 0 0 0-.098.161c.13.419.26.841.446 1.237.162.097.331.19.51.241.176.05.316.13.432.239.176.075.338.199.474.311.248.208.46.453.719.647.117.087.24.167.367.24.052-.006.107-.01.16-.013l.138-.025a4.04 4.04 0 0 1 .297-.264c.002 0 .001-.002.003-.003.092-.097.19-.192.294-.282.044-.125.094-.246.147-.367-.037-.2-.124-.396-.174-.588-.147-.56-.205-1.138-.083-1.695-.048-.175-.07-.345-.03-.493.236-.847.562-1.673.884-2.542.459-.548 1.02-.99 1.684-1.22.285-.037.567-.09.847-.155a.345.345 0 0 0 .22.036 21.152 21.152 0 0 0 4.163-1.016 1.87 1.87 0 0 0 .428-.112c.125.003.252.013.372-.008.108-.016.26-.076.293-.155.028-.074-.055-.231-.132-.297a1.43 1.43 0 0 0-.202-.137.298.298 0 0 0-.194-.099c-.019-.01-.037-.016-.055-.026-.785-.35-1.512-.775-2.045-1.482-.327-.432-.647-.86-.658-1.43-.003-.152-.01-.303-.015-.455.07-.459.19-.906.358-1.339a3.63 3.63 0 0 1 .304-.406c.793-.912 2.088-1.394 2.587-2.535a.378.378 0 0 0 .146-.364.396.396 0 0 0-.065-.178c-.502-.036-.995-.24-1.408-.503Z"/>{&apos; &apos;}</svg>