<svg viewBox="0 0 32 32"><path d="M16.151 5.188c.626-.334 1.454-.219 1.938.31.4.331.476.876.776 1.273.375.137.784.018 1.173.035.765-.037 1.605.317 1.934 1.043.271.632.091 1.342-.195 1.934.381.238.714.57.872.998.175.498.267 1.021.418 1.528.613.1 1.324.107 1.776.595.519.645.466 1.549.9 2.239.307.519.82.867 1.162 1.359 1.274 1.652 1.756 3.904 1.185 5.92-.793 2.985-3.766 5.208-6.852 5.14-1.738.069-3.469-.578-4.804-1.678-1.763-1.46-2.719-3.85-2.384-6.124.162-1.069.543-2.127 1.204-2.99.692-.805 1.499-1.59 1.799-2.638.117-.351.063-.751.231-1.084.482-.53 1.243-.59 1.902-.73.37-.092.287-.55.338-.834.01-.418.188-.8.437-1.126-.343-.11-.752-.17-.974-.486-.368-.509-.47-1.146-.515-1.759-.66.42-1.497.818-2.274.47-.503-.182-.764-.698-1.233-.93-.242.482-.275 1.163-.835 1.402-.617.216-1.255-.067-1.87-.158.313.308.565.664.792 1.037.361.205.833.047 1.213.23.544.205.81.79.907 1.327.124.884.547 1.682.83 2.52-.545.467-1.082.94-1.62 1.414-1.15-.62-2.384-1.198-3.714-1.222-1.706-.029-3.258 1.25-3.8 2.827-.64 1.792.17 4.008 1.873 4.893 1.38.694 2.985.53 4.457.279.234.76.444 1.528.676 2.289a5.951 5.951 0 0 1-3.415.752c-2.24-.148-4.376-1.404-5.575-3.3-.813-1.286-1.196-2.85-1.008-4.362a6.906 6.906 0 0 1 1.629-3.71c.45-.493.961-.984 1.13-1.656.17-.664.24-1.458.848-1.89.515-.411 1.203-.237 1.805-.326.077-.397.173-.818.47-1.114.362-.365.893-.445 1.367-.572-.012-.568.05-1.165.385-1.641.387-.604 1.19-.879 1.868-.656.438.138.885.418 1.36.275.6-.188.83-.881 1.413-1.103Zm3.939 11.397c-1.579.366-2.93 1.681-3.2 3.3-.381 1.992.915 4.106 2.828 4.743 1.927.72 4.274-.186 5.25-1.99 1.009-1.708.473-4.086-1.104-5.263-1.043-.837-2.484-1.101-3.774-.79Z"/></svg>