<svg viewBox="0 0 32 32"><path d="M6.728 7.063c1.376-.121 2.615.683 3.75 1.367.47.31 1.081.387 1.6.16 2.186-1.02 4.802-1.036 6.992-.024.407.178.858.142 1.29.128C21.574 7.778 22.99 7.04 24.536 7c.365 1.673.566 3.415.22 5.111-.255 1.15-.121 2.398.498 3.411.253.405.797.308 1.202.362.607-.54.854-1.333.738-2.132-.496.043-.99.116-1.486.166-.152-.513-.355-1.148.028-1.61.378-.492 1.19-.845 1.687-.32.873.83.739 2.133.675 3.228-.22 1.242-.9 2.39-1.834 3.227-.392.342-.701.817-1.231.947l-.017.313c.14-.008.281-.014.421-.019.436-.25.863-.515 1.275-.804a45.2 45.2 0 0 1 .652-.032c-.686 1.68-2.11 2.946-3.572 3.947-2.573 1.553-5.597 2.315-8.59 2.29-2.76-.16-5.55-.868-7.91-2.354-1.457-.958-2.792-2.23-3.5-3.858.204-.004.408-.005.613-.004.425.279.853.554 1.293.808l.503.025a10.934 10.934 0 0 1-.019-.182c-1.61-1.119-3.08-2.798-3.167-4.859-.053-.902.02-1.902.66-2.599.28-.368.784-.255 1.182-.288.596.446 1.16 1.295.61 2-.435.254-.988.002-1.458-.044-.115.675-.082 1.494.506 1.947.421.355.985.136 1.433-.039.255-.685.624-1.361.579-2.119.066-1.326-.487-2.609-.293-3.937.161-.834.075-1.76.495-2.519Zm4.609 6.785c-2.144 1.016-2.345 4.422-.507 5.84.865.6 2.134.227 2.59-.714.956-1.29.654-3.072-.136-4.358-.46-.545-1.22-1.043-1.947-.768Zm7.615.003c-1.082.407-1.555 1.561-1.757 2.622-.272 1.013.188 2.05.777 2.852.597.808 1.871.91 2.59.214 1.323-1.313 1.404-3.654.14-5.038-.427-.476-1.095-.934-1.75-.65Zm-3.681 7.187c-.316.315-.636.627-.96.935l.05.323c.815-.351 1.673-.127 2.516-.083a6.96 6.96 0 0 0-1.01-1.192c-.198.005-.397.01-.596.017Z"/></svg>