<svg viewBox="0 0 32 32"><path d="M19.021 4.952c-5.397-3.36-9.734 2.966-10.333 6.674-1.797 7.119 0 11.124 4.492 12.014 1.79.355 3.184-.225 4.342-.706 1.122-.466 2.022-.841 2.846-.184 1.674 1.335.776 5.34-3.594 4.895 5.032 1.424 6.888-1.78 7.188-3.56.449-5.34-3.267-8.009-6.412-8.454 0 0 7.188-7.119 1.471-10.679zM14.48 8.356c-.242.697-.819 1.133-1.288.973s-.653-.855-.411-1.552c.242-.697.819-1.133 1.288-.973s.653.855.411 1.552zm2.42 3.585c-.349-.35-.202-1.053.328-1.571s1.242-.654 1.59-.305c.349.35.202 1.053-.328 1.571s-1.242.654-1.59.305z"/></svg>