<svg viewBox="0 0 32 32"><path d="M24.936 13.772a2.163 2.163 0 0 0-.925.458 45.3 45.3 0 0 0-2.014 1.798c-.412.385-.878.467-1.306.136-.393-.307-.875-.677-1.004-1.113a4.832 4.832 0 0 1-.141-2.12c.274-1.604.664-3.194 1.05-4.777.168-.685.303-1.37-.024-2.006-.19-.366-.526-.79-.878-.89-.268-.077-.771.246-.982.533-.352.48-.607 1.055-.812 1.624-.4 1.119-.72 2.262-1.11 3.384-.095.272-.321.496-.557.847-.227-.585-.438-1.002-.55-1.444-.28-1.11-.668-2.212-.432-3.387.16-.806.286-1.59-.576-2.114-.069-.04-.094-.158-.138-.24-.189-.35-.475-.515-.872-.445-.418.072-.629.35-.708.755-.034.18-.056.404-.173.512-.484.458-.579 1.033-.512 1.64.163 1.472.364 2.94.525 4.416.035.306-.038.622-.06.935l-.21.086c-.592-.506-1.184-1.008-1.769-1.507.091-.149.117-.2.148-.244.768-1.058.456-1.857-.815-2.085-.129-.022-.252-.06-.38-.076-.875-.104-1.79.56-1.703 1.34.126 1.115.217 2.265.998 3.19.343.408.648.844.972 1.27-.211.004-.368-.072-.532-.138-.598-.243-1.183-.544-1.8-.714-.796-.221-1.198.05-1.585.91-.183.41.063 1.1.519 1.46.594.47 1.183.947 1.777 1.418 1.01.796 1.489 1.968 2.124 3.03.607 1.014 1.284 1.984 1.913 2.982.158.247.346.537.346.806-.003.569.268 3.478.268 4.05 0 .177.003.297.01.386.144.167.276.347.386.54h.013c.034.01.069.016.107.022.135-.041.27-.073.406-.104.15-.044.299-.089.453-.127.003 0 .006 0 .01-.003.374-.486.858-1.058 1.15-1.633.007-.003.016-.006.023-.013 0 0 .003 0 .003-.003.088-.73.318-3.181.377-4.091l.947 2.818c.05.016.038.268.07.331.104.203-.145.196-.06.408a.224.224 0 0 1 .057.101 6.98 6.98 0 0 0 .15.436c.108.275.227.543.344.812.132-.022.264-.047.295-.05.186-.026.488-.326.708-.654.164.13.287.375.403.527.107.142.214.288.32.43.193.117.382.237.573.357.164-.2.322-.401.488-.597 0-.003.003-.003.006-.007.06-.606.145-1.168.089-1.82-.136-1.516-.003-.862-.214-2.372-.066-.464.06-.809.37-1.153.432-.477.246-.973.567-1.53.497-.862 1.133-1.547 1.98-2.06.71-.429 1.406-.893 2.107-1.342.328-.209.435-.512.318-.869-.17-.512-.135-.97.205-1.415.116-.152.141-.38.191-.578.167-.639-.26-1.154-.924-1.027Z"/></svg>