<svg viewBox="0 0 32 32"><path d="M14.052 9.556C14.602 7.633 15.419 5.793 16.3 4a35.954 35.954 0 0 1 2.216 5.384c.09.404-.03.82-.031 1.229-.127 2.641.089 5.367 1.108 7.832-2.194-.006-4.387.001-6.58-.004 1.147-2.8 1.274-5.903 1.039-8.885Z"/><path d="M22.5 12.997c1.215 1.115 2.307 2.474 2.708 4.106a4.25 4.25 0 0 1-.679 3.495c-.684.95-1.622 1.712-2.649 2.261-.775.038-1.553 0-2.33.016-.578-1.046-1.173-2.083-1.75-3.13.718-.001 1.436.002 2.155.001.392.007.732-.221 1.067-.396.741-.424 1.424-1.124 1.486-2.019.064-.824-.376-1.562-.823-2.215.163-.732.566-1.406.815-2.119ZM7.54 16.604c.496-1.41 1.458-2.608 2.56-3.598.298.685.571 1.379.853 2.071-.505.71-.997 1.557-.83 2.464.159.919.949 1.564 1.74 1.96.245.122.502.255.784.244.72.002 1.441-.003 2.162 0-.592 1.04-1.17 2.09-1.764 3.13a123.58 123.58 0 0 0-1.897 0c-.211-.005-.443.027-.624-.11-1.077-.667-2.107-1.494-2.733-2.618-.608-1.067-.66-2.396-.25-3.543Zm6.326 7.486a561.918 561.918 0 0 0 2.432-3.88c.816 1.298 1.635 2.594 2.439 3.898-.165.958-.338 1.915-.5 2.874-.064.587-.348 1.121-.63 1.629-.503.357-1.155.319-1.741.296-.315-.011-.602-.155-.882-.283-.188-.475-.51-.901-.579-1.418-.175-1.04-.365-2.076-.539-3.117Z"/></svg>