<svg viewBox="0 0 32 32"><path d="M14.623 4.204c.485-.26 1.056-.212 1.585-.173 1.428.295 2.444 1.907 2.045 3.319-.173.591-.576 1.077-1.037 1.471-.367.312-.59.742-.83 1.15 1.538.374 3.066.938 4.326 1.918 1.7 1.338 3.015 3.35 3.029 5.569-.043 2.87-.056 5.74-.001 8.611.013.484-.156 1.058-.654 1.245a40.72 40.72 0 0 1-2.606.823c-1.24.354-2.538.406-3.82.414-2.79.044-5.602-.368-8.23-1.322-.492-.144-.755-.663-.733-1.152.04-2.16.11-4.321.056-6.483-.025-1.024-.156-2.063.072-3.075.596-2.98 3.085-5.411 6.004-6.149.42-.093.784-.334 1.174-.501-.22-.377-.407-.792-.76-1.066-.473-.38-.85-.896-1.006-1.489-.32-1.186.28-2.562 1.386-3.11Zm-2.55 11.978c-.665.146-1.203.71-1.343 1.372-.272 1.004.414 2.16 1.447 2.35 1.07.255 2.2-.645 2.229-1.736.109-1.21-1.136-2.333-2.333-1.986Zm6.406.05a1.89 1.89 0 0 0-1.153 1.353c-.25.952.336 2.02 1.288 2.289 1.32.426 2.705-1.022 2.337-2.323-.27-1.02-1.465-1.705-2.472-1.318Zm-5.783 6.215c0 .382-.002.765-.008 1.148 2.052.034 4.104.006 6.155.014.003-.39.003-.777 0-1.166-2.049.004-4.098-.002-6.147.004Z"/></svg>