<svg viewBox="0 0 32 32"><path d="M8.103 14.248c.458-.201 1.794-.785 3.11-.845 0 0 .48-1.208.838-1.692C10.915 9.84 7.803 7.423 5.71 7c0 2.235.778 6.04 2.394 7.248ZM2 14.852c1.556 0 4.068.182 4.427.363.12 1.667 1.556 4.349 2.992 5.315l-.36 1.45C6.488 20.893 3.138 17.067 2 14.852Zm28 0c-1.556 0-4.068.182-4.427.363-.12 1.667-1.556 4.349-2.992 5.315l.36 1.45c2.572-1.087 5.922-4.913 7.059-7.128Zm-9.214-1.449c1.317.06 2.653.644 3.111.845C25.513 13.04 26.291 9.235 26.291 7c-2.094.423-5.206 2.839-6.342 4.711.359.484.837 1.692.837 1.692Z"/><path d="M16 10.262c-1.197.845-2.992 2.295-3.35 4.349-1.676 0-3.53.483-4.547 1.329.299 1.57 1.735 3.624 2.931 4.047-.835 2.168-.659 3.855-.54 5.003l.002.01c2.106 0 4.547-1.53 5.504-2.295.957.765 3.398 2.295 5.504 2.295l.001-.01c.12-1.148.296-2.835-.54-5.003 1.197-.423 2.633-2.477 2.932-4.047-1.017-.846-2.871-1.33-4.547-1.33-.359-2.053-2.153-3.503-3.35-4.348Z"/></svg>