<svg viewBox="0 0 32 32"><path d="M7.191 15.603c.611 0 1.108.495 1.123 1.111v1.003l2.799 1.601c1.021.701 1.532 1.677 1.532 2.928v2.212l-3.448 1.424v.977c0 .62-.487 1.125-1.094 1.14h-.029a1.131 1.131 0 0 1-1.123-1.111v-1.145l-.575-.41a1.152 1.152 0 0 1-.29-1.563l.017-.026a1.112 1.112 0 0 1 1.54-.294l.025.017.423.302 3.499-1.445-4.347-2.486-.437.341a1.112 1.112 0 0 1-1.556-.186l-.019-.025a1.153 1.153 0 0 1 .183-1.58l.024-.02.628-.489v-1.135c0-.61.472-1.109 1.066-1.139l.029-.001h.029zm17.771 0h.029l.029.001c.594.03 1.066.529 1.066 1.139v1.135l.652.509c.471.388.555 1.088.183 1.58l-.019.025a1.112 1.112 0 0 1-1.556.186l-.437-.341-4.347 2.486 3.499 1.445.423-.302.025-.017a1.112 1.112 0 0 1 1.54.294l.017.026a1.152 1.152 0 0 1-.29 1.563l-.575.41v1.145a1.131 1.131 0 0 1-1.123 1.111h-.029a1.132 1.132 0 0 1-1.094-1.14v-.977l-3.448-1.424v-2.212c0-1.251.511-2.227 1.532-2.928l2.799-1.601v-1.003a1.131 1.131 0 0 1 1.123-1.111zm-11.125 7.783-.009-.103c-.14-1.682.031-1.921-2.261-4.958-1.543-2.045-1.775-4.167-.697-6.365-2.098-1.303-3.233-2.149-3.403-2.54-.255-.587 2.34-5.319 2.94-5.418s3.572 6.374 3.572 6.374c.32-.101.999-.139 2.037-.116l.059.002.059-.002c1.038-.024 1.717.014 2.037.116 0 0 2.972-6.473 3.572-6.374s3.196 4.832 2.941 5.418c-.17.391-1.305 1.238-3.403 2.54 1.079 2.198.847 4.32-.697 6.365-2.292 3.037-2.121 3.276-2.261 4.958l-.009.103c-.139 1.69.079 2.333-2.24 2.333s-2.101-.642-2.24-2.333zm-2.069-9.073c-.376 2.295 1.191 3.526 2.159 3.526.646 0 1.06-.552 1.241-1.655-1.322-.115-2.456-.739-3.4-1.872zm8.618 0c-.945 1.133-2.078 1.757-3.4 1.872.181 1.103.595 1.655 1.241 1.655.969 0 2.535-1.232 2.159-3.526z"/></svg>