<svg viewBox="0 0 32 32"><path d="M8.33 5.604c1.29-1.195 3.35-1.42 4.87-.533 1.617.89 2.524 2.887 2.128 4.692A5879.85 5879.85 0 0 0 11.54 25.18c-.091-1.066-.179-2.132-.272-3.197-.533 1.614-1.087 3.22-1.632 4.832a658.16 658.16 0 0 1-.622-3.94c-.332 1.005-.62 2.023-.942 3.032-.42-5.381-.821-10.763-1.24-16.144-.17-1.511.338-3.141 1.498-4.16Zm2.287 1.402c-.838.22-1.416 1.097-1.338 1.951.05.943.889 1.774 1.845 1.743 1.069.017 1.955-1.042 1.81-2.089-.086-1.09-1.257-1.937-2.317-1.605Zm9.208 1.46c.968-.713 2.338-.812 3.396-.237 1.32.684 2.036 2.306 1.694 3.746-.107.5-.348.96-.647 1.37-3.066 4.067-6.124 8.139-9.187 12.207.298-1.336.59-2.674.915-4.002-.658.902-1.286 1.826-1.946 2.727 1.477-4.701 2.957-9.402 4.436-14.101.26-.685.765-1.267 1.34-1.71Zm1.586 2.015c-.713.31-.738 1.442-.04 1.786.562.34 1.338-.072 1.422-.71.164-.739-.694-1.459-1.382-1.076Z"/></svg>