<svg viewBox="0 0 32 32"><path d="m23.193 23.566-7.694-4.064a1.112 1.112 0 0 1 1.04-1.968l7.69 4.063a1.112 1.112 0 0 1-1.036 1.969Z"/><path d="M18.566 26.048s.81.944-.125 1.703c-.935.759-1.012.805-1.994.277l-1.219-.644c-1.046-.553-1.541-1.682-1.103-2.511l.264-.502 3.96-7.495 1.326-2.51.597-1.13 1.326-2.51L25.152 4c9.744 10.002-2.09 17.246-2.09 17.246l-.93 1.76-.99-.523-2.576 3.565ZM16.66 15.785l2.234-3.972C12.936 10.076 8.716 11.07 4 14.296c5.362-1.986 10.674.165 12.66 1.49Z"/><path d="m17.404 14.544 3.222-5.615c-3.221-3.073-6.449-3.073-11.661-1.336 4.716.497 7.879 4.579 8.44 6.95Z"/></svg>