<svg viewBox="0 0 32 32"><path d="M11.789 5.806c1.613-1.221 3.655-1.984 5.695-1.77-.843.833-1.78 1.57-2.566 2.463-1.165 1.263-2.11 2.785-2.453 4.488-.207.958-.185 1.953-.063 2.922.85-2.31 2.114-4.554 4.064-6.11.916-.724 2.038-1.277 3.233-1.204-1.574 1.44-2.66 3.437-2.904 5.563-.084.604-.005 1.214.126 1.806.612-.335 1.261-.717 1.986-.661.622.051 1.13.57 1.278 1.16.182.717-.1 1.483-.56 2.036-.43.403-1.02.565-1.568.736-1.444.397-2.93.766-4.2 1.593-1.327.836-2.293 2.171-2.801 3.644-.74 2.06-.765 4.283-.668 6.443-1.539-.704-2.509-2.204-3.127-3.721-.823-2.056-1.179-4.274-1.253-6.48-.041-1.517.073-3.055.538-4.508.929-3.197 2.55-6.344 5.243-8.4Z"/><path d="M24.529 9.676c.301-.428.917-.568 1.368-.294.997.579 1.484 2.083.75 3.046-.383.534-1.077.622-1.584.989a23.72 23.72 0 0 0-1.772 1.34c-.232 1.368-.615 2.783-1.538 3.856-.447.491-1.099.925-1.792.82-.669-.226-.953-.951-1.256-1.527.772.131 1.45-.379 1.845-.994.639-.945.96-2.27.355-3.308-.403-.7-1.2-1.004-1.951-1.157.198-.576.546-1.167 1.149-1.384.641-.176 1.343.168 1.659.742.746-.024 1.383-.452 1.982-.851.478-.266.43-.906.785-1.278Z"/></svg>