<svg viewBox="0 0 32 32"><path d="M16.5 4c2.511 0 4.63.781 5.62 3.076a4.913 4.913 0 0 1 1.97-.41c2.711 0 4.91 2.19 4.91 4.89 0 2.7-2.199 4.888-4.91 4.888a4.904 4.904 0 0 1-2.584-.73l-.201-.131-1.68.417-.122 2.312c4.955.304 8.604 1.343 8.604 2.577 0 1.257-3.784 2.31-8.877 2.592l-.051.963c2.38 1.186 3.72 1.926 4.017 2.223C21.857 27.2 19.848 28 16.5 28s-5.357-.8-6.696-1.333c.297-.297 1.636-1.037 4.017-2.223l-.051-.963c-5.093-.282-8.877-1.335-8.877-2.592 0-1.234 3.649-2.273 8.604-2.577L13.374 16l-1.68-.417a4.903 4.903 0 0 1-2.784.861c-2.711 0-4.91-2.188-4.91-4.888 0-2.7 2.199-4.89 4.91-4.89.701 0 1.367.147 1.97.41C11.87 4.78 13.99 4 16.5 4ZM9.357 20.444c0 .57 1.794 1.056 4.318 1.247l-.131-2.483-.481.043c-2.197.219-3.706.671-3.706 1.193Zm10.095-1.149-.123 2.313c2.042-.229 3.421-.664 3.421-1.164 0-.489-1.324-.917-3.298-1.149Z"/></svg>