<svg viewBox="0 0 32 32"><path d="M19.147 13.637a9.727 9.727 0 0 1-.27 2.231 11.51 11.51 0 0 1-.968 2.547 14.335 14.335 0 0 1-1.02 1.68 14.34 14.34 0 0 1-.831 1.094c-.076.089-.076.089-.152 0a16.784 16.784 0 0 1-1.628-2.358 12.36 12.36 0 0 1-.876-1.911 10.07 10.07 0 0 1-.47-1.83 8.988 8.988 0 0 1-.103-1.033c-.008-.162-.02-.32-.016-.482.012-.574.064-1.14.167-1.699.164-.844.426-1.641.769-2.4a13.33 13.33 0 0 1 1.142-2.043c.191-.285.386-.558.59-.828.139-.185.286-.362.43-.54.071-.088.083-.084.15 0 .514.656 1.016 1.326 1.45 2.062.263.447.505.91.72 1.391.235.532.434 1.083.59 1.657a9.09 9.09 0 0 1 .286 1.637c.024.278.044.551.04.825Zm-4.24 8.111a3.97 3.97 0 0 1-.585-.054c-.366-.05-.736-.108-1.099-.189a10.15 10.15 0 0 1-2.25-.759 7.363 7.363 0 0 1-1.595-1.04 6.586 6.586 0 0 1-1.45-1.78c-.414-.729-.684-1.519-.863-2.343a12.891 12.891 0 0 1-.203-1.353c-.016-.154-.02-.308-.032-.462-.032-.447-.016-.894-.016-1.337 0-.223.012-.45.036-.674.012-.1.027-.116.12-.104.353.042.708.077 1.062.134.565.093 1.123.22 1.672.39.649.2 1.27.47 1.86.82.059.035.119.074.182.108.056.035.076.081.064.147a6.664 6.664 0 0 0-.064.493c-.016.173-.036.343-.036.516v.52c.004.497.068.987.164 1.468.12.602.306 1.18.541 1.742.207.501.458.979.737 1.441.262.436.549.856.86 1.256.19.247.39.494.597.729.103.111.19.22.298.33Zm2.178.004c-.004-.039.016-.054.028-.07.29-.308.561-.64.82-.978.314-.409.609-.829.872-1.272.235-.389.45-.794.637-1.21a9.383 9.383 0 0 0 .748-2.628c.024-.223.052-.447.052-.67 0-.085 0-.17.016-.254a.428.428 0 0 0 .004-.124c-.024-.42-.036-.84-.108-1.252-.02-.123-.016-.135.084-.197.43-.27.88-.493 1.345-.678.713-.285 1.446-.47 2.194-.6.37-.066.74-.116 1.115-.143.043-.004.083-.012.123-.016.048-.004.08.016.088.07.004.038.015.08.015.12-.003.207.028.411.024.62-.004.342 0 .685-.004 1.028a11.18 11.18 0 0 1-.06.894c-.047.482-.123.956-.234 1.426-.16.67-.386 1.31-.7 1.915a6.73 6.73 0 0 1-1.2 1.645c-.377.382-.8.705-1.25.987a8.594 8.594 0 0 1-2.07.917c-.596.18-1.205.308-1.819.396-.235.027-.473.066-.72.074Zm-.518 1.125c.096-.012.187-.023.279-.027.422-.023.844-.07 1.262-.131a14.56 14.56 0 0 0 1.525-.297 11.481 11.481 0 0 0 1.879-.647 8.864 8.864 0 0 0 1.52-.882 7.913 7.913 0 0 0 1.083-.96c.251-.266.478-.55.681-.851.072-.104.072-.104.195-.074a9.845 9.845 0 0 1 1.74.605 13.819 13.819 0 0 1 2.201 1.268c.08.054.08.062.024.135a14.763 14.763 0 0 1-1.258 1.449c-.394.4-.82.77-1.274 1.102-.573.42-1.19.767-1.863 1.013-.482.177-.98.308-1.493.366a7.06 7.06 0 0 1-.808.054 7.653 7.653 0 0 1-1.564-.173 9.823 9.823 0 0 1-2.102-.736 14.87 14.87 0 0 1-1.521-.848c-.16-.104-.319-.212-.474-.32-.008-.011-.024-.02-.032-.046Zm-1.138 0a3.457 3.457 0 0 0-.279-.027 14.05 14.05 0 0 1-1.262-.131 14.58 14.58 0 0 1-1.525-.297 11.48 11.48 0 0 1-1.879-.647 8.864 8.864 0 0 1-1.52-.882 7.915 7.915 0 0 1-1.083-.96 6.728 6.728 0 0 1-.681-.851c-.072-.104-.072-.104-.195-.074a9.848 9.848 0 0 0-1.74.605 13.823 13.823 0 0 0-2.201 1.268c-.08.054-.08.062-.024.135a14.776 14.776 0 0 0 1.258 1.449c.394.4.82.77 1.274 1.102.573.42 1.19.767 1.863 1.013.482.177.98.308 1.493.366.266.03.537.054.808.054a7.652 7.652 0 0 0 1.564-.173 9.823 9.823 0 0 0 2.102-.736 14.86 14.86 0 0 0 1.521-.848c.16-.104.319-.212.474-.32.012-.011.028-.02.032-.046Z"/></svg>