<svg viewBox="0 0 32 32"><path d="M11.96 4.784c1.822-.984 4.029-.953 5.978-.396 1.293.38 2.573.946 3.567 1.874.303.305.678.681.57 1.154-.159 1.303-.408 2.74-1.417 3.673-.344-1.555-.896-3.183-2.142-4.254a3.36 3.36 0 0 0-3.082-.738c-1.925.477-3.492 2.506-3.061 4.52.313 1.472 1.54 2.506 2.787 3.223-.644.62-1.319 1.208-1.947 1.844l2.725.432c-.745.845-1.5 1.68-2.255 2.514-1.819-.585-3.507-1.704-4.546-3.333-1.002-1.541-1.359-3.474-1.002-5.275.42-2.196 1.884-4.144 3.825-5.238Zm5.905 11.266c.656-.46 1.315-.92 1.975-1.376 1.663.95 3.066 2.43 3.721 4.25.698 1.865.555 4.02-.368 5.784-.917 1.81-2.61 3.17-4.52 3.808-2.036.625-4.25.125-6.08-.874-1.116-.61-2.159-1.4-2.936-2.416-.295-.426-.671-.961-.417-1.493.427-1.207.973-2.518 2.127-3.2.071 1.528.19 3.14 1.04 4.464.624 1.032 1.78 1.748 3 1.733 1.757.037 3.532-1.309 3.702-3.11.138-1.598-.908-2.997-2.052-3.99 1.094-.77 2.198-1.525 3.293-2.294a208.06 208.06 0 0 1-2.485-1.285Z"/></svg>