<svg viewBox="0 0 32 32"><path d="M20.644 11.845c-.692 0-1.346.149-1.938.41L16.965 22.39l-1.897 2.822-1.138-12.845a4.793 4.793 0 0 0-2.18-.521C9.128 11.845 7 13.937 7 16.517c0 1.056.355 2.027.957 2.811l.008.01c.09.116.185.228.284.335L16.161 29l8.007-9.352a4.614 4.614 0 0 0 1.226-3.131c.002-2.58-2.126-4.672-4.75-4.672Z"/><path d="M16.197 14.865a4.726 4.726 0 0 1 2.506-2.61l.213-1.839 1.226.015a.761.761 0 0 0 .757-.765l.002-.318c.002-.426-.335-.78-.747-.784l-2.201-.027.019-2.745c.006-.973-.764-1.782-1.71-1.792-.946-.01-1.724.777-1.728 1.751l-.02 2.745-2.262-.027a.761.761 0 0 0-.757.765l-.002.318c-.002.426.335.78.747.784l1.566.018.127 2.012a4.715 4.715 0 0 1 2.264 2.499Z"/></svg>