<svg viewBox="0 0 32 32"><path d="M14.999 5.08c1.296-.144 2.642-.12 3.889.296.346.132.83.334.79.783-.015.56.03 1.122-.025 1.68-.26.438-.811.563-1.268.693a9.638 9.638 0 0 1-4.301-.03c-.417-.13-.921-.258-1.148-.667-.04-.559-.006-1.12-.018-1.68a.538.538 0 0 1 .252-.507c.538-.365 1.198-.474 1.829-.568Zm-1.25 4.08c.914.362 1.91.434 2.883.41.752-.028 1.515-.126 2.217-.413-.005.636.003 1.273-.006 1.91-1.724.488-3.294 1.38-4.954 2.037-.293.107-.548.297-.839.405-1.368-.424-2.77-.821-4.214-.856a3.32 3.32 0 0 0-1.092.156c.127.484.466.868.796 1.229.633.677 1.362 1.255 2.103 1.808 2.874-1.834 5.99-3.313 9.265-4.272 1.267-.36 2.567-.65 3.89-.673.725.003 1.501.085 2.11.518.505.352.805.983.727 1.6-.088.74-.505 1.392-.975 1.95-.645.725-1.37 1.38-2.151 1.957.954.739 1.886 1.545 2.561 2.555.42.632.7 1.459.39 2.195-.272.704-1.023 1.062-1.724 1.183-1.22.188-2.455-.037-3.648-.297-2.118-.492-4.155-1.283-6.124-2.195a37.612 37.612 0 0 1-4.336-2.386c-.766.548-1.505 1.144-2.143 1.837-.297.348-.637.703-.715 1.172.415.112.846.158 1.275.132 1.261-.063 2.49-.389 3.697-.744.177-.08.33.072.477.149 1.76 1.023 3.679 1.737 5.602 2.387-.025.614.084 1.251-.138 1.84a2.558 2.558 0 0 1-1.556 1.591 2.48 2.48 0 0 1-2.136-.204 2.587 2.587 0 0 1-1.266-2.17c-.006-.683.002-1.364-.002-2.045-1.554.491-3.148.928-4.785.974-.805.012-1.68-.081-2.328-.605-.62-.508-.77-1.442-.43-2.152.599-1.365 1.796-2.325 2.928-3.234-1.012-.79-2.017-1.64-2.692-2.75-.33-.544-.527-1.213-.349-1.843.16-.599.684-1.037 1.257-1.225.83-.28 1.727-.224 2.585-.132 1.308.175 2.588.518 3.839.933.003-.91.001-1.82.001-2.731Zm8.56 3.671c-1.695.305-3.332.86-4.926 1.5a38.191 38.191 0 0 0-5.097 2.547c.18.202.43.313.66.445a36.47 36.47 0 0 0 5.813 2.702c1.325.466 2.681.868 4.076 1.059.67.08 1.368.141 2.016-.084a2.026 2.026 0 0 0-.342-.68c-.688-.924-1.616-1.629-2.522-2.326-.732.475-1.488.909-2.248 1.333-.546-.188-1.11-.32-1.655-.508-1.438-.578-2.884-1.136-4.325-1.706.849-.43 1.629-1.004 2.542-1.299 1.123-.39 2.213-.867 3.295-1.356.827.403 1.598.91 2.378 1.395.669-.492 1.331-.999 1.91-1.596.408-.415.846-.86.991-1.443-.84-.234-1.722-.13-2.567.017Z"/></svg>