<svg viewBox="0 0 32 32"><path d="m25.52 20.053-4.125-8.744c-.645-1.37-1.67-3.813-2.91-5.133-.07-.082-.145-.163-.215-.245-2.315-2.615-7.36-3.762-8.985-2.269-1.585 1.458-1.04 6.49 1.15 9.157l-.01-.006c.805 1.035 1.67 2.198 2.735 2.957l3.12 2.264c-.32.102-.64.209-.96.31l-2.88.913-2.87.959-1.97.657c-.55.184-.92.893-.205 1.305l1.61.933c.85.495 1.695 1 2.555 1.484l2.57 1.463a243.69 243.69 0 0 0 5.185 2.85c.11.056.245.036.335-.056a.286.286 0 0 0-.015-.398 251.103 251.103 0 0 0-4.37-4.032l-1.695-1.52 2.675-.418c.995-.158 1.985-.31 2.985-.453l3.005-.352 2.705-.326c.875-.102.91-.607.58-1.3Zm-8.335-5.318-4.45-3.497c-.605-.5-.53-.55-1.085-1.285-.92-1.218-1.185-3.492-.43-4.175.755-.683 2.9-.097 4.01.948.625.592 1.055 1.25 1.22 1.606l1.995 3.834-2.815-1.26 1.555 3.83Z"/></svg>