<svg viewBox="0 0 32 32"><path d="M21.709 27.54c-1.319-.275-2.395-.137-2.729-.888-.155-.353-.896-2.223-.603-3.45.237-.992 1.084-2.968 1.398-3.688-.475-.093-.944-.322-1.436-.483-.8-.226-1.123-.618-1.214-1.005-.003-.008-.003-.016-.003-.02a1.128 1.128 0 0 1-.026-.242c0-.829 1.207-1.172 2.465-1.74a9.379 9.379 0 0 0 .823-.416c1.981-1.159 1.574-2.024 1.574-3.48 0-2.453-.108-2.845-.108-3.941 0-2.283 1.459-2.28 2.953-3.55-.354-.416-1.283-.619-2.312-.634H9.538C9.468 4 9.394 4 9.324 4h-.012c-1.028.016-1.957.218-2.312.634 1.495 1.27 2.954 1.267 2.954 3.55 0 1.097-.108 1.489-.108 3.94 0 1.458-.408 2.323 1.573 3.481a9.327 9.327 0 0 0 .824.416c1.257.569 2.464.914 2.464 1.74 0 .078-.008.159-.026.242-.003.007-.003.015-.003.02-.09.387-.413.78-1.216 1.008-.495.161-.964.387-1.436.483.316.72 1.164 2.696 1.398 3.689.293 1.226-.445 3.096-.604 3.449-.33.75-1.41.613-2.728.888C8.773 27.816 8.7 29 8.7 29h14.4s-.073-1.187-1.392-1.46Z"/></svg>