<svg viewBox="0 0 32 32"><path d="M24.044 16.047c-2.138 1.069-5.939 1.039-7.572.891 13.808 4.009 13.363-6.681 9.354-6.681-3.207 0-3.415 2.673-3.118 4.009 2.227-2.227 4.009.445 1.336 1.782zm-10.69-2.228C11.216 15.244 6.227 15.898 4 16.046c7.127 1.782 17.817-.891 15.59-8.463s-11.136-4.454-10.69 0c.356 3.563 3.118 4.157 4.454 4.009-3.118-4.009 1.782-5.791 2.673-3.563s0 4.009-2.673 5.791zm4.009 8.018c-2.138-2.138-8.018-2.97-10.69-3.118 7.127-.445 12.918.445 15.59 3.118s.445 8.018-4.454 8.018c-3.92 0-4.9-3.267-4.9-4.9 3.564 3.118 7.127-.445 4.454-3.118z"/></svg>