<svg viewBox="0 0 32 32"><path d="M15.413 21.3c.202.139.393.2.59.2.196 0 .387-.061.589-.2a2.18 2.18 0 0 0 .573-.647c.352-.579.59-1.432.59-2.377 0-.714-.135-1.37-.352-1.897-.217-.528-.517-.92-.816-1.127a1.012 1.012 0 0 0-.59-.202c-.196 0-.387.062-.589.202a2.17 2.17 0 0 0-.574.646c-.351.579-.589 1.432-.589 2.378 0 .713.135 1.37.352 1.896.212.528.517.92.816 1.127Z"/><path d="M28.872 14.782c-.351-1.964-1.581-3.54-2.207-5.567-.206.31-.393.486-.45.698a11.586 11.586 0 0 0-.335 1.675c-.078.764-.486 1.173-1.256 1.152-.776-.02-1.427-.563-1.711-1.473-.605-1.954-.962-3.949-.956-6.006 0-.398-.17-.796-.259-1.194-.067-.02-.14-.041-.212-.067-.454.388-.966.718-1.354 1.163-1.354 1.56-2.067 3.432-2.377 5.448-.233 1.53 0 3.003.868 4.326.062.093.17.16.264.243.656-1.132 1.405-1.35 2.46-.776 1.039.569 1.302 1.484 1.116 2.6-.108.657-.465 1.085-1.204 1.25-1.06.239-1.763-.31-2.527-.862-.006-.005-.01-.01-.016-.01.041.289.062.583.062.894a6.17 6.17 0 0 1-.424 2.29c-.274.666-.667 1.22-1.178 1.58-.341.239-.75.389-1.179.389-.429 0-.837-.145-1.178-.388a3.164 3.164 0 0 1-.869-.956c-.47-.776-.739-1.799-.739-2.915 0-.31.026-.605.068-.895-.486.305-.951.667-1.479.869-.858.33-1.907-.181-2.176-1.003-.305-.925-.113-2.28 1.122-2.874 1.044-.501 1.675-.315 2.476.905.072-.135.129-.248.196-.352a5.656 5.656 0 0 0 .92-3.37c-.041-.956-.263-1.87-.532-2.806-.269-.915-.682-1.721-1.132-2.522-.517-.92-1.163-1.752-2.29-2.176-.114.32-.279.61-.31.91-.015.134-.02.268-.026.402.93 2.58-.119 4.993-1.22 6.477-.005.01-.015.02-.02.03a2.61 2.61 0 0 1-.858.734c-.91.481-1.716-.082-1.799-1.09-.052-.563-.207-1.122-.356-1.67-.052-.185-.243-.335-.378-.511-.47.992-.94 1.876-1.318 2.796-.362.89-.723 1.799-.915 2.734-.31 1.479-.305 2.983.615 4.285.807 1.148 1.7 2.238 2.57 3.344.31.393.64.77.971 1.148.191.217.403.418.61.625.041-.026.083-.046.124-.072-.01-.15-.047-.3-.031-.445.046-.44.036-.904.191-1.307.357-.936 1.597-1.37 2.3-.75.517.455.987 1.065 1.24 1.7.404 1.019.972 1.897 1.815 2.533.775.584 1.52 1.168 2.036 2 .253.403.44.316.724-.005.558-.62 1.1-1.292 1.773-1.762.925-.641 1.524-1.484 2.02-2.44.228-.44.388-.92.652-1.328.775-1.2 2.093-1.334 2.811-.238.28.424.28 1.039.383 1.571.03.155-.016.326-.031.486l.14.062c.211-.227.439-.45.635-.687.703-.838 1.334-1.732 2.099-2.507 1.762-1.773 2.486-3.81 2.041-6.295Z"/></svg>