<svg viewBox="0 0 32 32"><path d="M1.477 22.287a6.26 6.26 0 0 1-.477.068c.155-.023.314-.046.477-.068 1.878-.336 5.795-1.718 9.684-5.254 5.323-4.839 9.194-4.355 14.516 0 4.258 3.484 5.323 5 5.323 5.323-1.129-.161-4.258.194-7.742 2.903s-5.645 3.387-6.29 3.387c1.29-1.29 3.774-4.839 3.387-8.71-.484-4.839-4.839-4.355-7.742-1.452-3.003 3.003-7.89 3.358-11.136 3.803z"/><path d="M12.129 13.161c3.871-4.258 9.032-2.419 11.129-.968l-.968-2.419 2.419-2.419-3.387-.484.484-3.387-2.903 1.452-2.419-1.935-1.452 2.419h-3.387l.968 2.903-3.387 1.452 2.419.968.484 2.419z"/></svg>