<svg viewBox="0 0 32 32"><path d="m12.399 9.397 1.948 5.97c.097.31.39.618.682.721l5.747 2.162-5.552 2.059c-.39.103-.682.514-.877.926L12.301 27l-2.24-5.765a1.988 1.988 0 0 0-1.072-1.132l-4.967-2.059 5.65-2.059c.389-.103.584-.412.779-.72l1.948-5.868Zm14.428 2.284c7.187 2.256 5.525 9.477-8.389 10.893 10.15-3.52 10.58-7.968 5.747-8.895l2.642-1.998Zm-17.35-1.254-1.072 1.44s-3.02 1.236-3.702 3.81c0 0-3.799 1.44-3.701 1.235 2.532-6.074 8.474-6.485 8.474-6.485ZM19.898 6c.682 2.059 2.143 3.603 4.286 4.427-2.143.823-3.506 2.264-4.286 4.632-.779-2.265-2.143-3.809-4.286-4.53C17.756 9.706 19.12 8.265 19.9 6Z"/></svg>