<svg viewBox="0 0 48 48" class="createSvgIcon__Svg-sc-1l8xi8d-0 loXvaP ability-icon"><path d="M8.203 31.03c-3.95.912-5.165 3.95-5.165 4.861 0 .912 1.215 3.646 3.95 4.253 4.253.608 4.253 1.52 5.468 2.43 1.215.912 4.253 2.735 11.544 2.735s10.025-1.823 11.24-3.038c1.216-1.215 4.254-2.43 5.773-2.43 1.251 0 3.949-1.216 3.949-3.646 0-3.038-3.342-4.253-5.165-5.165-1.822-.911-2.126-1.822-1.822-2.43.303-.608 1.215-.911 2.734-.304C47.392 31.334 48 34.372 48 35.891c0 1.52-2.734 10.633-22.785 10.633C5.165 46.524 0 39.84 0 35.891c0-3.95 4.253-6.38 5.468-6.987 1.216-.608 3.646-2.127 4.861-.608 0 0 .912 1.52-2.126 2.734ZM3.515 18.982l-1.197-1.75-2.069-.459L2 15.576l.459-2.069 1.197 1.75 2.069.459-1.75 1.197-.46 2.069Zm40.092.048-.78-1.968-1.918-.902 1.969-.781.902-1.917.781 1.968 1.917.903-1.969.78-.902 1.917ZM28.113 8.14l-2.652-1.808-3.171.492 1.807-2.652L23.608 1l2.652 1.808 3.172-.493-1.808 2.653.49 3.171Zm6.064-.797a1.214 1.214 0 0 0 1.537.842c-.191.3-.495.51-.85.617a1.6 1.6 0 0 1-1.975-1.082 1.589 1.589 0 0 1 1.09-1.996 1.62 1.62 0 0 1 1.028.049c-.65.21-1.027.893-.83 1.57ZM9.715 4.788a2.195 2.195 0 0 1 1.38-.066 2.126 2.126 0 0 1 1.464 2.676 2.15 2.15 0 0 1-2.65 1.45c-.473-.14-.883-.423-1.138-.827.878.28 1.825-.24 2.062-1.13a1.697 1.697 0 0 0-1.118-2.103Zm7.252 15.707c.149.27.56.106.483-.192-.68-2.716-1.923-7.522-2.564-9.02-.607-1.518-1.823-1.215-2.127-.91-.303.303-.607 1.214 0 2.43.429.86 2.835 5.216 4.208 7.692Zm16.852-7.389c.607-1.215.303-2.126 0-2.43-.304-.304-1.52-.608-2.127.911-.64 1.498-1.883 6.304-2.564 9.02-.076.298.334.459.483.192 1.37-2.476 3.776-6.833 4.208-7.693Zm-9.266 24.155c.024.48.732.486.762.006.177-2.64.371-5.286.508-6.237.304-2.126-1.52-3.341-1.215-5.164.303-1.823 1.822-2.734 1.822-4.253 0-1.52-2.126-3.342-1.822-5.469.303-2.126 3.341-5.468.607-6.683-2.734-1.215-4.253 5.164-4.253 6.683 0 2.43 2.127 3.95 2.127 5.773 0 1.822-1.216 1.518-1.216 3.949 0 2.43 2.43 2.734 2.43 5.164 0 1.067.12 3.658.25 6.231Zm7.097-.76c.063.438.704.408.726-.036.067-1.43.13-2.925.13-3.612 0-1.519-.607-1.823-.607-3.038 0-1.215 2.126-1.519 2.734-3.342.607-1.822-.608-3.645 2.127-4.86 2.734-1.215 4.556-.912 4.253-2.735-.304-1.822-3.342-.607-3.95-.303-.607.303-5.164 2.43-5.164 5.164 0 2.43.07 2.172-.912 3.646-.607.911-.911 1.215-.911 2.126 0 1.52 1.215 1.216 1.215 3.342 0 .912.167 2.33.359 3.649Zm-16.123-3.648c0-2.126 1.215-1.823 1.215-3.342 0-.911-.303-1.215-.911-2.126-.981-1.474-.912-1.215-.912-3.646 0-2.734-4.556-4.86-5.164-5.164-.608-.304-3.646-1.52-3.95.303-.303 1.823 1.52 1.52 4.254 2.735 2.734 1.215 1.519 3.038 2.126 4.86.608 1.823 2.734 2.127 2.734 3.342 0 1.215-.607 1.52-.607 3.038 0 .687.06 2.181.13 3.612.022.44.663.474.727.037.191-1.319.358-2.737.358-3.649Z"/></svg>