<svg viewBox="0 0 118 113" class="createSvgIcon__Svg-sc-1l8xi8d-0 loXvaP"><path opacity=".5" fill-rule="evenodd" clip-rule="evenodd" d="M59.03 1 59 .949 58.97 1h.06ZM62 6.174V15h-1.852l44.719 77.897 1.193-1.96 7.071 4.305L62 6.174ZM109.409 100l-6.469-3.937L104.196 94H13.804l1.256 2.063L8.59 100h100.82ZM4.869 95.242l7.071-4.305 1.193 1.96L57.852 15H56V6.174L4.869 95.242Z" fill="var(--shade0)"/><path opacity=".25" d="M59 1v7m57 92.5-5.75-3.5M2 100.5 7.75 97" stroke="var(--shade0)" stroke-width="2"/><path d="M42.5 111h33l2.5-2.5 1.75 1.75L77 113H41l-2.75-2.75L40 108.5l2.5 2.5Z" fill="var(--shade0)"/><path opacity=".25" d="M108 104.5H78.25l-3.75-3h-12L59 98l-3.5 3.5h-12l-3.75 3H10" stroke="var(--shade0)"/><path d="M108 104.5h-4m-94 0h4" stroke="var(--shade0)" stroke-width="1.5"/><path d="M68 101.5h-5.5L59 98l-3.5 3.5H50" stroke="var(--shade0)"/><path opacity=".25" fill-rule="evenodd" clip-rule="evenodd" d="M66.5 108H75v-1.5l-1.5-1.5H65v1.5l1.5 1.5ZM48 105h-3.5l-1.5 1.5v1.5h8.5l1.5-1.5V105h-5Z" fill="var(--shade0)"/><path fill="var(--shade0)" d="m59 100.379 2.121 2.121L59 104.622l-2.121-2.122z"/><path d="M59 104v3" stroke="var(--shade0)"/><path d="m55 106.5 1.5-1.5h.5v.5l-1.5 1.5H55v-.5Zm0 2 1.5-1.5h.5v.5l-1.5 1.5H55v-.5Zm8-2-1.5-1.5H61v.5l1.5 1.5h.5v-.5Zm0 2-1.5-1.5H61v.5l1.5 1.5h.5v-.5Z" opacity=".25" fill-rule="evenodd" clip-rule="evenodd" fill="var(--shade0)"/><path d="m28.322 31.71-16.5 28.58.915 3.415-2.39.64L9.34 60.59l18-31.177 3.756-1.007.64 2.39-3.414.916Z" fill="var(--shade0)"/><path opacity=".25" d="m1.2 91.685 14.876-25.764 4.473-1.748 6-10.392 4.781-1.28-1.281-4.782 6-10.392-.723-4.748L50.2 6.815" stroke="var(--shade0)"/><path d="m1.2 91.685 2-3.464m47-81.406-2 3.464" stroke="var(--shade0)" stroke-width="1.5"/><path d="m23.799 58.544 2.75-4.763L31.33 52.5l-1.281-4.781 2.75-4.763" stroke="var(--shade0)"/><path opacity=".25" fill-rule="evenodd" clip-rule="evenodd" d="m18.92 53.995-1.75 3.031-2.5 4.33 1.299.75 2.049-.549 1.75-3.03 2.5-4.33-1.3-.75-2.048.548Zm11.848-14.521 1.75-3.032-.55-2.048-1.299-.75-2.5 4.33-1.75 3.03.55 2.05 1.299.75 2.5-4.33Z" fill="var(--shade0)"/><path fill="var(--shade0)" d="m29.27 51.31-2.898.777-.776-2.898 2.898-.776z"/><path d="M26.134 49.5 23.536 48" stroke="var(--shade0)"/><path d="m25.969 44.786.549 2.049-.25.433-.433-.25-.55-2.05.25-.432.434.25Zm-1.732-1 .549 2.049-.25.433-.433-.25-.55-2.05.25-.432.434.25Zm-2.268 7.928 2.049-.549.25-.433-.433-.25-2.05.55-.25.432.434.25Zm-1.732-1 2.049-.549.25-.433-.433-.25-2.05.55-.25.432.434.25Z" opacity=".25" fill-rule="evenodd" clip-rule="evenodd" fill="var(--shade0)"/><path d="m89.678 31.71 16.5 28.58-.915 3.415 2.391.64 1.006-3.756-18-31.177-3.756-1.007-.64 2.39 3.414.916Z" fill="var(--shade0)"/><path opacity=".25" d="m116.799 91.685-14.875-25.764-4.473-1.748-6-10.392-4.781-1.28 1.28-4.782-6-10.392.724-4.748L67.799 6.815" stroke="var(--shade0)"/><path d="m116.799 91.685-2-3.464m-47-81.406 2 3.464" stroke="var(--shade0)" stroke-width="1.5"/><path d="m94.2 58.544-2.75-4.763-4.78-1.281 1.28-4.781-2.75-4.763" stroke="var(--shade0)"/><path opacity=".25" fill-rule="evenodd" clip-rule="evenodd" d="m99.08 53.995 1.75 3.031 2.5 4.33-1.299.75-2.049-.549-1.75-3.03-2.5-4.33 1.299-.75 2.05.548ZM87.232 39.474l-1.75-3.032.549-2.048 1.3-.75 2.5 4.33 1.75 3.03-.55 2.05-1.299.75-2.5-4.33Z" fill="var(--shade0)"/><path fill="var(--shade0)" d="m88.73 51.31 2.898.777.776-2.898-2.898-.776z"/><path d="m91.866 49.5 2.598-1.5" stroke="var(--shade0)"/><path d="m92.031 44.786-.549 2.049.25.433.433-.25.549-2.05-.25-.432-.433.25Zm1.732-1-.549 2.049.25.433.433-.25.55-2.05-.25-.432-.434.25Zm2.268 7.928-2.049-.549-.25-.433.433-.25 2.049.55.25.432-.433.25Zm1.732-1-2.049-.549-.25-.433.433-.25 2.05.55.25.432-.434.25Z" opacity=".25" fill-rule="evenodd" clip-rule="evenodd" fill="var(--shade0)"/><path d="M105.5 95h1.727l-.86-1.498-46.5-81-.867-1.51-.867 1.51-46.5 81-.86 1.498H105.5Z" stroke="var(--shade7)" stroke-width="2"/></svg>