<svg viewBox="0 0 132 118" class="createSvgIcon__Svg-sc-1l8xi8d-0 loXvaP"><path opacity=".25" d="M66 3v7m57 92.5-5.75-3.5M9 102.5l5.75-3.5" stroke="var(--shade0)" stroke-width="2"/><path opacity=".25" d="M115 106.5H85.25l-3.75-3h-12L66 100l-3.5 3.5h-12l-3.75 3H17" stroke="var(--shade0)"/><path d="M115 106.5h-4m-94 0h4" stroke="var(--shade0)" stroke-width="1.5"/><path d="M75 103.5h-5.5L66 100l-3.5 3.5H57" stroke="var(--shade0)"/><path opacity=".25" fill-rule="evenodd" clip-rule="evenodd" d="M55 107h-3l-2 2v2h8l2-2v-2h-5Zm22 0h3l2 2v2h-8l-2-2v-2h5Z" fill="var(--shade0)"/><path fill="var(--shade0)" d="m66 111.379 2.121 2.121L66 115.622l-2.121-2.122z"/><path d="M66 104v9" stroke="var(--shade0)"/><path d="m62 109.5 1.5-1.5h.5v.5l-1.5 1.5H62v-.5Zm0 2 1.5-1.5h.5v.5l-1.5 1.5H62v-.5Zm1 4 1.5-1.5h.5v.5l-1.5 1.5H63v-.5Zm7-6-1.5-1.5H68v.5l1.5 1.5h.5v-.5Zm0 2-1.5-1.5H68v.5l1.5 1.5h.5v-.5Zm-1 4-1.5-1.5H67v.5l1.5 1.5h.5v-.5Z" opacity=".25" fill-rule="evenodd" clip-rule="evenodd" fill="var(--shade0)"/><path opacity=".25" d="m8.2 93.685 14.876-25.764 4.473-1.748 6-10.392 4.781-1.28-1.281-4.782 6-10.392-.723-4.748L57.2 8.815" stroke="var(--shade0)"/><path d="m8.2 93.685 2-3.464m47-81.406-2 3.464" stroke="var(--shade0)" stroke-width="1.5"/><path d="m30.799 60.544 2.75-4.763L38.33 54.5l-1.281-4.781 2.75-4.763" stroke="var(--shade0)"/><path opacity=".25" fill-rule="evenodd" clip-rule="evenodd" d="m37.768 41.474 1.5-2.598-.732-2.732-1.733-1-2.5 4.33-1.5 2.598.733 2.732 1.732 1 2.5-4.33Zm-11 19.052-1.5 2.598-2.732.732-1.733-1 2.5-4.33 1.5-2.598 2.733-.732 1.732 1-2.5 4.33Z" fill="var(--shade0)"/><path fill="var(--shade0)" d="m28.476 48.81-2.898.777-.777-2.898 2.898-.776z"/><path d="M34.866 52.5 27.072 48" stroke="var(--shade0)"/><path d="m32.103 46.286.549 2.049-.25.433-.433-.25-.55-2.05.25-.432.434.25Zm-1.733-1 .55 2.049-.25.433-.433-.25-.55-2.05.25-.432.434.25Zm-3.963-1.134.549 2.049-.25.433-.433-.25-.55-2.049.25-.433.434.25Zm1.696 9.062 2.049-.549.25-.433-.433-.25-2.05.55-.25.432.434.25Zm-1.733-1 2.05-.549.25-.433-.433-.25-2.05.55-.25.432.434.25Zm-2.963-2.866 2.049-.549.25-.433-.433-.25-2.05.55-.25.432.434.25Z" opacity=".25" fill-rule="evenodd" clip-rule="evenodd" fill="var(--shade0)"/><path opacity=".25" d="m74.799 8.815 14.875 25.764-.723 4.748 6 10.392-1.281 4.78 4.78 1.282 6.001 10.392 4.473 1.748 14.875 25.764" stroke="var(--shade0)"/><path d="m74.799 8.815 2 3.464m47 81.406-2-3.464" stroke="var(--shade0)" stroke-width="1.5"/><path d="m92.2 44.956 2.75 4.763-1.28 4.781 4.78 1.281 2.751 4.763" stroke="var(--shade0)"/><path opacity=".25" fill-rule="evenodd" clip-rule="evenodd" d="m105.232 60.526 1.5 2.598 2.732.732 1.732-1-2.5-4.33-1.5-2.598-2.732-.732-1.732 1 2.5 4.33Zm-11-19.052-1.5-2.598.732-2.732 1.732-1 2.5 4.33 1.5 2.598-.732 2.732-1.732 1-2.5-4.33Z" fill="var(--shade0)"/><path fill="var(--shade0)" d="m103.524 48.81.777-2.897 2.898.776-.777 2.898z"/><path d="m97.134 52.5 7.794-4.5" stroke="var(--shade0)"/><path d="m103.897 53.214-2.049-.549-.25-.433.433-.25 2.049.55.25.432-.433.25Zm1.732-1-2.049-.549-.25-.433.433-.25 2.049.55.25.432-.433.25Zm2.964-2.866-2.049-.549-.25-.433.433-.25 2.049.549.25.433-.433.25Zm-8.696-3.062-.549 2.049.25.433.433-.25.549-2.05-.25-.432-.433.25Zm1.732-1-.549 2.049.25.433.433-.25.549-2.05-.25-.432-.433.25Zm3.964-1.134-.549 2.049.25.433.433-.25.549-2.05-.25-.432-.433.25Z" opacity=".25" fill-rule="evenodd" clip-rule="evenodd" fill="var(--shade0)"/><path opacity=".5" fill-rule="evenodd" clip-rule="evenodd" d="m66 2.949.03.051h-.06l.03-.051ZM69 17V8.174l16.982 29.582-.413 2.713 16.202 28.062 2.421.946 15.939 27.765-7.071-4.305-1.193 1.96L67.148 17H69Zm40.94 81.063 6.469 3.937H84.702l-2.5-2H49.798l-2.5 2H15.591l6.469-3.937L20.804 96h90.392l-1.256 2.063Zm-91-5.126-7.071 4.305 15.939-27.765 2.421-.946 16.202-28.062-.413-2.713L63 8.174V17h1.852L20.133 94.897l-1.193-1.96Z" fill="var(--shade0)"/><path d="M112.5 97h1.727l-.86-1.498-46.5-81-.867-1.51-.867 1.51-46.5 81-.86 1.498H112.5Z" stroke="var(--shade7)" stroke-width="2"/><path d="M78 3h-9.5L66 5.5 63.5 3H54l-4 3-2.5-1.5L53.048 0h25.904L84.5 4.5 82 6l-4-3Zm38.848 109.671 4.75-8.227-.915-3.415 3.415-.915 4.75-8.228-.598-4.964 2.549-1.415 1.123 7.055-12.952 22.433-6.671 2.555-.049-2.915 4.598-1.964Zm-101.696 0-4.75-8.227.915-3.415-3.415-.915-4.75-8.228.598-4.964-2.549-1.415-1.123 7.055 12.952 22.433 6.671 2.555.049-2.915-4.598-1.964Z" fill="var(--shade0)"/></svg>