<svg viewBox="0 0 48 48" class="createSvgIcon__Svg-sc-1l8xi8d-0 loXvaP ability-icon"><path d="M48 35.434c0 1.282-2.734 8.971-22.785 8.971C5.165 44.405 0 38.767 0 35.434c0-1.896 1.376-3.378 2.789-4.396a13.848 13.848 0 0 0 1.75 1.972c-1.094.948-1.501 1.983-1.501 2.424 0 .769 1.215 3.077 3.95 3.588 4.253.513 4.253 1.282 5.468 2.05 1.215.769 4.253 2.306 11.544 2.306s10.025-1.537 11.24-2.564c1.216-1.027 4.254-2.05 5.773-2.05 1.251 0 3.949-1.027 3.949-3.078 0-.996-.507-1.759-1.23-2.367a14.27 14.27 0 0 0 1.753-1.844C47.72 33.12 48 34.568 48 35.434Zm-4.253-11.84c0 4.236-1.349 8.155-3.634 11.36-4.159.024-5.252 1.6-6.088 2.16-.911.608-1.519.304-.911-.608.608-.911 2.127-3.949 2.127-6.076 0-4.86-1.216-6.683-2.735-8.202-1.519-1.52-1.519-.304-1.823.911-1.215 4.253-4.556 5.469-6.683 6.076-2.127.608-2.734 2.127 0 3.038 2.734.912 6.076 2.43 6.076 2.43s.911.912-6.076.912-10.025-5.772-11.24-7.291c-1.52 3.038 1.822 8.81 1.822 8.81s-1.215-1.52-3.341-1.823c-1.416-.203-2.428-.407-3.482-.966a19.491 19.491 0 0 1-3.202-10.73C4.557 12.774 13.331 4 24.152 4s19.595 8.774 19.595 19.595ZM9.448 22.65a1.07 1.07 0 1 0-2.133-.194l-.121 1.355c-.015.455-.043.908-.046 1.36.013.456-.003.906.04 1.359l.048.674.086.671c.124.894.312 1.775.598 2.622.149.422.307.839.507 1.234.192.4.414.79.687 1.13a6.09 6.09 0 0 1-.44-1.218c-.113-.417-.18-.839-.24-1.261a13.436 13.436 0 0 1-.055-2.543l.048-.632.085-.629c.046-.416.15-.832.22-1.242.087-.41.197-.817.294-1.225l.364-1.203.016-.051a.757.757 0 0 0 .042-.207Zm5.708-3.843-2.397-.945-1.105-2.327-.942 2.397-2.327 1.106 2.397.942 1.106 2.327.941-2.397 2.327-1.103ZM22.482 6.43c-.927.067-1.85.2-2.774.38-.92.182-1.84.416-2.749.73-.908.318-1.81.707-2.67 1.257-.86.54-1.69 1.267-2.312 2.254l-.028.046a1.225 1.225 0 1 0 2.203 1.042c.222-.656.668-1.325 1.264-1.911.59-.596 1.3-1.121 2.06-1.589a19.445 19.445 0 0 1 2.412-1.249 22.654 22.654 0 0 1 2.594-.96ZM41.59 25.54c.149-1.295.243-2.592.079-3.871-.04-.641-.191-1.264-.307-1.887-.173-.61-.319-1.224-.559-1.804a15.74 15.74 0 0 0-1.686-3.303 14.984 14.984 0 0 0-2.357-2.773c.74.948 1.34 1.99 1.825 3.068a14.747 14.747 0 0 1 1.048 3.342c.131.562.164 1.142.228 1.704.006.571.052 1.136-.015 1.702-.042 1.127-.322 2.22-.626 3.277l-.021.076a1.223 1.223 0 1 0 2.39.468Z"/></svg>