<svg viewBox="0 0 137 124" class="createSvgIcon__Svg-sc-1l8xi8d-0 loXvaP"><path opacity=".25" d="M69 3v7m57 92.5-5.75-3.5M12 102.5l5.75-3.5" stroke="var(--shade0)" stroke-width="2"/><path opacity=".25" d="M116 106.5H88.25l-3.75-3h-12L69 100l-3.5 3.5h-12l-3.75 3H22" stroke="var(--shade0)"/><path d="m123 110.5-7-4h-2m-99 4 7-4h2" stroke="var(--shade0)" stroke-width="1.5"/><path d="M78 103.5h-5.5L69 100l-3.5 3.5H60" stroke="var(--shade0)"/><path opacity=".25" fill-rule="evenodd" clip-rule="evenodd" d="m23 111 4-2h20v2l-4 2H23v-2Zm68 0 4 2h20v-2l-4-2H91v2Z" fill="var(--shade0)"/><path d="M69 104v7m0 0 4.5 4.5v2l2 2M69 111l-4.5 4.5v2l-2 2m13 0H80l4 4m-8.5-4H71l-2-2-2 2h-4.5m0 0H58l-4 4" stroke="var(--shade0)"/><path opacity=".25" d="m75.5 119.5 2 2H91l2 2m-30.5-4-2 2H47l-2 2" stroke="var(--shade0)"/><path d="m65 107.5 1.5-1.5h.5v.5l-1.5 1.5H65v-.5Zm0 2 1.5-1.5h.5v.5l-1.5 1.5H65v-.5Zm8-2-1.5-1.5H71v.5l1.5 1.5h.5v-.5Zm0 2-1.5-1.5H71v.5l1.5 1.5h.5v-.5Z" opacity=".25" fill-rule="evenodd" clip-rule="evenodd" fill="var(--shade0)"/><path opacity=".25" d="m12.2 91.953 13.876-24.032 4.473-1.748 6-10.392 4.781-1.28-1.281-4.782 6-10.392-.723-4.748L59.2 10.547" stroke="var(--shade0)"/><path d="m5.237 96.015 6.964-4.062 1-1.732M59.237 2.485l-.036 8.062-1 1.732" stroke="var(--shade0)" stroke-width="1.5"/><path d="m33.799 60.544 2.75-4.763L41.33 54.5l-1.281-4.781 2.75-4.763" stroke="var(--shade0)"/><path opacity=".25" fill-rule="evenodd" clip-rule="evenodd" d="m54.804 9.163-.268 4.464-10 17.32-1.732-1 .268-4.464 10-17.32 1.732 1Zm-34 58.89-3.732 2.464-10 17.32 1.732 1 3.732-2.464 10-17.32-1.732-1Z" fill="var(--shade0)"/><path d="M37.866 52.5 31.804 49m0 0-6.147 1.647-1.732-1-2.732.732M31.803 49l-1.646-6.147-1.732-1-.732-2.732m-6.5 11.258-2.25 3.897-5.465 1.464m7.715-5.36 2.25-3.898 2.732-.732-.732-2.732 2.25-3.897m0 0 2.25-3.897-1.465-5.464" stroke="var(--shade0)"/><path opacity=".25" d="m21.193 50.38-2.733.731-6.75 11.692-2.732.732M27.693 39.12l-.733-2.731 6.75-11.692-.732-2.732" stroke="var(--shade0)"/><path d="m36.835 47.286.549 2.049-.25.433-.433-.25-.55-2.05.25-.432.434.25Zm-1.732-1 .549 2.049-.25.433-.433-.25-.55-2.05.25-.432.434.25Zm-2.268 7.928 2.049-.549.25-.433-.433-.25-2.05.55-.25.432.434.25Zm-1.732-1 2.049-.549.25-.433-.433-.25-2.05.55-.25.432.434.25Z" opacity=".25" fill-rule="evenodd" clip-rule="evenodd" fill="var(--shade0)"/><path opacity=".25" d="m78.799 10.547 13.875 24.032-.723 4.748 6 10.392-1.281 4.78 4.781 1.282 6 10.392 4.473 1.748 13.875 24.032" stroke="var(--shade0)"/><path d="m78.763 2.485.036 8.062 1 1.732m52.964 83.736-6.964-4.062-1-1.732" stroke="var(--shade0)" stroke-width="1.5"/><path d="m95.2 44.956 2.75 4.763-1.28 4.781 4.781 1.281 2.75 4.763" stroke="var(--shade0)"/><path opacity=".25" fill-rule="evenodd" clip-rule="evenodd" d="m129.196 88.837-3.732-2.464-10-17.32 1.732-1 3.732 2.464 10 17.32-1.732 1Zm-34-58.89-.268-4.464-10-17.32-1.732 1 .268 4.464 10 17.32 1.732-1Z" fill="var(--shade0)"/><path d="m100.134 52.5 6.062-3.5m0 0 1.647-6.147 1.732-1 .732-2.732M106.196 49l6.147 1.647 1.732-1 2.732.732m-6.5-11.258-2.25-3.897 1.464-5.464m.786 9.36 2.25 3.898-.732 2.732 2.732.732 2.25 3.897m0 0 2.25 3.897 5.464 1.464" stroke="var(--shade0)"/><path opacity=".25" d="m110.307 39.12.732-2.731-6.75-11.692.732-2.732m11.786 28.415 2.732.731 6.75 11.692 2.732.732" stroke="var(--shade0)"/><path d="m105.165 54.214-2.049-.549-.25-.433.433-.25 2.049.55.25.432-.433.25Zm1.732-1-2.049-.549-.25-.433.433-.25 2.049.55.25.432-.433.25Zm-5.732-5.928-.549 2.049.25.433.433-.25.549-2.05-.25-.432-.433.25Zm1.732-1-.549 2.049.25.433.433-.25.549-2.05-.25-.432-.433.25Z" opacity=".25" fill-rule="evenodd" clip-rule="evenodd" fill="var(--shade0)"/><path opacity=".5" fill-rule="evenodd" clip-rule="evenodd" d="m69 2.949.03.051h-.06l.03-.051ZM72 17V8.174l16.982 29.582-.413 2.713 16.202 28.062 2.421.946 15.939 27.765-7.071-4.305-1.193 1.96L70.148 17H72Zm40.94 81.063 6.469 3.937H87.702l-2.5-2H52.798l-2.5 2H18.591l6.469-3.937L23.804 96h90.392l-1.256 2.063Zm-91-5.126-7.071 4.305 15.939-27.765 2.421-.946 16.202-28.062-.413-2.713L66 8.174V17h1.852L23.133 94.897l-1.193-1.96Z" fill="var(--shade0)"/><path d="M115.5 97h1.727l-.86-1.498-46.5-81-.867-1.51-.867 1.51-46.5 81-.86 1.498H115.5Z" stroke="var(--shade7)" stroke-width="2"/><path d="M56.626 3a4 4 0 0 0-3.45 1.976L40.954 25.808l-1.97.492-1.682 2.944-2.604-1.488 2.317-4.056 2.03-.508L52.086.987A2 2 0 0 1 53.81 0h30.38a2 2 0 0 1 1.725.987l13.04 22.205 2.03.508 2.317 4.056-2.604 1.488-1.683-2.944-1.97-.492-12.22-20.832A4 4 0 0 0 81.374 3H71.5L69 5.5 66.5 3h-9.874ZM21.348 115.054a4.002 4.002 0 0 1-3.45-1.974l-5.201-8.854.915-3.415-3.415-.915L5.25 91.33a4 4 0 0 1-.028-3.952l11.551-19.485-.558-1.951 1.708-2.93-2.591-1.511-2.354 4.035.576 2.012L1.237 88.42a2 2 0 0 0 .017 1.98l15.462 26.606a2 2 0 0 0 1.73.995h25.332l1.564 2.02 4.671-.021-.013-3-3.391.015-1.52-1.974-23.74.013Zm95.287 0a4.003 4.003 0 0 0 3.451-1.974l5.2-8.854-.915-3.415 3.415-.915 4.947-8.567a4 4 0 0 0 .027-3.952l-11.551-19.485.559-1.951-1.709-2.93 2.591-1.511 2.354 4.035-.576 2.012 12.318 20.873c.345.617.338 1.37-.017 1.98l-15.462 26.606a2 2 0 0 1-1.729.995H94.205l-1.564 2.02L87.97 120l.013-3 3.391.015 1.52-1.974 23.741.013Z" fill="var(--shade0)"/></svg>