<svg viewBox="0 0 32 32"><path d="M30.5 2 16 27 1.5 2h29Z" fill="#D6BE64"/><path d="M16 27 30.5 2l-5.2 3L16 21v6Z" fill="url(#a)" style="mix-blend-mode:overlay"/><path d="M30.5 2h-29l5.2 3h18.6l5.2-3Z" fill="url(#b)" style="mix-blend-mode:overlay"/><path opacity=".5" d="M30.5 2h-29l5.2 3h18.6l5.2-3Z" fill="url(#c)"/><path d="M16 27 1.5 2l5.2 3L16 21v6Z" fill="url(#d)" style="mix-blend-mode:overlay"/><path d="m12.497 7.013 4.67 5.931c.017.023.001.056-.027.056h-2.3a.033.033 0 0 1-.026-.013l-2.369-2.975a.035.035 0 0 1-.008-.021V7.034c0-.032.04-.046.06-.021Zm3.95 3.91 3.056-3.876c.02-.025.06-.01.06.021v2.94a.035.035 0 0 1-.008.021l-.755.938a.033.033 0 0 1-.026.012h-2.3c-.029 0-.044-.033-.027-.056Z" style="mix-blend-mode:overlay" fill="var(--shade0)"/><defs><radialGradient id="a" cx="0" cy="0" r="1" gradientUnits="userSpaceOnUse" gradientTransform="matrix(14.49997 -8.99996 10.3846 16.73078 16 11)"><stop stop-color="#fff"/><stop offset="1" stop-color="#fff" stop-opacity="0"/></radialGradient><radialGradient id="d" cx="0" cy="0" r="1" gradientUnits="userSpaceOnUse" gradientTransform="matrix(0 16 -16 0 16 11)"><stop stop-opacity="0"/><stop offset="1"/></radialGradient><linearGradient id="b" x1="16" y1="5" x2="15.394" y2="-.639" gradientUnits="userSpaceOnUse"><stop stop-color="#fff"/><stop offset="1" stop-color="#fff" stop-opacity="0"/></linearGradient><linearGradient id="c" x1="16" y1="5" x2="15.394" y2="-.639" gradientUnits="userSpaceOnUse"><stop stop-color="#fff"/><stop offset="1" stop-color="#fff" stop-opacity="0"/></linearGradient></defs></svg>