<svg viewBox="0 0 32 32"><path d="M30.5 28 16 3 1.5 28h29Z" fill="#D6BE64"/><path d="m16 3 14.5 25-5.2-3L16 9V3Z" fill="url(#a)" style="mix-blend-mode:overlay"/><path opacity=".5" d="m16 3 14.5 25-5.2-3L16 9V3Z" fill="url(#b)"/><path d="M30.5 28h-29l5.2-3h18.6l5.2 3Z" fill="url(#c)" style="mix-blend-mode:overlay"/><path d="M16 3 1.5 28l5.2-3L16 9V3Z" fill="url(#d)" style="mix-blend-mode:overlay"/><path d="m12.497 17.013 4.67 5.931c.017.023.001.056-.027.056h-2.3a.034.034 0 0 1-.026-.013l-2.369-2.975a.035.035 0 0 1-.007-.021v-2.957c0-.032.04-.046.06-.021Zm3.95 3.91 3.056-3.876c.02-.025.06-.01.06.021v2.94a.035.035 0 0 1-.008.021l-.755.937a.033.033 0 0 1-.026.013h-2.3c-.029 0-.044-.033-.027-.056Z" style="mix-blend-mode:overlay" fill="var(--shade0)"/><defs><radialGradient id="c" cx="0" cy="0" r="1" gradientUnits="userSpaceOnUse" gradientTransform="matrix(0 13 -15 0 16 19)"><stop stop-opacity="0"/><stop offset="1"/></radialGradient><radialGradient id="d" cx="0" cy="0" r="1" gradientUnits="userSpaceOnUse" gradientTransform="matrix(0 13 -15 0 16 19)"><stop stop-color="#fff"/><stop offset="1" stop-color="#fff" stop-opacity="0"/></radialGradient><linearGradient id="a" x1="16" y1="19" x2="30" y2="19" gradientUnits="userSpaceOnUse"><stop stop-color="#fff"/><stop offset="1" stop-color="#fff" stop-opacity="0"/></linearGradient><linearGradient id="b" x1="16" y1="19" x2="30" y2="19" gradientUnits="userSpaceOnUse"><stop stop-color="#fff"/><stop offset="1" stop-color="#fff" stop-opacity="0"/></linearGradient></defs></svg>