<svg viewBox="0 0 48 48" class="createSvgIcon__Svg-sc-1l8xi8d-0 loXvaP ability-icon"><path d="m48 11.53-6.279-.786c-6.404-8.456-18.159-11.3-27.869-6.219C4.18 9.587-.186 20.795 3.033 30.846L0 36.648l6.534.906c6.415 8.412 18.14 11.233 27.832 6.165 9.728-5.09 14.089-16.405 10.759-26.504L48 11.53Zm-5.384 18.384a19.26 19.26 0 0 1-9.274 11.261 19.438 19.438 0 0 1-14.804 1.523 19.34 19.34 0 0 1-7.602-4.332c-1.384-1.282-2.038-3.191-1.665-5.043a7.203 7.203 0 0 1 .701-1.978.364.364 0 0 1-.053.042c.034-.035.056-.054.06-.051 0 0-.645-.05-1.492-.341-1.99-.683-3.384-2.465-3.637-4.553a19.365 19.365 0 0 1 .828-8.34A19.387 19.387 0 0 1 15.36 6.817a19.272 19.272 0 0 1 14.54-1.2 19.365 19.365 0 0 1 6.914 3.842 5.235 5.235 0 0 1 1.39 1.851c1.192 2.737-.394 5.464-.394 5.464-.003-.007.025-.013.072-.02a.38.38 0 0 1-.063.023c.247.022 5.132.297 5.57 5.179a19.364 19.364 0 0 1-.773 7.959Zm-4.797-13.141h-.01.01ZM9.975 31.339c0 .003 0 .006-.006.01a.037.037 0 0 1 .006-.01Zm24.621-18.712c-4.74-4.354-11.88-5.504-17.912-2.348-6.032 3.157-9.16 9.682-8.282 16.058a2.179 2.179 0 0 0 3.17 1.634l22.56-11.805a2.184 2.184 0 0 0 .464-3.539Zm-15.069.686c-.019.006-.038.012-.06.015a9.285 9.285 0 0 0-3.564 1.729c-1.068.828-1.984 1.88-2.752 3.036-.768 1.16-1.393 2.427-1.902 3.741a21.857 21.857 0 0 0-.888 2.895c-.016.063-.11.047-.101-.02.142-1.007.37-2.006.648-2.988a20.16 20.16 0 0 1 1.624-4c.698-1.274 1.573-2.475 2.67-3.489a10.534 10.534 0 0 1 3.874-2.29h.003a.711.711 0 0 1 .796.243.724.724 0 0 1-.348 1.128Zm5.034.42-.515-.834-.784.587.224-.954-.97-.139.835-.515-.588-.784.954.225.14-.97.514.834.784-.588-.224.954.97.14-.835.514.588.784-.954-.224-.14.97Zm5.283.932-.212 1.984-1.302-1.51-1.984-.212 1.51-1.302.212-1.984 1.302 1.514 1.984.211-1.51 1.299ZM13.261 35.624c4.74 4.354 11.881 5.504 17.913 2.347 6.032-3.156 9.157-9.678 8.282-16.054a2.179 2.179 0 0 0-3.17-1.634l-22.56 11.805a2.18 2.18 0 0 0-.465 3.536Zm15.07-.683a9.283 9.283 0 0 0 3.624-1.744c1.068-.828 1.984-1.88 2.752-3.036.768-1.16 1.393-2.427 1.902-3.742a21.86 21.86 0 0 0 .888-2.894c.016-.063.11-.047.101.019a22.577 22.577 0 0 1-.648 2.99 20.16 20.16 0 0 1-1.624 4c-.698 1.273-1.573 2.473-2.67 3.488a10.534 10.534 0 0 1-3.874 2.29h-.003a.711.711 0 0 1-.796-.243.723.723 0 0 1 .348-1.128Zm-5.034-.42.515.834.784-.588-.225.955.97.139-.834.515.588.783-.954-.224-.14.97-.515-.834-.783.588.224-.955-.97-.139.834-.515-.587-.783.954.224.139-.97Zm-5.283-.932.212-1.984 1.301 1.51 1.985.212-1.51 1.301-.212 1.985-1.302-1.514-1.985-.211 1.51-1.3Z"/></svg>