<svg viewBox="0 0 48 48" class="createSvgIcon__Svg-sc-1l8xi8d-0 loXvaP ability-icon"><path d="M48 35.232c0 1.519-2.734 10.633-22.785 10.633C5.165 45.865 0 39.18 0 35.232c0-3.193 2.78-5.392 4.487-6.44.298.902.714 1.768 1.24 2.597-2.009 1.282-2.689 3.16-2.689 3.843 0 .911 1.215 3.645 3.95 4.253 4.253.608 4.253 1.52 5.468 2.43 1.215.912 4.253 2.735 11.544 2.735s10.025-1.823 11.24-3.038c1.216-1.215 4.254-2.43 5.773-2.43 1.251 0 3.949-1.216 3.949-3.646 0-1.93-1.349-3.123-2.801-3.974a11.81 11.81 0 0 0 1.264-2.503c4.144 2.53 4.575 4.89 4.575 6.173Zm-22.044 3.463c.547.012.663-.765.137-.914-4.408-1.252-11.207-4.28-11.207-11.055 0-3.342 3.038-7.595 0-8.507-3.038-.911-3.95 4.253-3.95 6.988 0 2.533 0 13.17 15.02 13.488ZM9.767 31.9c.3.456 1.006.113.833-.404-1.465-4.341-2.817-11.663 2.77-15.497 2.756-1.892 7.98-1.795 7.012-4.815-.97-3.02-5.742-.847-7.996.7-2.09 1.433-10.855 7.451-2.619 20.016ZM7.012 13.28c-.246.487.404.93.765.52 3.038-3.43 8.716-8.245 14.822-5.307 3.011 1.449 5.53 6.03 7.665 3.688 2.139-2.342-2.12-5.402-4.584-6.587-2.285-1.1-11.866-5.708-18.668 7.687ZM21.299 2.034c-.547.024-.61.808-.076.924 4.484.95 11.472 3.511 11.93 10.268.228 3.333-2.515 7.783.578 8.488 3.092.702 3.651-4.511 3.466-7.24-.17-2.53-.893-13.139-15.898-12.44Zm16.539 6.334c-.316-.446-1.012-.079-.817.435 1.61 4.29 3.21 11.56-2.24 15.581-2.688 1.984-7.913 2.066-6.844 5.053 1.07 2.986 5.766.653 7.969-.973 2.038-1.507 10.593-7.82 1.932-20.096ZM41.62 26.86c.24-.489-.416-.923-.771-.51-2.993 3.47-8.604 8.357-14.75 5.505-3.032-1.41-5.608-5.955-7.713-3.585-2.105 2.37 2.193 5.374 4.672 6.526 2.297 1.069 11.943 5.55 18.562-7.936Z"/></svg>