<svg viewBox="0 0 48 48" class="createSvgIcon__Svg-sc-1l8xi8d-0 loXvaP ability-icon"><path fill-rule="evenodd" clip-rule="evenodd" d="m38.14 21.236-3.807-3.285c-.093-.092-.246-.061-.307.061l-.584 1.106c-.061.153-.276.153-.368 0-.686-1.55-2.25-2.748-3.46-3.676-.47-.36-.885-.678-1.177-.96-.89-.86-1.904-2.764-2.272-3.47-.062-.123.03-.277.184-.277h1.167c.123 0 .246-.123.184-.276l-1.658-4.73c-.03-.06-.123-.122-.184-.122h-3.624a.207.207 0 0 0-.184.123l-1.658 4.698c-.03.123.061.276.184.276h1.167c.154 0 .246.154.184.277-.368.706-1.381 2.61-2.272 3.47-.292.283-.709.6-1.178.957-1.21.92-2.773 2.108-3.459 3.679-.061.154-.276.154-.368 0l-.553-1.105c-.061-.123-.215-.154-.307-.062l-3.869 3.316a.234.234 0 0 0-.061.154v5.22c0 .062.03.123.061.154l3.808 3.316c.092.092.245.061.307-.062l.553-1.105c.061-.154.276-.154.368 0 .693 1.588 2.282 2.785 3.51 3.71.458.344.865.651 1.157.927.89.86 1.904 2.763 2.273 3.47.061.122-.031.276-.185.276h-1.166c-.123 0-.246.123-.185.276l1.659 4.698c.03.092.092.123.184.123h3.623a.207.207 0 0 0 .184-.123l1.658-4.698c.031-.123-.061-.276-.184-.276h-1.167c-.153 0-.245-.154-.184-.276.369-.707 1.382-2.61 2.272-3.47.292-.284.709-.6 1.179-.958 1.21-.92 2.772-2.108 3.458-3.679.061-.154.276-.154.368 0l.553 1.105c.062.123.215.154.307.062l3.87-3.286a.235.235 0 0 0 .06-.153V21.39a.202.202 0 0 0-.037-.11c-.007-.013-.016-.027-.024-.044ZM24.322 32.322c-2.947 0-5.822-1.895-5.822-5.373 0-3.479 1-5.948 2.5-7.448 0 0-.5 4.5 1 2 1.689-2.979 1.432-4.562.787-6.681 0 0 2.713 2.181 2.713 7.181 0 1.193-.173 1.675-.315 2.072-.1.279-.185.516-.185.928 0 1 .745 1.5 1.5 1.5s1.162-.417 1.5-1c.307-.522.437-1.592.253-2.237s1.382 1.535 1.382 3.685a5.308 5.308 0 0 1-5.313 5.373ZM10.075 12.946c-.062-.123.092-.215.184-.154.522.46 1.443 1.075 2.119.154.952-1.29-1.044-1.689-1.26-1.72h-.03c-.153-.061-1.78-.952-2.057-3.715 0-.123.123-.184.215-.092.522.614 1.965 1.996 4.452 2.487 3.224.645 1.781 3.531 1.382 3.961l-.03.034c-.475.518-3.237 3.54-4.975-.955Zm.184 22.354c-.092.061-.246-.03-.184-.154 1.78-4.605 4.636-1.32 4.974-.92.4.43 1.843 3.316-1.382 3.96-2.487.492-3.93 1.873-4.452 2.487-.092.093-.215.031-.215-.092.276-2.763 1.904-3.623 2.088-3.715h.03c.216-.03 2.212-.43 1.26-1.72-.676-.92-1.597-.307-2.119.154Zm27.666-22.354c.062-.123-.092-.215-.184-.154-.522.46-1.443 1.075-2.119.154-.952-1.29 1.044-1.689 1.26-1.72h.03c.184-.092 1.812-.952 2.088-3.715 0-.123-.123-.184-.215-.092-.522.614-1.965 1.996-4.452 2.487-3.224.645-1.781 3.531-1.382 3.961.338.4 3.193 3.685 4.974-.921ZM37.741 35.3c.092.061.246-.03.184-.154-1.78-4.605-4.636-1.32-4.974-.92-.4.43-1.843 3.316 1.382 3.96 2.487.492 3.93 1.873 4.452 2.487.092.093.215.031.215-.092-.276-2.763-1.904-3.623-2.088-3.715h-.03c-.216-.03-2.212-.43-1.26-1.72.676-.92 1.597-.307 2.119.154Z"/></svg>