<svg viewBox="0 0 48 48"><path fill-rule="evenodd" clip-rule="evenodd" d="M22.759 6h2.482v2.047c2.279.175 4.424.827 6.335 1.857a2.5 2.5 0 0 1 3.976 3.025 15.944 15.944 0 0 1 4.4 9.83H42v2.482h-2.047c-.417 5.428-3.541 10.097-8.025 12.66a2.5 2.5 0 0 1-4.642 1.761 16 16 0 0 1-2.045.29V42H22.76v-2.047c-7.847-.603-14.11-6.865-14.712-14.712H6V22.76h2.047c.03-.384.073-.763.129-1.138a2.5 2.5 0 0 1 1.432-4.618c2.424-4.979 7.355-8.51 13.15-8.956V6Zm8.388 30.62a2.5 2.5 0 0 0-4.127 1.566 14.48 14.48 0 0 1-1.779.262V34.93a11.005 11.005 0 0 0 9.69-9.69h3.517c-.415 4.884-3.25 9.079-7.301 11.378ZM9.552 22.758c.022-.256.05-.51.085-.763a2.5 2.5 0 0 0 1.388-4.477c2.205-4.404 6.586-7.53 11.734-7.967v3.517a11.005 11.005 0 0 0-9.69 9.69H9.552Zm21.456-11.456a2.5 2.5 0 0 0 3.347 2.547 14.452 14.452 0 0 1 4.093 8.909H34.93a11.005 11.005 0 0 0-9.69-9.69V9.552a14.44 14.44 0 0 1 5.767 1.75Zm-8.25 23.628v3.517c-7.017-.595-12.61-6.189-13.206-13.207h3.517a11.005 11.005 0 0 0 9.69 9.69ZM24 31.526a7.526 7.526 0 1 0 0-15.052 7.526 7.526 0 0 0 0 15.052Zm0-9.755 2.094-2.116 2.25 2.229L26.23 24l2.116 2.116-2.251 2.229L24 26.229l-2.116 2.116-2.229-2.229L21.771 24l-2.116-2.116 2.229-2.229L24 21.771Z"/></svg>