<svg viewBox="0 0 48 48" class="createSvgIcon__Svg-sc-1l8xi8d-0 loXvaP ability-icon"><path fill-rule="evenodd" clip-rule="evenodd" d="M22.136 2h3.728v3.729h-3.728V2Zm0 40.271h3.728V46h-3.728v-3.729ZM5.729 22.136H2v3.728h3.729v-3.728Zm36.542 0H46v3.728h-3.729v-3.728ZM35 24.08V24c0-5.489-4.02-10.039-9.276-10.866-.757-.119-1.724-.739-1.724-1.505v-1.305a.198.198 0 0 0-.287-.178C19.462 12.324 13.049 16.68 13 23.917V24c0 5.489 4.02 10.038 9.276 10.866.757.119 1.724.737 1.724 1.503v1.307c0 .149.155.246.287.178C28.538 35.676 34.952 31.32 35 24.081ZM27.194 24a3.194 3.194 0 1 1-6.388 0 3.194 3.194 0 0 1 6.387 0Z"/></svg>