<svg viewBox="0 0 48 48" class="createSvgIcon__Svg-sc-1l8xi8d-0 loXvaP ability-icon"><path fill-rule="evenodd" clip-rule="evenodd" d="m37.944 21.245-3.767-3.261c-.085-.084-.253-.056-.31.056l-.562 1.097c-.084.14-.28.14-.337 0-.366-.816-.956-1.518-1.603-2.137l2.08-.872c.057-.028.057-.084 0-.112l-.87-.169c-.029 0-.057-.056-.029-.084l3.711-4.75c.056-.057-.028-.113-.084-.085l-4.723 3.71c-.028.029-.084 0-.084-.028l-.17-.871c0-.056-.084-.056-.112 0l-.927 2.193a41.17 41.17 0 0 0-.76-.59c-.398-.303-.748-.57-1.011-.816-.872-.843-1.884-2.727-2.25-3.43-.056-.14.029-.28.17-.28h1.152c.14 0 .225-.141.197-.254l-1.659-4.638a.211.211 0 0 0-.197-.14H22.2a.211.211 0 0 0-.196.14l-1.63 4.638c-.057.14.056.253.196.253h1.153c.14 0 .253.14.169.281-.366.703-1.378 2.587-2.25 3.43-.268.25-.639.535-1.054.854-.238.182-.49.375-.745.58a1.093 1.093 0 0 0-.056-.14l-.871-2.081c-.028-.056-.085-.056-.113 0l-.169.871c0 .029-.056.057-.084.029l-4.75-3.711c-.057-.057-.113.028-.085.084l3.71 4.751c.029.028 0 .084-.027.084l-.872.17c-.056 0-.056.083 0 .111l2.08.872c-.646.619-1.237 1.321-1.602 2.137-.056.14-.281.168-.337 0l-.563-1.097c-.056-.112-.196-.14-.309-.056l-3.739 3.261a.215.215 0 0 0-.056.14v5.173c0 .056.028.113.056.14l3.767 3.262c.085.084.253.056.31-.056l.562-1.097c.084-.14.28-.14.337 0 .31.731.844 1.378 1.434 1.968l-1.912.815c-.056.029-.056.085 0 .113l.872.169c.028 0 .056.056.028.084l-3.74 4.779c-.055.056.029.112.085.084l4.751-3.71c.028-.029.084 0 .084.027l.17.872c0 .056.084.056.112 0l.871-2.052c.294.237.584.457.854.661.402.305.76.577 1.03.829.871.843 1.883 2.727 2.249 3.43.056.14-.028.28-.169.28h-1.153c-.14 0-.224.141-.196.254l1.658 4.666a.21.21 0 0 0 .197.14h3.598a.211.211 0 0 0 .197-.14l1.659-4.666c.056-.14-.056-.253-.197-.253h-1.209c-.14 0-.253-.14-.168-.281.365-.703 1.377-2.587 2.248-3.43.299-.298.737-.624 1.227-.988.203-.152.415-.31.629-.474l.843 2.024c.029.056.085.056.113 0l.169-.872c0-.028.056-.056.084-.028l4.75 3.711c.057.056.113-.028.085-.084l-3.739-4.751c-.028-.028 0-.084.028-.084l.872-.17c.056 0 .056-.083 0-.111l-1.912-.816c.59-.59 1.125-1.237 1.434-1.968.056-.14.281-.168.337 0l.563 1.097c.056.112.196.14.309.056l3.767-3.261c.056-.028.056-.084.056-.14v-5.173c0-.085-.028-.14-.056-.169Zm-2.362 3.092c-1.293 1.181-5.847 4.92-11.582 4.92s-10.29-3.739-11.582-4.92a.492.492 0 0 1 0-.703c1.293-1.18 5.847-4.92 11.582-4.92s10.29 3.74 11.582 4.92a.492.492 0 0 1 0 .703Zm-9.78-3.487c.135-.135.081-.324-.054-.404a3.694 3.694 0 0 0-1.723-.404c-.619 0-1.21.135-1.722.404-.162.08-.189.296-.054.404l1.615 1.615c.108.107.27.107.35 0l1.588-1.615Zm-5.33 1.346c.081-.135.27-.162.377-.054l1.67 1.669c.08.08.08.242 0 .323l-1.67 1.669c-.107.108-.296.08-.377-.054a3.934 3.934 0 0 1-.43-1.776c0-.647.161-1.239.43-1.777Zm6.703 3.634c.107.107.269.08.323-.054.27-.539.43-1.158.43-1.804 0-.646-.16-1.265-.43-1.803-.054-.135-.242-.162-.323-.054l-1.696 1.696a.211.211 0 0 0 0 .296l1.696 1.723Zm-4.952 1.668c-.135-.08-.162-.242-.054-.35l1.669-1.695a.21.21 0 0 1 .296 0l1.696 1.695c.108.108.08.297-.054.35a3.92 3.92 0 0 1-1.776.431 3.935 3.935 0 0 1-1.777-.43Z"/></svg>