<svg viewBox="0 0 48 48" class="createSvgIcon__Svg-sc-1l8xi8d-0 loXvaP ability-icon"><path fill-rule="evenodd" clip-rule="evenodd" d="M17.465 39.02a.327.327 0 0 0-.326-.327h-2.404a1.96 1.96 0 0 1-1.702-.988L6.715 26.65a1.96 1.96 0 0 1 .034-2.004l1.073-1.735a.327.327 0 0 0-.115-.454l-.566-.327a.327.327 0 0 0-.441.111l-1.062 1.718a3.267 3.267 0 0 0-.058 3.34l6.318 11.056A3.267 3.267 0 0 0 14.735 40h2.404c.18 0 .326-.146.326-.327v-.653Zm13.396-.327a.327.327 0 0 0-.326.327v.653c0 .18.146.327.326.327h2.404a3.267 3.267 0 0 0 2.837-1.646l6.318-11.057a3.267 3.267 0 0 0-.058-3.339L41.3 22.24a.327.327 0 0 0-.441-.111l-.566.327a.327.327 0 0 0-.115.454l1.073 1.735a1.96 1.96 0 0 1 .034 2.004l-6.318 11.056a1.96 1.96 0 0 1-1.702.988h-2.404Zm2.098-27.46c.093.15.289.2.441.11l.567-.326a.327.327 0 0 0 .114-.455L32.837 8.55A3.267 3.267 0 0 0 30.057 7H17.943a3.267 3.267 0 0 0-2.779 1.55l-1.244 2.012a.327.327 0 0 0 .114.455l.567.327a.326.326 0 0 0 .44-.111l1.235-1.996a1.96 1.96 0 0 1 1.667-.93h12.116c.68 0 1.31.352 1.667.93l1.234 1.996ZM19.397 36.015A1.93 1.93 0 0 0 21.08 37h5.825a1.93 1.93 0 0 0 1.682-.985l7.945-14.283a1.93 1.93 0 0 0-.02-1.922l-2.27-3.859A1.93 1.93 0 0 0 32.58 15H15.405a1.93 1.93 0 0 0-1.663.951l-2.27 3.859a1.93 1.93 0 0 0-.019 1.922l7.944 14.283Zm3.122-3.206a1.05 1.05 0 0 1-.92-.545l-5.744-10.532a1.048 1.048 0 0 1-.043-.914l.425-.992c.165-.386.544-.636.963-.636h13.585c.42 0 .798.25.963.636l.425.992c.127.295.11.632-.043.914l-5.745 10.532a1.048 1.048 0 0 1-.92.545H22.52Zm.303-5.876c.198.391.6.638 1.039.638h.263c.439 0 .84-.247 1.039-.639l1.747-3.455a.788.788 0 0 0-.703-1.144h-4.429a.788.788 0 0 0-.703 1.144l1.747 3.456Z"/></svg>