<svg viewBox="0 0 48 48" class="createSvgIcon__Svg-sc-1l8xi8d-0 loXvaP ability-icon"><path fill-rule="evenodd" clip-rule="evenodd" d="M27.265 7.307c0-.174-.23-.26-.346-.116-.607.751-1.936 2.196-2.919 2.196-.983 0-2.283-1.445-2.919-2.196-.115-.144-.346-.058-.346.116-.03 3.843-3.901.809-5.115-.232-.144-.115-.347 0-.318.174l.694 7.455a.16.16 0 0 0 .086.145l3.728 2.831c.116.087.318 0 .318-.144v-2.312c0-.173.202-.26.318-.144l3.438 3.15a.217.217 0 0 0 .26 0l3.44-3.15c.115-.116.317-.03.317.144v2.312c0 .173.173.26.318.144l3.699-2.86a.632.632 0 0 0 .086-.145l.694-7.455c.029-.173-.173-.29-.318-.173-1.214 1.069-5.057 4.103-5.115.26Zm-14.39-.058L6.95 9.416l1.011 3.757h2.746s-2.081 2.022-1.387 5.143c.693 3.121.924 4.277.924 4.277h1.965s-1.098 2.456-.433 5.346c.664 2.89 1.098 4.97 1.098 4.97h.925s-.723.347-.434 1.3c.29.954 2.025 6.791 2.025 6.791L12.875 7.249Zm22.25 0 5.924 2.167-1.011 3.757h-2.746s2.08 2.022 1.387 5.143c-.693 3.121-.924 4.277-.924 4.277H35.79s1.098 2.456.433 5.346c-.664 2.89-1.098 4.97-1.098 4.97H34.2s.723.347.434 1.3C34.344 35.163 32.61 41 32.61 41l2.514-33.751Zm-9.044 24.33c.144-.144.404-.086.433.116.318 1.879 2.427.376 3.38-.404.174-.145.405-.03.405.202l-.433 7.744c0 .087-.058.145-.116.203l-1.994 1.387c-.115.086-.26.029-.346-.087l-.78-1.33c-.087-.144-.26-.173-.376-.086l-2.11 1.532a.262.262 0 0 1-.288 0l-2.11-1.532c-.144-.087-.289-.029-.376.087l-.78 1.329c-.058.144-.231.173-.347.087l-1.936-1.387c-.086-.058-.115-.116-.115-.203l-.434-7.744c-.029-.202.232-.347.405-.202.924.78 3.063 2.311 3.38.404.03-.202.29-.26.434-.115.52.578 1.445 1.502 2.052 1.502.578 0 1.531-.924 2.052-1.502Zm.49-12.54c.059-.058.174-.03.174.057.116 2.948 3.728.203 4.48-.462.057-.029.144 0 .144.087l-.52 8.293c0 .012 0 .02-.003.026-.003.008-.01.015-.026.032l-3.15 2.427c-.058.029-.145 0-.145-.086v-2.457c0-.058-.086-.115-.144-.058l-3.352 3.121a.088.088 0 0 1-.116 0l-3.352-3.12c-.058-.058-.144-.03-.144.057v2.457c0 .086-.087.144-.145.086l-3.15-2.427s-.028-.03-.028-.058l-.52-8.293c0-.087.086-.145.144-.087.81.665 4.421 3.38 4.537.462 0-.086.115-.144.173-.057.405.549 1.445 1.878 2.572 1.878s2.167-1.3 2.572-1.878Z"/></svg>