<svg viewBox="0 0 48 48"><path fill-rule="evenodd" clip-rule="evenodd" d="M24 34.793c5.451 0 8.517-6.224 8.517-11.465 0-1.638-.34-2.949-1.022-3.604.227.874-.288 2.62-1.27 2.62-1.162 0-1.065-1.152-.91-2.991.063-.755.136-1.624.136-2.577 0-2.62-1.52-5.57-3.407-6.88.454.983.904 2.621.904 5.57 0 2.62-.904 3.93-2.62 3.93-2.045 0-2.293-1.965-2.293-5.896 0-3.145.716-7.644 1.284-9.5-1.477 2.075-4.56 7.403-4.56 12.12 0 5.242 0 6.552-1.31 6.552-.818 0-1.058-1.747-.944-2.62-.34.546-1.022 1.965-1.022 3.276 0 5.241 3.066 11.465 8.517 11.465Zm-11.793-4.586c0-1.376.236-2.697.669-3.925.379 2.262 1.198 4.525 2.453 6.441 1.813 2.768 4.73 5.055 8.671 5.055 3.94 0 6.858-2.287 8.671-5.055 1.255-1.916 2.074-4.179 2.453-6.44.433 1.227.67 2.548.67 3.924C35.793 36.72 30.513 42 24 42c-6.513 0-11.793-5.28-11.793-11.793Z"/></svg>