<svg viewBox="0 0 48 48" class="createSvgIcon__Svg-sc-1l8xi8d-0 loXvaP ability-icon"><path fill-rule="evenodd" clip-rule="evenodd" d="M26.506 11.672c.78-.094 2.276-.143 2.926-.156-.499-2.248-2.262-3.98-3.082-4.565h-1.912c-1.473-1.096-2.544-1.094-3.177-1.093h-.06c-.781 0-1.288 0-2.186.195C20.303 5.313 21.63 5 23.815 5c6.71 0 9.948 4.916 10.729 7.374h1.248c1.288 0 1.639 1.053 1.795 2.107.125.843.13 2.354.117 3.004l-2.653 4.37.507-5.306H33.06l-1.17 8.076c.338.234 1.28.897 2.34 1.678 3.512.234 5.19 1.287 5.502 1.521.283.213.277.522.273.694v1.842c0 .351-.078.547-.273.663a2.86 2.86 0 0 0-.28.197c-.077.059-.16.122-.267.194C42.67 35.7 42.66 40.7 42.66 41.589v.047c0 .656-.276.762-.529.859a2.822 2.822 0 0 0-.096.038c-.16.07-.757.166-1.323.257-.392.063-.77.124-.978.172-.625.04-.82 0-.82-1.443-.117-1.6-.78-3.59-1.482-5.423-.562-1.467-1.795-3.03-2.341-3.629l-1.366.195-.741 1.21c-1.093.364-4.487 1.092-9.325 1.092-4.838 0-8.362-.728-9.52-1.092l-.936-1.405h-.624c-.325.455-1.226 1.803-2.224 3.55-1.249 2.185-1.56 5.268-1.56 5.814 0 .546-.04.78-.157.975-.117.195-.663.234-1.092.156a21.525 21.525 0 0 1-.732-.155 20.227 20.227 0 0 0-.946-.196l-.06-.015c-.447-.11-.873-.215-.798-1 0-1.092.468-3.745.975-5.617.44-1.624 1.759-3.511 2.356-4.366.092-.131.167-.238.219-.316-.702-.313-.702-.664-.702-.898v-1.716c0-.625.273-.937.702-1.132.343-.156 1.444-.533 1.95-.702.248.234.797.757 1.015.975-.156.04-1.6.546.507 1.249 1.873.702 9.013 1.053 11.276 1.053 5.657 0 8.583-.312 9.48-.468-1-.455-2.285-1.453-3.229-2.186-.27-.21-.511-.398-.71-.545-.898-.663-.82-1.717-.703-2.302.117-.585 1.287-9.013 1.444-10.3.144-1.481.59-1.658 1.181-1.893l.145-.058H29.59c-1.249 0-1.717 1.17-1.795 1.95-.078.781-1.249 9.325-1.483 10.496-.213 1.067-.038 1.258.202 1.52l.071.08c.219.25.846.884 1.132 1.17-.547.156-2.006.468-3.473.468-8.817 0-11.9-7.296-11.9-11.587 0-2.747.807-4.5 1.21-5.033.17-.052.624-.172 1.092-.235.39-.78 2.107-3.667 5.93-3.667 3.824 0 5.658 3.472 5.931 4.136Zm-9.325 16.581c-4.799-3.123-5.768-7.175-6.065-8.42l-.021-.085c-.234.988-.741 3.121-.897 3.745-.195.78-.117 1.249.312 1.678 1.092 1.21 3.2 2.575 3.511 2.731.312.156 1.717.351 3.16.351Zm4.02 8.584c1.052.026 3.425.062 4.486 0 .195.546.663 1.95.78 2.419l.026.1c.119.458.268 1.031-.494 1.031H21.2c-.39 0-.897 0-.702-.78.156-.624.533-2.107.702-2.77Zm-1.874-15.411c2.737 0 4.955-2.69 4.955-6.009 0-3.318-2.218-6.008-4.955-6.008-2.736 0-4.955 2.69-4.955 6.008 0 3.319 2.219 6.009 4.955 6.009Zm.703 4.018c-2.81 0-4.604-2.497-5.15-3.745 1.755 1.21 2.73 1.716 4.33 1.716 3.644 0 5.67-2.773 6.424-3.803l.014-.02c-.117 2.497-2.107 5.852-5.618 5.852Zm-.937-6.905c1.4 0 2.536-1.398 2.536-3.122s-1.135-3.121-2.536-3.121c-1.4 0-2.536 1.397-2.536 3.121s1.136 3.121 2.536 3.121Z"/></svg>