<svg viewBox="0 0 48 48" class="createSvgIcon__Svg-sc-1l8xi8d-0 loXvaP ability-icon"><path fill-rule="evenodd" clip-rule="evenodd" d="M6 24.01c0-9.928 8.072-18 18-18 9.957 0 18.03 8.072 18 18 0 9.928-8.043 18-18 18-9.928 0-18-8.043-18-18Zm19.326 11.754v2.946c7.541-.677 13.433-6.982 13.433-14.7 0-2.121-.471-4.125-1.266-5.951l-2.475 1.414-1.326-2.298 2.504-1.444c-2.651-3.918-7.129-6.48-12.196-6.48a14.708 14.708 0 0 0-12.167 6.422l2.592 1.502-1.325 2.298L10.537 18a14.565 14.565 0 0 0-1.296 6.01c0 7.718 5.921 14.023 13.433 14.7v-2.946h2.652Zm1.265-5.77a2.592 2.592 0 1 1-5.183 0 2.592 2.592 0 0 1 5.183 0Zm-7.866-6.415a2.592 2.592 0 1 0 0-5.184 2.592 2.592 0 0 0 0 5.184Zm12.726-2.592a2.592 2.592 0 1 1-5.185 0 2.592 2.592 0 0 1 5.185 0Z"/></svg>