<svg viewBox="0 0 48 48" class="createSvgIcon__Svg-sc-1l8xi8d-0 loXvaP ability-icon"><path d="m6.616 14.562-1.813.536v-1.113l1.813-1.978V9.698L10.82 5h6.306l.824.783h11.046L29.738 5h5.646l4.204 4.698v2.309l1.772 1.978v1.113l-1.772-.536-1.649-1.937v-2.267l-3.297-3.71h-4.08l-.99.949h-12.24l-.948-.948h-4.781l-3.338 3.709v2.267l-1.649 1.937ZM2 28.863v-9.932l1.195-.33v3.75l1.608.577V18.23l1.195-.453v12.2L2 28.862Zm5.852-4.945V18.6l2.061 5.317h-2.06Z"/><path d="M7.852 29.976v-4.41h2.886c.453 0 .618 0 .947-.37.33-.372 0-1.278-.164-1.69l-2.308-5.812h23.41c4.492 0 7.212 2.35 7.79 2.762.46.33 3.379 2.39 4.78 3.38-.37.274-1.846 1.36-4.78 3.502-3.669 2.68-6.636 2.638-8.367 2.638h-7.09V24.66l1.155-1.154h4.904v2.226h-4.204v1.607h5.812v-5.44H25.45l-2.143 2.143v5.935h-4.616L13.87 18.601h-1.69c.866 2.198 2.654 6.701 2.885 7.13.289.536.33.99.124 1.278-.206.288-.454.33-1.072.33H9.666v1.607h6.8l.495 1.03H7.852Zm-1.236 3.462-1.813-.536v1.113l1.813 1.978v2.308L10.82 43h6.306l.824-.783h11.046l.742.783h5.646l4.204-4.699v-2.308l1.772-1.978v-1.113l-1.772.536-1.649 1.937v2.267l-3.297 3.71h-4.08l-.99-.948h-12.24l-.948.947h-4.781l-3.338-3.709v-2.267l-1.649-1.937ZM20.34 9.245h.907v.907h-.906v-.907Z"/><path d="M20.34 38.755h.907v-.907h-.906v.907Zm2.556-29.51h.907v.907h-.907v-.907Zm0 29.51h.907v-.907h-.907v.907Zm0-27.449h.907v.907h-.907v-.907Zm0 25.388h.907v-.907h-.907v.907Zm2.555-27.449h.907v.907h-.907v-.907Zm0 29.51h.907v-.907h-.907v.907Z"/></svg>