<svg viewBox="0 0 48 48" class="createSvgIcon__Svg-sc-1l8xi8d-0 loXvaP ability-icon"><path d="M37.38 15.38c-4.427 0-8.071 3.33-8.58 7.64h-9.6c-.509-4.31-4.153-7.64-8.58-7.64C5.879 15.38 2 19.26 2 24c0 4.74 3.879 8.62 8.62 8.62 4.427 0 8.071-3.33 8.58-7.64h9.639a8.58 8.58 0 0 0 8.541 7.64c4.741 0 8.62-3.88 8.62-8.62 0-4.74-3.879-8.62-8.62-8.62ZM10.62 29.485c-3.017 0-5.486-2.468-5.486-5.485 0-3.017 2.469-5.485 5.486-5.485 2.703 0 4.937 1.959 5.407 4.505h-2.939a2.605 2.605 0 0 0-2.43-1.645 2.625 2.625 0 0 0 0 5.25 2.605 2.605 0 0 0 2.43-1.645h2.939c-.47 2.546-2.704 4.505-5.407 4.505Zm26.76 0c-2.703 0-4.937-1.959-5.407-4.505h2.939a2.605 2.605 0 0 0 2.429 1.645 2.625 2.625 0 0 0 0-5.25 2.605 2.605 0 0 0-2.43 1.645h-2.938c.47-2.546 2.704-4.505 5.407-4.505 3.017 0 5.485 2.468 5.485 5.485 0 3.017-2.468 5.485-5.485 5.485Z"/></svg>