<svg viewBox="0 0 48 48" class="createSvgIcon__Svg-sc-1l8xi8d-0 loXvaP ability-icon"><path fill-rule="evenodd" clip-rule="evenodd" d="m4.58 14.525 1.389 1.853 4.963-3.706c.96-.728 2.878-1.356 4.069-1.356h4.103V9H15c-1.687 0-4.102.794-5.459 1.82L4.58 14.525ZM17.382 40h-1.654c-1.489 0-3.176-1.39-4.07-2.746L8.02 31.597l1.952-1.258 3.64 5.658c.694 1.059 1.753 1.687 2.117 1.687h1.654V40Zm12.374 0h1.654c1.489 0 3.176-1.39 4.07-2.746l3.639-5.657-1.952-1.258-3.64 5.658c-.694 1.059-1.753 1.687-2.117 1.687h-1.654V40ZM42.03 16.378l1.39-1.853-4.963-3.705C37.1 9.794 34.686 9 32.998 9h-4.101v2.316h4.102c1.191 0 3.11.628 4.07 1.356l4.962 3.706Zm-3.813 1.489c-2.713-2.713-5.505-2.667-5.505-2.667H15.288s-2.792-.046-5.505 2.667l-1.521 1.521 7.336 12.42s1.323 2.383 3.904 2.383H28.5c2.547 0 3.904-2.382 3.904-2.382l7.336-12.42-1.522-1.522ZM24 29.667a5.172 5.172 0 0 1-5.167-5.167A5.172 5.172 0 0 1 24 19.333a5.172 5.172 0 0 1 5.167 5.167A5.152 5.152 0 0 1 24 29.667Z"/></svg>