<svg viewBox="0 0 48 48" class="createSvgIcon__Svg-sc-1l8xi8d-0 loXvaP ability-icon"><path fill-rule="evenodd" clip-rule="evenodd" d="M23.341 2.306 21.96 2l-8.073 8.294v8.86l.673.306v3.361l-.673-.349v17.984l2.579 1.266 16.78-7.595V5.274l-.448-.96-8.035-1.528-4.448 4.365v1.004l4.784 1.92v2.838l-5.27-2.401c-.336.175-1.054.55-1.233.655-.224.13-.673.13-1.084 0a51.75 51.75 0 0 0-.577-.178c-.391-.119-.812-.247-.955-.303a3.025 3.025 0 0 0-.16-.054c-.343-.112-.77-.25-.289-.775.24-.244 4.56-4.7 6.69-6.897l.337.088.784-.742ZM9.065 27.666l3.326 1.66v1.353L7.57 28.32l1.495-.654Zm3.326 9.167v-2.27l-2.84 5.064-1.981-.917-1.57.611 2.953 1.397-.86 1.659 3.177 1.484-2.317 1.091 1.083.786 2.766-1.266L15.942 46l15.92-7.159 5.644 2.707 1.495-.742-6.951-3.449-16.11 7.203-6.166-2.838 2.616-4.889Zm21.602-.742 1.084-.523v-.437l2.43 1.091 2.13-1.004-4.56-2.008v-1.44l3.214 1.44 2.467-1.746 1.382.786-2.392 1.571L43 35.131l-5.494 2.575-3.513-1.615ZM24.35 6.365l1.533-1.528 4.858 1.135v16.675L20.052 17.06v-2.794l8.148 3.972.673-.436V7.5L24.35 6.365Zm-9.044 16.893V19.81l15.66 7.464v3.928c-2.056-1.164-6.264-3.553-6.653-3.797-.486-.306-.86-.437-1.121-.306-.262.131-.449.35-.449.96v9.91L19.68 39.32V25.353l-4.373-2.095Zm10.465 8.948v4.365l4.335-1.92-4.335-2.445Z"/></svg>