<svg viewBox="0 0 48 48" class="createSvgIcon__Svg-sc-1l8xi8d-0 loXvaP ability-icon"><path fill-rule="evenodd" clip-rule="evenodd" d="M11.983 5h6.354l.784.784h11.222L31.044 5h5.86l4.167 4.786v2.31l1.691 1.981v19.928l-1.691 1.94v2.31L36.903 43h-5.858l-.702-.784H19.12l-.783.784h-6.354l-4.25-4.745v-2.31L6 34.005V14.077l1.733-1.98v-2.31L11.983 5Zm.825 1.61h4.373l1.032 1.072h12.295l1.032-1.073h4.456l3.424 3.796v2.228l1.816 2.063v18.608l-1.816 2.104v2.146l-3.424 3.837H31.54l-1.032-1.032H18.213l-1.032 1.032h-4.373l-3.425-3.837v-2.146L7.65 33.304V14.696l1.733-2.063v-2.228l3.425-3.796Zm4.662 3.712-.619-.618h-1.733l-3.26 3.59v1.773l-1.32 1.527V31.57l1.32 1.403v1.733l3.26 3.63h1.733l.62-.577h13.862l.578.578h1.898l3.136-3.631v-1.733l1.279-1.403V16.594l-1.28-1.527v-1.774l-3.135-3.59H31.91l-.578.62H17.47Zm4.786 1.28h-.907v.907h.907v-.908Zm0 24.59h-.907v-.907h.907v.907Zm1.65-24.59h.908v.907h-.907v-.908Zm.908 24.59h-.907v-.907h.907v.907Zm-.907-22.445h.907v.908h-.907v-.908Zm.907 20.3h-.907v-.908h.907v.908Zm1.733-22.445h.908v.907h-.908v-.908Zm.908 24.59h-.908v-.907h.908v.907Zm-14.07-16.916V31.57h1.65v-9.9c2.971 3.202 6.96 4.057 8.583 4.084v5.818h1.568v-5.818c3.829 0 7.344-2.723 8.623-4.084v9.902h1.609V19.193c0-.495-.289-.949-.784-.949-.447 0-.659.37-.908.807l-.082.142-.045.08c-.438.782-2.82 5.036-9.115 5.036-6.535 0-9.058-4.626-9.321-5.11l-.003-.006c-.034-.06-.066-.123-.097-.184-.203-.394-.394-.765-.894-.765-.577 0-.784.454-.784 1.032Zm18.939-3.383h-15.72c-.413 0-1.032.04-1.032.7 0 1.115 1.82 2.972 3.26 3.962 2.112 1.452 4.538 1.76 5.487 1.733 1.238-.014 4.118-.38 5.735-1.733 2.022-1.692 3.219-3.26 3.219-3.961 0-.702-.702-.702-.95-.702Zm-12.626 1.279h-2.475c.687 1.292 3.086 3.878 7.179 3.878s6.546-2.586 7.261-3.878h-2.475c-.605.674-2.41 2.021-4.786 2.021-2.377 0-4.126-1.348-4.704-2.021Z"/></svg>