<svg viewBox="0 0 48 48" class="createSvgIcon__Svg-sc-1l8xi8d-0 loXvaP ability-icon"><path fill-rule="evenodd" clip-rule="evenodd" d="M22 11.104c-1.98.208-3.8.714-5.459 1.413-1.539-.268-3.051-.951-4.835-1.758-.54-.244-1.107-.5-1.706-.759.493 1.22 1.24 4.01.82 6.044C6.422 19.698 4.158 24 4.158 24s2.264 4.302 6.662 7.956c.42 2.034-.327 4.825-.82 6.044.6-.259 1.165-.515 1.706-.76 1.784-.806 3.296-1.49 4.835-1.757A19.17 19.17 0 0 0 22 36.896V33.91C13.838 32.922 8.5 24 8.5 24s5.338-8.922 13.5-9.911v-2.985Zm4 3.107v-3.107c1.98.208 3.8.714 5.459 1.413 1.539-.268 3.051-.951 4.835-1.758.54-.244 1.107-.5 1.706-.759-.502 1.24-1.266 4.106-.697 6.147C41.62 19.779 43.843 24 43.843 24s-2.223 4.221-6.54 7.853c-.569 2.041.195 4.907.697 6.147-.6-.259-1.165-.515-1.706-.76-1.784-.806-3.296-1.49-4.835-1.757A19.171 19.171 0 0 1 26 36.896v-3.107C34.592 32.347 39.5 24 39.5 24s-4.908-8.347-13.5-9.79Zm-2 13.21a3.421 3.421 0 1 0 0-6.842 3.421 3.421 0 0 0 0 6.842Zm0 3.421a6.842 6.842 0 1 0 0-13.684 6.842 6.842 0 0 0 0 13.684Z"/></svg>