<svg viewBox="0 0 48 48" class="createSvgIcon__Svg-sc-1l8xi8d-0 loXvaP ability-icon"><path fill-rule="evenodd" clip-rule="evenodd" d="M10.927 19.25A3.256 3.256 0 0 0 10 21.525v6.678c0 .29.35.436.556.23l2.97-2.97c.244-.244.381-.575.381-.92v-1.346c0-.51.2-1 .555-1.364l9.072-9.296a.651.651 0 0 1 .932 0l9.072 9.296c.356.365.555.854.555 1.364v1.346c0 .345.137.676.381.92l2.97 2.97c.205.206.556.06.556-.23v-6.678c0-.85-.333-1.667-.927-2.275L24.93 6.826a1.302 1.302 0 0 0-1.862 0L10.927 19.25ZM14 29.584c0-.168.065-.329.182-.45l9.355-9.656a.645.645 0 0 1 .926 0l9.355 9.657c.117.12.182.281.182.449v4.749c0 .29-.353.432-.554.224l-8.983-9.272a.645.645 0 0 0-.926 0l-8.983 9.272a.323.323 0 0 1-.554-.224v-4.75Zm5 7.453c0-.15.058-.295.16-.404l4.412-4.671a.588.588 0 0 1 .856 0l4.411 4.671c.104.11.161.254.161.404v4.32a.294.294 0 0 1-.508.202l-4.064-4.303a.588.588 0 0 0-.856 0l-4.064 4.303a.294.294 0 0 1-.508-.201v-4.321Z"/></svg>