<svg viewBox="0 0 48 48" class="createSvgIcon__Svg-sc-1l8xi8d-0 loXvaP ability-icon"><path fill-rule="evenodd" clip-rule="evenodd" d="m24 6 .148.351c1.511 3.691 2.551 9.26 3.119 16.706l.052.703-2.368 2.961v1.267c.583 0 2.368 1.228 2.368 3.12 0 1.81-1.178 2.71-1.606 2.785l-.054.005v6.271c0 .48-.482.753-1.445.82L24 41c-1.106-.04-1.66-.317-1.66-.83v-6.272c-.372 0-1.659-.897-1.659-2.79 0-1.892 1.785-3.12 2.368-3.12v-1.267l-2.368-2.96C21.254 15.716 22.361 9.796 24 6ZM8.104 11.41l.24.233c2.255 2.223 4.702 5.94 7.342 11.153l.284.564-.946 2.894.378.925c.45-.18 2.196.167 2.761 1.55.565 1.382-.162 2.434-.45 2.55l2.2 5.38c.142.348-.146.694-.862 1.039l-.173.08c-.867.311-1.377.28-1.53-.095l-2.198-5.38c-.288.114-1.55-.144-2.115-1.526-.565-1.383.447-2.83.898-3.01l-.378-.926-2.714-1.432C8.882 19.356 7.97 14.69 8.104 11.41Zm31.792 0c.134 3.28-.779 7.946-2.737 13.999l-2.713 1.432-.379.926c.45.18 1.463 1.627.898 3.01-.565 1.382-1.827 1.64-2.115 1.526l-2.198 5.38c-.153.374-.663.406-1.53.094l-.173-.08c-.716-.344-1.004-.69-.861-1.039l2.198-5.38c-.287-.115-1.014-1.167-.45-2.55.566-1.382 2.311-1.728 2.762-1.549l.378-.925-.945-2.894.283-.564c2.64-5.212 5.087-8.93 7.342-11.153l.24-.233ZM24 29.516a1.65 1.65 0 0 0-1.66 1.64c0 .906.744 1.64 1.66 1.64a1.65 1.65 0 0 0 1.66-1.64 1.65 1.65 0 0 0-1.66-1.64Zm-8.877-.927c-.708.283-1.062 1.049-.792 1.71.27.662 1.064.97 1.772.687.708-.283 1.063-1.049.792-1.71-.27-.663-1.063-.97-1.772-.687Zm17.754 0c-.709-.283-1.502.024-1.772.686s.084 1.428.792 1.71c.708.284 1.502-.024 1.772-.686s-.084-1.427-.792-1.71Z"/></svg>