<svg viewBox="0 0 48 48" class="createSvgIcon__Svg-sc-1l8xi8d-0 loXvaP ability-icon"><path fill-rule="evenodd" clip-rule="evenodd" d="M38 24.115V24c0-6.99-5.116-12.785-11.806-13.838C25.23 10.01 24 9.22 24 8.244V6.497a.2.2 0 0 0-.29-.18C18.302 9.076 10.064 14.633 10 23.89V24c0 6.99 5.116 12.785 11.806 13.839.964.151 2.194.939 2.194 1.915v1.749a.2.2 0 0 0 .29.18c5.407-2.76 13.642-8.314 13.71-17.568ZM31.941 24a7.944 7.944 0 0 1-7.942 7.947 7.9 7.9 0 0 1-4.278-1.25c2.75-.258 4.889-2.264 4.889-5.474 0-1.775-.98-3.108-2.654-3.784a3.505 3.505 0 1 1-5.899 2.566V24c0-4.39 3.556-7.947 7.942-7.947S31.942 19.61 31.942 24Z"/></svg>