<svg viewBox="0 0 48 48" class="createSvgIcon__Svg-sc-1l8xi8d-0 loXvaP ability-icon"><path fill-rule="evenodd" clip-rule="evenodd" d="m6.22 11.84-.7 5.46 2.24-4.34 6.72-4.48L16.3 4l-3.36 3.78-6.72 4.06Zm-1.4 18.2c-.42-1.167-1.288-3.528-1.4-3.64L3 30.04h1.82Zm2.1 6.44.56 2.66 9.24 5.74L4.54 40.4l2.38-3.92Zm31.78 3.08-2.8 2.8 3.64 1.82-.84-4.62Zm3.22-11.06c0-.224.467-2.987.7-4.34l-1.82-6.02 4.2 6.02-3.08 4.34ZM36.88 4.98l.28 2.8-2.38-1.68 2.1-1.12ZM24.7 8.76l8.4 3.08 4.9 5.88 1.54 7.56-2.1 8.4-6.58 5.46-8.4 2.1-8.4-2.94-4.9-6.02-1.68-7.56 2.38-8.54 6.86-5.46 7.98-1.96Zm-.08 2.335-4.66 1.14 6.333.757-1.086-1.683-.587-.214Zm-7.825 1.298a.446.446 0 0 1 .144-.114l.414-.328 7.318-1.791 6.44 2.353a.45.45 0 0 1 .34.124l.923.338 4.494 5.373.032.16a.449.449 0 0 1 .107.52l1.273 6.228-.142.564c.06.156.03.34-.094.469l-.032.034-1.524 6.077a.449.449 0 0 1-.063.249l-.07.283-6.035 4.989-7.703 1.919-7.703-2.687-4.493-5.5-1.541-6.909.114-.406a.447.447 0 0 1 .084-.302l1.985-7.096 5.732-4.547Zm9.808-.573 2.593.947-1.824.243-.769-1.19Zm2.117 1.915 2.289-.305.832.304 2.88 3.444c-.509-.288-1.095-.622-1.717-.977-1.4-.8-2.98-1.712-4.283-2.466Zm7.2 5.937.276-.136 1.165 5.7-.16.64-1.518 1.593.237-7.797Zm-.396 9.263 1.234-1.295-.781 3.113-.451-1.41-.09-.28-.008-.026.096-.102Zm-.566 1.573.606 1.893-.007.027-4.11 3.398 3.51-5.318Zm-13.914 6.725 7.431.224-5.815 1.449-.73-.254-.886-1.419Zm-1.147-.144.682 1.091-5.131-1.79-3.125-3.825 7.574 4.524ZM11.634 22.74l-.82 6.559-1.01-4.53.077-.276 1.752-1.753Zm-.064-1.203-1.197 1.197 1.474-5.272 3.687-2.925a616.91 616.91 0 0 0-2.02 3.488c-.54.94-1.027 1.798-1.38 2.435-.175.318-.32.584-.42.78a6.032 6.032 0 0 0-.144.297Zm14.084-7.72-7.378-.88 1.887 4.426 5.49-3.545Zm-6.3 3.932-1.965-4.608a711.757 711.757 0 0 0-3.098 5.33 255.34 255.34 0 0 0-1.125 1.978l6.188-2.7Zm-6.72 4.21-1.1 8.794c1.193-.625 3.654-1.86 6.66-3.354l-5.56-5.44Zm5.965 6.24a479.41 479.41 0 0 0-6.427 3.232l7.478 4.467-1.05-7.7Zm3.037 8.155 7.18.217-1.657-3.899-5.523 3.683Zm5.35-5.061.822-7.642a3142.61 3142.61 0 0 0-7.87 3.884l7.047 3.758Zm-7.357-4.605c2.514-1.246 5.31-2.625 8.032-3.963l-7.205-4.077-.827 8.04Zm-.073-8.05-6.248 2.727 5.422 5.304.826-8.03Zm1.413-.729 6.803 3.849-.803-7.723-6 3.874Zm6.928-3.616.822 7.912c2.36-1.16 4.628-2.272 6.564-3.22l.45-.22c-.198-.106-.461-.25-.773-.425-.635-.355-1.48-.835-2.4-1.362-1.54-.88-3.297-1.893-4.663-2.685Zm.83 9.191-.845 7.848 6.45-2.36-5.605-5.488Zm.659-.609 5.38 5.268.244-8.026c-1.704.834-3.627 1.777-5.624 2.758Zm4.863 7.08-6.292 2.304 1.869 4.398 4.422-6.701ZM19.52 28.329l1.046 7.662 5.921-3.947-6.967-3.715Z"/></svg>