<svg viewBox="0 0 48 48" class="createSvgIcon__Svg-sc-1l8xi8d-0 loXvaP ability-icon"><path fill-rule="evenodd" clip-rule="evenodd" d="m39.325 8.109.422.503v6.122l-5.904 1.342h4.976v.587c0 1.073-.843 1.453-1.265 1.509h-3.12c-1.485 0-1.856-.839-1.856-1.258v-.922l-.843-.755v-.587l-.59-.587H30.3c-.135.805-.674 1.453-.927 1.677l-.085 1.342-1.265 4.444h2.361c2.902-.067 3.683 2.097 3.711 3.187v1.845h2.53l.507.419c.14.084.438.15.506-.252.084-.503 1.349-.67 1.602-.167.202.402.59 1.397.759 1.845v1.593l-1.012 1.006-5.65.755v.167l.59.923v.922l1.94 1.007.758-.336.844.839-.084.503-1.266 1.342-.252.084-.17-.252h-.337v.922l-3.71 3.69.59.587 1.012-.838.675.587L31.904 44h-5.145c-.084-.028-.439-.218-1.18-.755-.905-.653-.688-1.228-.442-1.877l.02-.051c.253-.671.759-.587 1.096-.336.27.201.787.531 1.012.671h1.35l4.048-4.36a384.448 384.448 0 0 0-4.302-2.433c-.742-.402-1.208-1.285-1.349-1.677-.31-.167-1.08-.771-1.687-1.845-.607-1.073-.365-2.348-.168-2.85v-.588h-1.518c-1.012 0-1.518-.084-1.856-.503-.337-.42-.506-.67-1.012-1.425s-.253-1.594 0-1.845l.085-.087c.285-.292.817-.836 1.349-.836h1.77l1.688-4.36h-.844l-1.518-1.677h-4.385v1.341h-3.88v-1.425l-1.18-.839v-3.27H11.41c-.338 0-.675-.252-.675-.587v-1.51c0-.419.253-.754.675-.754h2.108l.76-.336V8.612h.42V7.02h1.097l1.265 1.593h2.783l1.181.587h3.205l.759-.42h2.867l1.518 1.007v.671c1.08 0 1.575.56 1.687.839h.675V8.948c0-.671.084-.839.675-.839h5.819v-.252l-6.072-1.174c-.135-1.81 1.18-2.543 1.855-2.683h3.542c1.417 0 1.771 1.286 1.771 1.929v2.18Zm-7.759 21.72a2.27 2.27 0 0 1-2.277 2.263 2.27 2.27 0 0 1-2.277-2.264 2.27 2.27 0 0 1 2.277-2.264 2.27 2.27 0 0 1 2.277 2.264Zm-1.219-.575-.477-.475-1.677 1.668.477.475 1.677-1.668ZM29.12 36.62l-2.361-1.509-1.855 1.677-1.687-.084c-.76-.754-1.856-.67-2.024.252-.135.738 1.068 1.481 1.686 1.761h4.64l1.602-1.593v-.504ZM5.59 10.877h2.277v1.51H5.59c-.196-.028-.59-.218-.59-.755s.394-.727.59-.755Z"/></svg>