<svg viewBox="0 0 48 48" class="createSvgIcon__Svg-sc-1l8xi8d-0 loXvaP ability-icon"><path fill-rule="evenodd" clip-rule="evenodd" d="M24 9.075c11.008 0 19.932 8.986 19.932 20.07 0 1.83-.243 3.601-.698 5.286h1.104c.432-1.69.662-3.461.662-5.286C45 17.466 35.598 8 24 8S3 17.467 3 29.145c0 1.825.23 3.596.662 5.286h1.104a20.222 20.222 0 0 1-.698-5.286c0-11.084 8.924-20.07 19.932-20.07ZM18.839 21.62v-.717h-6.94l3.38-5.914 2.937 5.018h.8l-3.202-5.555h16.55l-2.847 4.928v1.254l3.47-5.913 3.47 6.002.623.09-3.203-5.913 5.161 2.33-.712-.986-5.16-2.33h-7.92v-.358l2.402-3.494-.534-.27-2.491 3.674-2.225-3.673-.534.269L24 13.555v.358h-8.72l-4.805 1.523-.801.896 5.16-1.523-3.559 5.824-1.957-3.853-.356.448 1.78 3.763-4.094-.09-.267.538 12.458.18ZM9.763 34.34l-2.67-4.39v-.358H18.84v-.628h-3.203l3.203-5.644v-1.075l-3.737 6.45-3.026-6.181h-.534l2.848 6.45H4.869v.628h1.334l-.8 4.3.355.627.89-4.121 2.403 3.942h.712Zm4.36-3.942-2.314 3.942h.623l2.225-3.942h-.534Zm3.381 3.942-2.224-3.853h.712l2.224 3.853h-.712Zm4.182 0 1.602-2.598-.534-.269-1.69 2.867h.622Zm-1.423-12.006h1.067v-1.792c0-1.075 1.335-2.06 2.047-2.06h1.69c.89 0 1.958.985 1.958 1.97v1.882h1.068v6.182l-4.004 2.061-3.826-2.06v-6.183ZM24.8 26.11c.372-.217.623-.623.623-1.087a1.25 1.25 0 0 0-1.246-1.254 1.25 1.25 0 0 0-1.246 1.254c0 .426.211.803.534 1.03v1.658c.06.06.285.18.712.18s.593-.12.623-.18V26.11Zm1.068-5.208c0-.717-.445-1.255-1.602-1.255s-1.602.538-1.602 1.255v1.433h3.204v-1.433Zm6.495 9.586-2.135 3.853h.623l2.135-3.853h-.623Zm-6.851.896-.445.359 1.512 2.688h.801l-1.868-3.047Zm8.097-.806h.623l1.869 3.763h-.712l-1.78-3.763Zm-11.657-13.17 1.424-2.061h.712l-1.246 1.792-.89.268Zm4.183-.18-1.068-1.881h.534l1.512 2.508-.978-.627Zm-9.788-4.032h.978l4.005-3.135h-.98l-4.003 3.136Zm-1.87.27.446-.27-.445-.806-.445.269.445.806Zm17.086-.27-3.115-2.867 1.246.359 2.67 2.508h-.801Zm1.957.27-.445-.27.623-.806.445.359-.623.716Zm-22.69 9.049h-.534l-3.293 5.554h.623l3.204-5.554Zm-5.162.985.534-1.254.534 5.823h-.534L5.67 23.5Zm34.259-5.107-.356-.538-1.78 3.047h.623l1.513-2.509Zm-10.411 3.315v-.627l12.458 1.075.089.538-4.005-.359v.359l3.293 5.465h-.712l-3.204-5.465-3.559 6.271h9.254v.628h-.978l.355 4.658h-.622l-.267-3.673-2.314 3.763h-.712l2.67-4.3v-.448l-11.835.09v-.718h3.381l-3.292-5.555.089-1.075 3.826 6.272 3.56-6.361-7.475-.538Zm12.814 2.33-.534 4.121h.534l.444-2.777-.444-1.344ZM3.355 36.67v-1.164h41.466v1.164h-3.47l1.245.717-.533.359h-3.382l.979.627-.534.627H9.407l-.89-.717.712-.537H6.025l-.533-.448 1.067-.628H3.356Z"/></svg>