<svg viewBox="0 0 48 48" class="createSvgIcon__Svg-sc-1l8xi8d-0 loXvaP ability-icon"><path fill-rule="evenodd" clip-rule="evenodd" d="m10.709 4 .443 1.68-1.772-.353L10.709 4Zm23.924 0-.355 2.388 2.127-.885L34.633 4Zm8.329 3.714.354-2.476L45 6.388l-2.038 1.326Zm-.443 16.272 1.86.973-.088-2.122-1.772 1.15Zm-3.81 4.864 1.95 2.565 1.24-3.007-3.19.442ZM20.987 8.156 19.215 5.68l3.013-.353-1.24 2.83ZM7.342 14.79l-1.507-3.891L3 14.258l4.342.531Zm.974 11.939L6.013 29.38l2.658.884-.355-3.537Zm5.76-14.769a.974.974 0 1 0 .002-1.947.974.974 0 0 0-.002 1.947Zm14.443-4.245a.708.708 0 1 1-1.416-.001.708.708 0 0 1 1.416.001Zm13.203 9.02a.62.62 0 1 0 0-1.239.62.62 0 0 0 0 1.24Zm-.975-8.578-1.384.375L7.48 17.158l-1.38.372 1.006 1.01L30.43 41.983 31.443 43l.37-1.385 8.565-32.076.369-1.383Zm-1.753 1.758L8.484 18.17l5.93 5.958a7.703 7.703 0 0 1 6.219-3.147c4.257 0 7.709 3.444 7.709 7.694a7.679 7.679 0 0 1-3.197 6.239l5.656 5.684 8.193-30.683Zm-14.99 23.852-8.45-8.491a6.111 6.111 0 0 1 5.079-2.704c3.377 0 6.114 2.732 6.114 6.102 0 2.128-1.09 4-2.744 5.093Zm3.629.921 2.127 2.3 6.556-24.409-24.278 6.544 2.481 2.565c.68-.678 2.658-2.07 5.14-2.21l13.29-3.627-3.19 11.94c.09 1.591-.212 5.2-2.126 6.897Zm-7.266-10.435c-1.134-.071-2.067.56-2.392.884l6.29 6.367c.71-.849.828-2.122.798-2.653l-4.696-4.598Zm.266 10.524c.317 0 .628-.025.931-.07l1.322 1.328a7.722 7.722 0 0 1-2.253.333c-4.258 0-7.709-3.444-7.709-7.693 0-.802.123-1.576.351-2.302l1.321 1.328c-.05.317-.077.642-.077.974 0 3.37 2.737 6.102 6.114 6.102Z"/></svg>