<svg viewBox="0 0 48 48" class="createSvgIcon__Svg-sc-1l8xi8d-0 loXvaP ability-icon"><path fill-rule="evenodd" clip-rule="evenodd" d="M20.777 10.005h.941L21.376 4l-1.883.172 1.284 5.833Zm1.284 1.2h-1.113l-.086.858.086.686 1.198-.085-.085-1.459Zm2.567 8.235c-2.396 0-3.338 2.059-3.509 3.088h-1.712l-2.739-1.715v-.772h1.54l.857-.687.085-3.088 2.226-1.286 6.42-.086 2.31 1.372v3.088l.77.687h1.798v.772l-2.91 1.715h-1.712c-.142-1.03-1.027-3.088-3.424-3.088Zm-7.446 14.325 1.712 1.802h1.711l.856.857h6.934l.941-.943h1.455l1.712-1.802h.257c.799.858 2.534 2.711 3.081 3.26.685.686 1.027 1.887 1.027 2.66v1.372a.95.95 0 0 0 .942.943c.514 0 .942-.171.942-.943v-5.319c0-1.029 0-1.715-1.97-3.688-1.574-1.578-2.595-2.259-2.91-2.402l-2.824 1.03-2.054 1.372h-8.731l-1.969-1.373-2.568-1.029-2.824 2.23c-.77.372-2.311 1.664-2.311 3.86v5.404c0 .6.513.944.941.944.428 0 1.027-.343 1.027-.944v-1.972c0-.944.942-1.888 1.712-2.66.617-.617 2.197-2.03 2.91-2.659Zm5.135-3.688-1.284-2.145.6-.514-2.055-3.003v-.943h1.712c.143.915 1.01 2.745 3.338 2.745 2.329 0 3.139-1.83 3.253-2.745h1.797v.772l-2.225 3.174.685.514-1.199 2.145h-4.622Zm8.046-5.147-1.712 2.402 1.541 1.287c.342.171 1.352.24 2.654-.858 1.3-1.098 1.797-1.659 1.883-1.802v-3.43l-1.883-.601c.342.486.753 1.647-.343 2.402-1.096.754-1.883.714-2.14.6Zm-9.929 2.402-1.712-2.402c-.256.114-1.044.154-2.14-.6-1.095-.755-.684-1.916-.342-2.402l-1.883.6v3.431c.086.143.582.704 1.883 1.802 1.301 1.098 2.311 1.03 2.654.858l1.54-1.287Zm4.194-3.26a1.2 1.2 0 0 0 1.199-1.2 1.2 1.2 0 0 0-1.199-1.202 1.2 1.2 0 0 0-1.198 1.201 1.2 1.2 0 0 0 1.198 1.201Zm0 .858a2.057 2.057 0 0 0 2.055-2.059c0-1.137-.92-2.058-2.055-2.058a2.056 2.056 0 0 0-2.054 2.058c0 1.137.92 2.059 2.054 2.059Zm0 .343a2.4 2.4 0 0 0 2.397-2.402 2.4 2.4 0 0 0-2.397-2.401 2.4 2.4 0 0 0-2.396 2.401 2.4 2.4 0 0 0 2.396 2.402ZM18.123 13.95l-.171 4.29-1.113.771h-3.51l-1.626-1.458 2.055-2.745 4.365-.858Zm13.01 4.29-.17-4.29 4.365.858 2.054 2.745-1.626 1.458h-3.51l-1.112-.772ZM9.65 22.356l1.027-1.116c-.627-.457-1.883-1.835-1.883-3.688 0-1.853 1.199-3.288 1.798-3.774l-1.113-1.03c-.77.515-2.311 2.196-2.311 4.804s1.655 4.289 2.482 4.804Zm28.675-1.116 1.027 1.116c.827-.515 2.482-2.196 2.482-4.804s-1.54-4.289-2.311-4.804l-1.113 1.03c.6.486 1.798 1.921 1.798 3.774s-1.256 3.231-1.883 3.688ZM7.509 22.957c-.856-.686-2.567-2.745-2.567-5.49s1.597-4.803 2.396-5.49l-.685-.6C5.77 12.063 4 14.242 4 17.467c0 3.226 1.94 5.462 2.91 6.176l.6-.686Zm36.55-5.49c0 2.745-1.712 4.804-2.568 5.49l.599.686c.97-.715 2.91-2.95 2.91-6.176 0-3.225-1.769-5.404-2.653-6.09l-.685.6c.799.687 2.397 2.745 2.397 5.49Zm-17.205-6.176H25.57l-.086 1.458h1.113l.257-1.458Zm-1.027-1.115h1.112v-.6c0-.343.343-.687.942-1.116.6-.428 1.027-.943 1.113-2.23.085-1.286-.257-2.23-1.712-2.23s-1.969.172-2.14 1.372c-.137.961-.114 1.373-.086 1.459h1.456c.028-.43.12-1.321.256-1.459h.6c.056.4.085 1.304-.257 1.716a6.042 6.042 0 0 1-.358.381c-.427.432-.926.937-.926 1.592v1.115Z"/></svg>