<svg viewBox="0 0 48 48" class="createSvgIcon__Svg-sc-1l8xi8d-0 loXvaP ability-icon"><path d="M7.912 29.546 6 33.626V8l10.454 5.482 5.227-3.952.383.51v1.02l-2.677 1.912v7.267l-2.933 1.785-3.825 4.08-4.717 3.442Zm-.255 5.864L6 40h4.845l11.729-18.231h-1.53l-1.148 1.785L7.657 35.41Zm16.447-13.641h-1.02L14.159 40h8.16l1.785-18.231Zm16.446 7.777 1.912 4.08V8l-10.454 5.482-5.227-3.952-.383.51v1.02l2.678 1.912v7.267l2.932 1.785 3.825 4.08 4.717 3.442Zm.255 5.864L42.462 40h-4.845L25.889 21.769h1.53l1.148 1.785L40.805 35.41ZM24.359 21.769h1.02L34.302 40h-8.16L24.36 21.769Z"/></svg>