<svg viewBox="0 0 48 48" class="createSvgIcon__Svg-sc-1l8xi8d-0 loXvaP ability-icon"><path d="M42.406 44H5l7.372-5.051-1.775-3.96 5.734.956-6.416-8.19 7.645 5.05-.273-2.457 5.187 6.28-2.457-7.645 1.229-6.416 1.638 5.187 1.911-2.32-.273-4.779-5.051-4.778-.41-4.232 3.823-.41 1.502-.955L22.747 4l5.052 6.826-4.915 3.276 5.87 4.506.956 4.641 1.775 2.048-1.912 2.457-4.095 4.369v3.14l3.276-3.14.273 2.867 12.833-8.874-9.283 10.512L42.407 44Z"/><path d="m8.686 30.348 1.911 2.458h-2.73l-2.594-2.458h3.413Zm23.344-2.594v1.775h1.776l2.457-4.915-4.232 3.14Z"/></svg>