<svg viewBox="0 0 48 48" class="createSvgIcon__Svg-sc-1l8xi8d-0 loXvaP ability-icon"><path d="M41.56 13.95 33.344 5v4.842l-9.537 8.656 2.494 2.788-.587 8.803 9.244 9.977 6.602 1.467h-7.336l-11.297-11.15.44-7.924-3.081-3.08-4.549 3.52-.586 3.669L32.317 43h10.857l.88-1.027-.88-2.494-7.336-3.521-2.494-9.977 1.614-2.495-3.668-1.027 3.227-1.613 7.043-6.896ZM14.124 9.108h3.814l1.908 5.869-5.722-5.869Z"/><path d="M17.351 17.765 12.51 13.51l-.147 3.52-8.216-1.026 5.428 9.683H6.201l8.95 8.803-3.522 3.375 5.722.44L5.467 43H28.21L11.335 27.301l.733-5.722 5.282-3.814Z"/><path d="m11.63 34.05-3.522-1.32L4 34.637l4.108 1.614 3.521-2.2Z"/></svg>