<svg viewBox="0 0 48 48" class="createSvgIcon__Svg-sc-1l8xi8d-0 loXvaP ability-icon"><path fill-rule="evenodd" clip-rule="evenodd" d="M38 24v.115c-.068 9.254-8.303 14.809-13.71 17.569a.2.2 0 0 1-.29-.181v-1.75c0-.975-1.23-1.763-2.194-1.914C15.116 36.785 10 30.99 10 23.999v-.108c.065-9.257 8.302-14.814 13.71-17.575a.2.2 0 0 1 .29.181v1.747c0 .976 1.23 1.766 2.194 1.917C32.884 11.215 38 17.01 38 24Zm-17-8.5s-.032.773.274 2.116c.087-.05.175-.097.264-.143 3.917-2.035 8.927-.39 10.962 3.527 0 0-.773-.032-2.116.274.05.087.097.174.143.263 2.035 3.918.39 8.928-3.527 10.963 0 0 .032-.773-.274-2.116a8.292 8.292 0 0 1-.263.143c-3.918 2.035-8.928.39-10.963-3.527 0 0 .773.032 2.116-.274a8.189 8.189 0 0 1-.143-.264c-2.035-3.917-.39-8.927 3.527-10.962Z"/></svg>