<svg viewBox="0 0 48 48" class="createSvgIcon__Svg-sc-1l8xi8d-0 loXvaP ability-icon"><path fill-rule="evenodd" clip-rule="evenodd" d="M19.769 10.556C20.556 8.614 21.306 6.762 24 6c2.63.76 3.391 2.6 4.19 4.534.64 1.547 1.305 3.155 2.972 4.317a.412.412 0 0 1 .124.55l-6.3 11.098c0-.91.507-2.55 1.054-4.317.638-2.06 1.328-4.292 1.328-5.735 0-2.681-1.397-3.548-2.185-3.942-.395.394-1.183.59-1.183.59s-.788-.196-1.183-.59c-.788.394-2.282 1.261-2.282 3.942 0 1.443.719 3.674 1.382 5.735.57 1.766 1.098 3.407 1.098 4.317l-6.3-11.098a.412.412 0 0 1 .123-.55c1.66-1.156 2.306-2.754 2.93-4.295Zm18.944 2.47s3.034.81 3.034 4.91c0 2.784-12.364 20.397-12.364 20.397s.718-2.946-.424-3.372c-1.142-.425-2.186 2.03-2.186 2.03L24 42l-2.805-5.01s-1.044-2.455-2.186-2.029c-1.142.426-.424 3.372-.424 3.372S6.253 20.72 6.253 17.937c0-4.1 3.034-4.911 3.034-4.911-.783 5.304 6.623 5.893 6.623 5.893l8.057 13.063 8.123-13.063s7.373-.59 6.623-5.893Z"/></svg>