<svg viewBox="0 0 48 48" class="createSvgIcon__Svg-sc-1l8xi8d-0 loXvaP ability-icon"><path fill-rule="evenodd" clip-rule="evenodd" d="M17.533 19.293A7.631 7.631 0 0 0 18.97 18H9.846L8 20h8.774c.217-.268.472-.507.759-.707ZM11 15h9.785c.199-.422.4-.868.613-1.34v-.001l.297-.657.002-.002H12.23L11 15Zm2.857-5h9.418c.44-.686.953-1.364 1.568-2h-9.756l-1.23 2Zm11.9 30-1.182-2H15l1.23 2h9.526Zm-2.953-5-1.181-2H12l1.539 2h9.265Zm-2.953-5-1.181-2H9l1.23 2h9.621Zm-3.378-5.72a3.69 3.69 0 0 1-.489-1.28H6l1.538 2h9.36l-.425-.72Zm7.394-9.167c1.228-3.033 2.4-5.923 6.605-7.113 4.106 1.185 5.293 4.058 6.541 7.077.999 2.416 2.036 4.926 4.639 6.74.277.194.37.57.193.859L32.011 40c0-1.42.792-3.982 1.646-6.74.995-3.216 2.073-6.7 2.073-8.952 0-4.185-2.181-5.539-3.412-6.154-.615.615-1.846.923-1.846.923s-1.23-.308-1.846-.923c-1.23.615-3.563 1.97-3.563 6.154 0 2.253 1.122 5.736 2.158 8.952.888 2.758 1.712 5.32 1.712 6.74L19.1 22.676a.644.644 0 0 1 .193-.859c2.59-1.805 3.6-4.3 4.575-6.704Z"/></svg>