<svg viewBox="0 0 48 48" class="createSvgIcon__Svg-sc-1l8xi8d-0 loXvaP ability-icon"><path fill-rule="evenodd" clip-rule="evenodd" d="M33.548 14.52c2.5 4.731 5.062 3.767 6.116 1.568 0 0 2.02 6.477.784 10.455-1.205 4.007-3.977 7.743-7.503 7.743a7.857 7.857 0 0 0 2.32-3.947h2.622v-3.555h-2.622a7.697 7.697 0 0 0-5.724-5.725v-2.621h-3.556v2.621c-2.53.572-4.58 2.41-5.483 4.79 0 0-11.42-.24-11.78 12.324 0 0-4.46-6.87 1.656-12.323 6.117-5.454 5.363-8.889-1.657-7.774 0 0 3.495-5.875 9.822-5.273l.31.03c6.12.584 9.148.873 7.163-2.832 0 0 5.031-.21 7.532 4.52ZM23.003 28.562a4.77 4.77 0 0 1 4.76-4.76 4.77 4.77 0 0 1 4.76 4.76 4.77 4.77 0 0 1-4.76 4.76 4.77 4.77 0 0 1-4.76-4.76Zm3.013.03a1.748 1.748 0 0 0 3.495.001 1.749 1.749 0 0 0-3.495 0Z"/></svg>