<svg viewBox="0 0 48 48" class="createSvgIcon__Svg-sc-1l8xi8d-0 loXvaP ability-icon"><path d="M7.61 16.163c-.478 2.766.546 4.644 1.195 5.498.137.17.444.102.444-.137.068-.887.273-2.39 1.16-3.004 1.196-.82.41-6.522-3.38-7.922-.239-.069-.444.17-.307.375.546.82 1.332 2.561.888 5.19Z"/><path d="M10.922 25.246c.376 1.64.307 2.39.307 2.39.069 2.937-1.468 1.23-1.366-.068.103-1.263-.922-2.629-3.243-5.224-1.81-2.015-1.776-4.951-1.674-6.146 0-.171-.205-.24-.273-.103C2.761 18.827 3 22.822 3 22.925v15.4c0 .102.102.17.205.136 2.458-.888 5.395-1.639 8.673-2.151V23.266c0-.137-.136-.205-.239-.137-.341.273-.99.956-.717 2.117Zm9.629-7.478c-.136 2.083-.341 4.815-2.083 4.815-1.741 0-2.868-1.707-2.902-6.283-.034-3.517-2.732-5.224-3.995-5.873-.137-.068-.273.102-.171.205 2.834 3.21 2.97 9.22 2.97 9.22l-.067 15.946c0 .068.068.136.17.136 2.664-.341 5.464-.512 8.4-.58a.147.147 0 0 0 .137-.137V20.603c0-5.157 1.195-9.118 1.57-10.176.035-.103-.068-.24-.204-.17-1.844.955-3.722 5.53-3.825 7.511Zm10.654-2.663c-.068-.068-.205 0-.17.102.511 1.298 1.877 5.327-1.06 5.327-2.902 0-2.868-4.917-2.765-6.624 0-.103-.137-.137-.205-.034-1.366 3.414-1.298 9.117-1.298 9.117v12.326c0 .069.034.103.103.103 2.834.034 5.566.239 8.127.546.068 0 .102-.034.102-.102v-12.02c0-5.395-2.049-7.956-2.834-8.741Z"/><path d="M44 17.5c-.034-.137-.239-.137-.307 0-1.469 4.439-2.62 1.668-5.01-2.293-2.049-3.312-6.556-5.122-8.195-5.668-.17-.068-.273.102-.17.24 7 7.17 6.419 12.394 6.419 12.394v14c0 .069.068.137.136.137 2.937.478 5.6 1.127 7.922 1.912.103.034.205-.034.205-.137V26.612c0-4.61-.727-8.02-1-9.112Z"/></svg>