<svg viewBox="0 0 48 48" class="createSvgIcon__Svg-sc-1l8xi8d-0 loXvaP ability-icon"><path fill-rule="evenodd" clip-rule="evenodd" d="M22.922 4c-1.364 5.04-3.31 15.074.666 16.734 3.068 1.28 4.37-2.225 2.506-10.516 3.98 4.65 3.98 7.805 3.244 12.626a10.82 10.82 0 0 1 1.603 1.116c.734-.44 1.1-1.282 1.1-2.525.795 1.447.99 2.88.585 4.298a10.73 10.73 0 0 1 2.169 6.485C34.795 38.173 29.962 43 24 43s-10.795-4.827-10.795-10.782c0-1.717.402-3.34 1.116-4.78-.702-1.625-.516-3.86.56-6.704 0 2.56.485 3.177 1.057 3.54.161.101.354.16.577.176.325-.314.668-.605 1.03-.875C16.977 16.147 19.267 9.447 22.921 4Zm-1.637 33.467c.452-1.743 1.356-3.478 3.102-4.217-.422 1.398-.36 3.433.814 4.753a5.92 5.92 0 1 0-3.916-.536Z"/></svg>