<svg viewBox="0 0 48 48" class="createSvgIcon__Svg-sc-1l8xi8d-0 loXvaP ability-icon"><path fill-rule="evenodd" clip-rule="evenodd" d="M28.258 12.909a.824.824 0 0 1-.922.217 9.247 9.247 0 0 0-.776-.258.821.821 0 0 1-.588-.62l-1.583-7.912-1.543 7.717a.822.822 0 0 1-.657.636 9.279 9.279 0 0 0-2.214.733.818.818 0 0 1-.712.005l-2.661-1.303.573 2.868a.817.817 0 0 1-.195.697 9.356 9.356 0 0 0-1.486 2.294.82.82 0 0 1-.649.482l-6.03.668 5.769 2.614c.043.02.07.064.07.111a9.32 9.32 0 0 0 2.995 6.856c.186.173.289.42.265.672l-.175 1.884 2.019-.806a.814.814 0 0 1 .619.011c.503.212 1.03.381 1.573.503a.823.823 0 0 1 .648.69L24.389 46l1.819-14.546a.822.822 0 0 1 .58-.673 9.37 9.37 0 0 0 5.246-4.146.82.82 0 0 1 .738-.41l6.414.306-5.477-3.347a.82.82 0 0 1-.381-.754 9.307 9.307 0 0 0-2.107-6.504.821.821 0 0 1-.113-.886L37.629 2l-9.37 10.909Zm1.193 8.95a5.451 5.451 0 1 1-10.902 0 5.451 5.451 0 0 1 10.902 0Z"/></svg>