<svg viewBox="0 0 48 48" class="createSvgIcon__Svg-sc-1l8xi8d-0 loXvaP ability-icon"><path fill-rule="evenodd" clip-rule="evenodd" d="M22.946 39c-9.782-9.425-11.283-21.51-9.35-30.982-3.076 3.073-5.065 7.417-4.703 13.032-1.18-.534-2.301-2.063-3.366-4.586-1.12 2.332-1.207 11.349 8.709 18.538l-2.574 1.82c2.81 1.207 6.57 1.933 11.284 2.178Zm16.16-17.968C39.47 15.417 37.48 11.073 34.404 8c1.934 9.49.433 21.557-9.349 30.982 4.713-.246 8.474-.972 11.284-2.178l-2.574-1.82c9.916-7.19 9.828-16.207 8.71-18.539-1.066 2.524-2.188 4.052-3.367 4.587ZM24.002 32.728c4.019-2.636 6.76-5.9 6.27-8.864-.48-2.908-4.752-3.922-6.191-.218l-.08.216c-1.354-3.959-5.78-2.962-6.27.002-.49 2.965 2.252 6.228 6.27 8.865h.001v-.001Zm0-8.866-.001.001.001.001v-.002Zm-3.726-7.732c1.845-.332 3.287-1.802 3.642-3.628 0-.095.142-.095.166-.024a4.598 4.598 0 0 0 3.642 3.652c.095.024.095.143 0 .166a4.598 4.598 0 0 0-3.642 3.652c-.024.095-.142.095-.166 0a4.598 4.598 0 0 0-3.642-3.652c-.095-.023-.095-.142 0-.166Z"/></svg>