<svg viewBox="0 0 48 48"><path fill-rule="evenodd" clip-rule="evenodd" d="M8.386 12.424c-.081-.164.123-.287.245-.205.693.614 1.916 1.432 2.813.205 1.264-1.719-1.386-2.25-1.672-2.292h-.04C9.528 10.051 7.367 8.864 7 5.182c0-.164.163-.246.285-.123.694.818 2.61 2.66 5.912 3.314 4.24.851 2.401 4.631 1.85 5.26l1.204 1.204A11.952 11.952 0 0 1 24 12c2.954 0 5.658 1.067 7.749 2.837l1.203-1.204c-.55-.629-2.389-4.409 1.85-5.26 3.303-.655 5.22-2.496 5.913-3.314.122-.123.285-.04.285.123-.367 3.682-2.528 4.828-2.772 4.95h-.041c-.286.041-2.936.573-1.672 2.292.897 1.227 2.12.409 2.813-.205.123-.082.327.04.245.205-1.55 4.02-3.71 3.528-5.143 2.56l-1.267 1.267A11.952 11.952 0 0 1 36 24c0 2.954-1.067 5.658-2.837 7.749l1.267 1.266c1.432-.967 3.594-1.459 5.143 2.562.082.163-.122.286-.245.204-.693-.614-1.916-1.432-2.813-.204-1.264 1.718 1.386 2.25 1.672 2.29h.04c.245.123 2.406 1.269 2.773 4.951 0 .164-.163.246-.285.123-.694-.818-2.61-2.66-5.912-3.314-4.24-.851-2.401-4.63-1.85-5.26l-1.204-1.204A11.952 11.952 0 0 1 24 36a11.952 11.952 0 0 1-7.749-2.837l-1.203 1.204c.55.63 2.389 4.409-1.85 5.26-3.303.654-5.22 2.496-5.913 3.314-.122.123-.285.04-.285-.123.367-3.682 2.528-4.869 2.732-4.95h.04c.286-.041 2.936-.573 1.672-2.291-.897-1.228-2.12-.41-2.813.204-.122.082-.326-.04-.245-.204 1.556-4.037 3.728-3.525 5.173-2.55l1.278-1.278A11.952 11.952 0 0 1 12 24c0-2.954 1.067-5.658 2.837-7.749l-1.278-1.278c-1.445.975-3.617 1.487-5.173-2.55ZM33.5 24a9.5 9.5 0 1 1-19 0 9.5 9.5 0 0 1 19 0ZM24 31a7 7 0 1 0 0-14 7 7 0 0 0 0 14Zm-4.285-4.284a.189.189 0 0 1 0-.267L22.164 24l-2.449-2.448a.189.189 0 0 1 0-.267l1.57-1.57a.189.189 0 0 1 .267 0L24 22.166l2.448-2.45a.189.189 0 0 1 .268 0l1.569 1.57a.189.189 0 0 1 0 .267L25.836 24l2.449 2.449a.189.189 0 0 1 0 .267l-1.57 1.569a.189.189 0 0 1-.267 0L24 25.836l-2.448 2.449a.189.189 0 0 1-.268 0l-1.569-1.57Z"/></svg>