<svg viewBox="0 0 48 48" class="createSvgIcon__Svg-sc-1l8xi8d-0 loXvaP ability-icon"><path fill-rule="evenodd" clip-rule="evenodd" d="M36.475 9.675c.365.525.72 1.28.851 1.592l-.236.111c-.04-.175-.487-.301-.798-.35-.249-.039-.272-.21-.253-.292l-.962-.068-.39-.993c-.078-.12-.632-.442-2.216-.776l-.809-.17a67.992 67.992 0 0 1-5.346-1.299c-2.45-.684-4.47-.285-5.173 0 .155.27.055.513-.04.74A1.227 1.227 0 0 0 21 8.5c-.438-.36-2.133-.506-4.768.758s-2.868 1.44-5.286 4.327c-1.935 2.31-2.543 3.592-2.605 3.944L8 17.5l-.734.874.443.503-.81 2.052c-.026-.075-.108-.06-.22.596-.141.82-.02 2.35 0 2.35.016 0 .1-.05.14-.076l.032.947c.467 1.061.524 1.282.794 2.319.153.592.377 1.45.785 2.884.898 3.154 2.287 4.78 2.87 5.199.037-.132.173-.367.413-.249s.44.166.51.175c-.042.281.058.645.112.793.013-.017.177.096.725.684.547.589.886 1.169.987 1.385l.453.564s.152.076.577.253c.425.177 1.337.637 1.337.637s.781-.106.839-.159c1.45.538 2.77.764 3.248.81a.3.3 0 0 1 .058.136c.016.08-.084.308-.136.412.028.021.233.084.83.168.598.083 1.457 0 1.813-.053.228-.104.757-.34 1.05-.449.19-.07.339-.08.506-.089.09-.005.183-.01.292-.026l.909-.126a.713.713 0 0 1-.31.456c.04.002.07.01.096.017.057.016.095.026.177-.044.305-.263.656-.394.912-.489.163-.06.287-.107.337-.164l.887-.214c.239.26.852.32 1.129.319.067-.247.317-.44.433-.505v.186s.34.237.58.214c.273-.026.574-.4.574-.4l-.036-.191c.14-.018.592.12.8.19 0 0-.238.199-.261.401-.03.268 1.598.268 1.598.268l-.096.096-.83.095c-.575.065-1.816.277-2.364.375a13.61 13.61 0 0 0-.736.143l.165-.324s-1.462.29-2.378.557c-.464.136-1.179.38-1.179.38l2.13.301c-.188.125-.671.386-1.094.433-.434.049-.522.111-.766.287a8.692 8.692 0 0 1-.189.132c-.133.09-.126.159-.121.208.01.102.011.118-1.296.064-1.545-.065-2.862-.326-3.327-.448l.463-.735-1.381.162v-.588c-.064.013-.396-.033-1.219-.315-.823-.282-1.821-.784-2.218-1l-1.858-.69-.44.243c-.04-.025-.335-.234-1.205-.874-1.087-.8-2.813-2.534-3.863-3.995A22.28 22.28 0 0 1 7.204 31.7l.198-1.028c.01.02.005-.065-.095-.558-.08-.394-.333-1.145-.592-1.911a60.98 60.98 0 0 1-.414-1.255c-.265-.846-.233-1.596-.184-1.865l-.843-.338a39.332 39.332 0 0 1-.06-1.16 9.804 9.804 0 0 1 .06-1.152l.414.029.11-.761c-.007-.016-.026-.258-.047-1.096-.02-.837.062-1.187.106-1.257l.03.049c.057.09.087.138.11.135.027-.004.046-.075.086-.227.02-.08.047-.181.083-.306a19.9 19.9 0 0 1 .573-1.581c-.015-.02-.029-.171.034-.615.08-.554.521-1.313 1.517-2.874a21.564 21.564 0 0 1 2.217-2.852l.279.443s.688.29 1.006-.161c.317-.451 1.142-1.219 1.514-1.546-.289-.104-.892-.39-.992-.7-.1-.309.125-.727.25-.898l1.358-.501c2.14-.736 3.586-.905 4.042-.898.502-.15 1.762-.502 2.33-.658 2.339-.594 5.036-.428 6.092-.27L27 6.5l.382-.229c.14-.006.526.049.949.316.423.268 1.404.525 1.841.62l.134-.322c1.24.96 1.653.693 1.763.407.087-.228-.15-.84-.28-1.118.175.049.64.377.851.535.028.267.154.802.431.802.278 0 .732-.575.924-.863-.008.097.072.353.456.596s.683-.22.784-.48c.047-.086.184-.013.359.96.18 1 .352 1.23.66 1.646.067.09.14.188.221.305Zm2.134 3.509c-.068-.367-.334-.721-.458-.853-.12.503-.235.543-.277.5.074.083.307.468.64 1.354.332.887.784 1.272.969 1.354-.263-.633-.806-1.989-.874-2.355Zm-6.062 25.891.096.124-.386-.124.76-.809.154.105-.624.704Zm1.36-.37-.326.322c.386-.062.647-.24.728-.322l-.048-.02s-.25.14-.354.02Zm-.366-.95.165.109a.745.745 0 0 0-.145-.33l-.02.221Zm6.254-17.671c.259.495.868 1.68 1.237 2.468.36.77.434 1.03.425 1.07l.131-.437c.076.252.25.99.336 1.928.087.939.134 1.396.147 1.507-.076-.138-.266-.394-.438-.356-.003.236.001.504.037.816.086.76.02.953-.077 1.234-.066.19-.145.422-.201.898.186.437.523 1.433.386 1.923-.136.49-.057.886 0 1.022-.212-.178-.694-.425-.934.01-.24.436-.127.833-.127.833s.35 1.002-1.267 1.726c-.21.094-1.003.697-1.003.697s.243-.379.123-.697c-.078-.21.104-.45.213-.593.1-.13.138-.182-.127-.062-.516.233-.516.233-.814.819h-.001a46.78 46.78 0 0 1-.081.16c-.307.597-.896 1.157-1.284 1.462.18-.198.27-.482.386-.842a10.6 10.6 0 0 1 .138-.417c.2-.562-.25-.085-.238-.042-.089.052-.126.031-.178.003-.07-.038-.168-.091-.456-.002-.367.113-.528.183-.586.218a99.746 99.746 0 0 0 1.365-1.32c.308-.31.327-.604.298-.712.055.076.217.15.425-.17.259-.399 1.102-1.938 1.296-2.454.155-.413.414-.555.524-.574-.02-.325-.111-.887-.322-.543-.263.431-.206-1.337.223-.536.133.25.218.492.286.686.15.428.22.629.561.193a.257.257 0 0 0-.031.011c-.06.025-.133.055-.331-.128.003-.103-.017-.45-.12-1.018l-.011-.06c-.054-.292-.07-.382-.042-.455a.462.462 0 0 1 .062-.102c.048-.068.121-.17.22-.373.307-.632.483-2.28.45-2.65-.025-.296.145-.47.234-.52.035-.05.052-.245-.167-.621-.252-.436-.211-.795-.183-1.039l.006-.056c.02-.195.098-.675.134-.891l-.175.169c0-.34-.091-1.253-.449-2.183Zm-4.28 15.373.027-.026c-.021.013-.029.021-.027.026Zm-1.864-8.748a9.97 9.97 0 0 0 .027-5.287 9.97 9.97 0 0 0-2.447-4.345L32 16l-1.078.77a10.01 10.01 0 0 0-9.51-2.43 9.97 9.97 0 0 0-4.33 2.433L16 16l.773 1.082a10.01 10.01 0 0 0-2.443 9.524 9.969 9.969 0 0 0 2.431 4.328L16 32l1.066-.761a10.033 10.033 0 0 0 7.155 2.79c-2.678-.008-5.176-1.123-6.858-3.003l5.115-3.653A2 2 0 0 1 23.641 27h.718a2 2 0 0 1 1.162.373L32 32l-4.628-6.478A2 2 0 0 1 27 24.359v-.718a2 2 0 0 1 .372-1.162l3.054-4.275a8.408 8.408 0 0 1 3.13 4.581 8.329 8.329 0 0 1 .095 3.924Zm-11.388-9.995c2.63-.705 5.28-.28 7.382.968l-4.123 2.946a2 2 0 0 1-1.163.372h-.718a2 2 0 0 1-1.163-.372l-3.39-2.422a9.825 9.825 0 0 1 3.175-1.492Zm-1.636 5.765-2.494-3.492c-2.354 2.19-3.465 5.455-2.614 8.631a8.314 8.314 0 0 0 1.484 2.977l3.624-5.073A2 2 0 0 0 21 24.359v-.718a2 2 0 0 0-.373-1.162Z"/></svg>