<svg viewBox="0 0 48 48" class="createSvgIcon__Svg-sc-1l8xi8d-0 loXvaP ability-icon"><path fill-rule="evenodd" clip-rule="evenodd" d="M20.692 7.025c.856.152 2.16.434 2.704.556-.99-.105-1.896.043-2.225.13l.118-.212a22.42 22.42 0 0 1-.878.38c-.229.091-.565.224-1.05.092-.421-.113-.605-.047-.644 0a.544.544 0 0 1-.442.36c-.366.065-1.912.661-2.443 1.121-.171.149-.25.245-.304.31a.473.473 0 0 1-.082.086c-.063.046-.154.053-.45.077l-.06.005c-.577.047-.917.118-1.015.148-.229-.145-.218-.223-.21-.287l.003-.033c-.333.442-.121.458.331.492.206.015.46.034.737.099.885.207-.808.72-.46.354.278-.293-.29-.236-.608-.171.01.111-.06.398-.419.655-.448.32-1.717 1.534-2.035 1.888-.255.283-.142.42-.053.454-.113 0-.392.094-.612.472a99.419 99.419 0 0 0-.922 1.66c.02-.066.045-.239.06-.622.011-.301-.065-.382-.12-.44-.041-.043-.07-.074-.043-.173.044 0 .388-.558-.103-.22-.13.09-.253.17-.367.242-.318.204-.568.365-.713.59.194-.453.582-1.167 1.08-1.618l.133-.12c.489-.44.489-.44.58-.999.048-.287.008-.236-.092-.107-.11.143-.296.381-.518.36-.339-.034-.641.299-.641.299s-.008-.946.029-1.174c.28-1.749.99-2.026.99-2.026s.414.007.772-.339c.358-.345-.006-.746-.232-.904.146.02.549-.006.987-.265.438-.26 1.488-.191 1.958-.125.707-.282 1.104-.304 1.632-.335.296-.017.633-.036 1.089-.104.352-.053.6-.115.797-.167.002-.181-.302-.301-.457-.34.11-.016.564-.089 1.493-.248.93-.16 1.687-.183 1.95-.175l-.388.24c.036-.018.307-.015 1.143.134Zm-11.037 8.67c.005 0 .011-.01.018-.034l-.018.033ZM30.91 7.868c-.851-.22-1.932-.008-2.366.126.719-.064 1.158-.005 1.288.032l-.043-.078c.2.025.36.094.414.125.3.016.768.082.965.113h-.688c.07.04.286.117.586.098.375-.023.566-.027.477.254-.071.225.03.334.089.36.09.084.292.302.383.506.09.205.23.212.289.19.014.083.064.29.151.45.032.056.033.101.034.137.003.088.004.12.449.15-.163.03-.032.127.08.211.087.066.163.123.077.132-.244.024-.83.325-.341.26.39-.052.585.021.634.065-.104-.39.314-.282.537-.18.016.085.151.328.563.627.413.3 1.146 1.117 1.461 1.488l-.146.179c.063.127.211.335.309.146a1.79 1.79 0 0 1 .284-.398 6.07 6.07 0 0 0 1.123.976c.494.318.032-.301-.26-.65-.334-.245-1.063-.81-1.31-1.123-.233-.295.03-.255.347-.208.103.015.212.032.312.038.406.024.162-.342-.212-.683-.233-.213-.23-.325-.23-.369 0-.013 0-.02-.005-.022-.07.043-.145-.014-.218-.069-.048-.036-.095-.072-.14-.078a.59.59 0 0 0-.011-.14c0-.001.002-.002.005-.002.012-.003.05-.013.152-.13.176-.201.073-.493 0-.485l-.195-.251c-.08-.04-.097-.13-.113-.224a.424.424 0 0 0-.075-.208.841.841 0 0 1-.119-.177.296.296 0 0 0-.046-.073c-.066-.069-.206-.066-.864-.053l-.049.001c-.923.019-1.23-.236-1.269-.366a37.62 37.62 0 0 0-2.31-.697ZM8.322 18.315l-.268.163c-.222.533-.857 1.84-1.622 2.811-.765.97-.591 2.94-.408 3.803-.148.887-.34 3.192.07 5.32.354.322 1.178.725 1.645-.245a21.59 21.59 0 0 0 1.19 1.866c.63.892.583.89.155.87a4.707 4.707 0 0 0-.307-.007c-.688.012-.619.385.151 1.132.25.242.556.652.908 1.125.733.983 1.669 2.239 2.732 2.83 1.26.7 2.306 1.318 2.671 1.54l-.315.128c.226.104.92.361 1.89.548.97.187 1.035.536.945.688.222.124.982.418 2.251.595.04-.124.19-.439.479-.7-.043.125.298.371 2.006.362a9.83 9.83 0 0 0 2.07-.214c.524-.103.906-.178 1.57-.043l.781.502c.661-.113 2.401-.633 4.072-1.808 1.14-.804 2.148-1.248 2.867-1.565.334-.148.606-.268.8-.383.114.186.407.6.677.758.157.091.209.013.282-.098.086-.13.202-.304.547-.31.498-.01.557-.124.75-.504a6.99 6.99 0 0 1 .212-.395c.149-.254.32-.585.504-.938.322-.62.68-1.309 1.007-1.77.293-.413.406-1.078.494-1.6.066-.39.119-.701.224-.766.086-.053.137-.017.18.013.082.057.136.095.333-.48.098-.287.146-.482.176-.602.025-.104.037-.152.055-.155.016-.002.037.029.075.086.025.038.058.087.102.146.083.11.133.22.17.3.088.191.1.218.297-.3.28-.735 1.505-3.92 1.505-3.92-.187-.046-.53-.36-.409-1.247a4.35 4.35 0 0 0 .028-.984c-.02-.305-.031-.46.206-.696l.047-.048c.408-.406.98-.977.722-1.515-.12-.254-.357-.252-.542-.25-.224.002-.375.003-.157-.45.244-.512.116-.494-.145-.458-.161.023-.373.053-.579-.032-.487-.202-.474-.576-.45-1.256l.007-.214c.011-.394-.121-.367-.301-.33-.193.038-.44.088-.62-.358-.35-.864-1.249-3.068-1.097-2.054.151 1.015.163 1.809.14 2.054-.007.076-.067.043-.132.008-.143-.079-.313-.172-.008.855.254.855.202 1.512.163 1.994-.029.36-.05.621.07.795.28.409.303.654-.233.864-.027.178-.03.615-.03.615s.707-.15.473.305l-.053.102c-.055.105-.078.15-.081.196a.431.431 0 0 0 .023.13c.026.096.069.256.111.575.117.875.07 1.645-.303 2.415-.185.381-.09.339.015.292.105-.047.22-.097.055.29a5.2 5.2 0 0 1-.395.753c-.14.229-.256.42-.352.764a4.634 4.634 0 0 0-.077.348c-.109.551-.238 1.204-1.31 2.172-.703.633-.708.545-.71.499-.003-.04-.003-.05-.446.458-.956 1.096-2.018 1.773-3.021 2.251a5.84 5.84 0 0 1-1.014.364c-.336.094-.454.126-.223.29.397.28.56.42-.151.688-.712.268-.957.396-.479.676.383.224.393.42.35.49-.447.455-2.013 1.36-4.7 1.342-3.36-.024-5.052.011-6.463.151l-1.738-.42v.187c-.234-.016-.885-.152-1.622-.572-.737-.42-1.466-1.108-1.738-1.4l.443.817c-.392-.132-1.355-.646-2.065-1.645l.49-.081c-.556-.397-2.078-1.848-3.72-4.48-.85-1.36-1.282-1.737-1.525-1.95a1.338 1.338 0 0 1-.18-.176c-.146-.186-.179-.46-.315-1.596l-.057-.477c-.408-3.372-.022-5.087.782-5.973-.195-.113-.72-.336-1.26-.327-.082-.245-.066-1.294.653-3.534ZM22 16h4v6h6v4h-6v6h-4v-6h-6v-4h6v-6Z"/></svg>