<svg viewBox="0 0 48 48" class="createSvgIcon__Svg-sc-1l8xi8d-0 loXvaP ability-icon"><path fill-rule="evenodd" clip-rule="evenodd" d="M24 40c2.122 0 4.147-.413 6-1.163.054-.03.128-.062.222-.1 1.968-.766 2.92-2.232 4.034-3.948.395-.608.81-1.249 1.3-1.9.17-.226.333-.441.49-.645.386-.312.64.013.882.322.496.635.938 1.2 2.365-4.026l.077-.079c.41-1.416.63-2.913.63-4.461 0-2.178-.435-4.254-1.223-6.146-.579-1.295-1.157-1.663-1.838-2.096-.415-.265-.868-.553-1.383-1.091-.187-.195-.38-.398-.578-.608-1.81-1.912-4.118-4.351-6.883-5.53A16.026 16.026 0 0 0 24 8c-1.956 0-3.83.35-5.561.993-2.807 1.316-3.783 3.082-4.632 4.619-.298.537-.579 1.047-.918 1.5-1.333 1.332-2.667 0-2.667-1.334C9.333 15.556 8 19.11 8 24v.014a15.98 15.98 0 0 0 .792 4.97c.133.115.268.23.403.344.498.422 1.002.849 1.472 1.339.57.596 1.039 1.393 1.558 2.278 1.178 2.006 2.618 4.46 6.116 6.026A15.977 15.977 0 0 0 24 40Zm0-3.556S29.333 30.873 29.333 24c0-6.873-5.333-12.444-5.333-12.444S18.667 17.127 18.667 24c0 6.873 5.333 12.444 5.333 12.444Zm10.873-25.777c1.98 1.078 3.328 2.478 3.02 3.032-.334.605-1.731-.432-3.02-3.032ZM12.057 36.104C10.088 34.885 8.8 33.41 9.16 32.901c.391-.556 1.757.573 2.896 3.203Zm1.92-26.466c-.65 2.031-1.68 3.512-2.215 3.306-.584-.225.119-1.699 2.214-3.306Z"/></svg>