<svg viewBox="0 0 48 48" class="createSvgIcon__Svg-sc-1l8xi8d-0 loXvaP ability-icon"><path fill-rule="evenodd" clip-rule="evenodd" d="M25 3a1 1 0 1 0-2 0v4a1 1 0 1 0 2 0V3Zm1 13.236a3 3 0 1 0-4 0V18h-8a3 3 0 0 0-3 3v19a3 3 0 0 0 3 3h20a3 3 0 0 0 3-3V21a3 3 0 0 0-3-3h-8v-1.764ZM16 25a2 2 0 1 0 0-4 2 2 0 0 0 0 4Zm-2 4a2 2 0 0 1 2-2h10a2 2 0 0 1 2 2v2a2 2 0 0 1-2 2H16a2 2 0 0 1-2-2v-2Zm17-.5a1.5 1.5 0 0 1 3 0v3a1.5 1.5 0 0 1-3 0v-3ZM24 23a2 2 0 1 1-4 0 2 2 0 0 1 4 0Zm7-10a1 1 0 1 0 0 2h4a1 1 0 1 0 0-2h-4Zm-19 1a1 1 0 0 1 1-1h4a1 1 0 1 1 0 2h-4a1 1 0 0 1-1-1Zm20.071-8.071a.5.5 0 0 1 0 .707l-3.208 3.208a.5.5 0 1 1-.707-.707l3.208-3.208a.5.5 0 0 1 .707 0Zm-16.142.71a.502.502 0 0 1 .71-.71l3.205 3.205a.502.502 0 1 1-.71.71l-3.205-3.205Z"/></svg>