<svg viewBox="0 0 48 48"><path fill-rule="evenodd" clip-rule="evenodd" d="m29.663 32.421 2.534 1.115 2.391 1.052-1.052-2.39-1.115-2.535a10.12 10.12 0 0 0 1.609-4.116l.205-.071.413-.143.543-.188.099.595.043.26.037.223a.998.998 0 0 0-.014 1.542A1 1 0 1 0 36 26v-1.135l.684-.237.198-.068.245-.085L38.5 24l-1.373-.475-.245-.085-.198-.068-.684-.237V22a.998.998 0 0 0 .982-1.188 1 1 0 1 0-1.612.965l-.037.223-.043.26-.1.595-.542-.188-.413-.143-.205-.07a10.067 10.067 0 0 0-1.609-4.117l1.115-2.534 1.052-2.391-2.39 1.052-2.535 1.115a10.122 10.122 0 0 0-4.116-1.609l-.071-.205-.143-.413-.188-.543.594-.099.261-.043.223-.037a.998.998 0 0 0 1.542.014A1 1 0 1 0 26 12h-1.135l-.237-.684-.068-.198-.085-.245L24 9.5l-.475 1.373-.085.245-.068.198-.237.684H22a.997.997 0 0 0-1.188-.982 1 1 0 1 0 .965 1.611l.223.038.26.043.595.1-.188.542-.143.413-.07.205a10.1 10.1 0 0 0-4.117 1.609l-2.534-1.115-2.391-1.052 1.052 2.39 1.115 2.535a10.122 10.122 0 0 0-1.609 4.116l-.205.071-.413.143-.543.188-.099-.594-.043-.261-.037-.223a.998.998 0 0 0 .014-1.542A1 1 0 1 0 12 22v1.135l-.684.237-.198.068-.245.085L9.5 24l1.372.475.246.085.198.068.684.237V26a.998.998 0 0 0-.982 1.188 1 1 0 1 0 1.611-.965l.038-.223.043-.26.1-.595.542.188.413.143.205.07a10.065 10.065 0 0 0 1.609 4.117l-1.115 2.534-1.052 2.391 2.39-1.052 2.535-1.115a10.118 10.118 0 0 0 4.116 1.609l.071.205.142.41.189.546-.595.099-.23.038-.234.04a1.013 1.013 0 0 0-1.519-.05l-.014.015-.003.004a1.015 1.015 0 1 0 1.77.693V36h1.105l.002.007.003.008.232.67.068.197.101.292L24 38.5l.475-1.373.085-.245.068-.198.237-.684H26a.998.998 0 0 0 1.188.982 1 1 0 1 0-.965-1.611L26 35.333l-.26-.043-.595-.1.188-.542.143-.413.07-.205a10.098 10.098 0 0 0 4.117-1.609Zm6.54 1.457-1.795-4.081c.074-.132.145-.265.213-.4a2.765 2.765 0 0 0 3.898-3.536l.558-.193L43.897 24l-4.82-1.668-.557-.192a2.765 2.765 0 0 0-3.898-3.537c-.07-.135-.14-.268-.214-.4l1.796-4.08 1.827-4.154-4.153 1.828-4.08 1.795a11.852 11.852 0 0 0-.401-.213A2.765 2.765 0 0 0 25.86 9.48l-.192-.558L24 4.103l-1.668 4.82-.192.557a2.765 2.765 0 0 0-3.537 3.898c-.135.07-.268.14-.4.214l-4.08-1.796L9.969 9.97l1.828 4.154 1.795 4.08a10.21 10.21 0 0 0-.213.4A2.765 2.765 0 0 0 9.48 22.14l-.558.192L4.103 24l4.82 1.668.557.193a2.765 2.765 0 0 0 3.898 3.536c.07.135.14.268.214.4l-1.796 4.08-1.827 4.154 4.154-1.827 4.08-1.796c.133.075.268.146.405.216a2.78 2.78 0 0 0 3.543 3.928l.181.525L24 43.897l1.668-4.82.192-.557a2.765 2.765 0 0 0 3.537-3.898c.135-.07.268-.14.4-.214l4.08 1.796 4.154 1.827-1.827-4.153ZM24 32a7.963 7.963 0 0 0 4.167-1.17l.333-2.33 2.33-.333A7.963 7.963 0 0 0 32 24a7.963 7.963 0 0 0-1.17-4.167L28.5 19.5l-.333-2.33A7.962 7.962 0 0 0 24 16a7.962 7.962 0 0 0-4.167 1.17L19.5 19.5l-2.33.333A7.962 7.962 0 0 0 16 24c0 1.527.428 2.953 1.17 4.167l2.33.333.333 2.33A7.963 7.963 0 0 0 24 32Zm2.206-10.206a30.054 30.054 0 0 0-1.616-1.46.91.91 0 0 0-1.18 0 30.22 30.22 0 0 0-1.616 1.46 30.009 30.009 0 0 0-1.46 1.616.91.91 0 0 0 0 1.18 30.22 30.22 0 0 0 1.46 1.616 30.05 30.05 0 0 0 1.616 1.46.91.91 0 0 0 1.18 0 30.011 30.011 0 0 0 1.616-1.46 30.011 30.011 0 0 0 1.46-1.616.91.91 0 0 0 0-1.18 30.011 30.011 0 0 0-1.46-1.616Z"/></svg>