<svg viewBox="0 0 48 48" class="createSvgIcon__Svg-sc-1l8xi8d-0 loXvaP ability-icon"><path fill-rule="evenodd" clip-rule="evenodd" d="m13.883 11.056 4.103 4.517c.287.33.735.608 1.266.613l4.72.186.028.001.028-.001 4.793-.186c.532-.005.981-.285 1.269-.615l4.033-4.514.036.012c.318.106.906.343 1.36.752.306.275.619.764.781 1.036a.298.298 0 0 1-.044.359l-.593.613a.516.516 0 0 0-.098.57l1.176 2.594a.395.395 0 0 0 .532.197l.798-.385a.382.382 0 0 1 .507.164c.162.306.396.772.516 1.142.031.095.073.201.121.313a.28.28 0 0 1-.097.076l-.009.004-.008.005-5.156 2.591a2.717 2.717 0 0 0-.937.736l-6.123 7.496a.275.275 0 0 1-.172.1l-2.666.388a.323.323 0 0 1-.094 0l-2.666-.388a.275.275 0 0 1-.172-.1l-6.123-7.496a2.717 2.717 0 0 0-.937-.735l-5.156-2.592-.008-.005-.009-.004a.28.28 0 0 1-.097-.076c.048-.112.09-.218.12-.313.12-.37.355-.836.518-1.142a.382.382 0 0 1 .506-.164l.798.385c.2.096.44.008.532-.197l1.176-2.594a.515.515 0 0 0-.098-.57l-.593-.613a.298.298 0 0 1-.044-.36c.162-.271.475-.76.78-1.035.455-.409 1.043-.646 1.361-.752.014-.005.028-.01.042-.013ZM15.771 11l3.282 3.614.005.006.006.007c.088.101.175.125.205.125h.028l4.703.185 4.777-.185h.028c.029 0 .116-.024.204-.125l.007-.009L32.25 11H15.77Zm-8.378 6.663c-1.837-4.045-3.39-6.622-4.082-6.334-.414.172-.401 1.346-.042 3.182-.694.944.356 5.77 2.497 11.276 2.142 5.506 4.615 9.74 5.748 9.925.97 1.582 1.747 2.438 2.16 2.266.85-.353-.33-4.942-2.447-10.803 1.605.677 2.374 2.491 2.69 3.506.104.34.501.51.784.3.219-.161.454-.35.625-.53.237-.248.514-.647.648-.848a.1.1 0 0 1 .166-.004c.318.447 1.467 2.035 2.398 2.96.62.615 1.467 1.201 1.93 1.504.22.144.47.232.729.27l2.803.408 2.803-.408a1.8 1.8 0 0 0 .729-.27c.463-.303 1.31-.889 1.93-1.504.931-.925 2.08-2.513 2.398-2.96a.1.1 0 0 1 .166.004c.134.2.411.6.648.848.17.18.406.369.625.53.283.21.68.04.785-.3.315-1.015 1.084-2.829 2.688-3.506h.002c-2.117 5.861-3.298 10.45-2.449 10.803.415.172 1.191-.684 2.161-2.266 1.133-.184 3.607-4.42 5.748-9.925 2.14-5.506 3.19-10.332 2.497-11.276.36-1.836.372-3.01-.042-3.182-.691-.287-2.239 2.278-4.07 6.307l.057.578a1.4 1.4 0 0 1-.078.655 1.726 1.726 0 0 1-.86.925l-5.156 2.592-.008.004-.009.004c-.17.08-.323.2-.446.35l-6.122 7.496c-.27.33-.654.55-1.077.611l-2.666.389c-.169.024-.34.024-.508 0l-2.666-.389a1.71 1.71 0 0 1-1.077-.611l-6.122-7.496a1.282 1.282 0 0 0-.446-.35l-.009-.004-.008-.004-5.157-2.592a1.725 1.725 0 0 1-.852-.907 1.4 1.4 0 0 1-.079-.698l.063-.526Zm13.411-.146a.906.906 0 0 0-.701.335l-2.283 2.793a.946.946 0 0 0-.058 1.113l3.652 5.586a.91.91 0 0 0 .76.415h3.652a.91.91 0 0 0 .76-.415l3.652-5.586a.946.946 0 0 0-.058-1.113l-2.283-2.793a.906.906 0 0 0-.701-.335h-6.392Zm-1.144 3.786 1.572-1.924h5.536l1.572 1.924-3.003 4.593h-2.674l-3.003-4.593ZM24 11.931h-2.489c-.423 0-.8.273-.94.68l-.174.506a.507.507 0 0 0 .47.676h6.266a.507.507 0 0 0 .47-.676l-.174-.506a.998.998 0 0 0-.94-.68H24Z"/></svg>