<svg viewBox="0 0 48 48" class="createSvgIcon__Svg-sc-1l8xi8d-0 loXvaP ability-icon"><path fill-rule="evenodd" clip-rule="evenodd" d="M30 33.26c4.529-2.22 7.647-6.876 7.647-12.26 0-7.537-6.11-13.647-13.647-13.647S10.353 13.463 10.353 21c0 5.384 3.118 10.04 7.647 12.26v2.577C12.136 33.463 8 27.715 8 21c0-8.837 7.163-16 16-16s16 7.163 16 16c0 6.715-4.136 12.463-10 14.837v-2.576Zm-5-16.468a2.5 2.5 0 1 0-2 0V18.5a.5.5 0 0 0 .5.5h1a.5.5 0 0 0 .5-.5v-1.708ZM29.208 23a2.5 2.5 0 1 0 0-2H27.5a.5.5 0 0 0-.5.5v1a.5.5 0 0 0 .5.5h1.708ZM16.5 19.5a2.5 2.5 0 0 1 2.292 1.5H20.5a.5.5 0 0 1 .5.5v1a.5.5 0 0 1-.5.5h-1.708a2.5 2.5 0 1 1-2.292-3.5Zm6.953 4.69a.25.25 0 0 1 .242-.19h.61a.25.25 0 0 1 .242.19l.436 1.743a.25.25 0 0 0 .066.116l.4.4a.25.25 0 0 1 .067.122l.464 2.089a.25.25 0 0 0 .094.145l.892.67a.25.25 0 0 1 .058.06l.934 1.402a.25.25 0 0 1 .042.139v10.848a.25.25 0 0 1-.042.139l-.916 1.374a.25.25 0 0 0-.042.139V44a1 1 0 0 1-1 1h-4a1 1 0 0 1-1-1v-.424a.25.25 0 0 0-.042-.139l-.916-1.374a.25.25 0 0 1-.042-.139V31.076a.25.25 0 0 1 .042-.139l.934-1.401a.25.25 0 0 1 .058-.062l.892-.669a.25.25 0 0 0 .094-.145l.464-2.089a.25.25 0 0 1 .067-.123l.4-.399a.25.25 0 0 0 .066-.116l.436-1.744ZM22.5 33.5a1.5 1.5 0 0 1 3 0v6a1.5 1.5 0 0 1-3 0v-6Z"/></svg>