<svg viewBox="0 0 48 48" class="createSvgIcon__Svg-sc-1l8xi8d-0 loXvaP ability-icon"><path fill-rule="evenodd" clip-rule="evenodd" d="m26.924 42.006-.711-1.432c7.463-.987 13.374-6.898 14.36-14.361l1.433.711c-1.246 7.731-7.35 13.836-15.082 15.082Zm15.082-20.93-1.432.711c-.987-7.463-6.898-13.374-14.361-14.36l.711-1.433c7.731 1.246 13.836 7.35 15.082 15.082ZM21.787 40.574l-.711 1.432C13.345 40.76 7.24 34.656 5.994 26.924l1.432-.711c.987 7.463 6.897 13.374 14.361 14.36ZM7.427 21.787l-1.433-.711C7.24 13.345 13.344 7.24 21.076 5.994l.711 1.432c-7.463.987-13.374 6.897-14.36 14.361Zm1.618 1.049c.564-7.356 6.435-13.227 13.79-13.791L24 10.5l1.164-1.455c7.356.564 13.227 6.435 13.791 13.79L37.5 24l1.456 1.164c-.565 7.356-6.436 13.227-13.792 13.791L24 37.5l-1.164 1.456C15.48 38.39 9.609 32.52 9.045 25.163L10.5 24l-1.455-1.164ZM24 12a6 6 0 0 1 6 6 6 6 0 0 0-6 6 6 6 0 0 0-6-6 6 6 0 0 1 6-6Zm-6 18a6 6 0 0 1 0-12 6 6 0 0 0 6 6 6 6 0 0 0-6 6Zm12 0a6 6 0 0 0 0-12 6 6 0 0 1-6 6 6 6 0 0 1-6 6 6 6 0 0 0 12 0Zm0 0a6 6 0 0 0-6-6 6 6 0 0 0 6 6Z"/></svg>