<svg viewBox="0 0 48 48" class="createSvgIcon__Svg-sc-1l8xi8d-0 loXvaP ability-icon"><path fill-rule="evenodd" clip-rule="evenodd" d="M8.926 36h2.403V13H9.7v1.482L7.012 13H2v1.348l5.663 6.738L2 18.39v12.174l2.607.988L2 32.855V36h4.36l.651-2.066L8.926 36Zm12.507 0h1.426V13h-3.137l-1.1 1.258L17.399 13h-3.83v23h3.79l-.856-2.066L21.433 36Zm12.996 0h-4.44l-.53-2.201L27.22 36h-2.08V13h3.463l1.426 6.154L31.66 13h2.77v23Zm7.945 0h1.833L46 34.113v-4.537l-5.663-7.008L46 25.893v-3.37l-2.607-4.671L46 15.83V13h-1.67l-2.648 1.752L39.4 13h-2.73v23h1.59l3.096-1.438L42.374 36Z"/></svg>