<svg viewBox="0 0 48 48" class="createSvgIcon__Svg-sc-1l8xi8d-0 loXvaP ability-icon"><path fill-rule="evenodd" clip-rule="evenodd" d="M22.607 10.909c-.11-.229-.225-.465-.337-.71-.624-1.369-.221-2.597.907-2.255 1.127.342 1.127.282.905-.604-.221-.886.484-1.63 1.39-1.39.906.242.825 1.048.765 1.39-.06.342.08.524.846.705.765.181.503 2.134-.302 2.98-.806.845-.484 1.49 0 1.389.18-.037.273-.239.383-.477.187-.403.423-.912 1.207-.912 1.248 0 .826 1.41.483 1.872-.342.463.604 2.296 1.39.302.785-1.993 1.53-2.98 2.194-2.315.665.664 1.007.563 1.49 0 .483-.564 1.309-.343 1.49.14.181.484.06 1.108-.584 1.39-.644.282-.262.785.161.926.423.141.745.806-.805 1.59-1.55.786-2.456 2.236-1.228 1.974.47-.1.943-.363 1.403-.618.742-.412 1.45-.805 2.06-.47.962.53.948.774.909 1.42l-.003.05c-.028.473.481.418.972.365.22-.024.436-.047.598-.022.524.08 1.43.503 1.088 1.349-.15.368-.352.55-.517.696-.213.191-.362.324-.248.733.2.725.06 1.43-1.712 1.289-1.772-.141-3.161.302-1.933.886.554.263 1.087.215 1.55.174.564-.05 1.024-.092 1.29.45.21.43.084.66-.027.864-.143.265-.262.483.409 1.029 1.188.966 1.308 1.731.1 1.912-.834.125-.938.385-1.036.626-.044.108-.086.213-.192.3-.342.282-.765.584-2.255-.402-1.49-.987-2.094-.181-1.49.664.604.846.765 1.33.181 2.054-.237.295-.615.293-.925.292-.452-.002-.76-.004-.283.916.405.78 1.32 1.132 2.121 1.44.792.305 1.473.567 1.443 1.157-.026.52-.245.72-.43.89-.24.218-.425.387-.073 1.124.624 1.308-.403 2.094-1.45 1.329-.707-.517-.744-.483-.88-.356a.73.73 0 0 1-.348.195c-.604.16-1.55-.544-2.295-2.034-.517-1.032-.936-1.098-1.553-1.195-.274-.043-.587-.092-.964-.235-1.228-.463-3-.443-2.598.786.403 1.228.262 2.859-1.046 3.322-.657.232-.756.535-.852.828-.095.291-.187.572-.82.762-.81.245-.947-.16-1.134-.715-.106-.314-.228-.676-.497-.996-.637-.758-.567-.852-.105-1.481.078-.107.167-.228.266-.371.685-.987 1.068-2.759-.16-2.135-1.229.625-2.376 1.813-2.638 3.323-.047.273-.084.547-.12.815-.163 1.217-.31 2.314-1.35 2.628-.672.202-.756-.577-.819-1.153-.055-.51-.093-.86-.51-.217l-.191.299c-.74 1.158-1.04 1.625-1.802.527-.406-.585-.218-.809-.017-1.046.207-.245.426-.504.017-1.189-.68-1.14.45-1.948 1.169-2.464.132-.094.25-.179.341-.254.584-.483.302-1.832-.805-1.007-.263.196-.505.414-.73.617-.723.652-1.266 1.141-1.727.189-.168-.374.076-1.035.249-1.502.2-.54.303-.82-.43-.11-1.37 1.33-2.98.162-2.134-.865l.133-.161c.737-.893.94-1.138.692-1.671-.261-.564-.261-1.148 1.49-1.57 1.752-.423 4.067-1.49 2.457-1.954a64.381 64.381 0 0 0-.524-.147c-1.083-.302-1.108-.309-1.691-1.121a1.39 1.39 0 0 1-.282-.776c-.03-.328-.043-.47-1.168-.573-1.772-.161-1.087-1.651.181-1.812 1.269-.161.866-1.269-.745-1.128l-.134.012c-1.565.138-3.092.273-3.248-1.039-.069-.576.127-.843.257-1.022.176-.24.234-.32-.62-.77-1.49-.785-1.087-2.396.625-2.033.724.153.835-.18.94-.497.145-.431.278-.832 1.939.074 1.001.546 1.784 1.117 2.39 1.559 1.134.828 1.647 1.202 1.818.112.262-1.67.322-2.013.866-2.96.45-.784.43-.863.296-1.405a12.09 12.09 0 0 1-.095-.407c-.201-.946.383-1.51 1.691-1.087 1.205.39 1.386 1.018 1.659 1.963.023.082.047.166.073.252.322 1.087 1.49.946 1.47-.423-.02-1.369.362-1.973 1.47-.986.215.192.388.35.527.478.575.528.577.53.68.206.364-.645-.06-1.521-.569-2.572ZM25 17a1 1 0 0 1 1 1v4h4a1 1 0 0 1 1 1v2a1 1 0 0 1-1 1h-4v4a1 1 0 0 1-1 1h-2a1 1 0 0 1-1-1v-4h-4a1 1 0 0 1-1-1v-2a1 1 0 0 1 1-1h4v-4a1 1 0 0 1 1-1h2Z"/></svg>