<svg viewBox="0 0 48 48" class="createSvgIcon__Svg-sc-1l8xi8d-0 loXvaP ability-icon"><path fill-rule="evenodd" clip-rule="evenodd" d="M9 23h4.389A4.502 4.502 0 0 0 4.5 24a4.5 4.5 0 0 0 8.889 1H9a1 1 0 1 1 0-2Zm0-6a7.001 7.001 0 0 1 6.93 6H18v-5.652a.2.2 0 0 1 .3-.173L24 20.5l5.7-3.325a.2.2 0 0 1 .3.173V23h2.07A7.001 7.001 0 0 1 46 24a7 7 0 0 1-13.93 1h-2.136a1.58 1.58 0 0 1-.174.384l-1.845 2.951c-.274.44-.632.82-1.053 1.12l-2.403 1.717a.79.79 0 0 1-.918 0l-2.403-1.716a3.949 3.949 0 0 1-1.053-1.12l-1.845-2.952a1.578 1.578 0 0 1-.174-.384H15.93A7.001 7.001 0 0 1 2 24a7 7 0 0 1 7-7Zm30 8h-4.389a4.502 4.502 0 0 0 8.889-1 4.5 4.5 0 0 0-8.889-1H39a1 1 0 1 1 0 2Z"/></svg>