<svg viewBox="0 0 48 48" class="createSvgIcon__Svg-sc-1l8xi8d-0 loXvaP ability-icon"><path fill-rule="evenodd" clip-rule="evenodd" d="M7.686 24.397 23.5 40.88l15.813-16.483a9.65 9.65 0 0 0-.078-13.443c-3.782-3.851-9.988-3.851-13.77 0l-1.965 2-1.964-2c-3.783-3.851-9.989-3.851-13.771 0a9.65 9.65 0 0 0-.079 13.443Zm15.988 7.454a9.678 9.678 0 0 1 7.677-7.677c.199-.05.199-.348 0-.348a9.678 9.678 0 0 1-7.677-7.676c-.05-.2-.299-.2-.348 0a9.678 9.678 0 0 1-7.677 7.676c-.199.05-.199.299 0 .348a9.678 9.678 0 0 1 7.677 7.677c.05.199.299.199.348 0Z"/></svg>