<svg viewBox="0 0 48 48" class="createSvgIcon__Svg-sc-1l8xi8d-0 loXvaP ability-icon"><path fill-rule="evenodd" clip-rule="evenodd" d="M40.412 25.628c0 3.058-.837 5.92-2.294 8.372h1.398a17.548 17.548 0 0 0 2.111-8.372C41.627 15.892 33.735 8 24 8S6.373 15.892 6.373 25.628c0 3.03.764 5.881 2.111 8.372h1.398a16.335 16.335 0 0 1-2.294-8.372c0-9.064 7.348-16.412 16.412-16.412s16.412 7.348 16.412 16.412Zm-2.432 0c0 3.14-1.035 6.038-2.783 8.372h-3.242a11.516 11.516 0 0 0 3.594-8.372c0-4.696-2.802-8.736-6.824-10.542l-1.511-3.068c6.172 1.452 10.766 6.994 10.766 13.61Zm-27.96 0c0 3.14 1.035 6.038 2.783 8.372h3.242a11.516 11.516 0 0 1-3.594-8.372c0-4.707 2.816-8.756 6.854-10.555l1.52-3.064c-6.191 1.438-10.805 6.99-10.805 13.619Zm14.001 7.294c1.022-6.6 2.044-10.218 5.62-10.473l-5.62-11.41-5.662 11.41c3.619.255 4.64 3.874 5.662 10.473ZM9.295 36a.25.25 0 0 0-.246.291l.416 2.5a.25.25 0 0 0 .247.209h28.576a.25.25 0 0 0 .247-.209l.417-2.5a.25.25 0 0 0-.247-.291H9.295Z"/></svg>