<svg viewBox="0 0 48 48" class="createSvgIcon__Svg-sc-1l8xi8d-0 loXvaP ability-icon"><path fill-rule="evenodd" clip-rule="evenodd" d="M25.173 7.35a1.466 1.466 0 1 1-2.932 0 1.466 1.466 0 0 1 2.932 0Zm4.104 5.57a1.759 1.759 0 1 1-3.518 0 1.759 1.759 0 0 1 3.518 0Zm-8.795 1.173a1.173 1.173 0 1 0 0-2.345 1.173 1.173 0 0 0 0 2.345Zm10.944 3.72a9.263 9.263 0 0 1 1.878 5.607 9.304 9.304 0 0 1-18.608 0 9.26 9.26 0 0 1 1.878-5.606L6.117 9.403c-.391 1.172.176 4.808 2.052 6.45a325.2 325.2 0 0 0 2.385 2.061c.808.694 1.491 1.28 2.012 1.75v2.052l-5.748-4.398c.196 1.466.996 4.761 2.755 6.227a43.437 43.437 0 0 0 2.624 2.007l.37.268v2.346L8.755 24.94c-.195 1.954 1.35 5.836 3.401 7.329 1.3.945 3.502 2.798 5.767 4.703 2.232 1.878 4.525 3.808 6.077 4.971 1.552-1.164 3.845-3.093 6.077-4.97 2.265-1.906 4.467-3.76 5.766-4.704 2.053-1.493 3.597-5.375 3.402-7.33l-3.811 3.225V25.82a84.05 84.05 0 0 0 2.931-2.345c1.718-1.432 2.131-4.542 2.332-6.052l.014-.105-5.277 4.398v-2.053c.52-.469 1.204-1.055 2.012-1.749l.001-.001c.707-.607 1.51-1.295 2.384-2.06 1.876-1.643 2.443-5.278 2.052-6.45l-10.457 8.41ZM24 30.512a7.036 7.036 0 1 0 0-14.072 7.036 7.036 0 0 0 0 14.072Z"/></svg>