<svg viewBox="0 0 48 48" class="createSvgIcon__Svg-sc-1l8xi8d-0 loXvaP ability-icon"><path fill-rule="evenodd" clip-rule="evenodd" d="M19 11.5c1.134-.378 4.055-.747 5-.747.945 0 3.866.369 5 .747l-.5 1.5 8.055-6.308c.945.472 1.323 1.796.945 3.308-.11.442-.287 1.029-.487 1.693-.656 2.174-1.56 5.174-1.198 6.622.133.532.266.876.367 1.14.26.672.313.81-.367 2.168-.945 1.89-.945 2.836-.945 4.254 0 1.418 0 2.363-1.418 3.308l-.147.098c-1.516 1.005-5.098 3.38-6.47 8.409C26.233 39.903 25.419 41 24 41s-2.232-1.097-2.836-3.308c-1.37-5.028-4.953-7.404-6.469-8.41l-.147-.097c-1.418-.945-1.418-1.89-1.418-3.308s0-2.363-.945-4.254c-.68-1.359-.626-1.497-.367-2.169.101-.263.234-.607.367-1.139.362-1.448-.542-4.448-1.197-6.622-.2-.664-.377-1.25-.488-1.693-.378-1.512 0-2.836.945-3.308L19.5 13l-.5-1.5Zm-7.288-3.11 4.254 4.254c.157.63.189 2.08-.945 2.835 0-.945-.842-1.8-1.521-2.479-.945-.945-1.788-3.35-1.788-4.61Zm3.666 13.947.115.704c.394 2.363.708 2.992 1.89 3.78 1.418.946 3.781 3.31 5.672 9.453-.158-1.733-.945-6.05-2.836-9.452-.59-1.063-.941-2.816-1.41-5.158l-.008-.04c-.53.53-.465 1.06-.39 1.675.06.48.125 1.01-.082 1.633-.473-.473-.95-1.438-1.418-3.309-.386-1.543-2.048-3.15-2.836-3.78.846 1.69.998 2.625 1.303 4.494ZM36.288 8.39l-4.254 4.254c-.157.63-.189 2.08.946 2.835 0-.945.841-1.8 1.52-2.479.945-.945 1.788-3.35 1.788-4.61Zm-3.666 13.948-.115.703c-.394 2.363-.708 2.992-1.89 3.78-1.418.946-3.781 3.31-5.672 9.453.158-1.733.945-6.05 2.836-9.452.59-1.063.941-2.816 1.41-5.158l.008-.04c.53.53.465 1.06.39 1.675-.06.48-.125 1.01.082 1.633.473-.473.95-1.438 1.418-3.309.386-1.543 2.048-3.15 2.836-3.78-.846 1.69-.998 2.625-1.303 4.494Z"/></svg>