<svg viewBox="0 0 48 48" class="createSvgIcon__Svg-sc-1l8xi8d-0 loXvaP ability-icon"><path d="M24 42c-9.938 0-18-8.062-18-18S14.062 6 24 6s18 8.062 18 18-8.062 18-18 18Zm0-33.465C15.482 8.535 8.535 15.482 8.535 24S15.482 39.465 24 39.465 39.465 32.518 39.465 24 32.518 8.535 24 8.535Z"/><path d="m23.696 30.54 6.287-2.737L29.78 24l-2.94-7.504 4.512 6.997.66 4.158 2.838 2.788a12.695 12.695 0 0 0 1.775-6.49c0-3.042-1.115-5.881-2.89-8.062l-1.927 4.868.406-6.389c-2.231-1.876-5.07-3.042-8.214-3.042-.558 0-1.065.05-1.572.101L24 14.67l-.507 7.708-1.673-7.251-3.347-2.485c-2.13 1.065-3.955 2.688-5.172 4.716 0 0 0 .05-.05.05l1.622 3.398-2.282-2.08A12.34 12.34 0 0 0 11.425 24c0 .862.102 1.724.254 2.535l4.969-1.52 3.397-7.505-1.014 8.417-5.578 4.918a12.669 12.669 0 0 0 2.536 2.89l2.991-3.55-1.825 4.412c1.977 1.268 4.31 2.028 6.845 2.028 1.724 0 3.346-.355 4.867-.963l-1.014-2.282 2.028 1.775a9.641 9.641 0 0 0 2.231-1.521L30.49 30.54h-6.794Z"/></svg>