<svg viewBox="0 0 48 48" class="createSvgIcon__Svg-sc-1l8xi8d-0 loXvaP ability-icon"><path fill-rule="evenodd" clip-rule="evenodd" d="M21.244 11.318c-.145-2.03-.55-3.434-2.712-5.318 5.159 0 12.97 1.481 13.3 9.126.073 1.682-.18 3.09-.617 4.328-3.147-1.58-7.217-.977-8.98-.44 1.161.624 2.322 1.248 3.267 4.382.09.289.04.697-.088 1.214-.208.293-.46.597-.723.913-.176.212-.357.43-.531.652l-.102.13c-.45.576-1.032 1.355-1.474 2.407-.451 1.072-.714 2.314-.714 3.83 0 1.414.29 2.643.771 3.695-3.038-1.353-5.988-3.91-6.297-8.255-.297-4.175 1.275-7.076 2.719-9.741 1.228-2.265 2.363-4.36 2.18-6.923Zm-2.536-.813c-1.774-1.179-4.284-1.222-6.321-.87 1.439 1.015 1.543 1.628 1.75 2.855.264 1.556-.314 2.92-.937 4.39-.727 1.716-1.515 3.577-1.095 6.054a5.384 5.384 0 0 0 1.797 3.235c.185-3.532 1.526-6.234 2.698-8.433l.206-.387c1.341-2.51 2.147-4.018 2.016-5.857a9.237 9.237 0 0 0-.114-.988Zm14.53 23.674c1.376-2.533 2.579-6.322 2.722-8.179H41v16h-5.097L33 38c-.43-.731-.764-1.965.239-3.821ZM31.568 42c-8.49-1.23-14.886-6.33-16.319-9.397l-.144-.304C14.587 31.217 14.13 30.26 14 29c-1.232-.703-2.456-2.156-3-3H6.855v16h24.712Zm-.593-3.05c-1.214-1.221-1.214-1.831-1.214-3.052 0-1.573.78-2.8 1.619-4.12.972-1.53 2.023-3.184 2.023-5.642 0-4.577-5.159-5.492-6.98-5.492.607.61 1.214 1.22 1.214 3.356 0 1.7-.719 2.61-1.49 3.586-.89 1.127-1.848 2.34-1.848 4.956 0 4.882 4.552 6.407 6.676 6.407Z"/></svg>