<svg viewBox="0 0 48 48" class="createSvgIcon__Svg-sc-1l8xi8d-0 loXvaP ability-icon"><path fill-rule="evenodd" clip-rule="evenodd" d="M33.666 7c-.015 0-.023 0-.03.003-.01.003-.019.011-.038.03l-4.475 2.91-2.237 1.455-1.187.778c-.017 0-.025.009-.034.017-.008.008-.017.017-.034.017h-3.525c-.015 0-.023 0-.03-.003-.01-.003-.018-.011-.038-.03l-1.119-.711-2.203-1.455-4.543-2.977c-.02-.02-.027-.028-.037-.031C14.128 7 14.12 7 14.106 7c-.102 0-.17.101-.102.203l2.644 3.755 1.187 1.692 3.593 5.108c.034.034.068.068.102.068h4.813c.034 0 .068-.034.102-.068l3.627-5.21 1.187-1.691 2.576-3.688c0-.068-.068-.169-.17-.169Zm3.491 15.765 2.068.034c-.44-4.466-2.814-8.356-6.271-10.86l-1.187 1.692a13.165 13.165 0 0 1 5.39 9.134Zm-21.085-9.033-1.153-1.657c-3.39 2.503-5.695 6.36-6.135 10.724l2.067-.034a13.21 13.21 0 0 1 5.221-9.033Zm2.644 22.7a13.1 13.1 0 0 0 5.288 1.117c1.865 0 3.661-.406 5.289-1.116l.678 1.928a15.286 15.286 0 0 1-5.967 1.218c-2.102 0-4.136-.44-5.966-1.218l.678-1.928ZM39.259 24.83l5.288.068c.17 0 .204.203.034.27l-5.627 2.131-2.305.88-.882.338c-.033 0-.067 0-.067.034l-1.017 1.421-1.017 1.421c-.034.034-.034.034-.034.068l-.068 1.962-.102 2.842-.17 4.6c0 .102-.067.136-.135.136-.067 0-.101-.034-.135-.102l-1.22-3.484-.679-1.962-2.373-6.699c-.034-.034-.034-.067 0-.101l1.424-1.895 1.39-1.962c.034-.034.068-.068.102-.068l5.56.068 2.033.034Zm-20.035 3.823-1.39-1.963-1.39-1.962c-.033-.034-.067-.067-.1-.067l-5.594.135-2.034.034-5.289.067c-.135 0-.17.203-.034.237L9.021 27.3l2.305.88.881.337c.017 0 .026.009.034.017.009.009.017.017.034.017l1.017 1.421 1.017 1.421c0 .017.009.025.017.034.008.008.017.017.017.034l.068 1.962.101 2.842.17 4.6c0 .068.068.136.136.136.034 0 .101-.034.135-.102l1.22-3.484.679-1.962 2.372-6.665a.103.103 0 0 0 0-.135Zm2.747-7.815h4.034l2.034 3.484-2.035 3.485H21.97l-2-3.485 2-3.484Z"/></svg>