<svg viewBox="0 0 48 48" class="createSvgIcon__Svg-sc-1l8xi8d-0 loXvaP ability-icon"><path fill-rule="evenodd" clip-rule="evenodd" d="M38 24.115V24c0-6.99-5.116-12.785-11.806-13.839C25.23 10.01 24 9.221 24 8.244V6.497a.2.2 0 0 0-.29-.18C18.302 9.076 10.064 14.632 10 23.89V24c0 6.338 4.206 11.693 9.977 13.423l-2.51-7.597-.005-.015 1.213-.387-1.213.386v-.002l-.002-.004-.003-.009-.006-.02a6.696 6.696 0 0 1-.064-.22 11.456 11.456 0 0 1-.367-2.226c-.079-1.26.012-3.387 1.399-5.181a157.388 157.388 0 0 1 2.956-3.694l.222-.27.082-.099.908.752-.908-.752 2.328-2.808 2.306 2.826.297.365a388.192 388.192 0 0 1 2.932 3.658c1.411 1.793 1.515 3.924 1.44 5.193a11.319 11.319 0 0 1-.41 2.4l-.017.055-.007.021-.003.009-.001.004v.002s-.001.001-1.476-.47l1.475.471-.006.018-3.421 10.276c5.052-3.093 10.827-8.246 10.883-15.99ZM23.988 20s-1.751 2.112-3.196 3.982c-1.445 1.87-.473 4.917-.473 4.917L23.99 40l3.696-11.101s.973-3.047-.5-4.917C25.712 22.112 23.989 20 23.989 20Z"/></svg>