<svg viewBox="0 0 48 48" class="createSvgIcon__Svg-sc-1l8xi8d-0 loXvaP ability-icon"><path d="m46 30.6-3.96 2.2 1.1-1.76h-1.98l-1.54-2.42 2.42-.22-14.96-6.38.22 2.86-4.085-1.72a7.238 7.238 0 0 0 1.764-3.55l.121-.23 1.76-.22-1.76-1.1-.004-.013a7.245 7.245 0 0 0-.313-1.896l.317-.95h-.684a7.23 7.23 0 0 0-.416-.765V11.9l-2.354.196a7.225 7.225 0 0 0-4.044-1.072l-1.522-.444-1.54-.44-.22 1.76-2.42 1.32-1.54-1.76.66-1.32 1.1.22-.44-7.92 4.4 5.28 1.54-3.52 1.32 3.96L20.7 6.4l.44 1.76L24 4.2v4.62l7.48-5.5L25.76 13h5.28l-3.52 3.52 6.82 3.96-4.62.66 12.32 4.84-1.32-2.2 1.98-3.08 3.3 3.96v5.94Zm-25.674-5.497a7.21 7.21 0 0 1-1.082.301l4.536 7.836-1.1-5.94H24l-1.76-3.08-.66 1.98-1.254-1.097Zm-6.011-.475a7.21 7.21 0 0 0 2.25.8L14.98 30.38l-.88-3.74-7.48 6.82 3.08-9.02-4.18.22 1.98-1.54-.88-.22 4.192-2.794a7.26 7.26 0 0 0 2.304 3.687l-.776 1.747 1.975-.912ZM21.58 45.56h-5.72l22-13.86 1.54 2.42-17.82 11.44Zm-12.1-26.4-.88-1.54-1.32 1.1 2.2.44Zm7.04 11.44 1.76-4.4 1.32 2.86-1.1 5.06-1.98-3.52Zm4.4 7.26.66-1.32.66 1.32h-1.32ZM7.5 12.12l3.08 3.52-4.84-.44L2 11.24l5.5.88Z"/><path d="M23.12 18.28a5.28 5.28 0 1 1-10.56 0 5.28 5.28 0 0 1 10.56 0Zm19.8-.88-2.42 3.08-.22-2.64 2.64-.44Z"/></svg>