<svg viewBox="0 0 48 48" class="createSvgIcon__Svg-sc-1l8xi8d-0 loXvaP ability-icon"><path d="M10.659 7.906 8.753 6.212c-.212.211-.593.847-.424 1.694h2.33Zm4.871 1.059c2.88 1.355 3.74 2.964 3.811 3.6-4.023-.424-6.988-1.271-7.2-2.118-.17-.678-.776-1.835-1.059-2.33.283-.282 1.567-.508 4.447.848Z"/><path fill-rule="evenodd" clip-rule="evenodd" d="m24 12.141-6.141 2.965-.212 1.694-6.353-1.059-4.659-4.87L6 15.529l2.33 4.236h2.117l-1.906 2.329 1.906 7.2L16.8 39.882l1.825.664 1.561-1.873-.036-2.715c-.235.05-.46.096-.67.132-.356.06-.701.098-1.02.072a1.864 1.864 0 0 1-.547-.122c-.2-.08-.39-.22-.56-.377a5.345 5.345 0 0 1-.532-.577 15.502 15.502 0 0 1-1.07-1.545 40.654 40.654 0 0 1-1.66-2.999c-.285-.57-.451-1.332-.548-2.02a13.504 13.504 0 0 1-.131-1.77v-.203l1.32-1.056 2.94-.21 1.862-1.863L21.459 25h5.106l1.901-1.58 1.863 1.863 2.938.21 1.321 1.056v.204c0 .406-.033 1.072-.131 1.769-.097.688-.263 1.45-.549 2.02-.32.641-.962 1.871-1.66 2.998-.348.563-.716 1.11-1.07 1.546a5.345 5.345 0 0 1-.53.577 1.949 1.949 0 0 1-.561.377c-.176.07-.36.108-.547.122-.319.026-.664-.012-1.02-.072-.21-.036-.435-.082-.67-.132l-.036 2.715 1.56 1.873 1.826-.664 6.353-10.588 1.906-7.2-1.906-2.33h2.118L42 15.53l-.635-4.659-4.66 4.871-6.352 1.059-.212-1.694L24 12.14Zm0 11.012-2.965-1.694h-3.388l-3.388 1.906 2.965-2.753 2.329-3.812 1.694 1.482-1.482-.212-1.694 2.542h2.964L24 22.306l2.965-1.694h2.964l-1.694-2.541-1.482.211 1.694-1.482 2.33 3.812 2.964 2.753-3.388-1.906h-3.388L24 23.153Z"/><path d="m28.529 40.854-1.566-1.88.043-3.196c-.855-.176-1.848-.343-3.006-.343-1.158 0-2.15.167-3.006.343l.043 3.196-1.566 1.88 1.988.722 2.541.212 2.541-.212 1.988-.722ZM10.87 10.023l-.211-1.058-.636.635.848.423Zm26.471-2.117 1.906-1.694c.212.211.593.847.424 1.694h-2.33ZM32.47 8.965c-2.88 1.355-3.74 2.964-3.811 3.6 4.023-.424 6.988-1.271 7.2-2.118.17-.678.776-1.835 1.059-2.33-.283-.282-1.567-.508-4.447.848Zm4.66 1.058.211-1.058.636.635-.848.423ZM21.088 25.906l-1.516-1.326-1.253 1.253.386 1.931.01.355 2.175 1.744a9.193 9.193 0 0 1-.067-.992c0-.644.446-1.084.612-1.247l.024-.024.847.635h3.388l.847-.635.012.011.012.012c.166.164.611.604.611 1.247 0 .317-.029.662-.066.993l2.176-1.744.01-.355.385-1.93-1.253-1.254-1.516 1.326h-5.824Z"/><path d="M24 30.776c-.282 0-1.017.085-1.694.424-.847.423-1.27 0-1.27 0l-.361-.424-1.931-1.547.162 6.084a5.74 5.74 0 0 0 .432-.058c.27-.046.567-.11.902-.183.077-.016.156-.034.237-.05.942-.203 2.116-.434 3.523-.434s2.58.231 3.523.433l.237.051c.335.073.631.137.902.183.159.027.302.046.432.057l.162-6.083-1.93 1.547-.361.424s-.424.423-1.27 0A4.238 4.238 0 0 0 24 30.776Zm-6.483-4.633.343 1.716.195 7.289a1.932 1.932 0 0 1-.131-.11 4.513 4.513 0 0 1-.444-.485c-.322-.397-.668-.91-1.008-1.458a39.812 39.812 0 0 1-1.623-2.932c-.222-.445-.374-1.096-.467-1.76a13.064 13.064 0 0 1-.12-1.449l.794-.635 2.46-.176Zm12.966 0-.343 1.716-.195 7.289c.04-.03.083-.067.131-.11.134-.123.283-.286.444-.485.322-.397.668-.91 1.008-1.458a39.812 39.812 0 0 0 1.623-2.932c.222-.445.374-1.096.467-1.76.078-.547.111-1.074.12-1.449l-.794-.635-2.46-.176Z"/></svg>