<svg viewBox="0 0 48 48" class="createSvgIcon__Svg-sc-1l8xi8d-0 loXvaP ability-icon"><path d="M4.635 12.493 4 14v4.5l1.685 6.066 2.1 1.05-1.05-2.625L5.5 18.5l-.34-3.382.525-1.575.525-6.298L9.5 4 5.16 6.72l-.525 5.773ZM8.834 28.24l-1.05 3.674 1.575 2.624.525 2.1 6.298 4.223L17.5 40.5l3-2-3.793.787-5.774-3.7-.525-2.624-1.05-1.574-.524-3.15Z"/><path d="m15.302 4.675-3.283-.491-3.684 3.308-1.397 8.77 1.795 8.744 2.003 2.314-.065 2.675.362 2.068 1.486 2.404 4.252 2.987 5.17-.904 2.224-2.52.13-5.352-1.345 4.498-2.269 2.262-3.619.633-2.384-1.448-2.004-2.314-.542-3.102.155-2.159-2.003-2.313-1.705-8.228.97-8.162 3.168-3.218 2.585-.452Z"/><path fill-rule="evenodd" clip-rule="evenodd" d="m19.938 34.236-2.585.452-2.52-2.224-1.486-2.404.492-3.283-2.702-3.257-1.446-8.273 1.5-6.656 2.404-1.486 1.551-.271 1.642.246 2.61 2.74.362 2.068 1.305 1.37-.285 7.51-1.435 3.98.18 1.035 2.094 2.83.181 1.035-.582 2.766-1.28 1.822ZM16.542 8.72l.879 1.978-5.17.904.245-1.642.854-1.215 2.068-.361 1.124.336Zm1.757 3.955-6.204 1.085-.155 2.159 7.238-1.266-.879-1.978Zm.633 3.62-6.72 1.175.36 2.068 6.205-1.085.155-2.159Zm-6.088 4.794 5.687-.995.181 1.035-.763 1.731-3.619.633-1.486-2.404Zm6.436 6.334.788 1.46-.065 2.676-.853 1.215-1.551.271-1.913-1.796-.788-1.461.246-1.642 4.136-.723Z"/><path d="M32.453 8.295 35.5 7l5.35 3.919L44 19.317 43 28.5l-.05-8.658-3.149-7.873-4.724-3.674h-2.624Z"/><path d="m31.403 11.444 3.15-1.05 4.198 2.624L42 21.5l-.5 9-1.699 2.464.525 2.624v2.1l-1.05 2.624L35.5 44h-5l-2.77-2.114-1.05-5.248 2.099 4.199 2.624 1.836h3.674l2.1-1.837 1.574-2.624v-3.149l-.525-2.1 1.837-2.463v-8.559l-2.361-7.873-3.674-2.624h-2.625Z"/><path fill-rule="evenodd" clip-rule="evenodd" d="M31.928 41.361h2.624l2.1-2.624 1.05-2.624-1.05-3.15 2.1-3.674v-8.398l-2.625-6.298-2.624-1.05h-1.575l-1.575.525-2.099 3.15v2.099l-1.05 1.575 1.575 7.348 2.1 3.674v1.05l-1.575 3.149v1.05l1.05 2.624 1.574 1.574Zm-1.05-25.718-.525 2.1h5.25l-.526-1.575-1.05-1.05h-2.099l-1.05.525Zm-1.05 4.199h6.299l.525 2.1h-7.348l.525-2.1Zm0 3.674h6.824v2.1h-6.299l-.524-2.1Zm6.824 3.674h-5.774v1.05l1.05 1.574h3.674l1.05-2.624Zm-5.249 7.348-.525 1.575.525 2.624 1.05 1.05h1.575l1.574-2.1.525-1.574-.525-1.575h-4.199Z"/></svg>