<svg viewBox="0 0 48 48" class="createSvgIcon__Svg-sc-1l8xi8d-0 loXvaP ability-icon"><path fill-rule="evenodd" clip-rule="evenodd" d="m12.5 23.5 5.546-3.073a8.595 8.595 0 0 0 3.287 1.972l1.025 5.423a.27.27 0 0 0-.009 0l.338 1.803h.012L24 36.5l1.193-6.877h.01l.31-1.804h-.007l.927-5.347a8.622 8.622 0 0 0 5.269-4.42L41 20.427l-8.41-5.775a8.683 8.683 0 0 0-.278-2.648L35 10l-3.55-.079a8.632 8.632 0 0 0-1.252-1.661L32 3.5 27 6l-2.924-3-1.33 2.712a8.573 8.573 0 0 0-.438.075L18 1l1.345 5.989a8.639 8.639 0 0 0-3.038 3.385L9 10l5.947 3.316L13.5 15l1.96.24c.045.383.115.758.21 1.124L12.5 23.5Zm6.974-9.279c0-.247.02-.49.058-.725l1.964-.18-1.21-1.683a4.526 4.526 0 1 1 3.79 7.114V16l-2.684 1.921a4.52 4.52 0 0 1-1.918-3.7Z"/><path d="M16.714 28.255a53.04 53.04 0 0 1 1.539-.175l.335 1.786c-.93.09-1.835.202-2.708.335-1.508.47-2.66.662-3.719.838-.42.07-.824.137-1.231.218-.814.232-1.579.484-2.29.754-1.927.733-3.362 1.56-4.283 2.388-.922.828-1.178 1.508-1.178 2.001 0 .493.256 1.173 1.178 2 .452.407 1.028.813 1.725 1.208a63.94 63.94 0 0 0 1.458.285c1.986.371 3.321.62 7.86 2.617l.048.022c2.607.42 5.497.657 8.552.657 3.062 0 5.957-.238 8.568-.66 3.794-1.847 5.82-2.137 7.287-2.347.59-.085 1.091-.156 1.58-.312.918-.476 1.655-.973 2.208-1.47.922-.827 1.178-1.507 1.178-2 0-.493-.256-1.173-1.178-2-.92-.828-2.356-1.656-4.283-2.389a23.986 23.986 0 0 0-.354-.131c-.824-.26-1.833-.456-2.889-.662-.413-.08-.834-.162-1.254-.25-.81-.169-1.616-.344-2.36-.506a100.52 100.52 0 0 0-2.608-.547 52.588 52.588 0 0 0-.598-.06l.308-1.79c.788.077 1.56.17 2.313.276.528.027 1.07.019 1.623.01 2.283-.033 4.769-.07 7.372 2.334 3.557 1.52 5.719 3.521 5.719 5.715 0 4.75-10.133 8.6-22.632 8.6-12.5 0-22.632-3.85-22.632-8.6 0-2.27 2.314-4.334 6.094-5.871l.017-.013c2.254-1.803 5.63-2.035 9.235-2.26Z"/></svg>