<svg width="24" height="24" fill="none" xmlns="http://www.w3.org/2000/svg"><path fill-rule="evenodd" clip-rule="evenodd" d="M5.4 5.4c1.82-1.82 2.3-2.242 2.844-2.467.544-.225 1.18-.266 3.756-.266 2.574 0 3.212.04 3.755.266.544.225 1.024.647 2.844 2.467 1.821 1.82 2.242 2.3 2.468 2.844.225.544.266 1.181.266 3.756 0 2.575-.041 3.212-.266 3.756-.226.543-.647 1.023-2.468 2.844-1.82 1.82-2.3 2.242-2.844 2.467-.543.225-1.18.266-3.755.266s-3.212-.041-3.756-.266c-.543-.225-1.023-.647-2.844-2.467-1.82-1.821-2.242-2.301-2.467-2.844-.225-.544-.267-1.181-.267-3.756 0-2.575.042-3.212.267-3.756.225-.543.646-1.023 2.467-2.844ZM3.75 3.75C5.436 2.064 6.28 1.221 7.351.777 8.423.333 9.615.333 12 .333c2.384 0 3.576 0 4.648.444 1.072.444 1.915 1.287 3.601 2.973s2.53 2.53 2.973 3.601c.444 1.072.444 2.265.444 4.649s0 3.576-.444 4.648c-.444 1.073-1.287 1.916-2.973 3.602s-2.529 2.529-3.6 2.973c-1.073.444-2.265.444-4.65.444-2.384 0-3.576 0-4.648-.444-1.072-.444-1.915-1.287-3.6-2.973-1.687-1.686-2.53-2.53-2.974-3.602C.333 15.576.333 14.384.333 12s0-3.577.444-4.649 1.287-1.915 2.973-3.6Zm6.791 12.625a1.458 1.458 0 1 0 2.917 0 1.458 1.458 0 0 0-2.917 0Zm.31-4.01a1.15 1.15 0 0 0 2.297 0l.237-4.742a1.387 1.387 0 1 0-2.77 0l.236 4.743Z" fill="#DD344A"/></svg>