<svg viewBox="0 0 32 24"><path d="M16.754 3.569 14.355 3 3 8.227l1.756 7.876h2.316l-.4-5.634.356-.107 1.392 5.741h2.407l-.09-6.863.356-.107 1.218 6.97h2.547l.124-1.709c-1.71-1.08-2.468-3.406-1.342-5.376l3.114-5.45Zm-.396 11.364.087 1.17h3.37l.112-1.1h-2.814c-.26 0-.513-.025-.755-.07Zm-3.947 4.395-.84-2.108 8.098.405L19.322 21l-6.91-1.672Z" fill="var(--shade0)"/><path fill-rule="evenodd" clip-rule="evenodd" d="M17.035 13.002c-1.56 0-2.538-1.685-1.764-3.04l4.965-8.689c.78-1.365 2.748-1.365 3.528 0l4.965 8.69c.774 1.354-.204 3.04-1.764 3.04h-9.93Zm5.981-6.085A1.01 1.01 0 0 1 22 7.92a1.01 1.01 0 0 1-1.016-1.003V4.86A1.01 1.01 0 0 1 22 3.856a1.01 1.01 0 0 1 1.016 1.003v2.058Zm0 3.048A1.01 1.01 0 0 1 22 10.968a1.01 1.01 0 0 1-1.016-1.003V9.94A1.01 1.01 0 0 1 22 8.936a1.01 1.01 0 0 1 1.016 1.003v.026Z" fill="var(--primary)"/></svg>